%FSLAX46Y46*%
G04 Gerber Fmt 4.6, Leading zero omitted, Abs format (unit mm)*
G04 Created by KiCad (PCBNEW (2014-09-02 BZR 5112)-product) date jeu. 26 mars 2015 23:29:14 CET*
%MOMM*%
G01*
G04 APERTURE LIST*
%ADD10C,0.150000*%
%ADD11R,1.270000X2.286000*%
%ADD12R,3.556000X2.159000*%
%ADD13R,0.635000X1.143000*%
%ADD14R,1.397000X0.889000*%
%ADD15R,0.889000X1.397000*%
%ADD16R,0.797560X0.797560*%
%ADD17R,2.032000X1.524000*%
%ADD18R,1.524000X2.032000*%
%ADD19R,0.900000X0.500000*%
%ADD20R,0.500000X0.900000*%
%ADD21R,1.800000X1.770000*%
%ADD22R,0.900000X1.200000*%
%ADD23C,0.254000*%
G04 APERTURE END LIST*
D10*
D11*
X121514000Y-70275000D03*
X123800000Y-70275000D03*
X126086000Y-70275000D03*
D12*
X123800000Y-63925000D03*
D13*
X128938000Y-70500000D03*
X130462000Y-70500000D03*
D14*
X118900000Y-68052500D03*
X118900000Y-66147500D03*
D15*
X127647500Y-63700000D03*
X129552500Y-63700000D03*
D16*
X139500000Y-64550700D03*
X139500000Y-66049300D03*
X141500000Y-64550700D03*
X141500000Y-66049300D03*
D17*
X146800000Y-83349000D03*
X146800000Y-86651000D03*
D18*
X149749000Y-86500000D03*
X153051000Y-86500000D03*
D19*
X139500000Y-67850000D03*
X139500000Y-69350000D03*
X141500000Y-67850000D03*
X141500000Y-69350000D03*
D20*
X121650000Y-75500000D03*
X120150000Y-75500000D03*
D17*
X127700000Y-82949000D03*
X127700000Y-86251000D03*
D18*
X116951000Y-86300000D03*
X113649000Y-86300000D03*
D21*
X119958000Y-86200000D03*
X124042000Y-86200000D03*
X119858000Y-78000000D03*
X123942000Y-78000000D03*
D22*
X152900000Y-53800000D03*
X152900000Y-56000000D03*
D23*
G36*
X125373000Y-64673000D02*
X120648652Y-64673000D01*
X116031516Y-60527000D01*
X122649394Y-60527000D01*
X124543605Y-62321515D01*
X125373000Y-62413670D01*
X125373000Y-64673000D01*
X125373000Y-64673000D01*
G37*
X125373000Y-64673000D02*
X120648652Y-64673000D01*
X116031516Y-60527000D01*
X122649394Y-60527000D01*
X124543605Y-62321515D01*
X125373000Y-62413670D01*
X125373000Y-64673000D01*
M02*
