M48
INCH,TZ
T1C0.031
T2C0.032
T3C0.032
T4C0.039
T5C0.055
T6C0.067
T7C0.091
T8C0.240
%
G90
G05
T1
X50315Y-25512
X67953Y-25512
T2
X47925Y-34409
X48925Y-34409
X51075Y-29291
X52075Y-29291
X52098Y-31339
X53098Y-31339
T3
X41339Y-36846
X41339Y-39846
X43307Y-36846
X43307Y-39846
X44957Y-24331
X45669Y-34327
X45669Y-37327
X47957Y-24331
X57976Y-23543
X58976Y-23543
X59976Y-23543
X69445Y-23465
X69445Y-27480
X72445Y-23465
X72445Y-27480
X74803Y-22492
X74803Y-23492
X74803Y-26508
X74803Y-27508
T4
X41041Y-46378
X41041Y-47402
X42041Y-46378
X42041Y-47402
X42841Y-46378
X42841Y-47402
X43841Y-46378
X43841Y-47402
X46850Y-30260
X46850Y-31260
X46850Y-32260
T5
X41339Y-29291
X41339Y-31260
X41339Y-33229
T6
X50827Y-16791
X50827Y-18957
X52481Y-16791
X52481Y-18957
X54134Y-16791
X54134Y-18957
X55788Y-16791
X55788Y-18957
X57441Y-16791
X57441Y-18957
X59095Y-16791
X59095Y-18957
X60748Y-16791
X60748Y-18957
X62402Y-16791
X62402Y-18957
X64055Y-16791
X64055Y-18957
X65709Y-16791
X65709Y-18957
T7
X39641Y-46207
X39641Y-48452
X45041Y-46207
X45041Y-48452
T8
X48425Y-40709
X48425Y-49764
X54724Y-40709
X54724Y-49764
X61024Y-40709
X61024Y-49764
X67323Y-40709
X67323Y-49764
X73622Y-40709
X73622Y-49764
T0
M30
