%FSLAX34Y34*%
G04 Gerber Fmt 3.4, Leading zero omitted, Abs format*
G04 (created by PCBNEW (2014-01-07 BZR 4610)-product) date sam. 19 avril 2014 12:35:58 CEST*
%MOIN*%
G01*
G70*
G90*
G04 APERTURE LIST*
%ADD10C,0.005906*%
%ADD11C,0.011811*%
%ADD12C,0.007874*%
%ADD13C,0.019685*%
%ADD14C,0.012000*%
%ADD15C,0.010000*%
%ADD16C,0.008000*%
%ADD17C,0.003000*%
%ADD18C,0.006000*%
%ADD19C,0.015000*%
%ADD20C,0.005000*%
%ADD21C,0.003500*%
G04 APERTURE END LIST*
G54D10*
G54D11*
X39199Y-15385D02*
X39273Y-14794D01*
X39452Y-15385D02*
X39491Y-15075D01*
X39469Y-15019D01*
X39417Y-14991D01*
X39332Y-14991D01*
X39273Y-15019D01*
X39241Y-15047D01*
X39698Y-14991D02*
X39923Y-14991D01*
X39807Y-14794D02*
X39744Y-15300D01*
X39765Y-15357D01*
X39817Y-15385D01*
X39874Y-15385D01*
X40035Y-14991D02*
X40260Y-14991D01*
X40144Y-14794D02*
X40081Y-15300D01*
X40102Y-15357D01*
X40155Y-15385D01*
X40211Y-15385D01*
X40457Y-14991D02*
X40383Y-15582D01*
X40454Y-15019D02*
X40513Y-14991D01*
X40626Y-14991D01*
X40679Y-15019D01*
X40703Y-15047D01*
X40724Y-15104D01*
X40703Y-15272D01*
X40668Y-15329D01*
X40636Y-15357D01*
X40577Y-15385D01*
X40464Y-15385D01*
X40411Y-15357D01*
X40918Y-15357D02*
X40970Y-15385D01*
X41083Y-15385D01*
X41143Y-15357D01*
X41178Y-15300D01*
X41181Y-15272D01*
X41160Y-15216D01*
X41107Y-15188D01*
X41023Y-15188D01*
X40970Y-15160D01*
X40949Y-15104D01*
X40953Y-15075D01*
X40988Y-15019D01*
X41048Y-14991D01*
X41132Y-14991D01*
X41185Y-15019D01*
X41427Y-15329D02*
X41452Y-15357D01*
X41420Y-15385D01*
X41396Y-15357D01*
X41427Y-15329D01*
X41420Y-15385D01*
X41466Y-15019D02*
X41491Y-15047D01*
X41459Y-15075D01*
X41434Y-15047D01*
X41466Y-15019D01*
X41459Y-15075D01*
X42201Y-14766D02*
X41600Y-15525D01*
X42819Y-14766D02*
X42218Y-15525D01*
X43241Y-14991D02*
X43181Y-15469D01*
X43146Y-15525D01*
X43115Y-15553D01*
X43055Y-15582D01*
X42971Y-15582D01*
X42918Y-15553D01*
X43196Y-15357D02*
X43136Y-15385D01*
X43023Y-15385D01*
X42971Y-15357D01*
X42946Y-15329D01*
X42925Y-15272D01*
X42946Y-15104D01*
X42981Y-15047D01*
X43013Y-15019D01*
X43072Y-14991D01*
X43185Y-14991D01*
X43238Y-15019D01*
X43473Y-15385D02*
X43522Y-14991D01*
X43547Y-14794D02*
X43515Y-14822D01*
X43540Y-14850D01*
X43572Y-14822D01*
X43547Y-14794D01*
X43540Y-14850D01*
X43719Y-14991D02*
X43944Y-14991D01*
X43828Y-14794D02*
X43765Y-15300D01*
X43786Y-15357D01*
X43839Y-15385D01*
X43895Y-15385D01*
X44092Y-15385D02*
X44166Y-14794D01*
X44345Y-15385D02*
X44384Y-15075D01*
X44363Y-15019D01*
X44310Y-14991D01*
X44225Y-14991D01*
X44166Y-15019D01*
X44134Y-15047D01*
X44928Y-14991D02*
X44879Y-15385D01*
X44675Y-14991D02*
X44637Y-15300D01*
X44658Y-15357D01*
X44711Y-15385D01*
X44795Y-15385D01*
X44855Y-15357D01*
X44886Y-15329D01*
X45160Y-15385D02*
X45234Y-14794D01*
X45206Y-15019D02*
X45266Y-14991D01*
X45378Y-14991D01*
X45431Y-15019D01*
X45456Y-15047D01*
X45477Y-15104D01*
X45456Y-15272D01*
X45421Y-15329D01*
X45389Y-15357D01*
X45329Y-15385D01*
X45217Y-15385D01*
X45164Y-15357D01*
X45702Y-15329D02*
X45726Y-15357D01*
X45695Y-15385D01*
X45670Y-15357D01*
X45702Y-15329D01*
X45695Y-15385D01*
X46233Y-15357D02*
X46173Y-15385D01*
X46060Y-15385D01*
X46008Y-15357D01*
X45983Y-15329D01*
X45962Y-15272D01*
X45983Y-15104D01*
X46018Y-15047D01*
X46050Y-15019D01*
X46110Y-14991D01*
X46222Y-14991D01*
X46275Y-15019D01*
X46567Y-15385D02*
X46514Y-15357D01*
X46489Y-15329D01*
X46468Y-15272D01*
X46489Y-15104D01*
X46524Y-15047D01*
X46556Y-15019D01*
X46616Y-14991D01*
X46700Y-14991D01*
X46753Y-15019D01*
X46777Y-15047D01*
X46799Y-15104D01*
X46777Y-15272D01*
X46742Y-15329D01*
X46711Y-15357D01*
X46651Y-15385D01*
X46567Y-15385D01*
X47017Y-15385D02*
X47066Y-14991D01*
X47059Y-15047D02*
X47090Y-15019D01*
X47150Y-14991D01*
X47234Y-14991D01*
X47287Y-15019D01*
X47308Y-15075D01*
X47270Y-15385D01*
X47308Y-15075D02*
X47343Y-15019D01*
X47403Y-14991D01*
X47488Y-14991D01*
X47540Y-15019D01*
X47561Y-15075D01*
X47523Y-15385D01*
X48303Y-14766D02*
X47702Y-15525D01*
X48472Y-14991D02*
X48409Y-15497D01*
X48373Y-15553D01*
X48314Y-15582D01*
X48285Y-15582D01*
X48496Y-14794D02*
X48465Y-14822D01*
X48489Y-14850D01*
X48521Y-14822D01*
X48496Y-14794D01*
X48489Y-14850D01*
X48932Y-15357D02*
X48873Y-15385D01*
X48760Y-15385D01*
X48707Y-15357D01*
X48686Y-15300D01*
X48714Y-15075D01*
X48750Y-15019D01*
X48809Y-14991D01*
X48922Y-14991D01*
X48974Y-15019D01*
X48996Y-15075D01*
X48989Y-15132D01*
X48700Y-15188D01*
X49210Y-15385D02*
X49259Y-14991D01*
X49245Y-15104D02*
X49280Y-15047D01*
X49312Y-15019D01*
X49372Y-14991D01*
X49428Y-14991D01*
X49660Y-15385D02*
X49607Y-15357D01*
X49583Y-15329D01*
X49562Y-15272D01*
X49583Y-15104D01*
X49618Y-15047D01*
X49649Y-15019D01*
X49709Y-14991D01*
X49794Y-14991D01*
X49846Y-15019D01*
X49871Y-15047D01*
X49892Y-15104D01*
X49871Y-15272D01*
X49836Y-15329D01*
X49804Y-15357D01*
X49744Y-15385D01*
X49660Y-15385D01*
X50110Y-15385D02*
X50159Y-14991D01*
X50152Y-15047D02*
X50184Y-15019D01*
X50243Y-14991D01*
X50328Y-14991D01*
X50381Y-15019D01*
X50402Y-15075D01*
X50363Y-15385D01*
X50402Y-15075D02*
X50437Y-15019D01*
X50497Y-14991D01*
X50581Y-14991D01*
X50634Y-15019D01*
X50655Y-15075D01*
X50616Y-15385D01*
X51126Y-15357D02*
X51066Y-15385D01*
X50954Y-15385D01*
X50901Y-15357D01*
X50880Y-15300D01*
X50908Y-15075D01*
X50943Y-15019D01*
X51003Y-14991D01*
X51115Y-14991D01*
X51168Y-15019D01*
X51189Y-15075D01*
X51182Y-15132D01*
X50894Y-15188D01*
X51432Y-15160D02*
X51882Y-15160D01*
X52219Y-15385D02*
X52166Y-15357D01*
X52145Y-15300D01*
X52208Y-14794D01*
X52697Y-15385D02*
X52736Y-15075D01*
X52715Y-15019D01*
X52662Y-14991D01*
X52549Y-14991D01*
X52490Y-15019D01*
X52701Y-15357D02*
X52641Y-15385D01*
X52500Y-15385D01*
X52447Y-15357D01*
X52426Y-15300D01*
X52433Y-15244D01*
X52469Y-15188D01*
X52528Y-15160D01*
X52669Y-15160D01*
X52729Y-15132D01*
X52978Y-15385D02*
X53052Y-14794D01*
X53024Y-15019D02*
X53084Y-14991D01*
X53196Y-14991D01*
X53249Y-15019D01*
X53274Y-15047D01*
X53295Y-15104D01*
X53274Y-15272D01*
X53238Y-15329D01*
X53207Y-15357D01*
X53147Y-15385D01*
X53035Y-15385D01*
X52982Y-15357D01*
X53513Y-15385D02*
X53562Y-14991D01*
X53586Y-14794D02*
X53555Y-14822D01*
X53579Y-14850D01*
X53611Y-14822D01*
X53586Y-14794D01*
X53579Y-14850D01*
X54047Y-15385D02*
X54121Y-14794D01*
X54050Y-15357D02*
X53991Y-15385D01*
X53878Y-15385D01*
X53825Y-15357D01*
X53801Y-15329D01*
X53780Y-15272D01*
X53801Y-15104D01*
X53836Y-15047D01*
X53868Y-15019D01*
X53927Y-14991D01*
X54040Y-14991D01*
X54093Y-15019D01*
X54630Y-14991D02*
X54581Y-15385D01*
X54377Y-14991D02*
X54339Y-15300D01*
X54360Y-15357D01*
X54412Y-15385D01*
X54497Y-15385D01*
X54557Y-15357D01*
X54588Y-15329D01*
X54862Y-15385D02*
X54912Y-14991D01*
X54898Y-15104D02*
X54933Y-15047D01*
X54964Y-15019D01*
X55024Y-14991D01*
X55080Y-14991D01*
X55228Y-15385D02*
X55277Y-14991D01*
X55302Y-14794D02*
X55270Y-14822D01*
X55295Y-14850D01*
X55326Y-14822D01*
X55302Y-14794D01*
X55295Y-14850D01*
X55738Y-15357D02*
X55678Y-15385D01*
X55565Y-15385D01*
X55513Y-15357D01*
X55492Y-15300D01*
X55520Y-15075D01*
X55555Y-15019D01*
X55615Y-14991D01*
X55727Y-14991D01*
X55780Y-15019D01*
X55801Y-15075D01*
X55794Y-15132D01*
X55506Y-15188D01*
X56515Y-14766D02*
X55913Y-15525D01*
X56627Y-14991D02*
X56718Y-15385D01*
X56908Y-14991D01*
X57337Y-15385D02*
X57376Y-15075D01*
X57355Y-15019D01*
X57302Y-14991D01*
X57189Y-14991D01*
X57130Y-15019D01*
X57341Y-15357D02*
X57281Y-15385D01*
X57140Y-15385D01*
X57088Y-15357D01*
X57066Y-15300D01*
X57073Y-15244D01*
X57109Y-15188D01*
X57168Y-15160D01*
X57309Y-15160D01*
X57369Y-15132D01*
X57583Y-14991D02*
X57808Y-14991D01*
X57692Y-14794D02*
X57629Y-15300D01*
X57650Y-15357D01*
X57703Y-15385D01*
X57759Y-15385D01*
X57900Y-15385D02*
X58258Y-14991D01*
X57949Y-14991D02*
X58209Y-15385D01*
X39543Y-16273D02*
X39512Y-16302D01*
X39424Y-16330D01*
X39367Y-16330D01*
X39287Y-16302D01*
X39237Y-16245D01*
X39216Y-16189D01*
X39202Y-16077D01*
X39213Y-15992D01*
X39255Y-15880D01*
X39290Y-15823D01*
X39353Y-15767D01*
X39441Y-15739D01*
X39498Y-15739D01*
X39578Y-15767D01*
X39603Y-15795D01*
X40134Y-16273D02*
X40102Y-16302D01*
X40014Y-16330D01*
X39958Y-16330D01*
X39877Y-16302D01*
X39828Y-16245D01*
X39807Y-16189D01*
X39793Y-16077D01*
X39803Y-15992D01*
X39846Y-15880D01*
X39881Y-15823D01*
X39944Y-15767D01*
X40032Y-15739D01*
X40088Y-15739D01*
X40169Y-15767D01*
X40194Y-15795D01*
X40387Y-16273D02*
X40411Y-16302D01*
X40380Y-16330D01*
X40355Y-16302D01*
X40387Y-16273D01*
X40380Y-16330D01*
X40426Y-15964D02*
X40450Y-15992D01*
X40419Y-16020D01*
X40394Y-15992D01*
X40426Y-15964D01*
X40419Y-16020D01*
X40897Y-16020D02*
X40977Y-16048D01*
X41002Y-16077D01*
X41023Y-16133D01*
X41013Y-16217D01*
X40977Y-16273D01*
X40946Y-16302D01*
X40886Y-16330D01*
X40661Y-16330D01*
X40735Y-15739D01*
X40932Y-15739D01*
X40984Y-15767D01*
X41009Y-15795D01*
X41030Y-15852D01*
X41023Y-15908D01*
X40988Y-15964D01*
X40956Y-15992D01*
X40897Y-16020D01*
X40700Y-16020D01*
X41399Y-16048D02*
X41364Y-16330D01*
X41241Y-15739D02*
X41399Y-16048D01*
X41635Y-15739D01*
X41786Y-16105D02*
X42236Y-16105D01*
X42464Y-16302D02*
X42545Y-16330D01*
X42686Y-16330D01*
X42746Y-16302D01*
X42777Y-16273D01*
X42812Y-16217D01*
X42819Y-16161D01*
X42798Y-16105D01*
X42774Y-16077D01*
X42721Y-16048D01*
X42612Y-16020D01*
X42559Y-15992D01*
X42535Y-15964D01*
X42514Y-15908D01*
X42521Y-15852D01*
X42556Y-15795D01*
X42587Y-15767D01*
X42647Y-15739D01*
X42788Y-15739D01*
X42869Y-15767D01*
X43044Y-16161D02*
X43326Y-16161D01*
X42967Y-16330D02*
X43238Y-15739D01*
X43361Y-16330D01*
G54D12*
X67480Y-25511D02*
X51023Y-25511D01*
G54D11*
X56107Y-22718D02*
X56032Y-22680D01*
X55995Y-22643D01*
X55958Y-22568D01*
X55958Y-22343D01*
X55995Y-22268D01*
X56032Y-22230D01*
X56107Y-22193D01*
X56220Y-22193D01*
X56295Y-22230D01*
X56332Y-22268D01*
X56370Y-22343D01*
X56370Y-22568D01*
X56332Y-22643D01*
X56295Y-22680D01*
X56220Y-22718D01*
X56107Y-22718D01*
X56595Y-22193D02*
X56895Y-22193D01*
X56707Y-22718D02*
X56707Y-22043D01*
X56745Y-21968D01*
X56820Y-21931D01*
X56895Y-21931D01*
X57045Y-22193D02*
X57345Y-22193D01*
X57157Y-22718D02*
X57157Y-22043D01*
X57195Y-21968D01*
X57270Y-21931D01*
X57345Y-21931D01*
X60453Y-22639D02*
X60378Y-22602D01*
X60341Y-22564D01*
X60303Y-22489D01*
X60303Y-22264D01*
X60341Y-22189D01*
X60378Y-22152D01*
X60453Y-22114D01*
X60566Y-22114D01*
X60641Y-22152D01*
X60678Y-22189D01*
X60716Y-22264D01*
X60716Y-22489D01*
X60678Y-22564D01*
X60641Y-22602D01*
X60566Y-22639D01*
X60453Y-22639D01*
X61053Y-22114D02*
X61053Y-22639D01*
X61053Y-22189D02*
X61091Y-22152D01*
X61166Y-22114D01*
X61278Y-22114D01*
X61353Y-22152D01*
X61391Y-22227D01*
X61391Y-22639D01*
G54D13*
X71887Y-36920D02*
X72637Y-36920D01*
X72262Y-37295D02*
X72262Y-36545D01*
X73622Y-37295D02*
X73059Y-37295D01*
X73340Y-37295D02*
X73340Y-36311D01*
X73247Y-36452D01*
X73153Y-36545D01*
X73059Y-36592D01*
X73997Y-36405D02*
X74043Y-36358D01*
X74137Y-36311D01*
X74371Y-36311D01*
X74465Y-36358D01*
X74512Y-36405D01*
X74559Y-36498D01*
X74559Y-36592D01*
X74512Y-36733D01*
X73950Y-37295D01*
X74559Y-37295D01*
X74840Y-36311D02*
X75168Y-37295D01*
X75496Y-36311D01*
X72435Y-46133D02*
X73185Y-46133D01*
X72810Y-46508D02*
X72810Y-45758D01*
X74122Y-45523D02*
X73653Y-45523D01*
X73607Y-45992D01*
X73653Y-45945D01*
X73747Y-45898D01*
X73982Y-45898D01*
X74075Y-45945D01*
X74122Y-45992D01*
X74169Y-46086D01*
X74169Y-46320D01*
X74122Y-46414D01*
X74075Y-46461D01*
X73982Y-46508D01*
X73747Y-46508D01*
X73653Y-46461D01*
X73607Y-46414D01*
X74450Y-45523D02*
X74778Y-46508D01*
X75106Y-45523D01*
X59758Y-46054D02*
X60508Y-46054D01*
X61445Y-45445D02*
X60976Y-45445D01*
X60929Y-45913D01*
X60976Y-45867D01*
X61070Y-45820D01*
X61304Y-45820D01*
X61398Y-45867D01*
X61445Y-45913D01*
X61492Y-46007D01*
X61492Y-46242D01*
X61445Y-46335D01*
X61398Y-46382D01*
X61304Y-46429D01*
X61070Y-46429D01*
X60976Y-46382D01*
X60929Y-46335D01*
X61773Y-45445D02*
X62101Y-46429D01*
X62429Y-45445D01*
X53382Y-45975D02*
X54131Y-45975D01*
X53757Y-46350D02*
X53757Y-45600D01*
X54506Y-45694D02*
X54741Y-46350D01*
X54975Y-45694D01*
X55772Y-46350D02*
X55772Y-45835D01*
X55725Y-45741D01*
X55631Y-45694D01*
X55444Y-45694D01*
X55350Y-45741D01*
X55772Y-46303D02*
X55678Y-46350D01*
X55444Y-46350D01*
X55350Y-46303D01*
X55303Y-46210D01*
X55303Y-46116D01*
X55350Y-46022D01*
X55444Y-45975D01*
X55678Y-45975D01*
X55772Y-45928D01*
X56241Y-46350D02*
X56241Y-45694D01*
X56241Y-45882D02*
X56287Y-45788D01*
X56334Y-45741D01*
X56428Y-45694D01*
X56522Y-45694D01*
X59289Y-36920D02*
X60039Y-36920D01*
X61023Y-37295D02*
X60461Y-37295D01*
X60742Y-37295D02*
X60742Y-36311D01*
X60648Y-36452D01*
X60554Y-36545D01*
X60461Y-36592D01*
X61398Y-36405D02*
X61445Y-36358D01*
X61539Y-36311D01*
X61773Y-36311D01*
X61867Y-36358D01*
X61914Y-36405D01*
X61961Y-36498D01*
X61961Y-36592D01*
X61914Y-36733D01*
X61351Y-37295D01*
X61961Y-37295D01*
X62242Y-36311D02*
X62570Y-37295D01*
X62898Y-36311D01*
X52677Y-36920D02*
X53427Y-36920D01*
X53052Y-37295D02*
X53052Y-36545D01*
X53802Y-36311D02*
X54411Y-36311D01*
X54083Y-36686D01*
X54223Y-36686D01*
X54317Y-36733D01*
X54364Y-36780D01*
X54411Y-36873D01*
X54411Y-37108D01*
X54364Y-37201D01*
X54317Y-37248D01*
X54223Y-37295D01*
X53942Y-37295D01*
X53848Y-37248D01*
X53802Y-37201D01*
X54833Y-37201D02*
X54880Y-37248D01*
X54833Y-37295D01*
X54786Y-37248D01*
X54833Y-37201D01*
X54833Y-37295D01*
X55208Y-36311D02*
X55817Y-36311D01*
X55489Y-36686D01*
X55629Y-36686D01*
X55723Y-36733D01*
X55770Y-36780D01*
X55817Y-36873D01*
X55817Y-37108D01*
X55770Y-37201D01*
X55723Y-37248D01*
X55629Y-37295D01*
X55348Y-37295D01*
X55254Y-37248D01*
X55208Y-37201D01*
X56098Y-36311D02*
X56426Y-37295D01*
X56754Y-36311D01*
X66572Y-44389D02*
X66479Y-44342D01*
X66338Y-44342D01*
X66197Y-44389D01*
X66104Y-44483D01*
X66057Y-44577D01*
X66010Y-44764D01*
X66010Y-44905D01*
X66057Y-45092D01*
X66104Y-45186D01*
X66197Y-45280D01*
X66338Y-45327D01*
X66432Y-45327D01*
X66572Y-45280D01*
X66619Y-45233D01*
X66619Y-44905D01*
X66432Y-44905D01*
X67041Y-45327D02*
X67041Y-44342D01*
X67604Y-45327D01*
X67604Y-44342D01*
X68072Y-45327D02*
X68072Y-44342D01*
X68307Y-44342D01*
X68447Y-44389D01*
X68541Y-44483D01*
X68588Y-44577D01*
X68635Y-44764D01*
X68635Y-44905D01*
X68588Y-45092D01*
X68541Y-45186D01*
X68447Y-45280D01*
X68307Y-45327D01*
X68072Y-45327D01*
X47517Y-44389D02*
X47424Y-44342D01*
X47283Y-44342D01*
X47142Y-44389D01*
X47049Y-44483D01*
X47002Y-44577D01*
X46955Y-44764D01*
X46955Y-44905D01*
X47002Y-45092D01*
X47049Y-45186D01*
X47142Y-45280D01*
X47283Y-45327D01*
X47377Y-45327D01*
X47517Y-45280D01*
X47564Y-45233D01*
X47564Y-44905D01*
X47377Y-44905D01*
X47986Y-45327D02*
X47986Y-44342D01*
X48548Y-45327D01*
X48548Y-44342D01*
X49017Y-45327D02*
X49017Y-44342D01*
X49251Y-44342D01*
X49392Y-44389D01*
X49486Y-44483D01*
X49533Y-44577D01*
X49580Y-44764D01*
X49580Y-44905D01*
X49533Y-45092D01*
X49486Y-45186D01*
X49392Y-45280D01*
X49251Y-45327D01*
X49017Y-45327D01*
X74193Y-28831D02*
X74381Y-28831D01*
X74475Y-28877D01*
X74568Y-28971D01*
X74615Y-29159D01*
X74615Y-29487D01*
X74568Y-29674D01*
X74475Y-29768D01*
X74381Y-29815D01*
X74193Y-29815D01*
X74100Y-29768D01*
X74006Y-29674D01*
X73959Y-29487D01*
X73959Y-29159D01*
X74006Y-28971D01*
X74100Y-28877D01*
X74193Y-28831D01*
X75037Y-29815D02*
X75037Y-28831D01*
X75599Y-29815D01*
X75599Y-28831D01*
X71801Y-21264D02*
X71942Y-21311D01*
X72176Y-21311D01*
X72270Y-21264D01*
X72317Y-21217D01*
X72364Y-21123D01*
X72364Y-21030D01*
X72317Y-20936D01*
X72270Y-20889D01*
X72176Y-20842D01*
X71989Y-20795D01*
X71895Y-20748D01*
X71848Y-20702D01*
X71801Y-20608D01*
X71801Y-20514D01*
X71848Y-20420D01*
X71895Y-20374D01*
X71989Y-20327D01*
X72223Y-20327D01*
X72364Y-20374D01*
X72645Y-20655D02*
X73020Y-20655D01*
X72785Y-20327D02*
X72785Y-21170D01*
X72832Y-21264D01*
X72926Y-21311D01*
X73020Y-21311D01*
X73770Y-21311D02*
X73770Y-20795D01*
X73723Y-20702D01*
X73629Y-20655D01*
X73442Y-20655D01*
X73348Y-20702D01*
X73770Y-21264D02*
X73676Y-21311D01*
X73442Y-21311D01*
X73348Y-21264D01*
X73301Y-21170D01*
X73301Y-21077D01*
X73348Y-20983D01*
X73442Y-20936D01*
X73676Y-20936D01*
X73770Y-20889D01*
X74238Y-20655D02*
X74238Y-21311D01*
X74238Y-20748D02*
X74285Y-20702D01*
X74379Y-20655D01*
X74520Y-20655D01*
X74613Y-20702D01*
X74660Y-20795D01*
X74660Y-21311D01*
X75551Y-21311D02*
X75551Y-20327D01*
X75551Y-21264D02*
X75457Y-21311D01*
X75269Y-21311D01*
X75176Y-21264D01*
X75129Y-21217D01*
X75082Y-21123D01*
X75082Y-20842D01*
X75129Y-20748D01*
X75176Y-20702D01*
X75269Y-20655D01*
X75457Y-20655D01*
X75551Y-20702D01*
X76347Y-20795D02*
X76488Y-20842D01*
X76535Y-20889D01*
X76582Y-20983D01*
X76582Y-21123D01*
X76535Y-21217D01*
X76488Y-21264D01*
X76394Y-21311D01*
X76019Y-21311D01*
X76019Y-20327D01*
X76347Y-20327D01*
X76441Y-20374D01*
X76488Y-20420D01*
X76535Y-20514D01*
X76535Y-20608D01*
X76488Y-20702D01*
X76441Y-20748D01*
X76347Y-20795D01*
X76019Y-20795D01*
X76910Y-20655D02*
X77144Y-21311D01*
X77379Y-20655D02*
X77144Y-21311D01*
X77050Y-21545D01*
X77004Y-21592D01*
X76910Y-21639D01*
G54D14*
X50594Y-28791D02*
X52574Y-28791D01*
X52574Y-28791D02*
X52574Y-29791D01*
X52574Y-29791D02*
X50574Y-29791D01*
X50574Y-29791D02*
X50574Y-28791D01*
X50574Y-29041D02*
X50824Y-28791D01*
G54D15*
X48925Y-34759D02*
X48925Y-35109D01*
X49325Y-34809D02*
X49325Y-34009D01*
X49325Y-34009D02*
X49275Y-34009D01*
X49275Y-34009D02*
X49275Y-34809D01*
X49225Y-33809D02*
X49225Y-35009D01*
X49425Y-34409D02*
G75*
G03X49425Y-34409I-1000J0D01*
G74*
G01*
X53098Y-31688D02*
X53098Y-32038D01*
X53498Y-31738D02*
X53498Y-30938D01*
X53498Y-30938D02*
X53448Y-30938D01*
X53448Y-30938D02*
X53448Y-31738D01*
X53398Y-30738D02*
X53398Y-31938D01*
X53598Y-31338D02*
G75*
G03X53598Y-31338I-1000J0D01*
G74*
G01*
G54D16*
X74053Y-28127D02*
X75553Y-28127D01*
G54D17*
X75510Y-27107D02*
G75*
G03X75510Y-27107I-707J0D01*
G74*
G01*
G54D15*
X75554Y-28107D02*
G75*
G03X74053Y-28107I-751J999D01*
G74*
G01*
G54D18*
X75253Y-27107D02*
G75*
G03X74803Y-26657I-450J0D01*
G74*
G01*
X74353Y-27107D02*
G75*
G03X74803Y-27557I450J0D01*
G74*
G01*
X75453Y-27107D02*
G75*
G03X74803Y-26457I-650J0D01*
G74*
G01*
X74153Y-27107D02*
G75*
G03X74803Y-27757I650J0D01*
G74*
G01*
X75653Y-27107D02*
G75*
G03X74803Y-26257I-850J0D01*
G74*
G01*
X73953Y-27107D02*
G75*
G03X74803Y-27957I850J0D01*
G74*
G01*
G54D16*
X74053Y-24112D02*
X75553Y-24112D01*
G54D17*
X75510Y-23092D02*
G75*
G03X75510Y-23092I-707J0D01*
G74*
G01*
G54D15*
X75554Y-24091D02*
G75*
G03X74053Y-24092I-751J999D01*
G74*
G01*
G54D18*
X75253Y-23092D02*
G75*
G03X74803Y-22642I-450J0D01*
G74*
G01*
X74353Y-23092D02*
G75*
G03X74803Y-23542I450J0D01*
G74*
G01*
X75453Y-23092D02*
G75*
G03X74803Y-22442I-650J0D01*
G74*
G01*
X74153Y-23092D02*
G75*
G03X74803Y-23742I650J0D01*
G74*
G01*
X75653Y-23092D02*
G75*
G03X74803Y-22242I-850J0D01*
G74*
G01*
X73953Y-23092D02*
G75*
G03X74803Y-23942I850J0D01*
G74*
G01*
G54D14*
X47956Y-24330D02*
X47656Y-24330D01*
X47656Y-24330D02*
X47656Y-23930D01*
X47656Y-23930D02*
X45256Y-23930D01*
X45256Y-23930D02*
X45256Y-24330D01*
X45256Y-24330D02*
X44956Y-24330D01*
X45256Y-24330D02*
X45256Y-24730D01*
X45256Y-24730D02*
X47656Y-24730D01*
X47656Y-24730D02*
X47656Y-24330D01*
X47456Y-23930D02*
X47456Y-24730D01*
X47356Y-24730D02*
X47356Y-23930D01*
X45669Y-37326D02*
X45669Y-37026D01*
X45669Y-37026D02*
X46069Y-37026D01*
X46069Y-37026D02*
X46069Y-34626D01*
X46069Y-34626D02*
X45669Y-34626D01*
X45669Y-34626D02*
X45669Y-34326D01*
X45669Y-34626D02*
X45269Y-34626D01*
X45269Y-34626D02*
X45269Y-37026D01*
X45269Y-37026D02*
X45669Y-37026D01*
X46069Y-36826D02*
X45269Y-36826D01*
X45269Y-36726D02*
X46069Y-36726D01*
G54D19*
X58936Y-19764D02*
X58936Y-20315D01*
X58936Y-20315D02*
X57598Y-20315D01*
X57598Y-20315D02*
X57598Y-19764D01*
X58267Y-15984D02*
X66771Y-15984D01*
X66771Y-15984D02*
X66771Y-19764D01*
X66771Y-19764D02*
X49763Y-19764D01*
X49763Y-19764D02*
X49763Y-15984D01*
X49763Y-15984D02*
X58267Y-15984D01*
X63423Y-40708D02*
G75*
G03X63423Y-40708I-2400J0D01*
G74*
G01*
X76022Y-40708D02*
G75*
G03X76022Y-40708I-2400J0D01*
G74*
G01*
X63423Y-49763D02*
G75*
G03X63423Y-49763I-2400J0D01*
G74*
G01*
X76022Y-49763D02*
G75*
G03X76022Y-49763I-2400J0D01*
G74*
G01*
X57124Y-40708D02*
G75*
G03X57124Y-40708I-2400J0D01*
G74*
G01*
X57124Y-49763D02*
G75*
G03X57124Y-49763I-2400J0D01*
G74*
G01*
X50825Y-49763D02*
G75*
G03X50825Y-49763I-2400J0D01*
G74*
G01*
X69722Y-40708D02*
G75*
G03X69722Y-40708I-2400J0D01*
G74*
G01*
X69722Y-49763D02*
G75*
G03X69722Y-49763I-2400J0D01*
G74*
G01*
X50825Y-40708D02*
G75*
G03X50825Y-40708I-2400J0D01*
G74*
G01*
G54D16*
X72444Y-27480D02*
X72244Y-27480D01*
X69444Y-27480D02*
X69644Y-27480D01*
X69644Y-27480D02*
X69644Y-27880D01*
X69644Y-27880D02*
X72244Y-27880D01*
X72244Y-27880D02*
X72244Y-27080D01*
X72244Y-27080D02*
X69644Y-27080D01*
X69644Y-27080D02*
X69644Y-27480D01*
X72244Y-27680D02*
X72044Y-27880D01*
X72444Y-23464D02*
X72244Y-23464D01*
X69444Y-23464D02*
X69644Y-23464D01*
X69644Y-23464D02*
X69644Y-23864D01*
X69644Y-23864D02*
X72244Y-23864D01*
X72244Y-23864D02*
X72244Y-23064D01*
X72244Y-23064D02*
X69644Y-23064D01*
X69644Y-23064D02*
X69644Y-23464D01*
X72244Y-23664D02*
X72044Y-23864D01*
X43307Y-36846D02*
X43307Y-37046D01*
X43307Y-39846D02*
X43307Y-39646D01*
X43307Y-39646D02*
X43707Y-39646D01*
X43707Y-39646D02*
X43707Y-37046D01*
X43707Y-37046D02*
X42907Y-37046D01*
X42907Y-37046D02*
X42907Y-39646D01*
X42907Y-39646D02*
X43307Y-39646D01*
X43507Y-37046D02*
X43707Y-37246D01*
X41338Y-39846D02*
X41338Y-39646D01*
X41338Y-36846D02*
X41338Y-37046D01*
X41338Y-37046D02*
X40938Y-37046D01*
X40938Y-37046D02*
X40938Y-39646D01*
X40938Y-39646D02*
X41738Y-39646D01*
X41738Y-39646D02*
X41738Y-37046D01*
X41738Y-37046D02*
X41338Y-37046D01*
X41138Y-39646D02*
X40938Y-39446D01*
G54D19*
X41338Y-27716D02*
X43976Y-27716D01*
X43976Y-27716D02*
X43976Y-28346D01*
X39842Y-34212D02*
X39842Y-34802D01*
X39842Y-34802D02*
X43976Y-34802D01*
X43976Y-34802D02*
X43976Y-34212D01*
X39842Y-28897D02*
X39055Y-28897D01*
X39055Y-28897D02*
X39055Y-27716D01*
X39055Y-27716D02*
X41338Y-27716D01*
X41338Y-27716D02*
X41338Y-28306D01*
X37873Y-32440D02*
X33936Y-32440D01*
X33936Y-32440D02*
X33936Y-30078D01*
X33936Y-30078D02*
X37873Y-30078D01*
X39842Y-32637D02*
X37873Y-32637D01*
X37873Y-32637D02*
X37873Y-29881D01*
X37873Y-29881D02*
X39842Y-29881D01*
X39842Y-34212D02*
X43976Y-34212D01*
X43976Y-34212D02*
X43976Y-28306D01*
X43976Y-28306D02*
X39842Y-28306D01*
X39842Y-28306D02*
X39842Y-34212D01*
G54D14*
X57476Y-24043D02*
X57476Y-23043D01*
X57476Y-23043D02*
X60476Y-23043D01*
X60476Y-23043D02*
X60476Y-24043D01*
X60476Y-24043D02*
X57476Y-24043D01*
X58476Y-23043D02*
X58476Y-24043D01*
G54D19*
X46100Y-29159D02*
X46100Y-29909D01*
X46100Y-30909D02*
X46100Y-30609D01*
X46100Y-31859D02*
X46100Y-31909D01*
X46100Y-31859D02*
X46100Y-31609D01*
X46100Y-33359D02*
X46100Y-32659D01*
X47550Y-33359D02*
X47550Y-32709D01*
X47600Y-31659D02*
X47600Y-31909D01*
X47600Y-30659D02*
X47600Y-30909D01*
X47550Y-29159D02*
X47550Y-29809D01*
X45650Y-31859D02*
X46100Y-31859D01*
X45650Y-30659D02*
X46100Y-30659D01*
X46100Y-29159D02*
X47550Y-29159D01*
X47550Y-33359D02*
X46100Y-33359D01*
X45650Y-29159D02*
X46100Y-29159D01*
X46100Y-33359D02*
X45650Y-33359D01*
X45650Y-31259D02*
X45650Y-33359D01*
X45650Y-31259D02*
X45650Y-29159D01*
G54D10*
X45393Y-45787D02*
X39488Y-45787D01*
G54D20*
X45390Y-45808D02*
X45390Y-52501D01*
X39490Y-52501D02*
X39490Y-45808D01*
X45390Y-52501D02*
X39490Y-52501D01*
G54D16*
X51508Y-27934D02*
X51489Y-27953D01*
X51431Y-27972D01*
X51393Y-27972D01*
X51336Y-27953D01*
X51298Y-27915D01*
X51279Y-27877D01*
X51260Y-27800D01*
X51260Y-27743D01*
X51279Y-27667D01*
X51298Y-27629D01*
X51336Y-27591D01*
X51393Y-27572D01*
X51431Y-27572D01*
X51489Y-27591D01*
X51508Y-27610D01*
X51889Y-27972D02*
X51660Y-27972D01*
X51774Y-27972D02*
X51774Y-27572D01*
X51736Y-27629D01*
X51698Y-27667D01*
X51660Y-27686D01*
G54D14*
X50139Y-34509D02*
X50168Y-34538D01*
X50196Y-34623D01*
X50196Y-34680D01*
X50168Y-34766D01*
X50110Y-34823D01*
X50053Y-34852D01*
X49939Y-34880D01*
X49853Y-34880D01*
X49739Y-34852D01*
X49682Y-34823D01*
X49625Y-34766D01*
X49596Y-34680D01*
X49596Y-34623D01*
X49625Y-34538D01*
X49653Y-34509D01*
X49653Y-34280D02*
X49625Y-34252D01*
X49596Y-34195D01*
X49596Y-34052D01*
X49625Y-33995D01*
X49653Y-33966D01*
X49710Y-33938D01*
X49768Y-33938D01*
X49853Y-33966D01*
X50196Y-34309D01*
X50196Y-33938D01*
X47196Y-35095D02*
X47196Y-35438D01*
X47196Y-35266D02*
X46596Y-35266D01*
X46682Y-35323D01*
X46739Y-35380D01*
X46768Y-35438D01*
X46596Y-34723D02*
X46596Y-34666D01*
X46625Y-34609D01*
X46653Y-34580D01*
X46710Y-34552D01*
X46825Y-34523D01*
X46968Y-34523D01*
X47082Y-34552D01*
X47139Y-34580D01*
X47168Y-34609D01*
X47196Y-34666D01*
X47196Y-34723D01*
X47168Y-34780D01*
X47139Y-34809D01*
X47082Y-34838D01*
X46968Y-34866D01*
X46825Y-34866D01*
X46710Y-34838D01*
X46653Y-34809D01*
X46625Y-34780D01*
X46596Y-34723D01*
X46796Y-34266D02*
X47396Y-34266D01*
X47110Y-33980D02*
X47168Y-33952D01*
X47196Y-33895D01*
X47110Y-34266D02*
X47168Y-34238D01*
X47196Y-34180D01*
X47196Y-34066D01*
X47168Y-34009D01*
X47110Y-33980D01*
X46796Y-33980D01*
X46882Y-33438D02*
X46882Y-33638D01*
X47196Y-33638D02*
X46596Y-33638D01*
X46596Y-33352D01*
X54312Y-31438D02*
X54341Y-31467D01*
X54369Y-31552D01*
X54369Y-31610D01*
X54341Y-31695D01*
X54284Y-31752D01*
X54226Y-31781D01*
X54112Y-31810D01*
X54026Y-31810D01*
X53912Y-31781D01*
X53855Y-31752D01*
X53798Y-31695D01*
X53769Y-31610D01*
X53769Y-31552D01*
X53798Y-31467D01*
X53826Y-31438D01*
X53769Y-31238D02*
X53769Y-30867D01*
X53998Y-31067D01*
X53998Y-30981D01*
X54026Y-30924D01*
X54055Y-30895D01*
X54112Y-30867D01*
X54255Y-30867D01*
X54312Y-30895D01*
X54341Y-30924D01*
X54369Y-30981D01*
X54369Y-31152D01*
X54341Y-31210D01*
X54312Y-31238D01*
X51369Y-31738D02*
X51369Y-32081D01*
X51369Y-31910D02*
X50769Y-31910D01*
X50855Y-31967D01*
X50912Y-32024D01*
X50941Y-32081D01*
X50969Y-31481D02*
X51569Y-31481D01*
X51284Y-31195D02*
X51341Y-31167D01*
X51369Y-31110D01*
X51284Y-31481D02*
X51341Y-31452D01*
X51369Y-31395D01*
X51369Y-31281D01*
X51341Y-31224D01*
X51284Y-31195D01*
X50969Y-31195D01*
X51055Y-30652D02*
X51055Y-30852D01*
X51369Y-30852D02*
X50769Y-30852D01*
X50769Y-30567D01*
G54D21*
X76438Y-27229D02*
X76138Y-27229D01*
X76138Y-27157D01*
X76153Y-27115D01*
X76181Y-27086D01*
X76210Y-27072D01*
X76267Y-27057D01*
X76310Y-27057D01*
X76367Y-27072D01*
X76396Y-27086D01*
X76424Y-27115D01*
X76438Y-27157D01*
X76438Y-27229D01*
X76438Y-26772D02*
X76438Y-26943D01*
X76438Y-26857D02*
X76138Y-26857D01*
X76181Y-26886D01*
X76210Y-26915D01*
X76224Y-26943D01*
X73438Y-27200D02*
X73438Y-27343D01*
X73138Y-27343D01*
X73281Y-27100D02*
X73281Y-27000D01*
X73438Y-26957D02*
X73438Y-27100D01*
X73138Y-27100D01*
X73138Y-26957D01*
X73438Y-26829D02*
X73138Y-26829D01*
X73138Y-26757D01*
X73153Y-26715D01*
X73181Y-26686D01*
X73210Y-26672D01*
X73267Y-26657D01*
X73310Y-26657D01*
X73367Y-26672D01*
X73396Y-26686D01*
X73424Y-26715D01*
X73438Y-26757D01*
X73438Y-26829D01*
X76438Y-23213D02*
X76138Y-23213D01*
X76138Y-23142D01*
X76153Y-23099D01*
X76181Y-23070D01*
X76210Y-23056D01*
X76267Y-23042D01*
X76310Y-23042D01*
X76367Y-23056D01*
X76396Y-23070D01*
X76424Y-23099D01*
X76438Y-23142D01*
X76438Y-23213D01*
X76167Y-22927D02*
X76153Y-22913D01*
X76138Y-22884D01*
X76138Y-22813D01*
X76153Y-22784D01*
X76167Y-22770D01*
X76196Y-22756D01*
X76224Y-22756D01*
X76267Y-22770D01*
X76438Y-22942D01*
X76438Y-22756D01*
X73438Y-23184D02*
X73438Y-23327D01*
X73138Y-23327D01*
X73281Y-23084D02*
X73281Y-22984D01*
X73438Y-22942D02*
X73438Y-23084D01*
X73138Y-23084D01*
X73138Y-22942D01*
X73438Y-22813D02*
X73138Y-22813D01*
X73138Y-22742D01*
X73153Y-22699D01*
X73181Y-22670D01*
X73210Y-22656D01*
X73267Y-22642D01*
X73310Y-22642D01*
X73367Y-22656D01*
X73396Y-22670D01*
X73424Y-22699D01*
X73438Y-22742D01*
X73438Y-22813D01*
G54D16*
X46161Y-24511D02*
X46161Y-24111D01*
X46256Y-24111D01*
X46313Y-24130D01*
X46351Y-24168D01*
X46370Y-24206D01*
X46390Y-24283D01*
X46390Y-24340D01*
X46370Y-24416D01*
X46351Y-24454D01*
X46313Y-24492D01*
X46256Y-24511D01*
X46161Y-24511D01*
X46523Y-24111D02*
X46770Y-24111D01*
X46637Y-24264D01*
X46694Y-24264D01*
X46732Y-24283D01*
X46751Y-24302D01*
X46770Y-24340D01*
X46770Y-24435D01*
X46751Y-24473D01*
X46732Y-24492D01*
X46694Y-24511D01*
X46580Y-24511D01*
X46542Y-24492D01*
X46523Y-24473D01*
X45850Y-36122D02*
X45450Y-36122D01*
X45450Y-36026D01*
X45469Y-35969D01*
X45507Y-35931D01*
X45545Y-35912D01*
X45621Y-35893D01*
X45678Y-35893D01*
X45755Y-35912D01*
X45793Y-35931D01*
X45831Y-35969D01*
X45850Y-36026D01*
X45850Y-36122D01*
X45583Y-35550D02*
X45850Y-35550D01*
X45431Y-35645D02*
X45716Y-35741D01*
X45716Y-35493D01*
G54D14*
X49233Y-18531D02*
X49233Y-18245D01*
X49405Y-18588D02*
X48805Y-18388D01*
X49405Y-18188D01*
X48805Y-18074D02*
X48805Y-17731D01*
X49405Y-17902D02*
X48805Y-17902D01*
X48805Y-17588D02*
X49405Y-17188D01*
X48805Y-17188D02*
X49405Y-17588D01*
G54D15*
X60928Y-38189D02*
X60928Y-37789D01*
X61080Y-37789D01*
X61118Y-37808D01*
X61137Y-37827D01*
X61156Y-37865D01*
X61156Y-37922D01*
X61137Y-37961D01*
X61118Y-37980D01*
X61080Y-37999D01*
X60928Y-37999D01*
X61309Y-37827D02*
X61328Y-37808D01*
X61366Y-37789D01*
X61461Y-37789D01*
X61499Y-37808D01*
X61518Y-37827D01*
X61537Y-37865D01*
X61537Y-37903D01*
X61518Y-37961D01*
X61290Y-38189D01*
X61537Y-38189D01*
G54D14*
G54D15*
X73526Y-38189D02*
X73526Y-37789D01*
X73679Y-37789D01*
X73717Y-37808D01*
X73736Y-37827D01*
X73755Y-37865D01*
X73755Y-37922D01*
X73736Y-37961D01*
X73717Y-37980D01*
X73679Y-37999D01*
X73526Y-37999D01*
X73888Y-37789D02*
X74136Y-37789D01*
X74003Y-37941D01*
X74060Y-37941D01*
X74098Y-37961D01*
X74117Y-37980D01*
X74136Y-38018D01*
X74136Y-38113D01*
X74117Y-38151D01*
X74098Y-38170D01*
X74060Y-38189D01*
X73945Y-38189D01*
X73907Y-38170D01*
X73888Y-38151D01*
G54D14*
G54D15*
X60928Y-47244D02*
X60928Y-46844D01*
X61080Y-46844D01*
X61118Y-46863D01*
X61137Y-46882D01*
X61156Y-46920D01*
X61156Y-46978D01*
X61137Y-47016D01*
X61118Y-47035D01*
X61080Y-47054D01*
X60928Y-47054D01*
X61499Y-46978D02*
X61499Y-47244D01*
X61404Y-46825D02*
X61309Y-47111D01*
X61556Y-47111D01*
G54D14*
G54D15*
X73526Y-47244D02*
X73526Y-46844D01*
X73679Y-46844D01*
X73717Y-46863D01*
X73736Y-46882D01*
X73755Y-46920D01*
X73755Y-46978D01*
X73736Y-47016D01*
X73717Y-47035D01*
X73679Y-47054D01*
X73526Y-47054D01*
X74117Y-46844D02*
X73926Y-46844D01*
X73907Y-47035D01*
X73926Y-47016D01*
X73964Y-46997D01*
X74060Y-46997D01*
X74098Y-47016D01*
X74117Y-47035D01*
X74136Y-47073D01*
X74136Y-47168D01*
X74117Y-47206D01*
X74098Y-47225D01*
X74060Y-47244D01*
X73964Y-47244D01*
X73926Y-47225D01*
X73907Y-47206D01*
G54D14*
G54D15*
X54629Y-38189D02*
X54629Y-37789D01*
X54781Y-37789D01*
X54819Y-37808D01*
X54838Y-37827D01*
X54857Y-37865D01*
X54857Y-37922D01*
X54838Y-37961D01*
X54819Y-37980D01*
X54781Y-37999D01*
X54629Y-37999D01*
X55200Y-37789D02*
X55124Y-37789D01*
X55086Y-37808D01*
X55067Y-37827D01*
X55029Y-37884D01*
X55010Y-37961D01*
X55010Y-38113D01*
X55029Y-38151D01*
X55048Y-38170D01*
X55086Y-38189D01*
X55162Y-38189D01*
X55200Y-38170D01*
X55219Y-38151D01*
X55238Y-38113D01*
X55238Y-38018D01*
X55219Y-37980D01*
X55200Y-37961D01*
X55162Y-37941D01*
X55086Y-37941D01*
X55048Y-37961D01*
X55029Y-37980D01*
X55010Y-38018D01*
G54D14*
G54D15*
X54629Y-47244D02*
X54629Y-46844D01*
X54781Y-46844D01*
X54819Y-46863D01*
X54838Y-46882D01*
X54857Y-46920D01*
X54857Y-46978D01*
X54838Y-47016D01*
X54819Y-47035D01*
X54781Y-47054D01*
X54629Y-47054D01*
X54991Y-46844D02*
X55257Y-46844D01*
X55086Y-47244D01*
G54D14*
G54D15*
X48329Y-47244D02*
X48329Y-46844D01*
X48482Y-46844D01*
X48520Y-46863D01*
X48539Y-46882D01*
X48558Y-46920D01*
X48558Y-46978D01*
X48539Y-47016D01*
X48520Y-47035D01*
X48482Y-47054D01*
X48329Y-47054D01*
X48787Y-47016D02*
X48749Y-46997D01*
X48729Y-46978D01*
X48710Y-46939D01*
X48710Y-46920D01*
X48729Y-46882D01*
X48749Y-46863D01*
X48787Y-46844D01*
X48863Y-46844D01*
X48901Y-46863D01*
X48920Y-46882D01*
X48939Y-46920D01*
X48939Y-46939D01*
X48920Y-46978D01*
X48901Y-46997D01*
X48863Y-47016D01*
X48787Y-47016D01*
X48749Y-47035D01*
X48729Y-47054D01*
X48710Y-47092D01*
X48710Y-47168D01*
X48729Y-47206D01*
X48749Y-47225D01*
X48787Y-47244D01*
X48863Y-47244D01*
X48901Y-47225D01*
X48920Y-47206D01*
X48939Y-47168D01*
X48939Y-47092D01*
X48920Y-47054D01*
X48901Y-47035D01*
X48863Y-47016D01*
G54D14*
G54D15*
X67227Y-38189D02*
X67227Y-37789D01*
X67379Y-37789D01*
X67418Y-37808D01*
X67437Y-37827D01*
X67456Y-37865D01*
X67456Y-37922D01*
X67437Y-37961D01*
X67418Y-37980D01*
X67379Y-37999D01*
X67227Y-37999D01*
X67646Y-38189D02*
X67722Y-38189D01*
X67760Y-38170D01*
X67779Y-38151D01*
X67818Y-38094D01*
X67837Y-38018D01*
X67837Y-37865D01*
X67818Y-37827D01*
X67799Y-37808D01*
X67760Y-37789D01*
X67684Y-37789D01*
X67646Y-37808D01*
X67627Y-37827D01*
X67608Y-37865D01*
X67608Y-37961D01*
X67627Y-37999D01*
X67646Y-38018D01*
X67684Y-38037D01*
X67760Y-38037D01*
X67799Y-38018D01*
X67818Y-37999D01*
X67837Y-37961D01*
G54D14*
G54D15*
X67037Y-47244D02*
X67037Y-46844D01*
X67189Y-46844D01*
X67227Y-46863D01*
X67246Y-46882D01*
X67265Y-46920D01*
X67265Y-46978D01*
X67246Y-47016D01*
X67227Y-47035D01*
X67189Y-47054D01*
X67037Y-47054D01*
X67646Y-47244D02*
X67418Y-47244D01*
X67532Y-47244D02*
X67532Y-46844D01*
X67494Y-46901D01*
X67456Y-46939D01*
X67418Y-46959D01*
X67894Y-46844D02*
X67932Y-46844D01*
X67970Y-46863D01*
X67989Y-46882D01*
X68008Y-46920D01*
X68027Y-46997D01*
X68027Y-47092D01*
X68008Y-47168D01*
X67989Y-47206D01*
X67970Y-47225D01*
X67932Y-47244D01*
X67894Y-47244D01*
X67856Y-47225D01*
X67837Y-47206D01*
X67818Y-47168D01*
X67799Y-47092D01*
X67799Y-46997D01*
X67818Y-46920D01*
X67837Y-46882D01*
X67856Y-46863D01*
X67894Y-46844D01*
G54D14*
G54D15*
X48139Y-38189D02*
X48139Y-37789D01*
X48291Y-37789D01*
X48329Y-37808D01*
X48349Y-37827D01*
X48368Y-37865D01*
X48368Y-37922D01*
X48349Y-37961D01*
X48329Y-37980D01*
X48291Y-37999D01*
X48139Y-37999D01*
X48749Y-38189D02*
X48520Y-38189D01*
X48634Y-38189D02*
X48634Y-37789D01*
X48596Y-37846D01*
X48558Y-37884D01*
X48520Y-37903D01*
X49129Y-38189D02*
X48901Y-38189D01*
X49015Y-38189D02*
X49015Y-37789D01*
X48977Y-37846D01*
X48939Y-37884D01*
X48901Y-37903D01*
G54D14*
G54D16*
X70302Y-27129D02*
X70611Y-27129D01*
X70444Y-27338D01*
X70516Y-27338D01*
X70563Y-27364D01*
X70587Y-27391D01*
X70611Y-27443D01*
X70611Y-27574D01*
X70587Y-27626D01*
X70563Y-27652D01*
X70516Y-27679D01*
X70373Y-27679D01*
X70325Y-27652D01*
X70302Y-27626D01*
X70778Y-27129D02*
X71087Y-27129D01*
X70921Y-27338D01*
X70992Y-27338D01*
X71040Y-27364D01*
X71063Y-27391D01*
X71087Y-27443D01*
X71087Y-27574D01*
X71063Y-27626D01*
X71040Y-27652D01*
X70992Y-27679D01*
X70849Y-27679D01*
X70802Y-27652D01*
X70778Y-27626D01*
X71397Y-27129D02*
X71444Y-27129D01*
X71492Y-27155D01*
X71516Y-27181D01*
X71540Y-27233D01*
X71563Y-27338D01*
X71563Y-27469D01*
X71540Y-27574D01*
X71516Y-27626D01*
X71492Y-27652D01*
X71444Y-27679D01*
X71397Y-27679D01*
X71349Y-27652D01*
X71325Y-27626D01*
X71302Y-27574D01*
X71278Y-27469D01*
X71278Y-27338D01*
X71302Y-27233D01*
X71325Y-27181D01*
X71349Y-27155D01*
X71397Y-27129D01*
X70302Y-23192D02*
X70611Y-23192D01*
X70444Y-23402D01*
X70516Y-23402D01*
X70563Y-23428D01*
X70587Y-23454D01*
X70611Y-23507D01*
X70611Y-23638D01*
X70587Y-23690D01*
X70563Y-23716D01*
X70516Y-23742D01*
X70373Y-23742D01*
X70325Y-23716D01*
X70302Y-23690D01*
X70778Y-23192D02*
X71087Y-23192D01*
X70921Y-23402D01*
X70992Y-23402D01*
X71040Y-23428D01*
X71063Y-23454D01*
X71087Y-23507D01*
X71087Y-23638D01*
X71063Y-23690D01*
X71040Y-23716D01*
X70992Y-23742D01*
X70849Y-23742D01*
X70802Y-23716D01*
X70778Y-23690D01*
X71397Y-23192D02*
X71444Y-23192D01*
X71492Y-23219D01*
X71516Y-23245D01*
X71540Y-23297D01*
X71563Y-23402D01*
X71563Y-23533D01*
X71540Y-23638D01*
X71516Y-23690D01*
X71492Y-23716D01*
X71444Y-23742D01*
X71397Y-23742D01*
X71349Y-23716D01*
X71325Y-23690D01*
X71302Y-23638D01*
X71278Y-23533D01*
X71278Y-23402D01*
X71302Y-23297D01*
X71325Y-23245D01*
X71349Y-23219D01*
X71397Y-23192D01*
X43505Y-38679D02*
X43505Y-38965D01*
X43505Y-38822D02*
X42955Y-38822D01*
X43034Y-38870D01*
X43086Y-38917D01*
X43113Y-38965D01*
X42955Y-38227D02*
X42955Y-38465D01*
X43217Y-38489D01*
X43191Y-38465D01*
X43165Y-38417D01*
X43165Y-38298D01*
X43191Y-38251D01*
X43217Y-38227D01*
X43270Y-38203D01*
X43401Y-38203D01*
X43453Y-38227D01*
X43479Y-38251D01*
X43505Y-38298D01*
X43505Y-38417D01*
X43479Y-38465D01*
X43453Y-38489D01*
X42955Y-37894D02*
X42955Y-37846D01*
X42982Y-37798D01*
X43008Y-37775D01*
X43060Y-37751D01*
X43165Y-37727D01*
X43296Y-37727D01*
X43401Y-37751D01*
X43453Y-37775D01*
X43479Y-37798D01*
X43505Y-37846D01*
X43505Y-37894D01*
X43479Y-37941D01*
X43453Y-37965D01*
X43401Y-37989D01*
X43296Y-38013D01*
X43165Y-38013D01*
X43060Y-37989D01*
X43008Y-37965D01*
X42982Y-37941D01*
X42955Y-37894D01*
X41139Y-38965D02*
X41113Y-38941D01*
X41087Y-38894D01*
X41087Y-38775D01*
X41113Y-38727D01*
X41139Y-38703D01*
X41192Y-38679D01*
X41244Y-38679D01*
X41323Y-38703D01*
X41637Y-38989D01*
X41637Y-38679D01*
X41139Y-38489D02*
X41113Y-38465D01*
X41087Y-38417D01*
X41087Y-38298D01*
X41113Y-38251D01*
X41139Y-38227D01*
X41192Y-38203D01*
X41244Y-38203D01*
X41323Y-38227D01*
X41637Y-38513D01*
X41637Y-38203D01*
X41087Y-37894D02*
X41087Y-37846D01*
X41113Y-37798D01*
X41139Y-37775D01*
X41192Y-37751D01*
X41296Y-37727D01*
X41427Y-37727D01*
X41532Y-37751D01*
X41585Y-37775D01*
X41611Y-37798D01*
X41637Y-37846D01*
X41637Y-37894D01*
X41611Y-37941D01*
X41585Y-37965D01*
X41532Y-37989D01*
X41427Y-38013D01*
X41296Y-38013D01*
X41192Y-37989D01*
X41139Y-37965D01*
X41113Y-37941D01*
X41087Y-37894D01*
G54D14*
X40981Y-36031D02*
X40781Y-35745D01*
X40638Y-36031D02*
X40638Y-35431D01*
X40867Y-35431D01*
X40924Y-35459D01*
X40952Y-35488D01*
X40981Y-35545D01*
X40981Y-35631D01*
X40952Y-35688D01*
X40924Y-35716D01*
X40867Y-35745D01*
X40638Y-35745D01*
X41152Y-35431D02*
X41352Y-36031D01*
X41552Y-35431D01*
X42067Y-36031D02*
X41724Y-36031D01*
X41895Y-36031D02*
X41895Y-35431D01*
X41838Y-35516D01*
X41781Y-35574D01*
X41724Y-35602D01*
X41210Y-27031D02*
X40867Y-27031D01*
X41038Y-27031D02*
X41038Y-26431D01*
X40981Y-26516D01*
X40924Y-26574D01*
X40867Y-26602D01*
X41467Y-27031D02*
X41467Y-26431D01*
X41810Y-27031D02*
X41552Y-26688D01*
X41810Y-26431D02*
X41467Y-26774D01*
G54D15*
X58443Y-22705D02*
X58500Y-22724D01*
X58595Y-22724D01*
X58633Y-22705D01*
X58652Y-22686D01*
X58671Y-22648D01*
X58671Y-22609D01*
X58652Y-22571D01*
X58633Y-22552D01*
X58595Y-22533D01*
X58519Y-22514D01*
X58481Y-22495D01*
X58462Y-22476D01*
X58443Y-22438D01*
X58443Y-22400D01*
X58462Y-22362D01*
X58481Y-22343D01*
X58519Y-22324D01*
X58614Y-22324D01*
X58671Y-22343D01*
X58804Y-22324D02*
X58900Y-22724D01*
X58976Y-22438D01*
X59052Y-22724D01*
X59147Y-22324D01*
X59509Y-22724D02*
X59281Y-22724D01*
X59395Y-22724D02*
X59395Y-22324D01*
X59357Y-22381D01*
X59319Y-22419D01*
X59281Y-22438D01*
G54D14*
X44521Y-31716D02*
X45007Y-31716D01*
X45064Y-31688D01*
X45093Y-31659D01*
X45121Y-31602D01*
X45121Y-31488D01*
X45093Y-31431D01*
X45064Y-31402D01*
X45007Y-31374D01*
X44521Y-31374D01*
X45121Y-30774D02*
X45121Y-31116D01*
X45121Y-30945D02*
X44521Y-30945D01*
X44607Y-31002D01*
X44664Y-31059D01*
X44693Y-31116D01*
X38175Y-49570D02*
X38603Y-49570D01*
X38689Y-49598D01*
X38746Y-49655D01*
X38775Y-49741D01*
X38775Y-49798D01*
X38775Y-48970D02*
X38775Y-49312D01*
X38775Y-49141D02*
X38175Y-49141D01*
X38261Y-49198D01*
X38318Y-49255D01*
X38346Y-49312D01*
X43112Y-51158D02*
X43598Y-51158D01*
X43655Y-51130D01*
X43683Y-51101D01*
X43712Y-51044D01*
X43712Y-50930D01*
X43683Y-50873D01*
X43655Y-50844D01*
X43598Y-50815D01*
X43112Y-50815D01*
X43683Y-50558D02*
X43712Y-50473D01*
X43712Y-50330D01*
X43683Y-50273D01*
X43655Y-50244D01*
X43598Y-50215D01*
X43540Y-50215D01*
X43483Y-50244D01*
X43455Y-50273D01*
X43426Y-50330D01*
X43398Y-50444D01*
X43369Y-50501D01*
X43340Y-50530D01*
X43283Y-50558D01*
X43226Y-50558D01*
X43169Y-50530D01*
X43140Y-50501D01*
X43112Y-50444D01*
X43112Y-50301D01*
X43140Y-50215D01*
X43398Y-49758D02*
X43426Y-49673D01*
X43455Y-49644D01*
X43512Y-49615D01*
X43598Y-49615D01*
X43655Y-49644D01*
X43683Y-49673D01*
X43712Y-49730D01*
X43712Y-49958D01*
X43112Y-49958D01*
X43112Y-49758D01*
X43140Y-49701D01*
X43169Y-49673D01*
X43226Y-49644D01*
X43283Y-49644D01*
X43340Y-49673D01*
X43369Y-49701D01*
X43398Y-49758D01*
X43398Y-49958D01*
M02*
