%FSLAX46Y46*%
G04 Gerber Fmt 4.6, Leading zero omitted, Abs format (unit mm)*
G04 Created by KiCad (PCBNEW (2014-09-02 BZR 5112)-product) date jeu. 26 mars 2015 23:29:14 CET*
%MOMM*%
G01*
G04 APERTURE LIST*
%ADD10C,0.150000*%
%ADD11R,1.270000X2.286000*%
%ADD12R,3.556000X2.159000*%
%ADD13R,2.125980X2.125980*%
%ADD14C,10.000000*%
%ADD15O,4.000500X2.999740*%
%ADD16R,0.635000X1.143000*%
%ADD17R,1.397000X0.889000*%
%ADD18R,0.889000X1.397000*%
%ADD19R,0.797560X0.797560*%
%ADD20R,2.032000X1.524000*%
%ADD21R,1.524000X2.032000*%
%ADD22R,0.900000X0.500000*%
%ADD23R,0.500000X0.900000*%
%ADD24C,1.300000*%
%ADD25O,2.850000X1.425000*%
%ADD26C,3.450000*%
%ADD27C,1.998980*%
%ADD28C,2.301240*%
%ADD29R,1.800000X1.770000*%
%ADD30R,1.727200X2.032000*%
%ADD31O,1.727200X2.032000*%
%ADD32R,2.032000X1.727200*%
%ADD33O,2.032000X1.727200*%
%ADD34R,0.900000X1.200000*%
%ADD35C,0.254000*%
G04 APERTURE END LIST*
D10*
D11*
X121514000Y-70275000D03*
X123800000Y-70275000D03*
X126086000Y-70275000D03*
D12*
X123800000Y-63925000D03*
D13*
X109899860Y-52049180D03*
X109899860Y-57550820D03*
X114101020Y-52049180D03*
X114101020Y-57550820D03*
X118299640Y-52049180D03*
X118299640Y-57550820D03*
X122500800Y-52049180D03*
X122500800Y-57550820D03*
X126699420Y-52049180D03*
X126699420Y-57550820D03*
X130900580Y-52049180D03*
X130900580Y-57550820D03*
X135099200Y-52049180D03*
X135099200Y-57550820D03*
X139300360Y-52049180D03*
X139300360Y-57550820D03*
X143498980Y-52049180D03*
X143498980Y-57550820D03*
X147700140Y-52049180D03*
X147700140Y-57550820D03*
D14*
X125600000Y-93600000D03*
X150500000Y-93600000D03*
X112900000Y-93600000D03*
X137200000Y-82100000D03*
D15*
X110600000Y-71598740D03*
X110600000Y-66597480D03*
X110600000Y-76600000D03*
D16*
X128938000Y-70500000D03*
X130462000Y-70500000D03*
D17*
X118900000Y-68052500D03*
X118900000Y-66147500D03*
D18*
X127647500Y-63700000D03*
X129552500Y-63700000D03*
D19*
X139500000Y-64550700D03*
X139500000Y-66049300D03*
X141500000Y-64550700D03*
X141500000Y-66049300D03*
D20*
X146800000Y-83349000D03*
X146800000Y-86651000D03*
D21*
X149749000Y-86500000D03*
X153051000Y-86500000D03*
D22*
X139500000Y-67850000D03*
X139500000Y-69350000D03*
X141500000Y-67850000D03*
X141500000Y-69350000D03*
D23*
X121650000Y-75500000D03*
X120150000Y-75500000D03*
D14*
X138100000Y-93600000D03*
D20*
X127700000Y-82949000D03*
X127700000Y-86251000D03*
D21*
X116951000Y-86300000D03*
X113649000Y-86300000D03*
D24*
X152300000Y-64800000D03*
X154800000Y-64800000D03*
X149800000Y-64800000D03*
X149800000Y-61600000D03*
X154800000Y-61600000D03*
X152300000Y-61600000D03*
D25*
X151490000Y-78500000D03*
X151490000Y-76000000D03*
X151490000Y-74000000D03*
X151490000Y-71500000D03*
D26*
X154200000Y-81570000D03*
X154200000Y-68430000D03*
D27*
X143400000Y-61100660D03*
D28*
X143400000Y-86099340D03*
D29*
X119958000Y-86200000D03*
X124042000Y-86200000D03*
X119858000Y-78000000D03*
X123942000Y-78000000D03*
D30*
X108500000Y-82700000D03*
D31*
X111040000Y-82700000D03*
X113580000Y-82700000D03*
X116120000Y-82700000D03*
X118660000Y-82700000D03*
D32*
X155400000Y-56200000D03*
D33*
X155400000Y-53660000D03*
X155400000Y-51120000D03*
D34*
X152900000Y-53800000D03*
X152900000Y-56000000D03*
D35*
G36*
X125373000Y-64673000D02*
X120648652Y-64673000D01*
X116031516Y-60527000D01*
X122649394Y-60527000D01*
X124543605Y-62321515D01*
X125373000Y-62413670D01*
X125373000Y-64673000D01*
X125373000Y-64673000D01*
G37*
X125373000Y-64673000D02*
X120648652Y-64673000D01*
X116031516Y-60527000D01*
X122649394Y-60527000D01*
X124543605Y-62321515D01*
X125373000Y-62413670D01*
X125373000Y-64673000D01*
M02*
