M48
METRIC,TZ
T1C0.800
T2C0.900
T3C0.950
T4C1.001
T5C1.016
T6C1.199
T7C1.400
T8C1.699
T9C2.000
T10C2.300
T11C6.000
%
G90
G05
T1
X117500Y-60700
X118400Y-61700
X119500Y-60600
X119900Y-62700
X120600Y-61600
X121000Y-63900
X121400Y-60600
X121400Y-62700
X122400Y-61500
X131100Y-63000
X131900Y-68800
X133800Y-61400
X139800Y-60600
X141400Y-62300
X146000Y-60900
X149800Y-83000
X150200Y-53200
T2
X149800Y-61600
X149800Y-64800
X152300Y-61600
X152300Y-64800
X154800Y-61600
X154800Y-64800
T3
X151490Y-71500
X151490Y-74000
X151490Y-76000
X151490Y-78500
T4
X143400Y-61101
T5
X108500Y-82700
X111040Y-82700
X113580Y-82700
X116120Y-82700
X118660Y-82700
X155400Y-51120
X155400Y-53660
X155400Y-56200
T6
X143400Y-86099
T7
X110600Y-66597
X110600Y-71599
X110600Y-76600
T8
X109900Y-52049
X109900Y-57551
X114101Y-52049
X114101Y-57551
X118300Y-52049
X118300Y-57551
X122501Y-52049
X122501Y-57551
X126699Y-52049
X126699Y-57551
X130901Y-52049
X130901Y-57551
X135099Y-52049
X135099Y-57551
X139300Y-52049
X139300Y-57551
X143499Y-52049
X143499Y-57551
X147700Y-52049
X147700Y-57551
T9
X147700Y-66400
T10
X154200Y-68430
X154200Y-81570
T11
X112900Y-93600
X125600Y-93600
X137200Y-82100
X138100Y-93600
X150500Y-93600
T0
M30
