%FSLAX46Y46*%
G04 Gerber Fmt 4.6, Leading zero omitted, Abs format (unit mm)*
G04 Created by KiCad (PCBNEW (2014-09-02 BZR 5112)-product) date mer. 25 mars 2015 20:03:37 CET*
%MOMM*%
G01*
G04 APERTURE LIST*
%ADD10C,0.150000*%
%ADD11R,2.125980X2.125980*%
%ADD12C,10.000000*%
%ADD13O,4.000500X2.999740*%
%ADD14C,1.300000*%
%ADD15O,2.850000X1.425000*%
%ADD16C,3.450000*%
%ADD17C,1.998980*%
%ADD18C,2.301240*%
%ADD19R,1.727200X2.032000*%
%ADD20O,1.727200X2.032000*%
%ADD21R,2.032000X1.727200*%
%ADD22O,2.032000X1.727200*%
%ADD23R,0.899160X1.998980*%
%ADD24R,1.000760X1.998980*%
%ADD25C,1.200000*%
%ADD26C,2.500000*%
%ADD27C,0.800000*%
%ADD28C,2.000000*%
%ADD29C,0.254000*%
G04 APERTURE END LIST*
D10*
D11*
X109899860Y-52049180D03*
X109899860Y-57550820D03*
X114101020Y-52049180D03*
X114101020Y-57550820D03*
X118299640Y-52049180D03*
X118299640Y-57550820D03*
X122500800Y-52049180D03*
X122500800Y-57550820D03*
X126699420Y-52049180D03*
X126699420Y-57550820D03*
X130900580Y-52049180D03*
X130900580Y-57550820D03*
X135099200Y-52049180D03*
X135099200Y-57550820D03*
X139300360Y-52049180D03*
X139300360Y-57550820D03*
X143498980Y-52049180D03*
X143498980Y-57550820D03*
X147700140Y-52049180D03*
X147700140Y-57550820D03*
D12*
X125600000Y-93600000D03*
X150500000Y-93600000D03*
X112900000Y-93600000D03*
X137200000Y-82100000D03*
D13*
X110600000Y-71598740D03*
X110600000Y-66597480D03*
X110600000Y-76600000D03*
D12*
X138100000Y-93600000D03*
D14*
X152300000Y-64800000D03*
X154800000Y-64800000D03*
X149800000Y-64800000D03*
X149800000Y-61600000D03*
X154800000Y-61600000D03*
X152300000Y-61600000D03*
D15*
X151490000Y-78500000D03*
X151490000Y-76000000D03*
X151490000Y-74000000D03*
X151490000Y-71500000D03*
D16*
X154200000Y-81570000D03*
X154200000Y-68430000D03*
D17*
X143400000Y-61100660D03*
D18*
X143400000Y-86099340D03*
D19*
X108500000Y-82700000D03*
D20*
X111040000Y-82700000D03*
X113580000Y-82700000D03*
X116120000Y-82700000D03*
X118660000Y-82700000D03*
D21*
X155400000Y-56200000D03*
D22*
X155400000Y-53660000D03*
X155400000Y-51120000D03*
D23*
X152948740Y-51100160D03*
D24*
X150299520Y-51100160D03*
X150299520Y-58699840D03*
X152900480Y-58699840D03*
D25*
X139800000Y-60600000D03*
X146000000Y-60900000D03*
X141400000Y-62300000D03*
X121000000Y-63900000D03*
X121400000Y-62700000D03*
X119900000Y-62700000D03*
X118400000Y-61700000D03*
X120600000Y-61600000D03*
X122400000Y-61500000D03*
X121400000Y-60600000D03*
X119500000Y-60600000D03*
X117500000Y-60700000D03*
D26*
X147700000Y-66400000D03*
D25*
X131100000Y-63000000D03*
X131900000Y-68800000D03*
X149800000Y-83000000D03*
X133800000Y-61400000D03*
X150200000Y-53200000D03*
D27*
X139300360Y-52049180D02*
X139300360Y-53099640D01*
X139300360Y-53099640D02*
X137200000Y-55200000D01*
X137200000Y-55200000D02*
X137200000Y-59100000D01*
X137200000Y-59100000D02*
X138700000Y-60600000D01*
X138700000Y-60600000D02*
X139800000Y-60600000D01*
X143498980Y-52049180D02*
X143498980Y-52898980D01*
X143498980Y-52898980D02*
X145600000Y-55000000D01*
X145600000Y-60500000D02*
X146000000Y-60900000D01*
X145600000Y-55000000D02*
X145600000Y-60500000D01*
X143498980Y-52801020D02*
X143498980Y-52049180D01*
X143498980Y-52049180D02*
X143498980Y-52598980D01*
X143498980Y-52049180D02*
X143498980Y-52801020D01*
X143498980Y-52801020D02*
X141400000Y-54900000D01*
X141400000Y-54900000D02*
X141400000Y-62300000D01*
X121000000Y-63900000D02*
X121400000Y-63500000D01*
X121400000Y-63500000D02*
X121400000Y-62700000D01*
X119900000Y-62700000D02*
X119300000Y-62100000D01*
X119300000Y-62100000D02*
X118800000Y-62100000D01*
X118800000Y-62100000D02*
X118400000Y-61700000D01*
X120600000Y-61600000D02*
X120700000Y-61500000D01*
X120700000Y-61500000D02*
X122400000Y-61500000D01*
X121400000Y-60600000D02*
X119500000Y-60600000D01*
D28*
X136800000Y-66400000D02*
X147700000Y-66400000D01*
X136900000Y-66400000D02*
X136800000Y-66400000D01*
X136800000Y-66400000D02*
X128300000Y-66400000D01*
X128300000Y-66400000D02*
X124600000Y-62700000D01*
X124600000Y-62700000D02*
X124600000Y-60300000D01*
D27*
X124600000Y-60300000D02*
X124600000Y-59200000D01*
X124600000Y-54124880D02*
X124600000Y-59200000D01*
X128824880Y-54124880D02*
X124600000Y-54124880D01*
X130900580Y-52049180D02*
X128824880Y-54124880D01*
X124600000Y-54124880D02*
X124576500Y-54124880D01*
X124576500Y-54124880D02*
X122500800Y-52049180D01*
X151490000Y-74000000D02*
X151490000Y-76000000D01*
X152948740Y-51100160D02*
X155380160Y-51100160D01*
X155380160Y-51100160D02*
X155400000Y-51120000D01*
X152948740Y-51100160D02*
X152948740Y-58651580D01*
X152948740Y-58651580D02*
X152900480Y-58699840D01*
X152948740Y-51100160D02*
X152948740Y-51551260D01*
X154800000Y-61600000D02*
X154800000Y-64800000D01*
X118299640Y-52049180D02*
X118299640Y-57550820D01*
X130900580Y-62800580D02*
X130900580Y-57550820D01*
X131100000Y-63000000D02*
X130900580Y-62800580D01*
D28*
X109899860Y-60399860D02*
X112400000Y-62900000D01*
X112400000Y-62900000D02*
X116400000Y-62900000D01*
X116400000Y-62900000D02*
X125100000Y-71600000D01*
X125100000Y-71600000D02*
X141100000Y-71600000D01*
X141100000Y-71600000D02*
X146800000Y-77300000D01*
X146800000Y-77300000D02*
X146800000Y-80000000D01*
X146800000Y-80000000D02*
X149800000Y-83000000D01*
X109899860Y-57550820D02*
X109899860Y-60299860D01*
X109899860Y-60299860D02*
X109899860Y-60399860D01*
D27*
X148600000Y-59600000D02*
X149399360Y-59600000D01*
X143900000Y-64400000D02*
X146400000Y-64400000D01*
X133800000Y-61400000D02*
X134800000Y-62400000D01*
X134800000Y-62400000D02*
X138500000Y-62400000D01*
X138500000Y-62400000D02*
X140500000Y-64400000D01*
X140500000Y-64400000D02*
X143900000Y-64400000D01*
X147600000Y-60600000D02*
X148600000Y-59600000D01*
X147600000Y-63200000D02*
X147600000Y-60600000D01*
X146400000Y-64400000D02*
X147600000Y-63200000D01*
X149399360Y-59600000D02*
X150299520Y-58699840D01*
X150299520Y-58699840D02*
X150299520Y-59199520D01*
X150299520Y-59199520D02*
X152300000Y-61200000D01*
X152300000Y-61200000D02*
X152300000Y-64800000D01*
X135400000Y-93600000D02*
X138100000Y-93600000D01*
X116120000Y-83920000D02*
X119200000Y-87000000D01*
X119200000Y-87000000D02*
X128800000Y-87000000D01*
X128800000Y-87000000D02*
X135400000Y-93600000D01*
X116120000Y-82700000D02*
X116120000Y-83920000D01*
X150500000Y-87200000D02*
X144000000Y-80700000D01*
X144000000Y-80700000D02*
X144000000Y-78600000D01*
X144000000Y-78600000D02*
X140600000Y-75200000D01*
X140600000Y-75200000D02*
X133800000Y-75200000D01*
X133800000Y-75200000D02*
X126300000Y-82700000D01*
X126300000Y-82700000D02*
X118660000Y-82700000D01*
X150500000Y-93600000D02*
X150500000Y-87200000D01*
D28*
X116400000Y-87100000D02*
X114500000Y-87100000D01*
X114500000Y-87100000D02*
X113580000Y-86180000D01*
X113580000Y-86180000D02*
X113580000Y-82700000D01*
X122900000Y-93600000D02*
X116400000Y-87100000D01*
X125600000Y-93600000D02*
X122900000Y-93600000D01*
D27*
X149800000Y-64800000D02*
X149800000Y-61600000D01*
X150299520Y-53100480D02*
X150299520Y-51100160D01*
X150200000Y-53200000D02*
X150299520Y-53100480D01*
D29*
G36*
X149465000Y-87964094D02*
X149384047Y-87964024D01*
X147312199Y-88820094D01*
X145725665Y-90403861D01*
X145195634Y-91680317D01*
X145195634Y-86399825D01*
X145173940Y-85689792D01*
X144943959Y-85134569D01*
X144661473Y-85017472D01*
X144481868Y-85197077D01*
X144481868Y-84837867D01*
X144364771Y-84555381D01*
X143700485Y-84303706D01*
X142990452Y-84325400D01*
X142435229Y-84555381D01*
X142318132Y-84837864D01*
X142204203Y-84723935D01*
X142203571Y-84724566D01*
X142814933Y-83317417D01*
X142853407Y-81076005D01*
X142031202Y-78990487D01*
X141921636Y-78826511D01*
X141239137Y-78240468D01*
X141059532Y-78420073D01*
X141059532Y-78060863D01*
X140473489Y-77378364D01*
X138417417Y-76485067D01*
X136176005Y-76446593D01*
X134090487Y-77268798D01*
X133926511Y-77378364D01*
X133340468Y-78060863D01*
X137200000Y-81920395D01*
X141059532Y-78060863D01*
X141059532Y-78420073D01*
X137379605Y-82100000D01*
X141239137Y-85959532D01*
X141690246Y-85572176D01*
X141604366Y-85798855D01*
X141626060Y-86508888D01*
X141856041Y-87064111D01*
X142138527Y-87181208D01*
X143220395Y-86099340D01*
X143206252Y-86085197D01*
X143385857Y-85905592D01*
X143400000Y-85919735D01*
X144481868Y-84837867D01*
X144481868Y-85197077D01*
X143579605Y-86099340D01*
X144661473Y-87181208D01*
X144943959Y-87064111D01*
X145195634Y-86399825D01*
X145195634Y-91680317D01*
X144865980Y-92474212D01*
X144864024Y-94715953D01*
X145720094Y-96787801D01*
X147303861Y-98374335D01*
X148786546Y-98990000D01*
X144481868Y-98990000D01*
X144481868Y-87360813D01*
X143400000Y-86278945D01*
X143220395Y-86458550D01*
X142318132Y-87360813D01*
X142435229Y-87643299D01*
X143099515Y-87894974D01*
X143809548Y-87873280D01*
X144364771Y-87643299D01*
X144481868Y-87360813D01*
X144481868Y-98990000D01*
X139811260Y-98990000D01*
X141287801Y-98379906D01*
X142874335Y-96796139D01*
X143734020Y-94725788D01*
X143735976Y-92484047D01*
X142879906Y-90412199D01*
X141296139Y-88825665D01*
X141059532Y-88727417D01*
X141059532Y-86139137D01*
X137200000Y-82279605D01*
X137020395Y-82459210D01*
X137020395Y-82100000D01*
X133160863Y-78240468D01*
X132478364Y-78826511D01*
X131585067Y-80882583D01*
X131546593Y-83123995D01*
X132368798Y-85209513D01*
X132478364Y-85373489D01*
X133160863Y-85959532D01*
X137020395Y-82100000D01*
X137020395Y-82459210D01*
X133340468Y-86139137D01*
X133926511Y-86821636D01*
X135982583Y-87714933D01*
X138223995Y-87753407D01*
X140309513Y-86931202D01*
X140473489Y-86821636D01*
X141059532Y-86139137D01*
X141059532Y-88727417D01*
X139225788Y-87965980D01*
X136984047Y-87964024D01*
X134912199Y-88820094D01*
X133496767Y-90233056D01*
X129531856Y-86268144D01*
X129196077Y-86043785D01*
X128800000Y-85964999D01*
X128799994Y-85965000D01*
X126227000Y-85965000D01*
X119628711Y-85965000D01*
X117623826Y-83960115D01*
X118086511Y-84269271D01*
X118660000Y-84383345D01*
X119233489Y-84269271D01*
X119719670Y-83944415D01*
X119859596Y-83735000D01*
X126227000Y-83735000D01*
X126299994Y-83735000D01*
X126300000Y-83735001D01*
X126300000Y-83735000D01*
X126696077Y-83656215D01*
X127031856Y-83431856D01*
X134228711Y-76235000D01*
X140171288Y-76235000D01*
X142965000Y-79028711D01*
X142965000Y-80699994D01*
X142964999Y-80700000D01*
X143043785Y-81096077D01*
X143268144Y-81431856D01*
X149465000Y-87628711D01*
X149465000Y-87964094D01*
X149465000Y-87964094D01*
G37*
X149465000Y-87964094D02*
X149384047Y-87964024D01*
X147312199Y-88820094D01*
X145725665Y-90403861D01*
X145195634Y-91680317D01*
X145195634Y-86399825D01*
X145173940Y-85689792D01*
X144943959Y-85134569D01*
X144661473Y-85017472D01*
X144481868Y-85197077D01*
X144481868Y-84837867D01*
X144364771Y-84555381D01*
X143700485Y-84303706D01*
X142990452Y-84325400D01*
X142435229Y-84555381D01*
X142318132Y-84837864D01*
X142204203Y-84723935D01*
X142203571Y-84724566D01*
X142814933Y-83317417D01*
X142853407Y-81076005D01*
X142031202Y-78990487D01*
X141921636Y-78826511D01*
X141239137Y-78240468D01*
X141059532Y-78420073D01*
X141059532Y-78060863D01*
X140473489Y-77378364D01*
X138417417Y-76485067D01*
X136176005Y-76446593D01*
X134090487Y-77268798D01*
X133926511Y-77378364D01*
X133340468Y-78060863D01*
X137200000Y-81920395D01*
X141059532Y-78060863D01*
X141059532Y-78420073D01*
X137379605Y-82100000D01*
X141239137Y-85959532D01*
X141690246Y-85572176D01*
X141604366Y-85798855D01*
X141626060Y-86508888D01*
X141856041Y-87064111D01*
X142138527Y-87181208D01*
X143220395Y-86099340D01*
X143206252Y-86085197D01*
X143385857Y-85905592D01*
X143400000Y-85919735D01*
X144481868Y-84837867D01*
X144481868Y-85197077D01*
X143579605Y-86099340D01*
X144661473Y-87181208D01*
X144943959Y-87064111D01*
X145195634Y-86399825D01*
X145195634Y-91680317D01*
X144865980Y-92474212D01*
X144864024Y-94715953D01*
X145720094Y-96787801D01*
X147303861Y-98374335D01*
X148786546Y-98990000D01*
X144481868Y-98990000D01*
X144481868Y-87360813D01*
X143400000Y-86278945D01*
X143220395Y-86458550D01*
X142318132Y-87360813D01*
X142435229Y-87643299D01*
X143099515Y-87894974D01*
X143809548Y-87873280D01*
X144364771Y-87643299D01*
X144481868Y-87360813D01*
X144481868Y-98990000D01*
X139811260Y-98990000D01*
X141287801Y-98379906D01*
X142874335Y-96796139D01*
X143734020Y-94725788D01*
X143735976Y-92484047D01*
X142879906Y-90412199D01*
X141296139Y-88825665D01*
X141059532Y-88727417D01*
X141059532Y-86139137D01*
X137200000Y-82279605D01*
X137020395Y-82459210D01*
X137020395Y-82100000D01*
X133160863Y-78240468D01*
X132478364Y-78826511D01*
X131585067Y-80882583D01*
X131546593Y-83123995D01*
X132368798Y-85209513D01*
X132478364Y-85373489D01*
X133160863Y-85959532D01*
X137020395Y-82100000D01*
X137020395Y-82459210D01*
X133340468Y-86139137D01*
X133926511Y-86821636D01*
X135982583Y-87714933D01*
X138223995Y-87753407D01*
X140309513Y-86931202D01*
X140473489Y-86821636D01*
X141059532Y-86139137D01*
X141059532Y-88727417D01*
X139225788Y-87965980D01*
X136984047Y-87964024D01*
X134912199Y-88820094D01*
X133496767Y-90233056D01*
X129531856Y-86268144D01*
X129196077Y-86043785D01*
X128800000Y-85964999D01*
X128799994Y-85965000D01*
X126227000Y-85965000D01*
X119628711Y-85965000D01*
X117623826Y-83960115D01*
X118086511Y-84269271D01*
X118660000Y-84383345D01*
X119233489Y-84269271D01*
X119719670Y-83944415D01*
X119859596Y-83735000D01*
X126227000Y-83735000D01*
X126299994Y-83735000D01*
X126300000Y-83735001D01*
X126300000Y-83735000D01*
X126696077Y-83656215D01*
X127031856Y-83431856D01*
X134228711Y-76235000D01*
X140171288Y-76235000D01*
X142965000Y-79028711D01*
X142965000Y-80699994D01*
X142964999Y-80700000D01*
X143043785Y-81096077D01*
X143268144Y-81431856D01*
X149465000Y-87628711D01*
X149465000Y-87964094D01*
G36*
X156090000Y-92372776D02*
X155279906Y-90412199D01*
X153696139Y-88825665D01*
X151625788Y-87965980D01*
X151535000Y-87965900D01*
X151535000Y-87200005D01*
X151535000Y-87200000D01*
X151535001Y-87200000D01*
X151456215Y-86803923D01*
X151231856Y-86468144D01*
X151231852Y-86468141D01*
X149299070Y-84535358D01*
X149800000Y-84635001D01*
X150425688Y-84510543D01*
X150956120Y-84156120D01*
X151310543Y-83625688D01*
X151435001Y-83000000D01*
X151310543Y-82374313D01*
X150956120Y-81843881D01*
X148435000Y-79322760D01*
X148435000Y-77300000D01*
X148310543Y-76674313D01*
X148310543Y-76674312D01*
X148168580Y-76461851D01*
X147956120Y-76143880D01*
X147956116Y-76143877D01*
X142256120Y-70443880D01*
X141725688Y-70089457D01*
X141100000Y-69964999D01*
X141099994Y-69965000D01*
X126227000Y-69965000D01*
X125777240Y-69965000D01*
X121439240Y-65627000D01*
X125214760Y-65627000D01*
X126227000Y-66639239D01*
X127143877Y-67556116D01*
X127143880Y-67556120D01*
X127461851Y-67768580D01*
X127674312Y-67910543D01*
X127674313Y-67910543D01*
X128300000Y-68035000D01*
X136800000Y-68035000D01*
X136900000Y-68035000D01*
X146722129Y-68035000D01*
X147323405Y-68284672D01*
X148073305Y-68285326D01*
X148766372Y-67998957D01*
X149297093Y-67469161D01*
X149584672Y-66776595D01*
X149585275Y-66084813D01*
X150054481Y-66085223D01*
X150526943Y-65890005D01*
X150888735Y-65528845D01*
X151050155Y-65140102D01*
X151209995Y-65526943D01*
X151571155Y-65888735D01*
X152043276Y-66084777D01*
X152554481Y-66085223D01*
X153026943Y-65890005D01*
X153388735Y-65528845D01*
X153543238Y-65156760D01*
X153670389Y-65463729D01*
X153900984Y-65519410D01*
X154620395Y-64800000D01*
X153900984Y-64080590D01*
X153670389Y-64136271D01*
X153554147Y-64470310D01*
X153390005Y-64073057D01*
X153335000Y-64017955D01*
X153335000Y-62382486D01*
X153388735Y-62328845D01*
X153543238Y-61956760D01*
X153670389Y-62263729D01*
X153900984Y-62319410D01*
X154620395Y-61600000D01*
X154035860Y-61015465D01*
X154035860Y-59825639D01*
X154035860Y-58985590D01*
X153877110Y-58826840D01*
X153027480Y-58826840D01*
X153027480Y-60175580D01*
X153186230Y-60334330D01*
X153274551Y-60334330D01*
X153527170Y-60334330D01*
X153760559Y-60237657D01*
X153939187Y-60059028D01*
X154035860Y-59825639D01*
X154035860Y-61015465D01*
X153900984Y-60880590D01*
X153670389Y-60936271D01*
X153554147Y-61270310D01*
X153390005Y-60873057D01*
X153125088Y-60607676D01*
X153031856Y-60468145D01*
X153031856Y-60468144D01*
X153031852Y-60468141D01*
X152821740Y-60258029D01*
X152821740Y-52575900D01*
X152821740Y-51227160D01*
X152022910Y-51227160D01*
X151864160Y-51385910D01*
X151864160Y-52225959D01*
X151960833Y-52459348D01*
X152139461Y-52637977D01*
X152372850Y-52734650D01*
X152625469Y-52734650D01*
X152662990Y-52734650D01*
X152821740Y-52575900D01*
X152821740Y-60258029D01*
X152756385Y-60192674D01*
X152773480Y-60175580D01*
X152773480Y-58826840D01*
X152773480Y-58572840D01*
X152773480Y-57224100D01*
X152614730Y-57065350D01*
X152526409Y-57065350D01*
X152273790Y-57065350D01*
X152040401Y-57162023D01*
X151861773Y-57340652D01*
X151765100Y-57574041D01*
X151765100Y-58414090D01*
X151923850Y-58572840D01*
X152773480Y-58572840D01*
X152773480Y-58826840D01*
X151923850Y-58826840D01*
X151765100Y-58985590D01*
X151765100Y-59201388D01*
X151434900Y-58871188D01*
X151434900Y-57574041D01*
X151338227Y-57340652D01*
X151159599Y-57162023D01*
X150926210Y-57065350D01*
X150673591Y-57065350D01*
X149672831Y-57065350D01*
X149439442Y-57162023D01*
X149398130Y-57203334D01*
X149398130Y-56361521D01*
X149301457Y-56128132D01*
X149122829Y-55949503D01*
X148889440Y-55852830D01*
X148636821Y-55852830D01*
X146635000Y-55852830D01*
X146635000Y-55000005D01*
X146635000Y-55000000D01*
X146635001Y-55000000D01*
X146556215Y-54603923D01*
X146331856Y-54268144D01*
X145196970Y-53133258D01*
X145196970Y-52985861D01*
X145196970Y-50859881D01*
X145100297Y-50626492D01*
X144921669Y-50447863D01*
X144688280Y-50351190D01*
X144435661Y-50351190D01*
X142309681Y-50351190D01*
X142076292Y-50447863D01*
X141897663Y-50626491D01*
X141800990Y-50859880D01*
X141800990Y-51112499D01*
X141800990Y-53035298D01*
X140668144Y-54168144D01*
X140443785Y-54503923D01*
X140364999Y-54900000D01*
X140365000Y-54900005D01*
X140365000Y-55852830D01*
X140237041Y-55852830D01*
X138235000Y-55852830D01*
X138235000Y-55628711D01*
X140032212Y-53831498D01*
X140032216Y-53831496D01*
X140032216Y-53831495D01*
X140088559Y-53747170D01*
X140088560Y-53747170D01*
X140489659Y-53747170D01*
X140723048Y-53650497D01*
X140901677Y-53471869D01*
X140998350Y-53238480D01*
X140998350Y-52985861D01*
X140998350Y-50859881D01*
X140901677Y-50626492D01*
X140723049Y-50447863D01*
X140489660Y-50351190D01*
X140237041Y-50351190D01*
X138111061Y-50351190D01*
X137877672Y-50447863D01*
X137699043Y-50626491D01*
X137602370Y-50859880D01*
X137602370Y-51112499D01*
X137602370Y-53238479D01*
X137630323Y-53305964D01*
X136797190Y-54139097D01*
X136797190Y-53238480D01*
X136797190Y-52985861D01*
X136797190Y-52334930D01*
X136797190Y-51763430D01*
X136797190Y-51112499D01*
X136797190Y-50859880D01*
X136700517Y-50626491D01*
X136521888Y-50447863D01*
X136288499Y-50351190D01*
X135384950Y-50351190D01*
X135226200Y-50509940D01*
X135226200Y-51922180D01*
X136638440Y-51922180D01*
X136797190Y-51763430D01*
X136797190Y-52334930D01*
X136638440Y-52176180D01*
X135226200Y-52176180D01*
X135226200Y-53588420D01*
X135384950Y-53747170D01*
X136288499Y-53747170D01*
X136521888Y-53650497D01*
X136700517Y-53471869D01*
X136797190Y-53238480D01*
X136797190Y-54139097D01*
X136468144Y-54468144D01*
X136243785Y-54803923D01*
X136164999Y-55200000D01*
X136165000Y-55200005D01*
X136165000Y-55852830D01*
X135384950Y-55852830D01*
X135226200Y-56011580D01*
X135226200Y-57423820D01*
X135246200Y-57423820D01*
X135246200Y-57677820D01*
X135226200Y-57677820D01*
X135226200Y-59090060D01*
X135384950Y-59248810D01*
X136194599Y-59248810D01*
X136243785Y-59496077D01*
X136468144Y-59831856D01*
X137968141Y-61331852D01*
X137968144Y-61331856D01*
X138017747Y-61365000D01*
X135228711Y-61365000D01*
X135035199Y-61171488D01*
X135035214Y-61155421D01*
X134972200Y-61002916D01*
X134972200Y-59090060D01*
X134972200Y-57677820D01*
X134972200Y-57423820D01*
X134972200Y-56011580D01*
X134972200Y-53588420D01*
X134972200Y-52176180D01*
X134972200Y-51922180D01*
X134972200Y-50509940D01*
X134813450Y-50351190D01*
X133909901Y-50351190D01*
X133676512Y-50447863D01*
X133497883Y-50626491D01*
X133401210Y-50859880D01*
X133401210Y-51112499D01*
X133401210Y-51763430D01*
X133559960Y-51922180D01*
X134972200Y-51922180D01*
X134972200Y-52176180D01*
X133559960Y-52176180D01*
X133401210Y-52334930D01*
X133401210Y-52985861D01*
X133401210Y-53238480D01*
X133497883Y-53471869D01*
X133676512Y-53650497D01*
X133909901Y-53747170D01*
X134813450Y-53747170D01*
X134972200Y-53588420D01*
X134972200Y-56011580D01*
X134813450Y-55852830D01*
X133909901Y-55852830D01*
X133676512Y-55949503D01*
X133497883Y-56128131D01*
X133401210Y-56361520D01*
X133401210Y-56614139D01*
X133401210Y-57265070D01*
X133559960Y-57423820D01*
X134972200Y-57423820D01*
X134972200Y-57677820D01*
X133559960Y-57677820D01*
X133401210Y-57836570D01*
X133401210Y-58487501D01*
X133401210Y-58740120D01*
X133497883Y-58973509D01*
X133676512Y-59152137D01*
X133909901Y-59248810D01*
X134813450Y-59248810D01*
X134972200Y-59090060D01*
X134972200Y-61002916D01*
X134847592Y-60701343D01*
X134500485Y-60353629D01*
X134046734Y-60165215D01*
X133555421Y-60164786D01*
X133101343Y-60352408D01*
X132753629Y-60699515D01*
X132598570Y-61072938D01*
X132598570Y-58740120D01*
X132598570Y-58487501D01*
X132598570Y-57836570D01*
X132598570Y-57265070D01*
X132598570Y-56614139D01*
X132598570Y-56361520D01*
X132501897Y-56128131D01*
X132323268Y-55949503D01*
X132089879Y-55852830D01*
X131186330Y-55852830D01*
X131027580Y-56011580D01*
X131027580Y-57423820D01*
X132439820Y-57423820D01*
X132598570Y-57265070D01*
X132598570Y-57836570D01*
X132439820Y-57677820D01*
X131027580Y-57677820D01*
X131027580Y-59090060D01*
X131186330Y-59248810D01*
X132089879Y-59248810D01*
X132323268Y-59152137D01*
X132501897Y-58973509D01*
X132598570Y-58740120D01*
X132598570Y-61072938D01*
X132565215Y-61153266D01*
X132564786Y-61644579D01*
X132752408Y-62098657D01*
X133099515Y-62446371D01*
X133553266Y-62634785D01*
X133571089Y-62634800D01*
X134068141Y-63131852D01*
X134068144Y-63131856D01*
X134068145Y-63131856D01*
X134403923Y-63356215D01*
X134800000Y-63435001D01*
X134800000Y-63435000D01*
X134800005Y-63435000D01*
X138071288Y-63435000D01*
X139401288Y-64765000D01*
X136900000Y-64765000D01*
X136800000Y-64765000D01*
X130773580Y-64765000D01*
X130773580Y-59090060D01*
X130773580Y-57677820D01*
X130773580Y-57423820D01*
X130773580Y-56011580D01*
X130614830Y-55852830D01*
X129711281Y-55852830D01*
X129477892Y-55949503D01*
X129299263Y-56128131D01*
X129202590Y-56361520D01*
X129202590Y-56614139D01*
X129202590Y-57265070D01*
X129361340Y-57423820D01*
X130773580Y-57423820D01*
X130773580Y-57677820D01*
X129361340Y-57677820D01*
X129202590Y-57836570D01*
X129202590Y-58487501D01*
X129202590Y-58740120D01*
X129299263Y-58973509D01*
X129477892Y-59152137D01*
X129711281Y-59248810D01*
X130614830Y-59248810D01*
X130773580Y-59090060D01*
X130773580Y-64765000D01*
X128977239Y-64765000D01*
X128397410Y-64185170D01*
X128397410Y-58740120D01*
X128397410Y-58487501D01*
X128397410Y-57836570D01*
X128397410Y-57265070D01*
X128397410Y-56614139D01*
X128397410Y-56361520D01*
X128300737Y-56128131D01*
X128122108Y-55949503D01*
X127888719Y-55852830D01*
X126985170Y-55852830D01*
X126826420Y-56011580D01*
X126826420Y-57423820D01*
X128238660Y-57423820D01*
X128397410Y-57265070D01*
X128397410Y-57836570D01*
X128238660Y-57677820D01*
X126826420Y-57677820D01*
X126826420Y-59090060D01*
X126985170Y-59248810D01*
X127888719Y-59248810D01*
X128122108Y-59152137D01*
X128300737Y-58973509D01*
X128397410Y-58740120D01*
X128397410Y-64185170D01*
X126235000Y-62022760D01*
X126235000Y-60300000D01*
X126227000Y-60259781D01*
X126227000Y-59673000D01*
X126109665Y-59673000D01*
X125826231Y-59248810D01*
X126413670Y-59248810D01*
X126572420Y-59090060D01*
X126572420Y-57677820D01*
X126552420Y-57677820D01*
X126552420Y-57423820D01*
X126572420Y-57423820D01*
X126572420Y-56011580D01*
X126413670Y-55852830D01*
X125635000Y-55852830D01*
X125635000Y-55159880D01*
X128824874Y-55159880D01*
X128824880Y-55159881D01*
X128824880Y-55159880D01*
X129220957Y-55081095D01*
X129556736Y-54856736D01*
X130666301Y-53747170D01*
X132089879Y-53747170D01*
X132323268Y-53650497D01*
X132501897Y-53471869D01*
X132598570Y-53238480D01*
X132598570Y-52985861D01*
X132598570Y-50859881D01*
X132501897Y-50626492D01*
X132323269Y-50447863D01*
X132089880Y-50351190D01*
X131837261Y-50351190D01*
X129711281Y-50351190D01*
X129477892Y-50447863D01*
X129299263Y-50626491D01*
X129202590Y-50859880D01*
X129202590Y-51112499D01*
X129202590Y-52283458D01*
X128397410Y-53088638D01*
X128397410Y-52985861D01*
X128397410Y-52334930D01*
X128397410Y-51763430D01*
X128397410Y-51112499D01*
X128397410Y-50859880D01*
X128300737Y-50626491D01*
X128122108Y-50447863D01*
X127888719Y-50351190D01*
X126985170Y-50351190D01*
X126826420Y-50509940D01*
X126826420Y-51922180D01*
X128238660Y-51922180D01*
X128397410Y-51763430D01*
X128397410Y-52334930D01*
X128238660Y-52176180D01*
X126826420Y-52176180D01*
X126826420Y-52196180D01*
X126572420Y-52196180D01*
X126572420Y-52176180D01*
X126572420Y-51922180D01*
X126572420Y-50509940D01*
X126413670Y-50351190D01*
X125510121Y-50351190D01*
X125276732Y-50447863D01*
X125098103Y-50626491D01*
X125001430Y-50859880D01*
X125001430Y-51112499D01*
X125001430Y-51763430D01*
X125160180Y-51922180D01*
X126572420Y-51922180D01*
X126572420Y-52176180D01*
X125160180Y-52176180D01*
X125001430Y-52334930D01*
X125001430Y-52985861D01*
X125001430Y-53086098D01*
X124198790Y-52283458D01*
X124198790Y-50859881D01*
X124102117Y-50626492D01*
X123923489Y-50447863D01*
X123690100Y-50351190D01*
X123437481Y-50351190D01*
X121311501Y-50351190D01*
X121078112Y-50447863D01*
X120899483Y-50626491D01*
X120802810Y-50859880D01*
X120802810Y-51112499D01*
X120802810Y-53238479D01*
X120899483Y-53471868D01*
X121078111Y-53650497D01*
X121311500Y-53747170D01*
X121564119Y-53747170D01*
X122735078Y-53747170D01*
X123565000Y-54577091D01*
X123565000Y-55852830D01*
X123437481Y-55852830D01*
X121311501Y-55852830D01*
X121078112Y-55949503D01*
X120899483Y-56128131D01*
X120802810Y-56361520D01*
X120802810Y-56614139D01*
X120802810Y-58740119D01*
X120899483Y-58973508D01*
X121078111Y-59152137D01*
X121311500Y-59248810D01*
X121564119Y-59248810D01*
X123373768Y-59248810D01*
X123090334Y-59673000D01*
X122219647Y-59673000D01*
X122100485Y-59553629D01*
X121646734Y-59365215D01*
X121155421Y-59364786D01*
X120701343Y-59552408D01*
X120688728Y-59565000D01*
X120211836Y-59565000D01*
X120200485Y-59553629D01*
X119997630Y-59469396D01*
X119997630Y-58740120D01*
X119997630Y-58487501D01*
X119997630Y-57836570D01*
X119997630Y-57265070D01*
X119997630Y-56614139D01*
X119997630Y-56361520D01*
X119997630Y-53238480D01*
X119997630Y-52985861D01*
X119997630Y-52334930D01*
X119997630Y-51763430D01*
X119997630Y-51112499D01*
X119997630Y-50859880D01*
X119900957Y-50626491D01*
X119722328Y-50447863D01*
X119488939Y-50351190D01*
X118585390Y-50351190D01*
X118426640Y-50509940D01*
X118426640Y-51922180D01*
X119838880Y-51922180D01*
X119997630Y-51763430D01*
X119997630Y-52334930D01*
X119838880Y-52176180D01*
X118426640Y-52176180D01*
X118426640Y-53588420D01*
X118585390Y-53747170D01*
X119488939Y-53747170D01*
X119722328Y-53650497D01*
X119900957Y-53471869D01*
X119997630Y-53238480D01*
X119997630Y-56361520D01*
X119900957Y-56128131D01*
X119722328Y-55949503D01*
X119488939Y-55852830D01*
X118585390Y-55852830D01*
X118426640Y-56011580D01*
X118426640Y-57423820D01*
X119838880Y-57423820D01*
X119997630Y-57265070D01*
X119997630Y-57836570D01*
X119838880Y-57677820D01*
X118426640Y-57677820D01*
X118426640Y-59090060D01*
X118585390Y-59248810D01*
X119488939Y-59248810D01*
X119722328Y-59152137D01*
X119900957Y-58973509D01*
X119997630Y-58740120D01*
X119997630Y-59469396D01*
X119746734Y-59365215D01*
X119255421Y-59364786D01*
X118801343Y-59552408D01*
X118680540Y-59673000D01*
X118219822Y-59673000D01*
X118200485Y-59653629D01*
X118172640Y-59642066D01*
X118172640Y-59090060D01*
X118172640Y-57677820D01*
X118172640Y-57423820D01*
X118172640Y-56011580D01*
X118172640Y-53588420D01*
X118172640Y-52176180D01*
X118172640Y-51922180D01*
X118172640Y-50509940D01*
X118013890Y-50351190D01*
X117110341Y-50351190D01*
X116876952Y-50447863D01*
X116698323Y-50626491D01*
X116601650Y-50859880D01*
X116601650Y-51112499D01*
X116601650Y-51763430D01*
X116760400Y-51922180D01*
X118172640Y-51922180D01*
X118172640Y-52176180D01*
X116760400Y-52176180D01*
X116601650Y-52334930D01*
X116601650Y-52985861D01*
X116601650Y-53238480D01*
X116698323Y-53471869D01*
X116876952Y-53650497D01*
X117110341Y-53747170D01*
X118013890Y-53747170D01*
X118172640Y-53588420D01*
X118172640Y-56011580D01*
X118013890Y-55852830D01*
X117110341Y-55852830D01*
X116876952Y-55949503D01*
X116698323Y-56128131D01*
X116601650Y-56361520D01*
X116601650Y-56614139D01*
X116601650Y-57265070D01*
X116760400Y-57423820D01*
X118172640Y-57423820D01*
X118172640Y-57677820D01*
X116760400Y-57677820D01*
X116601650Y-57836570D01*
X116601650Y-58487501D01*
X116601650Y-58740120D01*
X116698323Y-58973509D01*
X116876952Y-59152137D01*
X117110341Y-59248810D01*
X118013890Y-59248810D01*
X118172640Y-59090060D01*
X118172640Y-59642066D01*
X117746734Y-59465215D01*
X117255421Y-59464786D01*
X116801343Y-59652408D01*
X116780714Y-59673000D01*
X115799010Y-59673000D01*
X115799010Y-58740120D01*
X115799010Y-58487501D01*
X115799010Y-56361521D01*
X115799010Y-53238480D01*
X115799010Y-52985861D01*
X115799010Y-50859881D01*
X115702337Y-50626492D01*
X115523709Y-50447863D01*
X115290320Y-50351190D01*
X115037701Y-50351190D01*
X112911721Y-50351190D01*
X112678332Y-50447863D01*
X112499703Y-50626491D01*
X112403030Y-50859880D01*
X112403030Y-51112499D01*
X112403030Y-53238479D01*
X112499703Y-53471868D01*
X112678331Y-53650497D01*
X112911720Y-53747170D01*
X113164339Y-53747170D01*
X115290319Y-53747170D01*
X115523708Y-53650497D01*
X115702337Y-53471869D01*
X115799010Y-53238480D01*
X115799010Y-56361521D01*
X115702337Y-56128132D01*
X115523709Y-55949503D01*
X115290320Y-55852830D01*
X115037701Y-55852830D01*
X112911721Y-55852830D01*
X112678332Y-55949503D01*
X112499703Y-56128131D01*
X112403030Y-56361520D01*
X112403030Y-56614139D01*
X112403030Y-58740119D01*
X112499703Y-58973508D01*
X112678331Y-59152137D01*
X112911720Y-59248810D01*
X113164339Y-59248810D01*
X115290319Y-59248810D01*
X115523708Y-59152137D01*
X115702337Y-58973509D01*
X115799010Y-58740120D01*
X115799010Y-59673000D01*
X113866451Y-59673000D01*
X115653959Y-61265000D01*
X113077240Y-61265000D01*
X111534860Y-59722620D01*
X111534860Y-58892191D01*
X111597850Y-58740120D01*
X111597850Y-58487501D01*
X111597850Y-56361521D01*
X111597850Y-53238480D01*
X111597850Y-52985861D01*
X111597850Y-50859881D01*
X111501177Y-50626492D01*
X111322549Y-50447863D01*
X111089160Y-50351190D01*
X110836541Y-50351190D01*
X108710561Y-50351190D01*
X108477172Y-50447863D01*
X108298543Y-50626491D01*
X108201870Y-50859880D01*
X108201870Y-51112499D01*
X108201870Y-53238479D01*
X108298543Y-53471868D01*
X108477171Y-53650497D01*
X108710560Y-53747170D01*
X108963179Y-53747170D01*
X111089159Y-53747170D01*
X111322548Y-53650497D01*
X111501177Y-53471869D01*
X111597850Y-53238480D01*
X111597850Y-56361521D01*
X111501177Y-56128132D01*
X111322549Y-55949503D01*
X111089160Y-55852830D01*
X110836541Y-55852830D01*
X108710561Y-55852830D01*
X108477172Y-55949503D01*
X108298543Y-56128131D01*
X108201870Y-56361520D01*
X108201870Y-56614139D01*
X108201870Y-58740119D01*
X108264860Y-58892190D01*
X108264860Y-60299860D01*
X108264860Y-60399854D01*
X108264859Y-60399860D01*
X108389317Y-61025548D01*
X108743740Y-61555980D01*
X111243880Y-64056120D01*
X111774312Y-64410543D01*
X111774313Y-64410543D01*
X112400000Y-64535001D01*
X112400000Y-64535000D01*
X112400005Y-64535000D01*
X115722760Y-64535000D01*
X123943880Y-72756120D01*
X124474312Y-73110543D01*
X124474313Y-73110543D01*
X125100000Y-73235001D01*
X125100000Y-73235000D01*
X125100005Y-73235000D01*
X126227000Y-73235000D01*
X140422760Y-73235000D01*
X145165000Y-77977239D01*
X145165000Y-79999994D01*
X145164999Y-80000000D01*
X145264640Y-80500928D01*
X145035000Y-80271288D01*
X145035000Y-78600005D01*
X145035000Y-78600000D01*
X145035001Y-78600000D01*
X144956215Y-78203923D01*
X144731856Y-77868144D01*
X144731852Y-77868141D01*
X141331856Y-74468144D01*
X140996077Y-74243785D01*
X140600000Y-74164999D01*
X140599994Y-74165000D01*
X133800005Y-74165000D01*
X133800000Y-74164999D01*
X133403923Y-74243785D01*
X133068144Y-74468144D01*
X133068141Y-74468147D01*
X126227000Y-81309288D01*
X125871288Y-81665000D01*
X119859596Y-81665000D01*
X119719670Y-81455585D01*
X119233489Y-81130729D01*
X118660000Y-81016655D01*
X118086511Y-81130729D01*
X117600330Y-81455585D01*
X117390000Y-81770365D01*
X117179670Y-81455585D01*
X116693489Y-81130729D01*
X116120000Y-81016655D01*
X115546511Y-81130729D01*
X115060330Y-81455585D01*
X114868726Y-81742339D01*
X114736120Y-81543880D01*
X114668458Y-81498670D01*
X114639670Y-81455585D01*
X114153489Y-81130729D01*
X113580000Y-81016655D01*
X113286878Y-81074960D01*
X113286878Y-76600000D01*
X113286878Y-71598740D01*
X113185365Y-71088398D01*
X113185365Y-67056292D01*
X113185365Y-66138668D01*
X113121344Y-65897833D01*
X112699764Y-65177701D01*
X112034692Y-64673718D01*
X111227380Y-64462610D01*
X110727000Y-64462610D01*
X110727000Y-66470480D01*
X113072415Y-66470480D01*
X113185365Y-66138668D01*
X113185365Y-67056292D01*
X113072415Y-66724480D01*
X110727000Y-66724480D01*
X110727000Y-68732350D01*
X111227380Y-68732350D01*
X112034692Y-68521242D01*
X112699764Y-68017259D01*
X113121344Y-67297127D01*
X113185365Y-67056292D01*
X113185365Y-71088398D01*
X113124371Y-70781761D01*
X112661589Y-70089159D01*
X111968987Y-69626377D01*
X111152008Y-69463870D01*
X110473000Y-69463870D01*
X110473000Y-68732350D01*
X110473000Y-66724480D01*
X110473000Y-66470480D01*
X110473000Y-64462610D01*
X109972620Y-64462610D01*
X109165308Y-64673718D01*
X108500236Y-65177701D01*
X108078656Y-65897833D01*
X108014635Y-66138668D01*
X108127585Y-66470480D01*
X110473000Y-66470480D01*
X110473000Y-66724480D01*
X108127585Y-66724480D01*
X108014635Y-67056292D01*
X108078656Y-67297127D01*
X108500236Y-68017259D01*
X109165308Y-68521242D01*
X109972620Y-68732350D01*
X110473000Y-68732350D01*
X110473000Y-69463870D01*
X110047992Y-69463870D01*
X109231013Y-69626377D01*
X108538411Y-70089159D01*
X108075629Y-70781761D01*
X107913122Y-71598740D01*
X108075629Y-72415719D01*
X108538411Y-73108321D01*
X109231013Y-73571103D01*
X110047992Y-73733610D01*
X111152008Y-73733610D01*
X111968987Y-73571103D01*
X112661589Y-73108321D01*
X113124371Y-72415719D01*
X113286878Y-71598740D01*
X113286878Y-76600000D01*
X113124371Y-75783021D01*
X112661589Y-75090419D01*
X111968987Y-74627637D01*
X111152008Y-74465130D01*
X110047992Y-74465130D01*
X109231013Y-74627637D01*
X108538411Y-75090419D01*
X108075629Y-75783021D01*
X107913122Y-76600000D01*
X108075629Y-77416979D01*
X108538411Y-78109581D01*
X109231013Y-78572363D01*
X110047992Y-78734870D01*
X111152008Y-78734870D01*
X111968987Y-78572363D01*
X112661589Y-78109581D01*
X113124371Y-77416979D01*
X113286878Y-76600000D01*
X113286878Y-81074960D01*
X113006511Y-81130729D01*
X112520330Y-81455585D01*
X112491541Y-81498670D01*
X112423880Y-81543880D01*
X112291273Y-81742339D01*
X112099670Y-81455585D01*
X111613489Y-81130729D01*
X111040000Y-81016655D01*
X110466511Y-81130729D01*
X109980330Y-81455585D01*
X109965499Y-81477780D01*
X109901927Y-81324302D01*
X109723299Y-81145673D01*
X109489910Y-81049000D01*
X109237291Y-81049000D01*
X108785750Y-81049000D01*
X108627000Y-81207750D01*
X108627000Y-82573000D01*
X108647000Y-82573000D01*
X108647000Y-82827000D01*
X108627000Y-82827000D01*
X108627000Y-84192250D01*
X108785750Y-84351000D01*
X109237291Y-84351000D01*
X109489910Y-84351000D01*
X109723299Y-84254327D01*
X109901927Y-84075698D01*
X109965499Y-83922219D01*
X109980330Y-83944415D01*
X110466511Y-84269271D01*
X111040000Y-84383345D01*
X111613489Y-84269271D01*
X111945000Y-84047762D01*
X111945000Y-86179994D01*
X111944999Y-86180000D01*
X112069457Y-86805688D01*
X112423880Y-87336120D01*
X113052891Y-87965131D01*
X111784047Y-87964024D01*
X109712199Y-88820094D01*
X108125665Y-90403861D01*
X107510000Y-91886546D01*
X107510000Y-84350962D01*
X107510090Y-84351000D01*
X107762709Y-84351000D01*
X108214250Y-84351000D01*
X108373000Y-84192250D01*
X108373000Y-82827000D01*
X108353000Y-82827000D01*
X108353000Y-82573000D01*
X108373000Y-82573000D01*
X108373000Y-81207750D01*
X108214250Y-81049000D01*
X107762709Y-81049000D01*
X107510090Y-81049000D01*
X107510000Y-81049037D01*
X107510000Y-50310000D01*
X149164140Y-50310000D01*
X149164140Y-50489174D01*
X149122829Y-50447863D01*
X148889440Y-50351190D01*
X148636821Y-50351190D01*
X146510841Y-50351190D01*
X146277452Y-50447863D01*
X146098823Y-50626491D01*
X146002150Y-50859880D01*
X146002150Y-51112499D01*
X146002150Y-53238479D01*
X146098823Y-53471868D01*
X146277451Y-53650497D01*
X146510840Y-53747170D01*
X146763459Y-53747170D01*
X148889439Y-53747170D01*
X149060531Y-53676300D01*
X149152408Y-53898657D01*
X149499515Y-54246371D01*
X149953266Y-54434785D01*
X150444579Y-54435214D01*
X150898657Y-54247592D01*
X151246371Y-53900485D01*
X151434785Y-53446734D01*
X151435214Y-52955421D01*
X151334520Y-52711723D01*
X151334520Y-52463055D01*
X151338227Y-52459349D01*
X151434900Y-52225960D01*
X151434900Y-51973341D01*
X151434900Y-50310000D01*
X151864160Y-50310000D01*
X151864160Y-50814410D01*
X152022910Y-50973160D01*
X152821740Y-50973160D01*
X152821740Y-50953160D01*
X153075740Y-50953160D01*
X153075740Y-50973160D01*
X153874570Y-50973160D01*
X153893527Y-50954202D01*
X153913783Y-50993000D01*
X155273000Y-50993000D01*
X155273000Y-50973000D01*
X155527000Y-50973000D01*
X155527000Y-50993000D01*
X155547000Y-50993000D01*
X155547000Y-51247000D01*
X155527000Y-51247000D01*
X155527000Y-51267000D01*
X155273000Y-51267000D01*
X155273000Y-51247000D01*
X153913783Y-51247000D01*
X153907137Y-51259727D01*
X153874570Y-51227160D01*
X153075740Y-51227160D01*
X153075740Y-52575900D01*
X153234490Y-52734650D01*
X153272011Y-52734650D01*
X153524630Y-52734650D01*
X153758019Y-52637977D01*
X153936647Y-52459348D01*
X154033320Y-52225959D01*
X154033320Y-51988928D01*
X154049268Y-52022036D01*
X154465069Y-52393539D01*
X154155585Y-52600330D01*
X153830729Y-53086511D01*
X153716655Y-53660000D01*
X153830729Y-54233489D01*
X154155585Y-54719670D01*
X154177780Y-54734500D01*
X154024302Y-54798073D01*
X153845673Y-54976701D01*
X153749000Y-55210090D01*
X153749000Y-55462709D01*
X153749000Y-57157235D01*
X153527170Y-57065350D01*
X153274551Y-57065350D01*
X153186230Y-57065350D01*
X153027480Y-57224100D01*
X153027480Y-58572840D01*
X153877110Y-58572840D01*
X154035860Y-58414090D01*
X154035860Y-57606714D01*
X154257690Y-57698600D01*
X154510309Y-57698600D01*
X156090000Y-57698600D01*
X156090000Y-61649235D01*
X156068083Y-61270572D01*
X155929611Y-60936271D01*
X155699016Y-60880590D01*
X155519410Y-61060195D01*
X155519410Y-60700984D01*
X155463729Y-60470389D01*
X154980922Y-60302378D01*
X154470572Y-60331917D01*
X154136271Y-60470389D01*
X154080590Y-60700984D01*
X154800000Y-61420395D01*
X155519410Y-60700984D01*
X155519410Y-61060195D01*
X154979605Y-61600000D01*
X155699016Y-62319410D01*
X155929611Y-62263729D01*
X156090000Y-61802825D01*
X156090000Y-64849235D01*
X156068083Y-64470572D01*
X155929611Y-64136271D01*
X155699016Y-64080590D01*
X155519410Y-64260195D01*
X155519410Y-63900984D01*
X155519410Y-62499016D01*
X154800000Y-61779605D01*
X154080590Y-62499016D01*
X154136271Y-62729611D01*
X154619078Y-62897622D01*
X155129428Y-62868083D01*
X155463729Y-62729611D01*
X155519410Y-62499016D01*
X155519410Y-63900984D01*
X155463729Y-63670389D01*
X154980922Y-63502378D01*
X154470572Y-63531917D01*
X154136271Y-63670389D01*
X154080590Y-63900984D01*
X154800000Y-64620395D01*
X155519410Y-63900984D01*
X155519410Y-64260195D01*
X154979605Y-64800000D01*
X155699016Y-65519410D01*
X155929611Y-65463729D01*
X156090000Y-65002825D01*
X156090000Y-66982841D01*
X155538578Y-66430456D01*
X154722594Y-66091630D01*
X155129428Y-66068083D01*
X155463729Y-65929611D01*
X155519410Y-65699016D01*
X154800000Y-64979605D01*
X154080590Y-65699016D01*
X154136271Y-65929611D01*
X154540554Y-66070296D01*
X153732627Y-66069591D01*
X152864914Y-66428123D01*
X152200456Y-67091422D01*
X151840411Y-67958508D01*
X151839591Y-68897373D01*
X152198123Y-69765086D01*
X152693387Y-70261215D01*
X152329500Y-70152500D01*
X151617000Y-70152500D01*
X151617000Y-71373000D01*
X153384447Y-71373000D01*
X153507619Y-71164706D01*
X153496029Y-71101667D01*
X153245129Y-70636976D01*
X153124398Y-70538741D01*
X153728508Y-70789589D01*
X154667373Y-70790409D01*
X155535086Y-70431877D01*
X156090000Y-69877930D01*
X156090000Y-80122841D01*
X155538578Y-79570456D01*
X154671492Y-79210411D01*
X153732627Y-79209591D01*
X153215412Y-79423299D01*
X153487786Y-79015666D01*
X153590358Y-78500000D01*
X153487786Y-77984334D01*
X153195684Y-77547174D01*
X152758524Y-77255072D01*
X152733025Y-77250000D01*
X152758524Y-77244928D01*
X153195684Y-76952826D01*
X153487786Y-76515666D01*
X153590358Y-76000000D01*
X153487786Y-75484334D01*
X153195684Y-75047174D01*
X153125083Y-75000000D01*
X153195684Y-74952826D01*
X153487786Y-74515666D01*
X153590358Y-74000000D01*
X153487786Y-73484334D01*
X153195684Y-73047174D01*
X152758524Y-72755072D01*
X152686694Y-72740784D01*
X152835499Y-72696327D01*
X153245129Y-72363024D01*
X153496029Y-71898333D01*
X153507619Y-71835294D01*
X153384447Y-71627000D01*
X151617000Y-71627000D01*
X151617000Y-71647000D01*
X151363000Y-71647000D01*
X151363000Y-71627000D01*
X151363000Y-71373000D01*
X151363000Y-70152500D01*
X150650500Y-70152500D01*
X150144501Y-70303673D01*
X149734871Y-70636976D01*
X149483971Y-71101667D01*
X149472381Y-71164706D01*
X149595553Y-71373000D01*
X151363000Y-71373000D01*
X151363000Y-71627000D01*
X149595553Y-71627000D01*
X149472381Y-71835294D01*
X149483971Y-71898333D01*
X149734871Y-72363024D01*
X150144501Y-72696327D01*
X150293305Y-72740784D01*
X150221476Y-72755072D01*
X149784316Y-73047174D01*
X149492214Y-73484334D01*
X149389642Y-74000000D01*
X149492214Y-74515666D01*
X149784316Y-74952826D01*
X149854916Y-75000000D01*
X149784316Y-75047174D01*
X149492214Y-75484334D01*
X149389642Y-76000000D01*
X149492214Y-76515666D01*
X149784316Y-76952826D01*
X150221476Y-77244928D01*
X150246974Y-77250000D01*
X150221476Y-77255072D01*
X149784316Y-77547174D01*
X149492214Y-77984334D01*
X149389642Y-78500000D01*
X149492214Y-79015666D01*
X149784316Y-79452826D01*
X150221476Y-79744928D01*
X150737142Y-79847500D01*
X152242858Y-79847500D01*
X152670200Y-79762496D01*
X152200456Y-80231422D01*
X151840411Y-81098508D01*
X151839591Y-82037373D01*
X152198123Y-82905086D01*
X152861422Y-83569544D01*
X153728508Y-83929589D01*
X154667373Y-83930409D01*
X155535086Y-83571877D01*
X156090000Y-83017930D01*
X156090000Y-92372776D01*
X156090000Y-92372776D01*
G37*
X156090000Y-92372776D02*
X155279906Y-90412199D01*
X153696139Y-88825665D01*
X151625788Y-87965980D01*
X151535000Y-87965900D01*
X151535000Y-87200005D01*
X151535000Y-87200000D01*
X151535001Y-87200000D01*
X151456215Y-86803923D01*
X151231856Y-86468144D01*
X151231852Y-86468141D01*
X149299070Y-84535358D01*
X149800000Y-84635001D01*
X150425688Y-84510543D01*
X150956120Y-84156120D01*
X151310543Y-83625688D01*
X151435001Y-83000000D01*
X151310543Y-82374313D01*
X150956120Y-81843881D01*
X148435000Y-79322760D01*
X148435000Y-77300000D01*
X148310543Y-76674313D01*
X148310543Y-76674312D01*
X148168580Y-76461851D01*
X147956120Y-76143880D01*
X147956116Y-76143877D01*
X142256120Y-70443880D01*
X141725688Y-70089457D01*
X141100000Y-69964999D01*
X141099994Y-69965000D01*
X126227000Y-69965000D01*
X125777240Y-69965000D01*
X121439240Y-65627000D01*
X125214760Y-65627000D01*
X126227000Y-66639239D01*
X127143877Y-67556116D01*
X127143880Y-67556120D01*
X127461851Y-67768580D01*
X127674312Y-67910543D01*
X127674313Y-67910543D01*
X128300000Y-68035000D01*
X136800000Y-68035000D01*
X136900000Y-68035000D01*
X146722129Y-68035000D01*
X147323405Y-68284672D01*
X148073305Y-68285326D01*
X148766372Y-67998957D01*
X149297093Y-67469161D01*
X149584672Y-66776595D01*
X149585275Y-66084813D01*
X150054481Y-66085223D01*
X150526943Y-65890005D01*
X150888735Y-65528845D01*
X151050155Y-65140102D01*
X151209995Y-65526943D01*
X151571155Y-65888735D01*
X152043276Y-66084777D01*
X152554481Y-66085223D01*
X153026943Y-65890005D01*
X153388735Y-65528845D01*
X153543238Y-65156760D01*
X153670389Y-65463729D01*
X153900984Y-65519410D01*
X154620395Y-64800000D01*
X153900984Y-64080590D01*
X153670389Y-64136271D01*
X153554147Y-64470310D01*
X153390005Y-64073057D01*
X153335000Y-64017955D01*
X153335000Y-62382486D01*
X153388735Y-62328845D01*
X153543238Y-61956760D01*
X153670389Y-62263729D01*
X153900984Y-62319410D01*
X154620395Y-61600000D01*
X154035860Y-61015465D01*
X154035860Y-59825639D01*
X154035860Y-58985590D01*
X153877110Y-58826840D01*
X153027480Y-58826840D01*
X153027480Y-60175580D01*
X153186230Y-60334330D01*
X153274551Y-60334330D01*
X153527170Y-60334330D01*
X153760559Y-60237657D01*
X153939187Y-60059028D01*
X154035860Y-59825639D01*
X154035860Y-61015465D01*
X153900984Y-60880590D01*
X153670389Y-60936271D01*
X153554147Y-61270310D01*
X153390005Y-60873057D01*
X153125088Y-60607676D01*
X153031856Y-60468145D01*
X153031856Y-60468144D01*
X153031852Y-60468141D01*
X152821740Y-60258029D01*
X152821740Y-52575900D01*
X152821740Y-51227160D01*
X152022910Y-51227160D01*
X151864160Y-51385910D01*
X151864160Y-52225959D01*
X151960833Y-52459348D01*
X152139461Y-52637977D01*
X152372850Y-52734650D01*
X152625469Y-52734650D01*
X152662990Y-52734650D01*
X152821740Y-52575900D01*
X152821740Y-60258029D01*
X152756385Y-60192674D01*
X152773480Y-60175580D01*
X152773480Y-58826840D01*
X152773480Y-58572840D01*
X152773480Y-57224100D01*
X152614730Y-57065350D01*
X152526409Y-57065350D01*
X152273790Y-57065350D01*
X152040401Y-57162023D01*
X151861773Y-57340652D01*
X151765100Y-57574041D01*
X151765100Y-58414090D01*
X151923850Y-58572840D01*
X152773480Y-58572840D01*
X152773480Y-58826840D01*
X151923850Y-58826840D01*
X151765100Y-58985590D01*
X151765100Y-59201388D01*
X151434900Y-58871188D01*
X151434900Y-57574041D01*
X151338227Y-57340652D01*
X151159599Y-57162023D01*
X150926210Y-57065350D01*
X150673591Y-57065350D01*
X149672831Y-57065350D01*
X149439442Y-57162023D01*
X149398130Y-57203334D01*
X149398130Y-56361521D01*
X149301457Y-56128132D01*
X149122829Y-55949503D01*
X148889440Y-55852830D01*
X148636821Y-55852830D01*
X146635000Y-55852830D01*
X146635000Y-55000005D01*
X146635000Y-55000000D01*
X146635001Y-55000000D01*
X146556215Y-54603923D01*
X146331856Y-54268144D01*
X145196970Y-53133258D01*
X145196970Y-52985861D01*
X145196970Y-50859881D01*
X145100297Y-50626492D01*
X144921669Y-50447863D01*
X144688280Y-50351190D01*
X144435661Y-50351190D01*
X142309681Y-50351190D01*
X142076292Y-50447863D01*
X141897663Y-50626491D01*
X141800990Y-50859880D01*
X141800990Y-51112499D01*
X141800990Y-53035298D01*
X140668144Y-54168144D01*
X140443785Y-54503923D01*
X140364999Y-54900000D01*
X140365000Y-54900005D01*
X140365000Y-55852830D01*
X140237041Y-55852830D01*
X138235000Y-55852830D01*
X138235000Y-55628711D01*
X140032212Y-53831498D01*
X140032216Y-53831496D01*
X140032216Y-53831495D01*
X140088559Y-53747170D01*
X140088560Y-53747170D01*
X140489659Y-53747170D01*
X140723048Y-53650497D01*
X140901677Y-53471869D01*
X140998350Y-53238480D01*
X140998350Y-52985861D01*
X140998350Y-50859881D01*
X140901677Y-50626492D01*
X140723049Y-50447863D01*
X140489660Y-50351190D01*
X140237041Y-50351190D01*
X138111061Y-50351190D01*
X137877672Y-50447863D01*
X137699043Y-50626491D01*
X137602370Y-50859880D01*
X137602370Y-51112499D01*
X137602370Y-53238479D01*
X137630323Y-53305964D01*
X136797190Y-54139097D01*
X136797190Y-53238480D01*
X136797190Y-52985861D01*
X136797190Y-52334930D01*
X136797190Y-51763430D01*
X136797190Y-51112499D01*
X136797190Y-50859880D01*
X136700517Y-50626491D01*
X136521888Y-50447863D01*
X136288499Y-50351190D01*
X135384950Y-50351190D01*
X135226200Y-50509940D01*
X135226200Y-51922180D01*
X136638440Y-51922180D01*
X136797190Y-51763430D01*
X136797190Y-52334930D01*
X136638440Y-52176180D01*
X135226200Y-52176180D01*
X135226200Y-53588420D01*
X135384950Y-53747170D01*
X136288499Y-53747170D01*
X136521888Y-53650497D01*
X136700517Y-53471869D01*
X136797190Y-53238480D01*
X136797190Y-54139097D01*
X136468144Y-54468144D01*
X136243785Y-54803923D01*
X136164999Y-55200000D01*
X136165000Y-55200005D01*
X136165000Y-55852830D01*
X135384950Y-55852830D01*
X135226200Y-56011580D01*
X135226200Y-57423820D01*
X135246200Y-57423820D01*
X135246200Y-57677820D01*
X135226200Y-57677820D01*
X135226200Y-59090060D01*
X135384950Y-59248810D01*
X136194599Y-59248810D01*
X136243785Y-59496077D01*
X136468144Y-59831856D01*
X137968141Y-61331852D01*
X137968144Y-61331856D01*
X138017747Y-61365000D01*
X135228711Y-61365000D01*
X135035199Y-61171488D01*
X135035214Y-61155421D01*
X134972200Y-61002916D01*
X134972200Y-59090060D01*
X134972200Y-57677820D01*
X134972200Y-57423820D01*
X134972200Y-56011580D01*
X134972200Y-53588420D01*
X134972200Y-52176180D01*
X134972200Y-51922180D01*
X134972200Y-50509940D01*
X134813450Y-50351190D01*
X133909901Y-50351190D01*
X133676512Y-50447863D01*
X133497883Y-50626491D01*
X133401210Y-50859880D01*
X133401210Y-51112499D01*
X133401210Y-51763430D01*
X133559960Y-51922180D01*
X134972200Y-51922180D01*
X134972200Y-52176180D01*
X133559960Y-52176180D01*
X133401210Y-52334930D01*
X133401210Y-52985861D01*
X133401210Y-53238480D01*
X133497883Y-53471869D01*
X133676512Y-53650497D01*
X133909901Y-53747170D01*
X134813450Y-53747170D01*
X134972200Y-53588420D01*
X134972200Y-56011580D01*
X134813450Y-55852830D01*
X133909901Y-55852830D01*
X133676512Y-55949503D01*
X133497883Y-56128131D01*
X133401210Y-56361520D01*
X133401210Y-56614139D01*
X133401210Y-57265070D01*
X133559960Y-57423820D01*
X134972200Y-57423820D01*
X134972200Y-57677820D01*
X133559960Y-57677820D01*
X133401210Y-57836570D01*
X133401210Y-58487501D01*
X133401210Y-58740120D01*
X133497883Y-58973509D01*
X133676512Y-59152137D01*
X133909901Y-59248810D01*
X134813450Y-59248810D01*
X134972200Y-59090060D01*
X134972200Y-61002916D01*
X134847592Y-60701343D01*
X134500485Y-60353629D01*
X134046734Y-60165215D01*
X133555421Y-60164786D01*
X133101343Y-60352408D01*
X132753629Y-60699515D01*
X132598570Y-61072938D01*
X132598570Y-58740120D01*
X132598570Y-58487501D01*
X132598570Y-57836570D01*
X132598570Y-57265070D01*
X132598570Y-56614139D01*
X132598570Y-56361520D01*
X132501897Y-56128131D01*
X132323268Y-55949503D01*
X132089879Y-55852830D01*
X131186330Y-55852830D01*
X131027580Y-56011580D01*
X131027580Y-57423820D01*
X132439820Y-57423820D01*
X132598570Y-57265070D01*
X132598570Y-57836570D01*
X132439820Y-57677820D01*
X131027580Y-57677820D01*
X131027580Y-59090060D01*
X131186330Y-59248810D01*
X132089879Y-59248810D01*
X132323268Y-59152137D01*
X132501897Y-58973509D01*
X132598570Y-58740120D01*
X132598570Y-61072938D01*
X132565215Y-61153266D01*
X132564786Y-61644579D01*
X132752408Y-62098657D01*
X133099515Y-62446371D01*
X133553266Y-62634785D01*
X133571089Y-62634800D01*
X134068141Y-63131852D01*
X134068144Y-63131856D01*
X134068145Y-63131856D01*
X134403923Y-63356215D01*
X134800000Y-63435001D01*
X134800000Y-63435000D01*
X134800005Y-63435000D01*
X138071288Y-63435000D01*
X139401288Y-64765000D01*
X136900000Y-64765000D01*
X136800000Y-64765000D01*
X130773580Y-64765000D01*
X130773580Y-59090060D01*
X130773580Y-57677820D01*
X130773580Y-57423820D01*
X130773580Y-56011580D01*
X130614830Y-55852830D01*
X129711281Y-55852830D01*
X129477892Y-55949503D01*
X129299263Y-56128131D01*
X129202590Y-56361520D01*
X129202590Y-56614139D01*
X129202590Y-57265070D01*
X129361340Y-57423820D01*
X130773580Y-57423820D01*
X130773580Y-57677820D01*
X129361340Y-57677820D01*
X129202590Y-57836570D01*
X129202590Y-58487501D01*
X129202590Y-58740120D01*
X129299263Y-58973509D01*
X129477892Y-59152137D01*
X129711281Y-59248810D01*
X130614830Y-59248810D01*
X130773580Y-59090060D01*
X130773580Y-64765000D01*
X128977239Y-64765000D01*
X128397410Y-64185170D01*
X128397410Y-58740120D01*
X128397410Y-58487501D01*
X128397410Y-57836570D01*
X128397410Y-57265070D01*
X128397410Y-56614139D01*
X128397410Y-56361520D01*
X128300737Y-56128131D01*
X128122108Y-55949503D01*
X127888719Y-55852830D01*
X126985170Y-55852830D01*
X126826420Y-56011580D01*
X126826420Y-57423820D01*
X128238660Y-57423820D01*
X128397410Y-57265070D01*
X128397410Y-57836570D01*
X128238660Y-57677820D01*
X126826420Y-57677820D01*
X126826420Y-59090060D01*
X126985170Y-59248810D01*
X127888719Y-59248810D01*
X128122108Y-59152137D01*
X128300737Y-58973509D01*
X128397410Y-58740120D01*
X128397410Y-64185170D01*
X126235000Y-62022760D01*
X126235000Y-60300000D01*
X126227000Y-60259781D01*
X126227000Y-59673000D01*
X126109665Y-59673000D01*
X125826231Y-59248810D01*
X126413670Y-59248810D01*
X126572420Y-59090060D01*
X126572420Y-57677820D01*
X126552420Y-57677820D01*
X126552420Y-57423820D01*
X126572420Y-57423820D01*
X126572420Y-56011580D01*
X126413670Y-55852830D01*
X125635000Y-55852830D01*
X125635000Y-55159880D01*
X128824874Y-55159880D01*
X128824880Y-55159881D01*
X128824880Y-55159880D01*
X129220957Y-55081095D01*
X129556736Y-54856736D01*
X130666301Y-53747170D01*
X132089879Y-53747170D01*
X132323268Y-53650497D01*
X132501897Y-53471869D01*
X132598570Y-53238480D01*
X132598570Y-52985861D01*
X132598570Y-50859881D01*
X132501897Y-50626492D01*
X132323269Y-50447863D01*
X132089880Y-50351190D01*
X131837261Y-50351190D01*
X129711281Y-50351190D01*
X129477892Y-50447863D01*
X129299263Y-50626491D01*
X129202590Y-50859880D01*
X129202590Y-51112499D01*
X129202590Y-52283458D01*
X128397410Y-53088638D01*
X128397410Y-52985861D01*
X128397410Y-52334930D01*
X128397410Y-51763430D01*
X128397410Y-51112499D01*
X128397410Y-50859880D01*
X128300737Y-50626491D01*
X128122108Y-50447863D01*
X127888719Y-50351190D01*
X126985170Y-50351190D01*
X126826420Y-50509940D01*
X126826420Y-51922180D01*
X128238660Y-51922180D01*
X128397410Y-51763430D01*
X128397410Y-52334930D01*
X128238660Y-52176180D01*
X126826420Y-52176180D01*
X126826420Y-52196180D01*
X126572420Y-52196180D01*
X126572420Y-52176180D01*
X126572420Y-51922180D01*
X126572420Y-50509940D01*
X126413670Y-50351190D01*
X125510121Y-50351190D01*
X125276732Y-50447863D01*
X125098103Y-50626491D01*
X125001430Y-50859880D01*
X125001430Y-51112499D01*
X125001430Y-51763430D01*
X125160180Y-51922180D01*
X126572420Y-51922180D01*
X126572420Y-52176180D01*
X125160180Y-52176180D01*
X125001430Y-52334930D01*
X125001430Y-52985861D01*
X125001430Y-53086098D01*
X124198790Y-52283458D01*
X124198790Y-50859881D01*
X124102117Y-50626492D01*
X123923489Y-50447863D01*
X123690100Y-50351190D01*
X123437481Y-50351190D01*
X121311501Y-50351190D01*
X121078112Y-50447863D01*
X120899483Y-50626491D01*
X120802810Y-50859880D01*
X120802810Y-51112499D01*
X120802810Y-53238479D01*
X120899483Y-53471868D01*
X121078111Y-53650497D01*
X121311500Y-53747170D01*
X121564119Y-53747170D01*
X122735078Y-53747170D01*
X123565000Y-54577091D01*
X123565000Y-55852830D01*
X123437481Y-55852830D01*
X121311501Y-55852830D01*
X121078112Y-55949503D01*
X120899483Y-56128131D01*
X120802810Y-56361520D01*
X120802810Y-56614139D01*
X120802810Y-58740119D01*
X120899483Y-58973508D01*
X121078111Y-59152137D01*
X121311500Y-59248810D01*
X121564119Y-59248810D01*
X123373768Y-59248810D01*
X123090334Y-59673000D01*
X122219647Y-59673000D01*
X122100485Y-59553629D01*
X121646734Y-59365215D01*
X121155421Y-59364786D01*
X120701343Y-59552408D01*
X120688728Y-59565000D01*
X120211836Y-59565000D01*
X120200485Y-59553629D01*
X119997630Y-59469396D01*
X119997630Y-58740120D01*
X119997630Y-58487501D01*
X119997630Y-57836570D01*
X119997630Y-57265070D01*
X119997630Y-56614139D01*
X119997630Y-56361520D01*
X119997630Y-53238480D01*
X119997630Y-52985861D01*
X119997630Y-52334930D01*
X119997630Y-51763430D01*
X119997630Y-51112499D01*
X119997630Y-50859880D01*
X119900957Y-50626491D01*
X119722328Y-50447863D01*
X119488939Y-50351190D01*
X118585390Y-50351190D01*
X118426640Y-50509940D01*
X118426640Y-51922180D01*
X119838880Y-51922180D01*
X119997630Y-51763430D01*
X119997630Y-52334930D01*
X119838880Y-52176180D01*
X118426640Y-52176180D01*
X118426640Y-53588420D01*
X118585390Y-53747170D01*
X119488939Y-53747170D01*
X119722328Y-53650497D01*
X119900957Y-53471869D01*
X119997630Y-53238480D01*
X119997630Y-56361520D01*
X119900957Y-56128131D01*
X119722328Y-55949503D01*
X119488939Y-55852830D01*
X118585390Y-55852830D01*
X118426640Y-56011580D01*
X118426640Y-57423820D01*
X119838880Y-57423820D01*
X119997630Y-57265070D01*
X119997630Y-57836570D01*
X119838880Y-57677820D01*
X118426640Y-57677820D01*
X118426640Y-59090060D01*
X118585390Y-59248810D01*
X119488939Y-59248810D01*
X119722328Y-59152137D01*
X119900957Y-58973509D01*
X119997630Y-58740120D01*
X119997630Y-59469396D01*
X119746734Y-59365215D01*
X119255421Y-59364786D01*
X118801343Y-59552408D01*
X118680540Y-59673000D01*
X118219822Y-59673000D01*
X118200485Y-59653629D01*
X118172640Y-59642066D01*
X118172640Y-59090060D01*
X118172640Y-57677820D01*
X118172640Y-57423820D01*
X118172640Y-56011580D01*
X118172640Y-53588420D01*
X118172640Y-52176180D01*
X118172640Y-51922180D01*
X118172640Y-50509940D01*
X118013890Y-50351190D01*
X117110341Y-50351190D01*
X116876952Y-50447863D01*
X116698323Y-50626491D01*
X116601650Y-50859880D01*
X116601650Y-51112499D01*
X116601650Y-51763430D01*
X116760400Y-51922180D01*
X118172640Y-51922180D01*
X118172640Y-52176180D01*
X116760400Y-52176180D01*
X116601650Y-52334930D01*
X116601650Y-52985861D01*
X116601650Y-53238480D01*
X116698323Y-53471869D01*
X116876952Y-53650497D01*
X117110341Y-53747170D01*
X118013890Y-53747170D01*
X118172640Y-53588420D01*
X118172640Y-56011580D01*
X118013890Y-55852830D01*
X117110341Y-55852830D01*
X116876952Y-55949503D01*
X116698323Y-56128131D01*
X116601650Y-56361520D01*
X116601650Y-56614139D01*
X116601650Y-57265070D01*
X116760400Y-57423820D01*
X118172640Y-57423820D01*
X118172640Y-57677820D01*
X116760400Y-57677820D01*
X116601650Y-57836570D01*
X116601650Y-58487501D01*
X116601650Y-58740120D01*
X116698323Y-58973509D01*
X116876952Y-59152137D01*
X117110341Y-59248810D01*
X118013890Y-59248810D01*
X118172640Y-59090060D01*
X118172640Y-59642066D01*
X117746734Y-59465215D01*
X117255421Y-59464786D01*
X116801343Y-59652408D01*
X116780714Y-59673000D01*
X115799010Y-59673000D01*
X115799010Y-58740120D01*
X115799010Y-58487501D01*
X115799010Y-56361521D01*
X115799010Y-53238480D01*
X115799010Y-52985861D01*
X115799010Y-50859881D01*
X115702337Y-50626492D01*
X115523709Y-50447863D01*
X115290320Y-50351190D01*
X115037701Y-50351190D01*
X112911721Y-50351190D01*
X112678332Y-50447863D01*
X112499703Y-50626491D01*
X112403030Y-50859880D01*
X112403030Y-51112499D01*
X112403030Y-53238479D01*
X112499703Y-53471868D01*
X112678331Y-53650497D01*
X112911720Y-53747170D01*
X113164339Y-53747170D01*
X115290319Y-53747170D01*
X115523708Y-53650497D01*
X115702337Y-53471869D01*
X115799010Y-53238480D01*
X115799010Y-56361521D01*
X115702337Y-56128132D01*
X115523709Y-55949503D01*
X115290320Y-55852830D01*
X115037701Y-55852830D01*
X112911721Y-55852830D01*
X112678332Y-55949503D01*
X112499703Y-56128131D01*
X112403030Y-56361520D01*
X112403030Y-56614139D01*
X112403030Y-58740119D01*
X112499703Y-58973508D01*
X112678331Y-59152137D01*
X112911720Y-59248810D01*
X113164339Y-59248810D01*
X115290319Y-59248810D01*
X115523708Y-59152137D01*
X115702337Y-58973509D01*
X115799010Y-58740120D01*
X115799010Y-59673000D01*
X113866451Y-59673000D01*
X115653959Y-61265000D01*
X113077240Y-61265000D01*
X111534860Y-59722620D01*
X111534860Y-58892191D01*
X111597850Y-58740120D01*
X111597850Y-58487501D01*
X111597850Y-56361521D01*
X111597850Y-53238480D01*
X111597850Y-52985861D01*
X111597850Y-50859881D01*
X111501177Y-50626492D01*
X111322549Y-50447863D01*
X111089160Y-50351190D01*
X110836541Y-50351190D01*
X108710561Y-50351190D01*
X108477172Y-50447863D01*
X108298543Y-50626491D01*
X108201870Y-50859880D01*
X108201870Y-51112499D01*
X108201870Y-53238479D01*
X108298543Y-53471868D01*
X108477171Y-53650497D01*
X108710560Y-53747170D01*
X108963179Y-53747170D01*
X111089159Y-53747170D01*
X111322548Y-53650497D01*
X111501177Y-53471869D01*
X111597850Y-53238480D01*
X111597850Y-56361521D01*
X111501177Y-56128132D01*
X111322549Y-55949503D01*
X111089160Y-55852830D01*
X110836541Y-55852830D01*
X108710561Y-55852830D01*
X108477172Y-55949503D01*
X108298543Y-56128131D01*
X108201870Y-56361520D01*
X108201870Y-56614139D01*
X108201870Y-58740119D01*
X108264860Y-58892190D01*
X108264860Y-60299860D01*
X108264860Y-60399854D01*
X108264859Y-60399860D01*
X108389317Y-61025548D01*
X108743740Y-61555980D01*
X111243880Y-64056120D01*
X111774312Y-64410543D01*
X111774313Y-64410543D01*
X112400000Y-64535001D01*
X112400000Y-64535000D01*
X112400005Y-64535000D01*
X115722760Y-64535000D01*
X123943880Y-72756120D01*
X124474312Y-73110543D01*
X124474313Y-73110543D01*
X125100000Y-73235001D01*
X125100000Y-73235000D01*
X125100005Y-73235000D01*
X126227000Y-73235000D01*
X140422760Y-73235000D01*
X145165000Y-77977239D01*
X145165000Y-79999994D01*
X145164999Y-80000000D01*
X145264640Y-80500928D01*
X145035000Y-80271288D01*
X145035000Y-78600005D01*
X145035000Y-78600000D01*
X145035001Y-78600000D01*
X144956215Y-78203923D01*
X144731856Y-77868144D01*
X144731852Y-77868141D01*
X141331856Y-74468144D01*
X140996077Y-74243785D01*
X140600000Y-74164999D01*
X140599994Y-74165000D01*
X133800005Y-74165000D01*
X133800000Y-74164999D01*
X133403923Y-74243785D01*
X133068144Y-74468144D01*
X133068141Y-74468147D01*
X126227000Y-81309288D01*
X125871288Y-81665000D01*
X119859596Y-81665000D01*
X119719670Y-81455585D01*
X119233489Y-81130729D01*
X118660000Y-81016655D01*
X118086511Y-81130729D01*
X117600330Y-81455585D01*
X117390000Y-81770365D01*
X117179670Y-81455585D01*
X116693489Y-81130729D01*
X116120000Y-81016655D01*
X115546511Y-81130729D01*
X115060330Y-81455585D01*
X114868726Y-81742339D01*
X114736120Y-81543880D01*
X114668458Y-81498670D01*
X114639670Y-81455585D01*
X114153489Y-81130729D01*
X113580000Y-81016655D01*
X113286878Y-81074960D01*
X113286878Y-76600000D01*
X113286878Y-71598740D01*
X113185365Y-71088398D01*
X113185365Y-67056292D01*
X113185365Y-66138668D01*
X113121344Y-65897833D01*
X112699764Y-65177701D01*
X112034692Y-64673718D01*
X111227380Y-64462610D01*
X110727000Y-64462610D01*
X110727000Y-66470480D01*
X113072415Y-66470480D01*
X113185365Y-66138668D01*
X113185365Y-67056292D01*
X113072415Y-66724480D01*
X110727000Y-66724480D01*
X110727000Y-68732350D01*
X111227380Y-68732350D01*
X112034692Y-68521242D01*
X112699764Y-68017259D01*
X113121344Y-67297127D01*
X113185365Y-67056292D01*
X113185365Y-71088398D01*
X113124371Y-70781761D01*
X112661589Y-70089159D01*
X111968987Y-69626377D01*
X111152008Y-69463870D01*
X110473000Y-69463870D01*
X110473000Y-68732350D01*
X110473000Y-66724480D01*
X110473000Y-66470480D01*
X110473000Y-64462610D01*
X109972620Y-64462610D01*
X109165308Y-64673718D01*
X108500236Y-65177701D01*
X108078656Y-65897833D01*
X108014635Y-66138668D01*
X108127585Y-66470480D01*
X110473000Y-66470480D01*
X110473000Y-66724480D01*
X108127585Y-66724480D01*
X108014635Y-67056292D01*
X108078656Y-67297127D01*
X108500236Y-68017259D01*
X109165308Y-68521242D01*
X109972620Y-68732350D01*
X110473000Y-68732350D01*
X110473000Y-69463870D01*
X110047992Y-69463870D01*
X109231013Y-69626377D01*
X108538411Y-70089159D01*
X108075629Y-70781761D01*
X107913122Y-71598740D01*
X108075629Y-72415719D01*
X108538411Y-73108321D01*
X109231013Y-73571103D01*
X110047992Y-73733610D01*
X111152008Y-73733610D01*
X111968987Y-73571103D01*
X112661589Y-73108321D01*
X113124371Y-72415719D01*
X113286878Y-71598740D01*
X113286878Y-76600000D01*
X113124371Y-75783021D01*
X112661589Y-75090419D01*
X111968987Y-74627637D01*
X111152008Y-74465130D01*
X110047992Y-74465130D01*
X109231013Y-74627637D01*
X108538411Y-75090419D01*
X108075629Y-75783021D01*
X107913122Y-76600000D01*
X108075629Y-77416979D01*
X108538411Y-78109581D01*
X109231013Y-78572363D01*
X110047992Y-78734870D01*
X111152008Y-78734870D01*
X111968987Y-78572363D01*
X112661589Y-78109581D01*
X113124371Y-77416979D01*
X113286878Y-76600000D01*
X113286878Y-81074960D01*
X113006511Y-81130729D01*
X112520330Y-81455585D01*
X112491541Y-81498670D01*
X112423880Y-81543880D01*
X112291273Y-81742339D01*
X112099670Y-81455585D01*
X111613489Y-81130729D01*
X111040000Y-81016655D01*
X110466511Y-81130729D01*
X109980330Y-81455585D01*
X109965499Y-81477780D01*
X109901927Y-81324302D01*
X109723299Y-81145673D01*
X109489910Y-81049000D01*
X109237291Y-81049000D01*
X108785750Y-81049000D01*
X108627000Y-81207750D01*
X108627000Y-82573000D01*
X108647000Y-82573000D01*
X108647000Y-82827000D01*
X108627000Y-82827000D01*
X108627000Y-84192250D01*
X108785750Y-84351000D01*
X109237291Y-84351000D01*
X109489910Y-84351000D01*
X109723299Y-84254327D01*
X109901927Y-84075698D01*
X109965499Y-83922219D01*
X109980330Y-83944415D01*
X110466511Y-84269271D01*
X111040000Y-84383345D01*
X111613489Y-84269271D01*
X111945000Y-84047762D01*
X111945000Y-86179994D01*
X111944999Y-86180000D01*
X112069457Y-86805688D01*
X112423880Y-87336120D01*
X113052891Y-87965131D01*
X111784047Y-87964024D01*
X109712199Y-88820094D01*
X108125665Y-90403861D01*
X107510000Y-91886546D01*
X107510000Y-84350962D01*
X107510090Y-84351000D01*
X107762709Y-84351000D01*
X108214250Y-84351000D01*
X108373000Y-84192250D01*
X108373000Y-82827000D01*
X108353000Y-82827000D01*
X108353000Y-82573000D01*
X108373000Y-82573000D01*
X108373000Y-81207750D01*
X108214250Y-81049000D01*
X107762709Y-81049000D01*
X107510090Y-81049000D01*
X107510000Y-81049037D01*
X107510000Y-50310000D01*
X149164140Y-50310000D01*
X149164140Y-50489174D01*
X149122829Y-50447863D01*
X148889440Y-50351190D01*
X148636821Y-50351190D01*
X146510841Y-50351190D01*
X146277452Y-50447863D01*
X146098823Y-50626491D01*
X146002150Y-50859880D01*
X146002150Y-51112499D01*
X146002150Y-53238479D01*
X146098823Y-53471868D01*
X146277451Y-53650497D01*
X146510840Y-53747170D01*
X146763459Y-53747170D01*
X148889439Y-53747170D01*
X149060531Y-53676300D01*
X149152408Y-53898657D01*
X149499515Y-54246371D01*
X149953266Y-54434785D01*
X150444579Y-54435214D01*
X150898657Y-54247592D01*
X151246371Y-53900485D01*
X151434785Y-53446734D01*
X151435214Y-52955421D01*
X151334520Y-52711723D01*
X151334520Y-52463055D01*
X151338227Y-52459349D01*
X151434900Y-52225960D01*
X151434900Y-51973341D01*
X151434900Y-50310000D01*
X151864160Y-50310000D01*
X151864160Y-50814410D01*
X152022910Y-50973160D01*
X152821740Y-50973160D01*
X152821740Y-50953160D01*
X153075740Y-50953160D01*
X153075740Y-50973160D01*
X153874570Y-50973160D01*
X153893527Y-50954202D01*
X153913783Y-50993000D01*
X155273000Y-50993000D01*
X155273000Y-50973000D01*
X155527000Y-50973000D01*
X155527000Y-50993000D01*
X155547000Y-50993000D01*
X155547000Y-51247000D01*
X155527000Y-51247000D01*
X155527000Y-51267000D01*
X155273000Y-51267000D01*
X155273000Y-51247000D01*
X153913783Y-51247000D01*
X153907137Y-51259727D01*
X153874570Y-51227160D01*
X153075740Y-51227160D01*
X153075740Y-52575900D01*
X153234490Y-52734650D01*
X153272011Y-52734650D01*
X153524630Y-52734650D01*
X153758019Y-52637977D01*
X153936647Y-52459348D01*
X154033320Y-52225959D01*
X154033320Y-51988928D01*
X154049268Y-52022036D01*
X154465069Y-52393539D01*
X154155585Y-52600330D01*
X153830729Y-53086511D01*
X153716655Y-53660000D01*
X153830729Y-54233489D01*
X154155585Y-54719670D01*
X154177780Y-54734500D01*
X154024302Y-54798073D01*
X153845673Y-54976701D01*
X153749000Y-55210090D01*
X153749000Y-55462709D01*
X153749000Y-57157235D01*
X153527170Y-57065350D01*
X153274551Y-57065350D01*
X153186230Y-57065350D01*
X153027480Y-57224100D01*
X153027480Y-58572840D01*
X153877110Y-58572840D01*
X154035860Y-58414090D01*
X154035860Y-57606714D01*
X154257690Y-57698600D01*
X154510309Y-57698600D01*
X156090000Y-57698600D01*
X156090000Y-61649235D01*
X156068083Y-61270572D01*
X155929611Y-60936271D01*
X155699016Y-60880590D01*
X155519410Y-61060195D01*
X155519410Y-60700984D01*
X155463729Y-60470389D01*
X154980922Y-60302378D01*
X154470572Y-60331917D01*
X154136271Y-60470389D01*
X154080590Y-60700984D01*
X154800000Y-61420395D01*
X155519410Y-60700984D01*
X155519410Y-61060195D01*
X154979605Y-61600000D01*
X155699016Y-62319410D01*
X155929611Y-62263729D01*
X156090000Y-61802825D01*
X156090000Y-64849235D01*
X156068083Y-64470572D01*
X155929611Y-64136271D01*
X155699016Y-64080590D01*
X155519410Y-64260195D01*
X155519410Y-63900984D01*
X155519410Y-62499016D01*
X154800000Y-61779605D01*
X154080590Y-62499016D01*
X154136271Y-62729611D01*
X154619078Y-62897622D01*
X155129428Y-62868083D01*
X155463729Y-62729611D01*
X155519410Y-62499016D01*
X155519410Y-63900984D01*
X155463729Y-63670389D01*
X154980922Y-63502378D01*
X154470572Y-63531917D01*
X154136271Y-63670389D01*
X154080590Y-63900984D01*
X154800000Y-64620395D01*
X155519410Y-63900984D01*
X155519410Y-64260195D01*
X154979605Y-64800000D01*
X155699016Y-65519410D01*
X155929611Y-65463729D01*
X156090000Y-65002825D01*
X156090000Y-66982841D01*
X155538578Y-66430456D01*
X154722594Y-66091630D01*
X155129428Y-66068083D01*
X155463729Y-65929611D01*
X155519410Y-65699016D01*
X154800000Y-64979605D01*
X154080590Y-65699016D01*
X154136271Y-65929611D01*
X154540554Y-66070296D01*
X153732627Y-66069591D01*
X152864914Y-66428123D01*
X152200456Y-67091422D01*
X151840411Y-67958508D01*
X151839591Y-68897373D01*
X152198123Y-69765086D01*
X152693387Y-70261215D01*
X152329500Y-70152500D01*
X151617000Y-70152500D01*
X151617000Y-71373000D01*
X153384447Y-71373000D01*
X153507619Y-71164706D01*
X153496029Y-71101667D01*
X153245129Y-70636976D01*
X153124398Y-70538741D01*
X153728508Y-70789589D01*
X154667373Y-70790409D01*
X155535086Y-70431877D01*
X156090000Y-69877930D01*
X156090000Y-80122841D01*
X155538578Y-79570456D01*
X154671492Y-79210411D01*
X153732627Y-79209591D01*
X153215412Y-79423299D01*
X153487786Y-79015666D01*
X153590358Y-78500000D01*
X153487786Y-77984334D01*
X153195684Y-77547174D01*
X152758524Y-77255072D01*
X152733025Y-77250000D01*
X152758524Y-77244928D01*
X153195684Y-76952826D01*
X153487786Y-76515666D01*
X153590358Y-76000000D01*
X153487786Y-75484334D01*
X153195684Y-75047174D01*
X153125083Y-75000000D01*
X153195684Y-74952826D01*
X153487786Y-74515666D01*
X153590358Y-74000000D01*
X153487786Y-73484334D01*
X153195684Y-73047174D01*
X152758524Y-72755072D01*
X152686694Y-72740784D01*
X152835499Y-72696327D01*
X153245129Y-72363024D01*
X153496029Y-71898333D01*
X153507619Y-71835294D01*
X153384447Y-71627000D01*
X151617000Y-71627000D01*
X151617000Y-71647000D01*
X151363000Y-71647000D01*
X151363000Y-71627000D01*
X151363000Y-71373000D01*
X151363000Y-70152500D01*
X150650500Y-70152500D01*
X150144501Y-70303673D01*
X149734871Y-70636976D01*
X149483971Y-71101667D01*
X149472381Y-71164706D01*
X149595553Y-71373000D01*
X151363000Y-71373000D01*
X151363000Y-71627000D01*
X149595553Y-71627000D01*
X149472381Y-71835294D01*
X149483971Y-71898333D01*
X149734871Y-72363024D01*
X150144501Y-72696327D01*
X150293305Y-72740784D01*
X150221476Y-72755072D01*
X149784316Y-73047174D01*
X149492214Y-73484334D01*
X149389642Y-74000000D01*
X149492214Y-74515666D01*
X149784316Y-74952826D01*
X149854916Y-75000000D01*
X149784316Y-75047174D01*
X149492214Y-75484334D01*
X149389642Y-76000000D01*
X149492214Y-76515666D01*
X149784316Y-76952826D01*
X150221476Y-77244928D01*
X150246974Y-77250000D01*
X150221476Y-77255072D01*
X149784316Y-77547174D01*
X149492214Y-77984334D01*
X149389642Y-78500000D01*
X149492214Y-79015666D01*
X149784316Y-79452826D01*
X150221476Y-79744928D01*
X150737142Y-79847500D01*
X152242858Y-79847500D01*
X152670200Y-79762496D01*
X152200456Y-80231422D01*
X151840411Y-81098508D01*
X151839591Y-82037373D01*
X152198123Y-82905086D01*
X152861422Y-83569544D01*
X153728508Y-83929589D01*
X154667373Y-83930409D01*
X155535086Y-83571877D01*
X156090000Y-83017930D01*
X156090000Y-92372776D01*
G36*
X124260760Y-64673000D02*
X120648652Y-64673000D01*
X119047213Y-63234973D01*
X117556120Y-61743880D01*
X117025688Y-61389457D01*
X116982387Y-61380844D01*
X116982387Y-61380843D01*
X116031516Y-60527000D01*
X122965000Y-60527000D01*
X122965000Y-62699994D01*
X122964999Y-62700000D01*
X123089457Y-63325688D01*
X123443880Y-63856120D01*
X124260760Y-64673000D01*
X124260760Y-64673000D01*
G37*
X124260760Y-64673000D02*
X120648652Y-64673000D01*
X119047213Y-63234973D01*
X117556120Y-61743880D01*
X117025688Y-61389457D01*
X116982387Y-61380844D01*
X116982387Y-61380843D01*
X116031516Y-60527000D01*
X122965000Y-60527000D01*
X122965000Y-62699994D01*
X122964999Y-62700000D01*
X123089457Y-63325688D01*
X123443880Y-63856120D01*
X124260760Y-64673000D01*
M02*
