%FSLAX46Y46*%
G04 Gerber Fmt 4.6, Leading zero omitted, Abs format (unit mm)*
G04 Created by KiCad (PCBNEW (2014-09-02 BZR 5112)-product) date mer. 25 mars 2015 20:03:37 CET*
%MOMM*%
G01*
G04 APERTURE LIST*
%ADD10C,0.150000*%
%ADD11R,1.270000X2.286000*%
%ADD12R,3.556000X2.159000*%
%ADD13R,2.125980X2.125980*%
%ADD14C,10.000000*%
%ADD15O,4.000500X2.999740*%
%ADD16R,0.635000X1.143000*%
%ADD17R,1.397000X0.889000*%
%ADD18R,0.889000X1.397000*%
%ADD19R,0.797560X0.797560*%
%ADD20R,2.032000X1.524000*%
%ADD21R,1.524000X2.032000*%
%ADD22R,0.900000X0.500000*%
%ADD23R,0.500000X0.900000*%
%ADD24C,1.300000*%
%ADD25O,2.850000X1.425000*%
%ADD26C,3.450000*%
%ADD27C,1.998980*%
%ADD28C,2.301240*%
%ADD29R,1.800000X1.770000*%
%ADD30R,1.727200X2.032000*%
%ADD31O,1.727200X2.032000*%
%ADD32R,2.032000X1.727200*%
%ADD33O,2.032000X1.727200*%
%ADD34R,0.900000X1.200000*%
%ADD35C,1.200000*%
%ADD36C,2.500000*%
%ADD37C,0.800000*%
%ADD38C,2.000000*%
%ADD39C,0.254000*%
G04 APERTURE END LIST*
D10*
D11*
X121514000Y-70275000D03*
X123800000Y-70275000D03*
X126086000Y-70275000D03*
D12*
X123800000Y-63925000D03*
D13*
X109899860Y-52049180D03*
X109899860Y-57550820D03*
X114101020Y-52049180D03*
X114101020Y-57550820D03*
X118299640Y-52049180D03*
X118299640Y-57550820D03*
X122500800Y-52049180D03*
X122500800Y-57550820D03*
X126699420Y-52049180D03*
X126699420Y-57550820D03*
X130900580Y-52049180D03*
X130900580Y-57550820D03*
X135099200Y-52049180D03*
X135099200Y-57550820D03*
X139300360Y-52049180D03*
X139300360Y-57550820D03*
X143498980Y-52049180D03*
X143498980Y-57550820D03*
X147700140Y-52049180D03*
X147700140Y-57550820D03*
D14*
X125600000Y-93600000D03*
X150500000Y-93600000D03*
X112900000Y-93600000D03*
X137200000Y-82100000D03*
D15*
X110600000Y-71598740D03*
X110600000Y-66597480D03*
X110600000Y-76600000D03*
D16*
X128938000Y-70500000D03*
X130462000Y-70500000D03*
D17*
X118900000Y-68052500D03*
X118900000Y-66147500D03*
D18*
X127647500Y-63700000D03*
X129552500Y-63700000D03*
D19*
X139500000Y-64550700D03*
X139500000Y-66049300D03*
X141500000Y-64550700D03*
X141500000Y-66049300D03*
D20*
X146800000Y-83349000D03*
X146800000Y-86651000D03*
D21*
X149749000Y-86500000D03*
X153051000Y-86500000D03*
D22*
X139500000Y-67850000D03*
X139500000Y-69350000D03*
X141500000Y-67850000D03*
X141500000Y-69350000D03*
D23*
X121650000Y-75500000D03*
X120150000Y-75500000D03*
D14*
X138100000Y-93600000D03*
D20*
X127700000Y-82949000D03*
X127700000Y-86251000D03*
D21*
X116951000Y-86300000D03*
X113649000Y-86300000D03*
D24*
X152300000Y-64800000D03*
X154800000Y-64800000D03*
X149800000Y-64800000D03*
X149800000Y-61600000D03*
X154800000Y-61600000D03*
X152300000Y-61600000D03*
D25*
X151490000Y-78500000D03*
X151490000Y-76000000D03*
X151490000Y-74000000D03*
X151490000Y-71500000D03*
D26*
X154200000Y-81570000D03*
X154200000Y-68430000D03*
D27*
X143400000Y-61100660D03*
D28*
X143400000Y-86099340D03*
D29*
X119958000Y-86200000D03*
X124042000Y-86200000D03*
X119858000Y-78000000D03*
X123942000Y-78000000D03*
D30*
X108500000Y-82700000D03*
D31*
X111040000Y-82700000D03*
X113580000Y-82700000D03*
X116120000Y-82700000D03*
X118660000Y-82700000D03*
D32*
X155400000Y-56200000D03*
D33*
X155400000Y-53660000D03*
X155400000Y-51120000D03*
D34*
X152900000Y-53800000D03*
X152900000Y-56000000D03*
D35*
X139800000Y-60600000D03*
X146000000Y-60900000D03*
X141400000Y-62300000D03*
X121000000Y-63900000D03*
X121400000Y-62700000D03*
X119900000Y-62700000D03*
X118400000Y-61700000D03*
X120600000Y-61600000D03*
X122400000Y-61500000D03*
X121400000Y-60600000D03*
X119500000Y-60600000D03*
X117500000Y-60700000D03*
D36*
X147700000Y-66400000D03*
D35*
X131100000Y-63000000D03*
X131900000Y-68800000D03*
X149800000Y-83000000D03*
X133800000Y-61400000D03*
X150200000Y-53200000D03*
D37*
X139800000Y-60600000D02*
X139500000Y-60900000D01*
X139500000Y-60900000D02*
X139500000Y-64550700D01*
X139500000Y-66049300D02*
X139500000Y-67850000D01*
X152000000Y-59600000D02*
X155400000Y-56200000D01*
X147300000Y-59600000D02*
X152000000Y-59600000D01*
X146000000Y-60900000D02*
X147300000Y-59600000D01*
X141400000Y-62300000D02*
X141500000Y-62400000D01*
X141500000Y-62400000D02*
X141500000Y-64550700D01*
X141500000Y-66049300D02*
X141500000Y-67850000D01*
D38*
X137200000Y-54800000D02*
X146400000Y-54800000D01*
X128200000Y-70275000D02*
X128200000Y-69100000D01*
X137200000Y-61000000D02*
X137200000Y-59800000D01*
X134600000Y-63600000D02*
X137200000Y-61000000D01*
X133700000Y-63600000D02*
X134600000Y-63600000D01*
X128200000Y-69100000D02*
X133700000Y-63600000D01*
D37*
X137200000Y-54800000D02*
X137200000Y-59800000D01*
D38*
X147700140Y-53499860D02*
X147700140Y-52049180D01*
X146400000Y-54800000D02*
X147700140Y-53499860D01*
X126086000Y-70275000D02*
X128200000Y-70275000D01*
X128200000Y-70275000D02*
X128336998Y-70275000D01*
X128336998Y-70275000D02*
X128561998Y-70500000D01*
X128561998Y-70500000D02*
X128561998Y-70123998D01*
D37*
X147700140Y-52049180D02*
X147700140Y-52799860D01*
X128713000Y-70275000D02*
X128561998Y-70123998D01*
X128561998Y-70123998D02*
X128938000Y-70500000D01*
D38*
X125951000Y-82949000D02*
X127700000Y-82949000D01*
X124042000Y-84858000D02*
X125951000Y-82949000D01*
X124042000Y-86200000D02*
X124042000Y-84858000D01*
X128561998Y-72438002D02*
X127700000Y-73300000D01*
X127700000Y-73300000D02*
X127700000Y-82949000D01*
X128561998Y-70500000D02*
X128561998Y-72438002D01*
D37*
X127647500Y-63700000D02*
X127647500Y-65152500D01*
X123800000Y-68500000D02*
X123800000Y-70275000D01*
X125000000Y-67300000D02*
X123800000Y-68500000D01*
X125500000Y-67300000D02*
X125000000Y-67300000D01*
X127647500Y-65152500D02*
X125500000Y-67300000D01*
X124300300Y-78000000D02*
X124100000Y-78000000D01*
X127422500Y-63925000D02*
X127647500Y-63700000D01*
X123800000Y-63925000D02*
X127422500Y-63925000D01*
X123800000Y-63925000D02*
X123725000Y-63925000D01*
X121025000Y-63925000D02*
X121000000Y-63900000D01*
X121400000Y-62700000D02*
X119900000Y-62700000D01*
X118400000Y-61700000D02*
X118500000Y-61600000D01*
X118500000Y-61600000D02*
X120600000Y-61600000D01*
X122400000Y-61500000D02*
X121500000Y-60600000D01*
X121500000Y-60600000D02*
X121400000Y-60600000D01*
X119500000Y-60600000D02*
X119400000Y-60700000D01*
X119400000Y-60700000D02*
X117500000Y-60700000D01*
X123800000Y-63925000D02*
X121025000Y-63925000D01*
D38*
X123942000Y-73142000D02*
X123800000Y-73000000D01*
X123942000Y-75500000D02*
X123942000Y-73142000D01*
X123942000Y-78000000D02*
X123942000Y-75500000D01*
D37*
X123942000Y-70417000D02*
X123800000Y-70275000D01*
X123942000Y-73142000D02*
X123942000Y-70417000D01*
X123600000Y-75500000D02*
X123942000Y-75500000D01*
X123942000Y-75500000D02*
X123600000Y-75500000D01*
X121650000Y-75500000D02*
X123942000Y-75500000D01*
D38*
X123942000Y-81258000D02*
X119958000Y-85242000D01*
X119958000Y-85242000D02*
X119958000Y-86200000D01*
X123942000Y-78000000D02*
X123942000Y-81258000D01*
X117051000Y-86200000D02*
X116951000Y-86300000D01*
X119958000Y-86200000D02*
X117051000Y-86200000D01*
D37*
X118900000Y-68052500D02*
X118900000Y-69800000D01*
X119375000Y-70275000D02*
X121514000Y-70275000D01*
X118900000Y-69800000D02*
X119375000Y-70275000D01*
X116400000Y-76600000D02*
X117800000Y-78000000D01*
X117800000Y-78000000D02*
X119858000Y-78000000D01*
X110600000Y-76600000D02*
X116400000Y-76600000D01*
X121514000Y-72786000D02*
X121514000Y-70275000D01*
X120150000Y-74150000D02*
X121514000Y-72786000D01*
X120150000Y-75500000D02*
X120150000Y-74150000D01*
X119858000Y-75792000D02*
X120150000Y-75500000D01*
X119858000Y-78000000D02*
X119858000Y-75792000D01*
D38*
X143498980Y-57550820D02*
X143498980Y-61001680D01*
X143498980Y-61001680D02*
X143400000Y-61100660D01*
X148200000Y-66900000D02*
X148300000Y-66900000D01*
X147700000Y-66400000D02*
X148200000Y-66900000D01*
X143498980Y-60198980D02*
X143498980Y-62098980D01*
X143498980Y-62098980D02*
X148300000Y-66900000D01*
X143498980Y-57550820D02*
X143498980Y-60198980D01*
X147700140Y-57550820D02*
X143498980Y-57550820D01*
X148300000Y-80000000D02*
X146800000Y-81500000D01*
X146800000Y-81500000D02*
X146800000Y-83349000D01*
X148300000Y-66900000D02*
X148300000Y-75149000D01*
X148300000Y-75149000D02*
X148300000Y-80000000D01*
X149800000Y-78500000D02*
X148300000Y-80000000D01*
X151490000Y-78500000D02*
X149800000Y-78500000D01*
D37*
X135099200Y-51000800D02*
X135099200Y-52049180D01*
X126699420Y-57550820D02*
X126699420Y-55699420D01*
X118299640Y-56400360D02*
X118299640Y-57550820D01*
X119900000Y-54800000D02*
X118299640Y-56400360D01*
X125800000Y-54800000D02*
X119900000Y-54800000D01*
X126699420Y-55699420D02*
X125800000Y-54800000D01*
X135099200Y-51000800D02*
X135099200Y-52049180D01*
X129552500Y-63700000D02*
X130400000Y-63700000D01*
X130400000Y-63700000D02*
X131100000Y-63000000D01*
X135099200Y-52049180D02*
X135099200Y-57550820D01*
X130462000Y-70500000D02*
X130462000Y-75362000D01*
X130462000Y-75362000D02*
X137200000Y-82100000D01*
X126699420Y-52049180D02*
X126699420Y-57550820D01*
X126699420Y-57550820D02*
X130900580Y-57550820D01*
X130900580Y-57550820D02*
X135099200Y-57550820D01*
X130462000Y-70238000D02*
X131900000Y-68800000D01*
X130462000Y-70500000D02*
X130462000Y-70238000D01*
D38*
X114101020Y-52049180D02*
X109899860Y-52049180D01*
X109899860Y-52049180D02*
X109899860Y-57550820D01*
X149800000Y-83000000D02*
X149749000Y-83051000D01*
X149749000Y-83051000D02*
X149749000Y-83451000D01*
X149749000Y-83451000D02*
X149749000Y-86500000D01*
D37*
X122500800Y-59000800D02*
X124900000Y-61400000D01*
X124900000Y-61400000D02*
X133800000Y-61400000D01*
X122500800Y-57550820D02*
X122500800Y-59000800D01*
D38*
X140500000Y-93600000D02*
X138100000Y-93600000D01*
X140500000Y-93600000D02*
X138100000Y-93600000D01*
X146800000Y-87300000D02*
X140500000Y-93600000D01*
X146800000Y-86651000D02*
X146800000Y-87300000D01*
X153051000Y-86500000D02*
X153051000Y-91049000D01*
X153051000Y-91049000D02*
X150500000Y-93600000D01*
X152051000Y-92049000D02*
X150500000Y-93600000D01*
X113649000Y-92851000D02*
X112900000Y-93600000D01*
X113649000Y-86300000D02*
X113649000Y-92851000D01*
X111400000Y-86300000D02*
X111040000Y-85940000D01*
X111040000Y-85940000D02*
X111040000Y-82700000D01*
X113649000Y-86300000D02*
X111400000Y-86300000D01*
X127700000Y-91500000D02*
X125600000Y-93600000D01*
X127700000Y-86251000D02*
X127700000Y-91500000D01*
D37*
X152900000Y-53800000D02*
X155260000Y-53800000D01*
X155260000Y-53800000D02*
X155400000Y-53660000D01*
X152900000Y-56000000D02*
X151000000Y-56000000D01*
X150200000Y-55200000D02*
X150200000Y-53200000D01*
X151000000Y-56000000D02*
X150200000Y-55200000D01*
D39*
G36*
X132557169Y-62435000D02*
X132543880Y-62443880D01*
X132543877Y-62443883D01*
X130632000Y-64355760D01*
X130632000Y-64272191D01*
X130632000Y-63985750D01*
X130473250Y-63827000D01*
X129679500Y-63827000D01*
X129679500Y-64874750D01*
X129838250Y-65033500D01*
X129954260Y-65033500D01*
X127043880Y-67943880D01*
X126689457Y-68474312D01*
X126684944Y-68497000D01*
X126594691Y-68497000D01*
X126227000Y-68497000D01*
X125324691Y-68497000D01*
X125225713Y-68537997D01*
X125428711Y-68335000D01*
X125499994Y-68335000D01*
X125500000Y-68335001D01*
X125500000Y-68335000D01*
X125896077Y-68256215D01*
X126227000Y-68035100D01*
X126231856Y-68031856D01*
X128379352Y-65884358D01*
X128379356Y-65884356D01*
X128379356Y-65884355D01*
X128603715Y-65548577D01*
X128682500Y-65152500D01*
X128682501Y-65152500D01*
X128682500Y-65152494D01*
X128682500Y-64871025D01*
X128748302Y-64936827D01*
X128981691Y-65033500D01*
X129266750Y-65033500D01*
X129425500Y-64874750D01*
X129425500Y-63827000D01*
X129405500Y-63827000D01*
X129405500Y-63573000D01*
X129425500Y-63573000D01*
X129425500Y-63553000D01*
X129679500Y-63553000D01*
X129679500Y-63573000D01*
X130473250Y-63573000D01*
X130632000Y-63414250D01*
X130632000Y-63127809D01*
X130632000Y-62875190D01*
X130535327Y-62641801D01*
X130356698Y-62463173D01*
X130288682Y-62435000D01*
X132557169Y-62435000D01*
X132557169Y-62435000D01*
G37*
X132557169Y-62435000D02*
X132543880Y-62443880D01*
X132543877Y-62443883D01*
X130632000Y-64355760D01*
X130632000Y-64272191D01*
X130632000Y-63985750D01*
X130473250Y-63827000D01*
X129679500Y-63827000D01*
X129679500Y-64874750D01*
X129838250Y-65033500D01*
X129954260Y-65033500D01*
X127043880Y-67943880D01*
X126689457Y-68474312D01*
X126684944Y-68497000D01*
X126594691Y-68497000D01*
X126227000Y-68497000D01*
X125324691Y-68497000D01*
X125225713Y-68537997D01*
X125428711Y-68335000D01*
X125499994Y-68335000D01*
X125500000Y-68335001D01*
X125500000Y-68335000D01*
X125896077Y-68256215D01*
X126227000Y-68035100D01*
X126231856Y-68031856D01*
X128379352Y-65884358D01*
X128379356Y-65884356D01*
X128379356Y-65884355D01*
X128603715Y-65548577D01*
X128682500Y-65152500D01*
X128682501Y-65152500D01*
X128682500Y-65152494D01*
X128682500Y-64871025D01*
X128748302Y-64936827D01*
X128981691Y-65033500D01*
X129266750Y-65033500D01*
X129425500Y-64874750D01*
X129425500Y-63827000D01*
X129405500Y-63827000D01*
X129405500Y-63573000D01*
X129425500Y-63573000D01*
X129425500Y-63553000D01*
X129679500Y-63553000D01*
X129679500Y-63573000D01*
X130473250Y-63573000D01*
X130632000Y-63414250D01*
X130632000Y-63127809D01*
X130632000Y-62875190D01*
X130535327Y-62641801D01*
X130356698Y-62463173D01*
X130288682Y-62435000D01*
X132557169Y-62435000D01*
G36*
X148114000Y-85325116D02*
X147942310Y-85254000D01*
X147689691Y-85254000D01*
X147595616Y-85254000D01*
X147425687Y-85140457D01*
X146800000Y-85016000D01*
X146174313Y-85140457D01*
X146004383Y-85254000D01*
X145657691Y-85254000D01*
X145424302Y-85350673D01*
X145245673Y-85529301D01*
X145174301Y-85701608D01*
X145173940Y-85689792D01*
X144943959Y-85134569D01*
X144661473Y-85017472D01*
X144481868Y-85197077D01*
X144481868Y-84837867D01*
X144364771Y-84555381D01*
X143700485Y-84303706D01*
X142990452Y-84325400D01*
X142435229Y-84555381D01*
X142318132Y-84837864D01*
X142204203Y-84723935D01*
X142203571Y-84724566D01*
X142814933Y-83317417D01*
X142853407Y-81076005D01*
X142585000Y-80395192D01*
X142585000Y-69726309D01*
X142585000Y-69633750D01*
X142426250Y-69475000D01*
X141627000Y-69475000D01*
X141627000Y-70076250D01*
X141785750Y-70235000D01*
X141823691Y-70235000D01*
X142076310Y-70235000D01*
X142309699Y-70138327D01*
X142488327Y-69959698D01*
X142585000Y-69726309D01*
X142585000Y-80395192D01*
X142031202Y-78990487D01*
X141921636Y-78826511D01*
X141373000Y-78355412D01*
X141373000Y-70076250D01*
X141373000Y-69475000D01*
X140573750Y-69475000D01*
X140500000Y-69548750D01*
X140426250Y-69475000D01*
X139627000Y-69475000D01*
X139627000Y-70076250D01*
X139785750Y-70235000D01*
X139823691Y-70235000D01*
X140076310Y-70235000D01*
X140309699Y-70138327D01*
X140488327Y-69959698D01*
X140500000Y-69931516D01*
X140511673Y-69959698D01*
X140690301Y-70138327D01*
X140923690Y-70235000D01*
X141176309Y-70235000D01*
X141214250Y-70235000D01*
X141373000Y-70076250D01*
X141373000Y-78355412D01*
X141239137Y-78240468D01*
X141059532Y-78420073D01*
X141059532Y-78060863D01*
X140473489Y-77378364D01*
X139373000Y-76900237D01*
X139373000Y-70076250D01*
X139373000Y-69475000D01*
X138573750Y-69475000D01*
X138415000Y-69633750D01*
X138415000Y-69726309D01*
X138511673Y-69959698D01*
X138690301Y-70138327D01*
X138923690Y-70235000D01*
X139176309Y-70235000D01*
X139214250Y-70235000D01*
X139373000Y-70076250D01*
X139373000Y-76900237D01*
X138417417Y-76485067D01*
X136176005Y-76446593D01*
X134090487Y-77268798D01*
X133926511Y-77378364D01*
X133340468Y-78060863D01*
X137200000Y-81920395D01*
X141059532Y-78060863D01*
X141059532Y-78420073D01*
X137379605Y-82100000D01*
X141239137Y-85959532D01*
X141690246Y-85572176D01*
X141604366Y-85798855D01*
X141626060Y-86508888D01*
X141856041Y-87064111D01*
X142138527Y-87181208D01*
X143220395Y-86099340D01*
X143206252Y-86085197D01*
X143385857Y-85905592D01*
X143400000Y-85919735D01*
X144481868Y-84837867D01*
X144481868Y-85197077D01*
X143579605Y-86099340D01*
X143593747Y-86113482D01*
X143414142Y-86293087D01*
X143400000Y-86278945D01*
X143220395Y-86458550D01*
X142318132Y-87360813D01*
X142435229Y-87643299D01*
X143099515Y-87894974D01*
X143809548Y-87873280D01*
X143988679Y-87799081D01*
X142128390Y-89659370D01*
X141296139Y-88825665D01*
X141059532Y-88727417D01*
X141059532Y-86139137D01*
X137200000Y-82279605D01*
X137020395Y-82459210D01*
X137020395Y-82100000D01*
X133160863Y-78240468D01*
X132478364Y-78826511D01*
X131585067Y-80882583D01*
X131546593Y-83123995D01*
X132368798Y-85209513D01*
X132478364Y-85373489D01*
X133160863Y-85959532D01*
X137020395Y-82100000D01*
X137020395Y-82459210D01*
X133340468Y-86139137D01*
X133926511Y-86821636D01*
X135982583Y-87714933D01*
X138223995Y-87753407D01*
X140309513Y-86931202D01*
X140473489Y-86821636D01*
X141059532Y-86139137D01*
X141059532Y-88727417D01*
X139225788Y-87965980D01*
X136984047Y-87964024D01*
X134912199Y-88820094D01*
X133325665Y-90403861D01*
X132465980Y-92474212D01*
X132464024Y-94715953D01*
X133320094Y-96787801D01*
X134903861Y-98374335D01*
X136386546Y-98990000D01*
X131414500Y-98990000D01*
X131414500Y-71197810D01*
X131414500Y-70945191D01*
X131414500Y-70785750D01*
X131414500Y-70214250D01*
X131414500Y-70054809D01*
X131414500Y-69802190D01*
X131317827Y-69568801D01*
X131139198Y-69390173D01*
X130905809Y-69293500D01*
X130747750Y-69293500D01*
X130589000Y-69452250D01*
X130589000Y-70373000D01*
X131255750Y-70373000D01*
X131414500Y-70214250D01*
X131414500Y-70785750D01*
X131255750Y-70627000D01*
X130589000Y-70627000D01*
X130589000Y-71547750D01*
X130747750Y-71706500D01*
X130905809Y-71706500D01*
X131139198Y-71609827D01*
X131317827Y-71431199D01*
X131414500Y-71197810D01*
X131414500Y-98990000D01*
X127311260Y-98990000D01*
X128787801Y-98379906D01*
X130374335Y-96796139D01*
X131234020Y-94725788D01*
X131235976Y-92484047D01*
X130379906Y-90412199D01*
X129335000Y-89365467D01*
X129335000Y-87177937D01*
X129351000Y-87139310D01*
X129351000Y-86886691D01*
X129351000Y-85362691D01*
X129254327Y-85129302D01*
X129075699Y-84950673D01*
X128842310Y-84854000D01*
X128589691Y-84854000D01*
X128495616Y-84854000D01*
X128325687Y-84740457D01*
X127700000Y-84616000D01*
X127074313Y-84740457D01*
X126904383Y-84854000D01*
X126557691Y-84854000D01*
X126324302Y-84950673D01*
X126227000Y-85047974D01*
X126145673Y-85129301D01*
X126049000Y-85362690D01*
X126049000Y-85615309D01*
X126049000Y-87139309D01*
X126065000Y-87177936D01*
X126065000Y-87965403D01*
X124484047Y-87964024D01*
X122412199Y-88820094D01*
X120825665Y-90403861D01*
X119965980Y-92474212D01*
X119964024Y-94715953D01*
X120820094Y-96787801D01*
X122403861Y-98374335D01*
X123886546Y-98990000D01*
X114611260Y-98990000D01*
X116087801Y-98379906D01*
X117674335Y-96796139D01*
X118534020Y-94725788D01*
X118535976Y-92484047D01*
X117679906Y-90412199D01*
X116096139Y-88825665D01*
X115284000Y-88488435D01*
X115284000Y-86300000D01*
X115159543Y-85674313D01*
X115046000Y-85504383D01*
X115046000Y-85157691D01*
X114949327Y-84924302D01*
X114770699Y-84745673D01*
X114537310Y-84649000D01*
X114284691Y-84649000D01*
X112760691Y-84649000D01*
X112722063Y-84665000D01*
X112675000Y-84665000D01*
X112675000Y-84047762D01*
X113006511Y-84269271D01*
X113580000Y-84383345D01*
X114153489Y-84269271D01*
X114639670Y-83944415D01*
X114850000Y-83629634D01*
X115060330Y-83944415D01*
X115546511Y-84269271D01*
X116120000Y-84383345D01*
X116693489Y-84269271D01*
X117179670Y-83944415D01*
X117390000Y-83629634D01*
X117600330Y-83944415D01*
X118086511Y-84269271D01*
X118609793Y-84373358D01*
X118481742Y-84565000D01*
X117051000Y-84565000D01*
X116628703Y-84649000D01*
X116062691Y-84649000D01*
X115829302Y-84745673D01*
X115650673Y-84924301D01*
X115554000Y-85157690D01*
X115554000Y-85410309D01*
X115554000Y-85504382D01*
X115440457Y-85674312D01*
X115315999Y-86300000D01*
X115440457Y-86925688D01*
X115554000Y-87095617D01*
X115554000Y-87442309D01*
X115650673Y-87675698D01*
X115829301Y-87854327D01*
X116062690Y-87951000D01*
X116315309Y-87951000D01*
X117839309Y-87951000D01*
X118072698Y-87854327D01*
X118092025Y-87835000D01*
X119958000Y-87835000D01*
X120536143Y-87720000D01*
X120984309Y-87720000D01*
X121217698Y-87623327D01*
X121396327Y-87444699D01*
X121493000Y-87211310D01*
X121493000Y-86958691D01*
X121493000Y-86702733D01*
X121593000Y-86200000D01*
X121593000Y-85919239D01*
X122407000Y-85105239D01*
X122407000Y-86200000D01*
X122507000Y-86702733D01*
X122507000Y-87211309D01*
X122603673Y-87444698D01*
X122782301Y-87623327D01*
X123015690Y-87720000D01*
X123268309Y-87720000D01*
X123463856Y-87720000D01*
X124042000Y-87835000D01*
X124620143Y-87720000D01*
X125068309Y-87720000D01*
X125301698Y-87623327D01*
X125480327Y-87444699D01*
X125577000Y-87211310D01*
X125577000Y-86958691D01*
X125577000Y-86702733D01*
X125677000Y-86200000D01*
X125677000Y-85535239D01*
X126227000Y-84985239D01*
X126628239Y-84584000D01*
X127700000Y-84584000D01*
X128325687Y-84459543D01*
X128495616Y-84346000D01*
X128842309Y-84346000D01*
X129075698Y-84249327D01*
X129254327Y-84070699D01*
X129351000Y-83837310D01*
X129351000Y-83584691D01*
X129351000Y-82060691D01*
X129335000Y-82022063D01*
X129335000Y-73977239D01*
X129718114Y-73594124D01*
X129718117Y-73594122D01*
X129718118Y-73594122D01*
X129930578Y-73276150D01*
X130072541Y-73063690D01*
X130072541Y-73063689D01*
X130196998Y-72438002D01*
X130196998Y-71685752D01*
X130335000Y-71547750D01*
X130335000Y-70627000D01*
X130315000Y-70627000D01*
X130315000Y-70373000D01*
X130335000Y-70373000D01*
X130335000Y-69452250D01*
X130247494Y-69364744D01*
X134377239Y-65235000D01*
X134599994Y-65235000D01*
X134600000Y-65235001D01*
X134600000Y-65235000D01*
X135225687Y-65110543D01*
X135225688Y-65110543D01*
X135756120Y-64756120D01*
X138356116Y-62156122D01*
X138356119Y-62156120D01*
X138356120Y-62156120D01*
X138465000Y-61993169D01*
X138465000Y-64550700D01*
X138466220Y-64556833D01*
X138466220Y-65075789D01*
X138559091Y-65299999D01*
X138466220Y-65524210D01*
X138466220Y-65776829D01*
X138466220Y-66043166D01*
X138465000Y-66049300D01*
X138465000Y-67352979D01*
X138415000Y-67473690D01*
X138415000Y-67726309D01*
X138415000Y-68226309D01*
X138511673Y-68459698D01*
X138651974Y-68600000D01*
X138511673Y-68740302D01*
X138415000Y-68973691D01*
X138415000Y-69066250D01*
X138573750Y-69225000D01*
X139373000Y-69225000D01*
X139373000Y-69203000D01*
X139627000Y-69203000D01*
X139627000Y-69225000D01*
X140426250Y-69225000D01*
X140500000Y-69151250D01*
X140573750Y-69225000D01*
X141373000Y-69225000D01*
X141373000Y-69203000D01*
X141627000Y-69203000D01*
X141627000Y-69225000D01*
X142426250Y-69225000D01*
X142585000Y-69066250D01*
X142585000Y-68973691D01*
X142488327Y-68740302D01*
X142348025Y-68599999D01*
X142488327Y-68459699D01*
X142585000Y-68226310D01*
X142585000Y-67973691D01*
X142585000Y-67473691D01*
X142535000Y-67352980D01*
X142535000Y-66049300D01*
X142533780Y-66043166D01*
X142533780Y-65524211D01*
X142440908Y-65300000D01*
X142533780Y-65075790D01*
X142533780Y-64823171D01*
X142533780Y-64556833D01*
X142535000Y-64550700D01*
X142535000Y-63447239D01*
X145814714Y-66726953D01*
X145814674Y-66773305D01*
X146101043Y-67466372D01*
X146630839Y-67997093D01*
X146665000Y-68011277D01*
X146665000Y-75149000D01*
X146665000Y-79322760D01*
X145643880Y-80343880D01*
X145289457Y-80874312D01*
X145164999Y-81500000D01*
X145165000Y-81500005D01*
X145165000Y-82422062D01*
X145149000Y-82460690D01*
X145149000Y-82713309D01*
X145149000Y-84237309D01*
X145245673Y-84470698D01*
X145424301Y-84649327D01*
X145657690Y-84746000D01*
X145910309Y-84746000D01*
X146004383Y-84746000D01*
X146174313Y-84859543D01*
X146800000Y-84984000D01*
X147425687Y-84859543D01*
X147595616Y-84746000D01*
X147942309Y-84746000D01*
X148114000Y-84674883D01*
X148114000Y-85325116D01*
X148114000Y-85325116D01*
G37*
X148114000Y-85325116D02*
X147942310Y-85254000D01*
X147689691Y-85254000D01*
X147595616Y-85254000D01*
X147425687Y-85140457D01*
X146800000Y-85016000D01*
X146174313Y-85140457D01*
X146004383Y-85254000D01*
X145657691Y-85254000D01*
X145424302Y-85350673D01*
X145245673Y-85529301D01*
X145174301Y-85701608D01*
X145173940Y-85689792D01*
X144943959Y-85134569D01*
X144661473Y-85017472D01*
X144481868Y-85197077D01*
X144481868Y-84837867D01*
X144364771Y-84555381D01*
X143700485Y-84303706D01*
X142990452Y-84325400D01*
X142435229Y-84555381D01*
X142318132Y-84837864D01*
X142204203Y-84723935D01*
X142203571Y-84724566D01*
X142814933Y-83317417D01*
X142853407Y-81076005D01*
X142585000Y-80395192D01*
X142585000Y-69726309D01*
X142585000Y-69633750D01*
X142426250Y-69475000D01*
X141627000Y-69475000D01*
X141627000Y-70076250D01*
X141785750Y-70235000D01*
X141823691Y-70235000D01*
X142076310Y-70235000D01*
X142309699Y-70138327D01*
X142488327Y-69959698D01*
X142585000Y-69726309D01*
X142585000Y-80395192D01*
X142031202Y-78990487D01*
X141921636Y-78826511D01*
X141373000Y-78355412D01*
X141373000Y-70076250D01*
X141373000Y-69475000D01*
X140573750Y-69475000D01*
X140500000Y-69548750D01*
X140426250Y-69475000D01*
X139627000Y-69475000D01*
X139627000Y-70076250D01*
X139785750Y-70235000D01*
X139823691Y-70235000D01*
X140076310Y-70235000D01*
X140309699Y-70138327D01*
X140488327Y-69959698D01*
X140500000Y-69931516D01*
X140511673Y-69959698D01*
X140690301Y-70138327D01*
X140923690Y-70235000D01*
X141176309Y-70235000D01*
X141214250Y-70235000D01*
X141373000Y-70076250D01*
X141373000Y-78355412D01*
X141239137Y-78240468D01*
X141059532Y-78420073D01*
X141059532Y-78060863D01*
X140473489Y-77378364D01*
X139373000Y-76900237D01*
X139373000Y-70076250D01*
X139373000Y-69475000D01*
X138573750Y-69475000D01*
X138415000Y-69633750D01*
X138415000Y-69726309D01*
X138511673Y-69959698D01*
X138690301Y-70138327D01*
X138923690Y-70235000D01*
X139176309Y-70235000D01*
X139214250Y-70235000D01*
X139373000Y-70076250D01*
X139373000Y-76900237D01*
X138417417Y-76485067D01*
X136176005Y-76446593D01*
X134090487Y-77268798D01*
X133926511Y-77378364D01*
X133340468Y-78060863D01*
X137200000Y-81920395D01*
X141059532Y-78060863D01*
X141059532Y-78420073D01*
X137379605Y-82100000D01*
X141239137Y-85959532D01*
X141690246Y-85572176D01*
X141604366Y-85798855D01*
X141626060Y-86508888D01*
X141856041Y-87064111D01*
X142138527Y-87181208D01*
X143220395Y-86099340D01*
X143206252Y-86085197D01*
X143385857Y-85905592D01*
X143400000Y-85919735D01*
X144481868Y-84837867D01*
X144481868Y-85197077D01*
X143579605Y-86099340D01*
X143593747Y-86113482D01*
X143414142Y-86293087D01*
X143400000Y-86278945D01*
X143220395Y-86458550D01*
X142318132Y-87360813D01*
X142435229Y-87643299D01*
X143099515Y-87894974D01*
X143809548Y-87873280D01*
X143988679Y-87799081D01*
X142128390Y-89659370D01*
X141296139Y-88825665D01*
X141059532Y-88727417D01*
X141059532Y-86139137D01*
X137200000Y-82279605D01*
X137020395Y-82459210D01*
X137020395Y-82100000D01*
X133160863Y-78240468D01*
X132478364Y-78826511D01*
X131585067Y-80882583D01*
X131546593Y-83123995D01*
X132368798Y-85209513D01*
X132478364Y-85373489D01*
X133160863Y-85959532D01*
X137020395Y-82100000D01*
X137020395Y-82459210D01*
X133340468Y-86139137D01*
X133926511Y-86821636D01*
X135982583Y-87714933D01*
X138223995Y-87753407D01*
X140309513Y-86931202D01*
X140473489Y-86821636D01*
X141059532Y-86139137D01*
X141059532Y-88727417D01*
X139225788Y-87965980D01*
X136984047Y-87964024D01*
X134912199Y-88820094D01*
X133325665Y-90403861D01*
X132465980Y-92474212D01*
X132464024Y-94715953D01*
X133320094Y-96787801D01*
X134903861Y-98374335D01*
X136386546Y-98990000D01*
X131414500Y-98990000D01*
X131414500Y-71197810D01*
X131414500Y-70945191D01*
X131414500Y-70785750D01*
X131414500Y-70214250D01*
X131414500Y-70054809D01*
X131414500Y-69802190D01*
X131317827Y-69568801D01*
X131139198Y-69390173D01*
X130905809Y-69293500D01*
X130747750Y-69293500D01*
X130589000Y-69452250D01*
X130589000Y-70373000D01*
X131255750Y-70373000D01*
X131414500Y-70214250D01*
X131414500Y-70785750D01*
X131255750Y-70627000D01*
X130589000Y-70627000D01*
X130589000Y-71547750D01*
X130747750Y-71706500D01*
X130905809Y-71706500D01*
X131139198Y-71609827D01*
X131317827Y-71431199D01*
X131414500Y-71197810D01*
X131414500Y-98990000D01*
X127311260Y-98990000D01*
X128787801Y-98379906D01*
X130374335Y-96796139D01*
X131234020Y-94725788D01*
X131235976Y-92484047D01*
X130379906Y-90412199D01*
X129335000Y-89365467D01*
X129335000Y-87177937D01*
X129351000Y-87139310D01*
X129351000Y-86886691D01*
X129351000Y-85362691D01*
X129254327Y-85129302D01*
X129075699Y-84950673D01*
X128842310Y-84854000D01*
X128589691Y-84854000D01*
X128495616Y-84854000D01*
X128325687Y-84740457D01*
X127700000Y-84616000D01*
X127074313Y-84740457D01*
X126904383Y-84854000D01*
X126557691Y-84854000D01*
X126324302Y-84950673D01*
X126227000Y-85047974D01*
X126145673Y-85129301D01*
X126049000Y-85362690D01*
X126049000Y-85615309D01*
X126049000Y-87139309D01*
X126065000Y-87177936D01*
X126065000Y-87965403D01*
X124484047Y-87964024D01*
X122412199Y-88820094D01*
X120825665Y-90403861D01*
X119965980Y-92474212D01*
X119964024Y-94715953D01*
X120820094Y-96787801D01*
X122403861Y-98374335D01*
X123886546Y-98990000D01*
X114611260Y-98990000D01*
X116087801Y-98379906D01*
X117674335Y-96796139D01*
X118534020Y-94725788D01*
X118535976Y-92484047D01*
X117679906Y-90412199D01*
X116096139Y-88825665D01*
X115284000Y-88488435D01*
X115284000Y-86300000D01*
X115159543Y-85674313D01*
X115046000Y-85504383D01*
X115046000Y-85157691D01*
X114949327Y-84924302D01*
X114770699Y-84745673D01*
X114537310Y-84649000D01*
X114284691Y-84649000D01*
X112760691Y-84649000D01*
X112722063Y-84665000D01*
X112675000Y-84665000D01*
X112675000Y-84047762D01*
X113006511Y-84269271D01*
X113580000Y-84383345D01*
X114153489Y-84269271D01*
X114639670Y-83944415D01*
X114850000Y-83629634D01*
X115060330Y-83944415D01*
X115546511Y-84269271D01*
X116120000Y-84383345D01*
X116693489Y-84269271D01*
X117179670Y-83944415D01*
X117390000Y-83629634D01*
X117600330Y-83944415D01*
X118086511Y-84269271D01*
X118609793Y-84373358D01*
X118481742Y-84565000D01*
X117051000Y-84565000D01*
X116628703Y-84649000D01*
X116062691Y-84649000D01*
X115829302Y-84745673D01*
X115650673Y-84924301D01*
X115554000Y-85157690D01*
X115554000Y-85410309D01*
X115554000Y-85504382D01*
X115440457Y-85674312D01*
X115315999Y-86300000D01*
X115440457Y-86925688D01*
X115554000Y-87095617D01*
X115554000Y-87442309D01*
X115650673Y-87675698D01*
X115829301Y-87854327D01*
X116062690Y-87951000D01*
X116315309Y-87951000D01*
X117839309Y-87951000D01*
X118072698Y-87854327D01*
X118092025Y-87835000D01*
X119958000Y-87835000D01*
X120536143Y-87720000D01*
X120984309Y-87720000D01*
X121217698Y-87623327D01*
X121396327Y-87444699D01*
X121493000Y-87211310D01*
X121493000Y-86958691D01*
X121493000Y-86702733D01*
X121593000Y-86200000D01*
X121593000Y-85919239D01*
X122407000Y-85105239D01*
X122407000Y-86200000D01*
X122507000Y-86702733D01*
X122507000Y-87211309D01*
X122603673Y-87444698D01*
X122782301Y-87623327D01*
X123015690Y-87720000D01*
X123268309Y-87720000D01*
X123463856Y-87720000D01*
X124042000Y-87835000D01*
X124620143Y-87720000D01*
X125068309Y-87720000D01*
X125301698Y-87623327D01*
X125480327Y-87444699D01*
X125577000Y-87211310D01*
X125577000Y-86958691D01*
X125577000Y-86702733D01*
X125677000Y-86200000D01*
X125677000Y-85535239D01*
X126227000Y-84985239D01*
X126628239Y-84584000D01*
X127700000Y-84584000D01*
X128325687Y-84459543D01*
X128495616Y-84346000D01*
X128842309Y-84346000D01*
X129075698Y-84249327D01*
X129254327Y-84070699D01*
X129351000Y-83837310D01*
X129351000Y-83584691D01*
X129351000Y-82060691D01*
X129335000Y-82022063D01*
X129335000Y-73977239D01*
X129718114Y-73594124D01*
X129718117Y-73594122D01*
X129718118Y-73594122D01*
X129930578Y-73276150D01*
X130072541Y-73063690D01*
X130072541Y-73063689D01*
X130196998Y-72438002D01*
X130196998Y-71685752D01*
X130335000Y-71547750D01*
X130335000Y-70627000D01*
X130315000Y-70627000D01*
X130315000Y-70373000D01*
X130335000Y-70373000D01*
X130335000Y-69452250D01*
X130247494Y-69364744D01*
X134377239Y-65235000D01*
X134599994Y-65235000D01*
X134600000Y-65235001D01*
X134600000Y-65235000D01*
X135225687Y-65110543D01*
X135225688Y-65110543D01*
X135756120Y-64756120D01*
X138356116Y-62156122D01*
X138356119Y-62156120D01*
X138356120Y-62156120D01*
X138465000Y-61993169D01*
X138465000Y-64550700D01*
X138466220Y-64556833D01*
X138466220Y-65075789D01*
X138559091Y-65299999D01*
X138466220Y-65524210D01*
X138466220Y-65776829D01*
X138466220Y-66043166D01*
X138465000Y-66049300D01*
X138465000Y-67352979D01*
X138415000Y-67473690D01*
X138415000Y-67726309D01*
X138415000Y-68226309D01*
X138511673Y-68459698D01*
X138651974Y-68600000D01*
X138511673Y-68740302D01*
X138415000Y-68973691D01*
X138415000Y-69066250D01*
X138573750Y-69225000D01*
X139373000Y-69225000D01*
X139373000Y-69203000D01*
X139627000Y-69203000D01*
X139627000Y-69225000D01*
X140426250Y-69225000D01*
X140500000Y-69151250D01*
X140573750Y-69225000D01*
X141373000Y-69225000D01*
X141373000Y-69203000D01*
X141627000Y-69203000D01*
X141627000Y-69225000D01*
X142426250Y-69225000D01*
X142585000Y-69066250D01*
X142585000Y-68973691D01*
X142488327Y-68740302D01*
X142348025Y-68599999D01*
X142488327Y-68459699D01*
X142585000Y-68226310D01*
X142585000Y-67973691D01*
X142585000Y-67473691D01*
X142535000Y-67352980D01*
X142535000Y-66049300D01*
X142533780Y-66043166D01*
X142533780Y-65524211D01*
X142440908Y-65300000D01*
X142533780Y-65075790D01*
X142533780Y-64823171D01*
X142533780Y-64556833D01*
X142535000Y-64550700D01*
X142535000Y-63447239D01*
X145814714Y-66726953D01*
X145814674Y-66773305D01*
X146101043Y-67466372D01*
X146630839Y-67997093D01*
X146665000Y-68011277D01*
X146665000Y-75149000D01*
X146665000Y-79322760D01*
X145643880Y-80343880D01*
X145289457Y-80874312D01*
X145164999Y-81500000D01*
X145165000Y-81500005D01*
X145165000Y-82422062D01*
X145149000Y-82460690D01*
X145149000Y-82713309D01*
X145149000Y-84237309D01*
X145245673Y-84470698D01*
X145424301Y-84649327D01*
X145657690Y-84746000D01*
X145910309Y-84746000D01*
X146004383Y-84746000D01*
X146174313Y-84859543D01*
X146800000Y-84984000D01*
X147425687Y-84859543D01*
X147595616Y-84746000D01*
X147942309Y-84746000D01*
X148114000Y-84674883D01*
X148114000Y-85325116D01*
G36*
X155547000Y-51247000D02*
X155527000Y-51247000D01*
X155527000Y-51267000D01*
X155273000Y-51267000D01*
X155273000Y-51247000D01*
X153913783Y-51247000D01*
X153792642Y-51479026D01*
X153795291Y-51494791D01*
X154049268Y-52022036D01*
X154465069Y-52393539D01*
X154155585Y-52600330D01*
X154045555Y-52765000D01*
X153813025Y-52765000D01*
X153709699Y-52661673D01*
X153476310Y-52565000D01*
X153223691Y-52565000D01*
X152323691Y-52565000D01*
X152090302Y-52661673D01*
X151911673Y-52840301D01*
X151815000Y-53073690D01*
X151815000Y-53326309D01*
X151815000Y-54526309D01*
X151911673Y-54759698D01*
X152051974Y-54900000D01*
X151986974Y-54965000D01*
X151428711Y-54965000D01*
X151235000Y-54771288D01*
X151235000Y-53911836D01*
X151246371Y-53900485D01*
X151434785Y-53446734D01*
X151435214Y-52955421D01*
X151247592Y-52501343D01*
X150900485Y-52153629D01*
X150446734Y-51965215D01*
X149955421Y-51964786D01*
X149501343Y-52152408D01*
X149398130Y-52255440D01*
X149398130Y-50859881D01*
X149301457Y-50626492D01*
X149122829Y-50447863D01*
X148889440Y-50351190D01*
X148636821Y-50351190D01*
X146510841Y-50351190D01*
X146277452Y-50447863D01*
X146098823Y-50626491D01*
X146002150Y-50859880D01*
X146002150Y-51112499D01*
X146002150Y-52885610D01*
X145722760Y-53165000D01*
X145196970Y-53165000D01*
X145196970Y-52985861D01*
X145196970Y-50859881D01*
X145100297Y-50626492D01*
X144921669Y-50447863D01*
X144688280Y-50351190D01*
X144435661Y-50351190D01*
X142309681Y-50351190D01*
X142076292Y-50447863D01*
X141897663Y-50626491D01*
X141800990Y-50859880D01*
X141800990Y-51112499D01*
X141800990Y-53165000D01*
X140998350Y-53165000D01*
X140998350Y-52985861D01*
X140998350Y-50859881D01*
X140901677Y-50626492D01*
X140723049Y-50447863D01*
X140489660Y-50351190D01*
X140237041Y-50351190D01*
X138111061Y-50351190D01*
X137877672Y-50447863D01*
X137699043Y-50626491D01*
X137602370Y-50859880D01*
X137602370Y-51112499D01*
X137602370Y-53165000D01*
X137200000Y-53165000D01*
X136794190Y-53245720D01*
X136797190Y-53238480D01*
X136797190Y-52985861D01*
X136797190Y-52334930D01*
X136797190Y-51763430D01*
X136797190Y-51112499D01*
X136797190Y-50859880D01*
X136700517Y-50626491D01*
X136521888Y-50447863D01*
X136288499Y-50351190D01*
X135384950Y-50351190D01*
X135226200Y-50509940D01*
X135226200Y-51922180D01*
X136638440Y-51922180D01*
X136797190Y-51763430D01*
X136797190Y-52334930D01*
X136638440Y-52176180D01*
X135226200Y-52176180D01*
X135226200Y-53588420D01*
X135384950Y-53747170D01*
X135974864Y-53747170D01*
X135689457Y-54174313D01*
X135565000Y-54800000D01*
X135689457Y-55425687D01*
X135974864Y-55852830D01*
X135384950Y-55852830D01*
X135226200Y-56011580D01*
X135226200Y-57423820D01*
X135246200Y-57423820D01*
X135246200Y-57677820D01*
X135226200Y-57677820D01*
X135226200Y-59090060D01*
X135384950Y-59248810D01*
X135674638Y-59248810D01*
X135565000Y-59800000D01*
X135565000Y-60322760D01*
X134972200Y-60915559D01*
X134972200Y-59090060D01*
X134972200Y-57677820D01*
X134972200Y-57423820D01*
X134972200Y-56011580D01*
X134972200Y-53588420D01*
X134972200Y-52176180D01*
X134972200Y-51922180D01*
X134972200Y-50509940D01*
X134813450Y-50351190D01*
X133909901Y-50351190D01*
X133676512Y-50447863D01*
X133497883Y-50626491D01*
X133401210Y-50859880D01*
X133401210Y-51112499D01*
X133401210Y-51763430D01*
X133559960Y-51922180D01*
X134972200Y-51922180D01*
X134972200Y-52176180D01*
X133559960Y-52176180D01*
X133401210Y-52334930D01*
X133401210Y-52985861D01*
X133401210Y-53238480D01*
X133497883Y-53471869D01*
X133676512Y-53650497D01*
X133909901Y-53747170D01*
X134813450Y-53747170D01*
X134972200Y-53588420D01*
X134972200Y-56011580D01*
X134813450Y-55852830D01*
X133909901Y-55852830D01*
X133676512Y-55949503D01*
X133497883Y-56128131D01*
X133401210Y-56361520D01*
X133401210Y-56614139D01*
X133401210Y-57265070D01*
X133559960Y-57423820D01*
X134972200Y-57423820D01*
X134972200Y-57677820D01*
X133559960Y-57677820D01*
X133401210Y-57836570D01*
X133401210Y-58487501D01*
X133401210Y-58740120D01*
X133497883Y-58973509D01*
X133676512Y-59152137D01*
X133909901Y-59248810D01*
X134813450Y-59248810D01*
X134972200Y-59090060D01*
X134972200Y-60915559D01*
X134946658Y-60941101D01*
X134847592Y-60701343D01*
X134500485Y-60353629D01*
X134046734Y-60165215D01*
X133555421Y-60164786D01*
X133101343Y-60352408D01*
X133088728Y-60365000D01*
X132598570Y-60365000D01*
X132598570Y-58740120D01*
X132598570Y-58487501D01*
X132598570Y-57836570D01*
X132598570Y-57265070D01*
X132598570Y-56614139D01*
X132598570Y-56361520D01*
X132598570Y-53238480D01*
X132598570Y-52985861D01*
X132598570Y-50859881D01*
X132501897Y-50626492D01*
X132323269Y-50447863D01*
X132089880Y-50351190D01*
X131837261Y-50351190D01*
X129711281Y-50351190D01*
X129477892Y-50447863D01*
X129299263Y-50626491D01*
X129202590Y-50859880D01*
X129202590Y-51112499D01*
X129202590Y-53238479D01*
X129299263Y-53471868D01*
X129477891Y-53650497D01*
X129711280Y-53747170D01*
X129963899Y-53747170D01*
X132089879Y-53747170D01*
X132323268Y-53650497D01*
X132501897Y-53471869D01*
X132598570Y-53238480D01*
X132598570Y-56361520D01*
X132501897Y-56128131D01*
X132323268Y-55949503D01*
X132089879Y-55852830D01*
X131186330Y-55852830D01*
X131027580Y-56011580D01*
X131027580Y-57423820D01*
X132439820Y-57423820D01*
X132598570Y-57265070D01*
X132598570Y-57836570D01*
X132439820Y-57677820D01*
X131027580Y-57677820D01*
X131027580Y-59090060D01*
X131186330Y-59248810D01*
X132089879Y-59248810D01*
X132323268Y-59152137D01*
X132501897Y-58973509D01*
X132598570Y-58740120D01*
X132598570Y-60365000D01*
X130773580Y-60365000D01*
X130773580Y-59090060D01*
X130773580Y-57677820D01*
X130773580Y-57423820D01*
X130773580Y-56011580D01*
X130614830Y-55852830D01*
X129711281Y-55852830D01*
X129477892Y-55949503D01*
X129299263Y-56128131D01*
X129202590Y-56361520D01*
X129202590Y-56614139D01*
X129202590Y-57265070D01*
X129361340Y-57423820D01*
X130773580Y-57423820D01*
X130773580Y-57677820D01*
X129361340Y-57677820D01*
X129202590Y-57836570D01*
X129202590Y-58487501D01*
X129202590Y-58740120D01*
X129299263Y-58973509D01*
X129477892Y-59152137D01*
X129711281Y-59248810D01*
X130614830Y-59248810D01*
X130773580Y-59090060D01*
X130773580Y-60365000D01*
X128397410Y-60365000D01*
X128397410Y-58740120D01*
X128397410Y-58487501D01*
X128397410Y-57836570D01*
X128397410Y-57265070D01*
X128397410Y-56614139D01*
X128397410Y-56361520D01*
X128397410Y-53238480D01*
X128397410Y-52985861D01*
X128397410Y-52334930D01*
X128397410Y-51763430D01*
X128397410Y-51112499D01*
X128397410Y-50859880D01*
X128300737Y-50626491D01*
X128122108Y-50447863D01*
X127888719Y-50351190D01*
X126985170Y-50351190D01*
X126826420Y-50509940D01*
X126826420Y-51922180D01*
X128238660Y-51922180D01*
X128397410Y-51763430D01*
X128397410Y-52334930D01*
X128238660Y-52176180D01*
X126826420Y-52176180D01*
X126826420Y-53588420D01*
X126985170Y-53747170D01*
X127888719Y-53747170D01*
X128122108Y-53650497D01*
X128300737Y-53471869D01*
X128397410Y-53238480D01*
X128397410Y-56361520D01*
X128300737Y-56128131D01*
X128122108Y-55949503D01*
X127888719Y-55852830D01*
X126985170Y-55852830D01*
X126826420Y-56011580D01*
X126826420Y-57423820D01*
X128238660Y-57423820D01*
X128397410Y-57265070D01*
X128397410Y-57836570D01*
X128238660Y-57677820D01*
X126826420Y-57677820D01*
X126826420Y-59090060D01*
X126985170Y-59248810D01*
X127888719Y-59248810D01*
X128122108Y-59152137D01*
X128300737Y-58973509D01*
X128397410Y-58740120D01*
X128397410Y-60365000D01*
X126572420Y-60365000D01*
X126572420Y-59090060D01*
X126572420Y-57677820D01*
X126572420Y-57423820D01*
X126572420Y-56011580D01*
X126572420Y-53588420D01*
X126572420Y-52176180D01*
X126572420Y-51922180D01*
X126572420Y-50509940D01*
X126413670Y-50351190D01*
X125510121Y-50351190D01*
X125276732Y-50447863D01*
X125098103Y-50626491D01*
X125001430Y-50859880D01*
X125001430Y-51112499D01*
X125001430Y-51763430D01*
X125160180Y-51922180D01*
X126572420Y-51922180D01*
X126572420Y-52176180D01*
X125160180Y-52176180D01*
X125001430Y-52334930D01*
X125001430Y-52985861D01*
X125001430Y-53238480D01*
X125098103Y-53471869D01*
X125276732Y-53650497D01*
X125510121Y-53747170D01*
X126413670Y-53747170D01*
X126572420Y-53588420D01*
X126572420Y-56011580D01*
X126413670Y-55852830D01*
X125510121Y-55852830D01*
X125276732Y-55949503D01*
X125098103Y-56128131D01*
X125001430Y-56361520D01*
X125001430Y-56614139D01*
X125001430Y-57265070D01*
X125160180Y-57423820D01*
X126572420Y-57423820D01*
X126572420Y-57677820D01*
X125160180Y-57677820D01*
X125001430Y-57836570D01*
X125001430Y-58487501D01*
X125001430Y-58740120D01*
X125098103Y-58973509D01*
X125276732Y-59152137D01*
X125510121Y-59248810D01*
X126413670Y-59248810D01*
X126572420Y-59090060D01*
X126572420Y-60365000D01*
X126227000Y-60365000D01*
X126227000Y-59673000D01*
X124636711Y-59673000D01*
X124019668Y-59055956D01*
X124102117Y-58973509D01*
X124198790Y-58740120D01*
X124198790Y-58487501D01*
X124198790Y-56361521D01*
X124198790Y-53238480D01*
X124198790Y-52985861D01*
X124198790Y-50859881D01*
X124102117Y-50626492D01*
X123923489Y-50447863D01*
X123690100Y-50351190D01*
X123437481Y-50351190D01*
X121311501Y-50351190D01*
X121078112Y-50447863D01*
X120899483Y-50626491D01*
X120802810Y-50859880D01*
X120802810Y-51112499D01*
X120802810Y-53238479D01*
X120899483Y-53471868D01*
X121078111Y-53650497D01*
X121311500Y-53747170D01*
X121564119Y-53747170D01*
X123690099Y-53747170D01*
X123923488Y-53650497D01*
X124102117Y-53471869D01*
X124198790Y-53238480D01*
X124198790Y-56361521D01*
X124102117Y-56128132D01*
X123923489Y-55949503D01*
X123690100Y-55852830D01*
X123437481Y-55852830D01*
X121311501Y-55852830D01*
X121078112Y-55949503D01*
X120899483Y-56128131D01*
X120802810Y-56361520D01*
X120802810Y-56614139D01*
X120802810Y-58740119D01*
X120899483Y-58973508D01*
X121078111Y-59152137D01*
X121311500Y-59248810D01*
X121515132Y-59248810D01*
X121538268Y-59365120D01*
X121155421Y-59364786D01*
X120701343Y-59552408D01*
X120580540Y-59673000D01*
X120319647Y-59673000D01*
X120200485Y-59553629D01*
X119997630Y-59469396D01*
X119997630Y-58740120D01*
X119997630Y-58487501D01*
X119997630Y-57836570D01*
X119997630Y-57265070D01*
X119997630Y-56614139D01*
X119997630Y-56361520D01*
X119997630Y-53238480D01*
X119997630Y-52985861D01*
X119997630Y-52334930D01*
X119997630Y-51763430D01*
X119997630Y-51112499D01*
X119997630Y-50859880D01*
X119900957Y-50626491D01*
X119722328Y-50447863D01*
X119488939Y-50351190D01*
X118585390Y-50351190D01*
X118426640Y-50509940D01*
X118426640Y-51922180D01*
X119838880Y-51922180D01*
X119997630Y-51763430D01*
X119997630Y-52334930D01*
X119838880Y-52176180D01*
X118426640Y-52176180D01*
X118426640Y-53588420D01*
X118585390Y-53747170D01*
X119488939Y-53747170D01*
X119722328Y-53650497D01*
X119900957Y-53471869D01*
X119997630Y-53238480D01*
X119997630Y-56361520D01*
X119900957Y-56128131D01*
X119722328Y-55949503D01*
X119488939Y-55852830D01*
X118585390Y-55852830D01*
X118426640Y-56011580D01*
X118426640Y-57423820D01*
X119838880Y-57423820D01*
X119997630Y-57265070D01*
X119997630Y-57836570D01*
X119838880Y-57677820D01*
X118426640Y-57677820D01*
X118426640Y-59090060D01*
X118585390Y-59248810D01*
X119488939Y-59248810D01*
X119722328Y-59152137D01*
X119900957Y-58973509D01*
X119997630Y-58740120D01*
X119997630Y-59469396D01*
X119746734Y-59365215D01*
X119255421Y-59364786D01*
X118801343Y-59552408D01*
X118688554Y-59665000D01*
X118211836Y-59665000D01*
X118200485Y-59653629D01*
X118172640Y-59642066D01*
X118172640Y-59090060D01*
X118172640Y-57677820D01*
X118172640Y-57423820D01*
X118172640Y-56011580D01*
X118172640Y-53588420D01*
X118172640Y-52176180D01*
X118172640Y-51922180D01*
X118172640Y-50509940D01*
X118013890Y-50351190D01*
X117110341Y-50351190D01*
X116876952Y-50447863D01*
X116698323Y-50626491D01*
X116601650Y-50859880D01*
X116601650Y-51112499D01*
X116601650Y-51763430D01*
X116760400Y-51922180D01*
X118172640Y-51922180D01*
X118172640Y-52176180D01*
X116760400Y-52176180D01*
X116601650Y-52334930D01*
X116601650Y-52985861D01*
X116601650Y-53238480D01*
X116698323Y-53471869D01*
X116876952Y-53650497D01*
X117110341Y-53747170D01*
X118013890Y-53747170D01*
X118172640Y-53588420D01*
X118172640Y-56011580D01*
X118013890Y-55852830D01*
X117110341Y-55852830D01*
X116876952Y-55949503D01*
X116698323Y-56128131D01*
X116601650Y-56361520D01*
X116601650Y-56614139D01*
X116601650Y-57265070D01*
X116760400Y-57423820D01*
X118172640Y-57423820D01*
X118172640Y-57677820D01*
X116760400Y-57677820D01*
X116601650Y-57836570D01*
X116601650Y-58487501D01*
X116601650Y-58740120D01*
X116698323Y-58973509D01*
X116876952Y-59152137D01*
X117110341Y-59248810D01*
X118013890Y-59248810D01*
X118172640Y-59090060D01*
X118172640Y-59642066D01*
X117746734Y-59465215D01*
X117255421Y-59464786D01*
X116801343Y-59652408D01*
X116780714Y-59673000D01*
X115799010Y-59673000D01*
X115799010Y-58740120D01*
X115799010Y-58487501D01*
X115799010Y-56361521D01*
X115799010Y-53238480D01*
X115799010Y-52985861D01*
X115799010Y-50859881D01*
X115702337Y-50626492D01*
X115523709Y-50447863D01*
X115290320Y-50351190D01*
X115037701Y-50351190D01*
X112911721Y-50351190D01*
X112759649Y-50414180D01*
X111241231Y-50414180D01*
X111089160Y-50351190D01*
X110836541Y-50351190D01*
X108710561Y-50351190D01*
X108477172Y-50447863D01*
X108298543Y-50626491D01*
X108201870Y-50859880D01*
X108201870Y-51112499D01*
X108201870Y-53238479D01*
X108264860Y-53390550D01*
X108264860Y-56209448D01*
X108201870Y-56361520D01*
X108201870Y-56614139D01*
X108201870Y-58740119D01*
X108298543Y-58973508D01*
X108477171Y-59152137D01*
X108710560Y-59248810D01*
X108963179Y-59248810D01*
X111089159Y-59248810D01*
X111322548Y-59152137D01*
X111501177Y-58973509D01*
X111597850Y-58740120D01*
X111597850Y-58487501D01*
X111597850Y-56361521D01*
X111534860Y-56209449D01*
X111534860Y-53684180D01*
X112759648Y-53684180D01*
X112911720Y-53747170D01*
X113164339Y-53747170D01*
X115290319Y-53747170D01*
X115523708Y-53650497D01*
X115702337Y-53471869D01*
X115799010Y-53238480D01*
X115799010Y-56361521D01*
X115702337Y-56128132D01*
X115523709Y-55949503D01*
X115290320Y-55852830D01*
X115037701Y-55852830D01*
X112911721Y-55852830D01*
X112678332Y-55949503D01*
X112499703Y-56128131D01*
X112403030Y-56361520D01*
X112403030Y-56614139D01*
X112403030Y-58740119D01*
X112499703Y-58973508D01*
X112678331Y-59152137D01*
X112911720Y-59248810D01*
X113164339Y-59248810D01*
X115290319Y-59248810D01*
X115523708Y-59152137D01*
X115702337Y-58973509D01*
X115799010Y-58740120D01*
X115799010Y-59673000D01*
X113866451Y-59673000D01*
X120551644Y-65627000D01*
X121865512Y-65627000D01*
X121895690Y-65639500D01*
X122148309Y-65639500D01*
X125696788Y-65639500D01*
X125071288Y-66265000D01*
X125000000Y-66265000D01*
X124603922Y-66343785D01*
X124469428Y-66433650D01*
X124268144Y-66568144D01*
X124268141Y-66568147D01*
X123068144Y-67768144D01*
X122843785Y-68103923D01*
X122764999Y-68500000D01*
X122765000Y-68500005D01*
X122765000Y-68633974D01*
X122656999Y-68741974D01*
X122508699Y-68593673D01*
X122275310Y-68497000D01*
X122022691Y-68497000D01*
X120752691Y-68497000D01*
X120519302Y-68593673D01*
X120340673Y-68772301D01*
X120244000Y-69005690D01*
X120244000Y-69240000D01*
X119935000Y-69240000D01*
X119935000Y-69044935D01*
X119958198Y-69035327D01*
X120136827Y-68856699D01*
X120233500Y-68623310D01*
X120233500Y-68370691D01*
X120233500Y-67481691D01*
X120136827Y-67248302D01*
X119988525Y-67100000D01*
X120136827Y-66951698D01*
X120233500Y-66718309D01*
X120233500Y-66433250D01*
X120233500Y-65861750D01*
X120233500Y-65576691D01*
X120136827Y-65343302D01*
X119958199Y-65164673D01*
X119724810Y-65068000D01*
X119472191Y-65068000D01*
X119185750Y-65068000D01*
X119027000Y-65226750D01*
X119027000Y-66020500D01*
X120074750Y-66020500D01*
X120233500Y-65861750D01*
X120233500Y-66433250D01*
X120074750Y-66274500D01*
X119027000Y-66274500D01*
X119027000Y-66294500D01*
X118773000Y-66294500D01*
X118773000Y-66274500D01*
X118773000Y-66020500D01*
X118773000Y-65226750D01*
X118614250Y-65068000D01*
X118327809Y-65068000D01*
X118075190Y-65068000D01*
X117841801Y-65164673D01*
X117663173Y-65343302D01*
X117566500Y-65576691D01*
X117566500Y-65861750D01*
X117725250Y-66020500D01*
X118773000Y-66020500D01*
X118773000Y-66274500D01*
X117725250Y-66274500D01*
X117566500Y-66433250D01*
X117566500Y-66718309D01*
X117663173Y-66951698D01*
X117811474Y-67100000D01*
X117663173Y-67248301D01*
X117566500Y-67481690D01*
X117566500Y-67734309D01*
X117566500Y-68623309D01*
X117663173Y-68856698D01*
X117841801Y-69035327D01*
X117865000Y-69044936D01*
X117865000Y-69799994D01*
X117864999Y-69800000D01*
X117943785Y-70196077D01*
X118168144Y-70531856D01*
X118643141Y-71006852D01*
X118643144Y-71006856D01*
X118844428Y-71141349D01*
X118978922Y-71231215D01*
X118978923Y-71231215D01*
X119375000Y-71310000D01*
X120244000Y-71310000D01*
X120244000Y-71544309D01*
X120340673Y-71777698D01*
X120479000Y-71916025D01*
X120479000Y-72357288D01*
X119418144Y-73418144D01*
X119193785Y-73753923D01*
X119114999Y-74150000D01*
X119115000Y-74150005D01*
X119115000Y-75076822D01*
X118901785Y-75395923D01*
X118822999Y-75792000D01*
X118823000Y-75792005D01*
X118823000Y-76483599D01*
X118598302Y-76576673D01*
X118419673Y-76755301D01*
X118332812Y-76965000D01*
X118228712Y-76965000D01*
X117131856Y-75868144D01*
X116796077Y-75643785D01*
X116400000Y-75564999D01*
X116399994Y-75565000D01*
X113286878Y-75565000D01*
X113286878Y-71598740D01*
X113185365Y-71088398D01*
X113185365Y-67056292D01*
X113185365Y-66138668D01*
X113121344Y-65897833D01*
X112699764Y-65177701D01*
X112034692Y-64673718D01*
X111227380Y-64462610D01*
X110727000Y-64462610D01*
X110727000Y-66470480D01*
X113072415Y-66470480D01*
X113185365Y-66138668D01*
X113185365Y-67056292D01*
X113072415Y-66724480D01*
X110727000Y-66724480D01*
X110727000Y-68732350D01*
X111227380Y-68732350D01*
X112034692Y-68521242D01*
X112699764Y-68017259D01*
X113121344Y-67297127D01*
X113185365Y-67056292D01*
X113185365Y-71088398D01*
X113124371Y-70781761D01*
X112661589Y-70089159D01*
X111968987Y-69626377D01*
X111152008Y-69463870D01*
X110473000Y-69463870D01*
X110473000Y-68732350D01*
X110473000Y-66724480D01*
X110473000Y-66470480D01*
X110473000Y-64462610D01*
X109972620Y-64462610D01*
X109165308Y-64673718D01*
X108500236Y-65177701D01*
X108078656Y-65897833D01*
X108014635Y-66138668D01*
X108127585Y-66470480D01*
X110473000Y-66470480D01*
X110473000Y-66724480D01*
X108127585Y-66724480D01*
X108014635Y-67056292D01*
X108078656Y-67297127D01*
X108500236Y-68017259D01*
X109165308Y-68521242D01*
X109972620Y-68732350D01*
X110473000Y-68732350D01*
X110473000Y-69463870D01*
X110047992Y-69463870D01*
X109231013Y-69626377D01*
X108538411Y-70089159D01*
X108075629Y-70781761D01*
X107913122Y-71598740D01*
X108075629Y-72415719D01*
X108538411Y-73108321D01*
X109231013Y-73571103D01*
X110047992Y-73733610D01*
X111152008Y-73733610D01*
X111968987Y-73571103D01*
X112661589Y-73108321D01*
X113124371Y-72415719D01*
X113286878Y-71598740D01*
X113286878Y-75565000D01*
X112978693Y-75565000D01*
X112661589Y-75090419D01*
X111968987Y-74627637D01*
X111152008Y-74465130D01*
X110047992Y-74465130D01*
X109231013Y-74627637D01*
X108538411Y-75090419D01*
X108075629Y-75783021D01*
X107913122Y-76600000D01*
X108075629Y-77416979D01*
X108538411Y-78109581D01*
X109231013Y-78572363D01*
X110047992Y-78734870D01*
X111152008Y-78734870D01*
X111968987Y-78572363D01*
X112661589Y-78109581D01*
X112978693Y-77635000D01*
X115971288Y-77635000D01*
X117068144Y-78731856D01*
X117403923Y-78956215D01*
X117800000Y-79035001D01*
X117800000Y-79035000D01*
X117800005Y-79035000D01*
X118332813Y-79035000D01*
X118419673Y-79244698D01*
X118598301Y-79423327D01*
X118831690Y-79520000D01*
X119084309Y-79520000D01*
X120884309Y-79520000D01*
X121117698Y-79423327D01*
X121296327Y-79244699D01*
X121393000Y-79011310D01*
X121393000Y-78758691D01*
X121393000Y-76988691D01*
X121296327Y-76755302D01*
X121117699Y-76576673D01*
X120893000Y-76483599D01*
X120893000Y-76355025D01*
X120900000Y-76348025D01*
X121040301Y-76488327D01*
X121273690Y-76585000D01*
X121526309Y-76585000D01*
X122026309Y-76585000D01*
X122147019Y-76535000D01*
X122307000Y-76535000D01*
X122307000Y-78000000D01*
X122307000Y-80580760D01*
X120158600Y-82729160D01*
X120158600Y-82515255D01*
X120044526Y-81941766D01*
X119719670Y-81455585D01*
X119233489Y-81130729D01*
X118660000Y-81016655D01*
X118086511Y-81130729D01*
X117600330Y-81455585D01*
X117390000Y-81770365D01*
X117179670Y-81455585D01*
X116693489Y-81130729D01*
X116120000Y-81016655D01*
X115546511Y-81130729D01*
X115060330Y-81455585D01*
X114850000Y-81770365D01*
X114639670Y-81455585D01*
X114153489Y-81130729D01*
X113580000Y-81016655D01*
X113006511Y-81130729D01*
X112520330Y-81455585D01*
X112328726Y-81742339D01*
X112196120Y-81543880D01*
X112128458Y-81498670D01*
X112099670Y-81455585D01*
X111613489Y-81130729D01*
X111040000Y-81016655D01*
X110466511Y-81130729D01*
X109980330Y-81455585D01*
X109965499Y-81477780D01*
X109901927Y-81324302D01*
X109723299Y-81145673D01*
X109489910Y-81049000D01*
X109237291Y-81049000D01*
X108785750Y-81049000D01*
X108627000Y-81207750D01*
X108627000Y-82573000D01*
X108647000Y-82573000D01*
X108647000Y-82827000D01*
X108627000Y-82827000D01*
X108627000Y-84192250D01*
X108785750Y-84351000D01*
X109237291Y-84351000D01*
X109405000Y-84351000D01*
X109405000Y-85939994D01*
X109404999Y-85940000D01*
X109529457Y-86565688D01*
X109883880Y-87096120D01*
X110243880Y-87456120D01*
X110774312Y-87810543D01*
X110774313Y-87810543D01*
X111400000Y-87935001D01*
X111400000Y-87935000D01*
X111400005Y-87935000D01*
X112014000Y-87935000D01*
X112014000Y-87964224D01*
X111784047Y-87964024D01*
X109712199Y-88820094D01*
X108125665Y-90403861D01*
X107510000Y-91886546D01*
X107510000Y-84350962D01*
X107510090Y-84351000D01*
X107762709Y-84351000D01*
X108214250Y-84351000D01*
X108373000Y-84192250D01*
X108373000Y-82827000D01*
X108353000Y-82827000D01*
X108353000Y-82573000D01*
X108373000Y-82573000D01*
X108373000Y-81207750D01*
X108214250Y-81049000D01*
X107762709Y-81049000D01*
X107510090Y-81049000D01*
X107510000Y-81049037D01*
X107510000Y-50310000D01*
X154004933Y-50310000D01*
X153795291Y-50745209D01*
X153792642Y-50760974D01*
X153913783Y-50993000D01*
X155273000Y-50993000D01*
X155273000Y-50973000D01*
X155527000Y-50973000D01*
X155527000Y-50993000D01*
X155547000Y-50993000D01*
X155547000Y-51247000D01*
X155547000Y-51247000D01*
G37*
X155547000Y-51247000D02*
X155527000Y-51247000D01*
X155527000Y-51267000D01*
X155273000Y-51267000D01*
X155273000Y-51247000D01*
X153913783Y-51247000D01*
X153792642Y-51479026D01*
X153795291Y-51494791D01*
X154049268Y-52022036D01*
X154465069Y-52393539D01*
X154155585Y-52600330D01*
X154045555Y-52765000D01*
X153813025Y-52765000D01*
X153709699Y-52661673D01*
X153476310Y-52565000D01*
X153223691Y-52565000D01*
X152323691Y-52565000D01*
X152090302Y-52661673D01*
X151911673Y-52840301D01*
X151815000Y-53073690D01*
X151815000Y-53326309D01*
X151815000Y-54526309D01*
X151911673Y-54759698D01*
X152051974Y-54900000D01*
X151986974Y-54965000D01*
X151428711Y-54965000D01*
X151235000Y-54771288D01*
X151235000Y-53911836D01*
X151246371Y-53900485D01*
X151434785Y-53446734D01*
X151435214Y-52955421D01*
X151247592Y-52501343D01*
X150900485Y-52153629D01*
X150446734Y-51965215D01*
X149955421Y-51964786D01*
X149501343Y-52152408D01*
X149398130Y-52255440D01*
X149398130Y-50859881D01*
X149301457Y-50626492D01*
X149122829Y-50447863D01*
X148889440Y-50351190D01*
X148636821Y-50351190D01*
X146510841Y-50351190D01*
X146277452Y-50447863D01*
X146098823Y-50626491D01*
X146002150Y-50859880D01*
X146002150Y-51112499D01*
X146002150Y-52885610D01*
X145722760Y-53165000D01*
X145196970Y-53165000D01*
X145196970Y-52985861D01*
X145196970Y-50859881D01*
X145100297Y-50626492D01*
X144921669Y-50447863D01*
X144688280Y-50351190D01*
X144435661Y-50351190D01*
X142309681Y-50351190D01*
X142076292Y-50447863D01*
X141897663Y-50626491D01*
X141800990Y-50859880D01*
X141800990Y-51112499D01*
X141800990Y-53165000D01*
X140998350Y-53165000D01*
X140998350Y-52985861D01*
X140998350Y-50859881D01*
X140901677Y-50626492D01*
X140723049Y-50447863D01*
X140489660Y-50351190D01*
X140237041Y-50351190D01*
X138111061Y-50351190D01*
X137877672Y-50447863D01*
X137699043Y-50626491D01*
X137602370Y-50859880D01*
X137602370Y-51112499D01*
X137602370Y-53165000D01*
X137200000Y-53165000D01*
X136794190Y-53245720D01*
X136797190Y-53238480D01*
X136797190Y-52985861D01*
X136797190Y-52334930D01*
X136797190Y-51763430D01*
X136797190Y-51112499D01*
X136797190Y-50859880D01*
X136700517Y-50626491D01*
X136521888Y-50447863D01*
X136288499Y-50351190D01*
X135384950Y-50351190D01*
X135226200Y-50509940D01*
X135226200Y-51922180D01*
X136638440Y-51922180D01*
X136797190Y-51763430D01*
X136797190Y-52334930D01*
X136638440Y-52176180D01*
X135226200Y-52176180D01*
X135226200Y-53588420D01*
X135384950Y-53747170D01*
X135974864Y-53747170D01*
X135689457Y-54174313D01*
X135565000Y-54800000D01*
X135689457Y-55425687D01*
X135974864Y-55852830D01*
X135384950Y-55852830D01*
X135226200Y-56011580D01*
X135226200Y-57423820D01*
X135246200Y-57423820D01*
X135246200Y-57677820D01*
X135226200Y-57677820D01*
X135226200Y-59090060D01*
X135384950Y-59248810D01*
X135674638Y-59248810D01*
X135565000Y-59800000D01*
X135565000Y-60322760D01*
X134972200Y-60915559D01*
X134972200Y-59090060D01*
X134972200Y-57677820D01*
X134972200Y-57423820D01*
X134972200Y-56011580D01*
X134972200Y-53588420D01*
X134972200Y-52176180D01*
X134972200Y-51922180D01*
X134972200Y-50509940D01*
X134813450Y-50351190D01*
X133909901Y-50351190D01*
X133676512Y-50447863D01*
X133497883Y-50626491D01*
X133401210Y-50859880D01*
X133401210Y-51112499D01*
X133401210Y-51763430D01*
X133559960Y-51922180D01*
X134972200Y-51922180D01*
X134972200Y-52176180D01*
X133559960Y-52176180D01*
X133401210Y-52334930D01*
X133401210Y-52985861D01*
X133401210Y-53238480D01*
X133497883Y-53471869D01*
X133676512Y-53650497D01*
X133909901Y-53747170D01*
X134813450Y-53747170D01*
X134972200Y-53588420D01*
X134972200Y-56011580D01*
X134813450Y-55852830D01*
X133909901Y-55852830D01*
X133676512Y-55949503D01*
X133497883Y-56128131D01*
X133401210Y-56361520D01*
X133401210Y-56614139D01*
X133401210Y-57265070D01*
X133559960Y-57423820D01*
X134972200Y-57423820D01*
X134972200Y-57677820D01*
X133559960Y-57677820D01*
X133401210Y-57836570D01*
X133401210Y-58487501D01*
X133401210Y-58740120D01*
X133497883Y-58973509D01*
X133676512Y-59152137D01*
X133909901Y-59248810D01*
X134813450Y-59248810D01*
X134972200Y-59090060D01*
X134972200Y-60915559D01*
X134946658Y-60941101D01*
X134847592Y-60701343D01*
X134500485Y-60353629D01*
X134046734Y-60165215D01*
X133555421Y-60164786D01*
X133101343Y-60352408D01*
X133088728Y-60365000D01*
X132598570Y-60365000D01*
X132598570Y-58740120D01*
X132598570Y-58487501D01*
X132598570Y-57836570D01*
X132598570Y-57265070D01*
X132598570Y-56614139D01*
X132598570Y-56361520D01*
X132598570Y-53238480D01*
X132598570Y-52985861D01*
X132598570Y-50859881D01*
X132501897Y-50626492D01*
X132323269Y-50447863D01*
X132089880Y-50351190D01*
X131837261Y-50351190D01*
X129711281Y-50351190D01*
X129477892Y-50447863D01*
X129299263Y-50626491D01*
X129202590Y-50859880D01*
X129202590Y-51112499D01*
X129202590Y-53238479D01*
X129299263Y-53471868D01*
X129477891Y-53650497D01*
X129711280Y-53747170D01*
X129963899Y-53747170D01*
X132089879Y-53747170D01*
X132323268Y-53650497D01*
X132501897Y-53471869D01*
X132598570Y-53238480D01*
X132598570Y-56361520D01*
X132501897Y-56128131D01*
X132323268Y-55949503D01*
X132089879Y-55852830D01*
X131186330Y-55852830D01*
X131027580Y-56011580D01*
X131027580Y-57423820D01*
X132439820Y-57423820D01*
X132598570Y-57265070D01*
X132598570Y-57836570D01*
X132439820Y-57677820D01*
X131027580Y-57677820D01*
X131027580Y-59090060D01*
X131186330Y-59248810D01*
X132089879Y-59248810D01*
X132323268Y-59152137D01*
X132501897Y-58973509D01*
X132598570Y-58740120D01*
X132598570Y-60365000D01*
X130773580Y-60365000D01*
X130773580Y-59090060D01*
X130773580Y-57677820D01*
X130773580Y-57423820D01*
X130773580Y-56011580D01*
X130614830Y-55852830D01*
X129711281Y-55852830D01*
X129477892Y-55949503D01*
X129299263Y-56128131D01*
X129202590Y-56361520D01*
X129202590Y-56614139D01*
X129202590Y-57265070D01*
X129361340Y-57423820D01*
X130773580Y-57423820D01*
X130773580Y-57677820D01*
X129361340Y-57677820D01*
X129202590Y-57836570D01*
X129202590Y-58487501D01*
X129202590Y-58740120D01*
X129299263Y-58973509D01*
X129477892Y-59152137D01*
X129711281Y-59248810D01*
X130614830Y-59248810D01*
X130773580Y-59090060D01*
X130773580Y-60365000D01*
X128397410Y-60365000D01*
X128397410Y-58740120D01*
X128397410Y-58487501D01*
X128397410Y-57836570D01*
X128397410Y-57265070D01*
X128397410Y-56614139D01*
X128397410Y-56361520D01*
X128397410Y-53238480D01*
X128397410Y-52985861D01*
X128397410Y-52334930D01*
X128397410Y-51763430D01*
X128397410Y-51112499D01*
X128397410Y-50859880D01*
X128300737Y-50626491D01*
X128122108Y-50447863D01*
X127888719Y-50351190D01*
X126985170Y-50351190D01*
X126826420Y-50509940D01*
X126826420Y-51922180D01*
X128238660Y-51922180D01*
X128397410Y-51763430D01*
X128397410Y-52334930D01*
X128238660Y-52176180D01*
X126826420Y-52176180D01*
X126826420Y-53588420D01*
X126985170Y-53747170D01*
X127888719Y-53747170D01*
X128122108Y-53650497D01*
X128300737Y-53471869D01*
X128397410Y-53238480D01*
X128397410Y-56361520D01*
X128300737Y-56128131D01*
X128122108Y-55949503D01*
X127888719Y-55852830D01*
X126985170Y-55852830D01*
X126826420Y-56011580D01*
X126826420Y-57423820D01*
X128238660Y-57423820D01*
X128397410Y-57265070D01*
X128397410Y-57836570D01*
X128238660Y-57677820D01*
X126826420Y-57677820D01*
X126826420Y-59090060D01*
X126985170Y-59248810D01*
X127888719Y-59248810D01*
X128122108Y-59152137D01*
X128300737Y-58973509D01*
X128397410Y-58740120D01*
X128397410Y-60365000D01*
X126572420Y-60365000D01*
X126572420Y-59090060D01*
X126572420Y-57677820D01*
X126572420Y-57423820D01*
X126572420Y-56011580D01*
X126572420Y-53588420D01*
X126572420Y-52176180D01*
X126572420Y-51922180D01*
X126572420Y-50509940D01*
X126413670Y-50351190D01*
X125510121Y-50351190D01*
X125276732Y-50447863D01*
X125098103Y-50626491D01*
X125001430Y-50859880D01*
X125001430Y-51112499D01*
X125001430Y-51763430D01*
X125160180Y-51922180D01*
X126572420Y-51922180D01*
X126572420Y-52176180D01*
X125160180Y-52176180D01*
X125001430Y-52334930D01*
X125001430Y-52985861D01*
X125001430Y-53238480D01*
X125098103Y-53471869D01*
X125276732Y-53650497D01*
X125510121Y-53747170D01*
X126413670Y-53747170D01*
X126572420Y-53588420D01*
X126572420Y-56011580D01*
X126413670Y-55852830D01*
X125510121Y-55852830D01*
X125276732Y-55949503D01*
X125098103Y-56128131D01*
X125001430Y-56361520D01*
X125001430Y-56614139D01*
X125001430Y-57265070D01*
X125160180Y-57423820D01*
X126572420Y-57423820D01*
X126572420Y-57677820D01*
X125160180Y-57677820D01*
X125001430Y-57836570D01*
X125001430Y-58487501D01*
X125001430Y-58740120D01*
X125098103Y-58973509D01*
X125276732Y-59152137D01*
X125510121Y-59248810D01*
X126413670Y-59248810D01*
X126572420Y-59090060D01*
X126572420Y-60365000D01*
X126227000Y-60365000D01*
X126227000Y-59673000D01*
X124636711Y-59673000D01*
X124019668Y-59055956D01*
X124102117Y-58973509D01*
X124198790Y-58740120D01*
X124198790Y-58487501D01*
X124198790Y-56361521D01*
X124198790Y-53238480D01*
X124198790Y-52985861D01*
X124198790Y-50859881D01*
X124102117Y-50626492D01*
X123923489Y-50447863D01*
X123690100Y-50351190D01*
X123437481Y-50351190D01*
X121311501Y-50351190D01*
X121078112Y-50447863D01*
X120899483Y-50626491D01*
X120802810Y-50859880D01*
X120802810Y-51112499D01*
X120802810Y-53238479D01*
X120899483Y-53471868D01*
X121078111Y-53650497D01*
X121311500Y-53747170D01*
X121564119Y-53747170D01*
X123690099Y-53747170D01*
X123923488Y-53650497D01*
X124102117Y-53471869D01*
X124198790Y-53238480D01*
X124198790Y-56361521D01*
X124102117Y-56128132D01*
X123923489Y-55949503D01*
X123690100Y-55852830D01*
X123437481Y-55852830D01*
X121311501Y-55852830D01*
X121078112Y-55949503D01*
X120899483Y-56128131D01*
X120802810Y-56361520D01*
X120802810Y-56614139D01*
X120802810Y-58740119D01*
X120899483Y-58973508D01*
X121078111Y-59152137D01*
X121311500Y-59248810D01*
X121515132Y-59248810D01*
X121538268Y-59365120D01*
X121155421Y-59364786D01*
X120701343Y-59552408D01*
X120580540Y-59673000D01*
X120319647Y-59673000D01*
X120200485Y-59553629D01*
X119997630Y-59469396D01*
X119997630Y-58740120D01*
X119997630Y-58487501D01*
X119997630Y-57836570D01*
X119997630Y-57265070D01*
X119997630Y-56614139D01*
X119997630Y-56361520D01*
X119997630Y-53238480D01*
X119997630Y-52985861D01*
X119997630Y-52334930D01*
X119997630Y-51763430D01*
X119997630Y-51112499D01*
X119997630Y-50859880D01*
X119900957Y-50626491D01*
X119722328Y-50447863D01*
X119488939Y-50351190D01*
X118585390Y-50351190D01*
X118426640Y-50509940D01*
X118426640Y-51922180D01*
X119838880Y-51922180D01*
X119997630Y-51763430D01*
X119997630Y-52334930D01*
X119838880Y-52176180D01*
X118426640Y-52176180D01*
X118426640Y-53588420D01*
X118585390Y-53747170D01*
X119488939Y-53747170D01*
X119722328Y-53650497D01*
X119900957Y-53471869D01*
X119997630Y-53238480D01*
X119997630Y-56361520D01*
X119900957Y-56128131D01*
X119722328Y-55949503D01*
X119488939Y-55852830D01*
X118585390Y-55852830D01*
X118426640Y-56011580D01*
X118426640Y-57423820D01*
X119838880Y-57423820D01*
X119997630Y-57265070D01*
X119997630Y-57836570D01*
X119838880Y-57677820D01*
X118426640Y-57677820D01*
X118426640Y-59090060D01*
X118585390Y-59248810D01*
X119488939Y-59248810D01*
X119722328Y-59152137D01*
X119900957Y-58973509D01*
X119997630Y-58740120D01*
X119997630Y-59469396D01*
X119746734Y-59365215D01*
X119255421Y-59364786D01*
X118801343Y-59552408D01*
X118688554Y-59665000D01*
X118211836Y-59665000D01*
X118200485Y-59653629D01*
X118172640Y-59642066D01*
X118172640Y-59090060D01*
X118172640Y-57677820D01*
X118172640Y-57423820D01*
X118172640Y-56011580D01*
X118172640Y-53588420D01*
X118172640Y-52176180D01*
X118172640Y-51922180D01*
X118172640Y-50509940D01*
X118013890Y-50351190D01*
X117110341Y-50351190D01*
X116876952Y-50447863D01*
X116698323Y-50626491D01*
X116601650Y-50859880D01*
X116601650Y-51112499D01*
X116601650Y-51763430D01*
X116760400Y-51922180D01*
X118172640Y-51922180D01*
X118172640Y-52176180D01*
X116760400Y-52176180D01*
X116601650Y-52334930D01*
X116601650Y-52985861D01*
X116601650Y-53238480D01*
X116698323Y-53471869D01*
X116876952Y-53650497D01*
X117110341Y-53747170D01*
X118013890Y-53747170D01*
X118172640Y-53588420D01*
X118172640Y-56011580D01*
X118013890Y-55852830D01*
X117110341Y-55852830D01*
X116876952Y-55949503D01*
X116698323Y-56128131D01*
X116601650Y-56361520D01*
X116601650Y-56614139D01*
X116601650Y-57265070D01*
X116760400Y-57423820D01*
X118172640Y-57423820D01*
X118172640Y-57677820D01*
X116760400Y-57677820D01*
X116601650Y-57836570D01*
X116601650Y-58487501D01*
X116601650Y-58740120D01*
X116698323Y-58973509D01*
X116876952Y-59152137D01*
X117110341Y-59248810D01*
X118013890Y-59248810D01*
X118172640Y-59090060D01*
X118172640Y-59642066D01*
X117746734Y-59465215D01*
X117255421Y-59464786D01*
X116801343Y-59652408D01*
X116780714Y-59673000D01*
X115799010Y-59673000D01*
X115799010Y-58740120D01*
X115799010Y-58487501D01*
X115799010Y-56361521D01*
X115799010Y-53238480D01*
X115799010Y-52985861D01*
X115799010Y-50859881D01*
X115702337Y-50626492D01*
X115523709Y-50447863D01*
X115290320Y-50351190D01*
X115037701Y-50351190D01*
X112911721Y-50351190D01*
X112759649Y-50414180D01*
X111241231Y-50414180D01*
X111089160Y-50351190D01*
X110836541Y-50351190D01*
X108710561Y-50351190D01*
X108477172Y-50447863D01*
X108298543Y-50626491D01*
X108201870Y-50859880D01*
X108201870Y-51112499D01*
X108201870Y-53238479D01*
X108264860Y-53390550D01*
X108264860Y-56209448D01*
X108201870Y-56361520D01*
X108201870Y-56614139D01*
X108201870Y-58740119D01*
X108298543Y-58973508D01*
X108477171Y-59152137D01*
X108710560Y-59248810D01*
X108963179Y-59248810D01*
X111089159Y-59248810D01*
X111322548Y-59152137D01*
X111501177Y-58973509D01*
X111597850Y-58740120D01*
X111597850Y-58487501D01*
X111597850Y-56361521D01*
X111534860Y-56209449D01*
X111534860Y-53684180D01*
X112759648Y-53684180D01*
X112911720Y-53747170D01*
X113164339Y-53747170D01*
X115290319Y-53747170D01*
X115523708Y-53650497D01*
X115702337Y-53471869D01*
X115799010Y-53238480D01*
X115799010Y-56361521D01*
X115702337Y-56128132D01*
X115523709Y-55949503D01*
X115290320Y-55852830D01*
X115037701Y-55852830D01*
X112911721Y-55852830D01*
X112678332Y-55949503D01*
X112499703Y-56128131D01*
X112403030Y-56361520D01*
X112403030Y-56614139D01*
X112403030Y-58740119D01*
X112499703Y-58973508D01*
X112678331Y-59152137D01*
X112911720Y-59248810D01*
X113164339Y-59248810D01*
X115290319Y-59248810D01*
X115523708Y-59152137D01*
X115702337Y-58973509D01*
X115799010Y-58740120D01*
X115799010Y-59673000D01*
X113866451Y-59673000D01*
X120551644Y-65627000D01*
X121865512Y-65627000D01*
X121895690Y-65639500D01*
X122148309Y-65639500D01*
X125696788Y-65639500D01*
X125071288Y-66265000D01*
X125000000Y-66265000D01*
X124603922Y-66343785D01*
X124469428Y-66433650D01*
X124268144Y-66568144D01*
X124268141Y-66568147D01*
X123068144Y-67768144D01*
X122843785Y-68103923D01*
X122764999Y-68500000D01*
X122765000Y-68500005D01*
X122765000Y-68633974D01*
X122656999Y-68741974D01*
X122508699Y-68593673D01*
X122275310Y-68497000D01*
X122022691Y-68497000D01*
X120752691Y-68497000D01*
X120519302Y-68593673D01*
X120340673Y-68772301D01*
X120244000Y-69005690D01*
X120244000Y-69240000D01*
X119935000Y-69240000D01*
X119935000Y-69044935D01*
X119958198Y-69035327D01*
X120136827Y-68856699D01*
X120233500Y-68623310D01*
X120233500Y-68370691D01*
X120233500Y-67481691D01*
X120136827Y-67248302D01*
X119988525Y-67100000D01*
X120136827Y-66951698D01*
X120233500Y-66718309D01*
X120233500Y-66433250D01*
X120233500Y-65861750D01*
X120233500Y-65576691D01*
X120136827Y-65343302D01*
X119958199Y-65164673D01*
X119724810Y-65068000D01*
X119472191Y-65068000D01*
X119185750Y-65068000D01*
X119027000Y-65226750D01*
X119027000Y-66020500D01*
X120074750Y-66020500D01*
X120233500Y-65861750D01*
X120233500Y-66433250D01*
X120074750Y-66274500D01*
X119027000Y-66274500D01*
X119027000Y-66294500D01*
X118773000Y-66294500D01*
X118773000Y-66274500D01*
X118773000Y-66020500D01*
X118773000Y-65226750D01*
X118614250Y-65068000D01*
X118327809Y-65068000D01*
X118075190Y-65068000D01*
X117841801Y-65164673D01*
X117663173Y-65343302D01*
X117566500Y-65576691D01*
X117566500Y-65861750D01*
X117725250Y-66020500D01*
X118773000Y-66020500D01*
X118773000Y-66274500D01*
X117725250Y-66274500D01*
X117566500Y-66433250D01*
X117566500Y-66718309D01*
X117663173Y-66951698D01*
X117811474Y-67100000D01*
X117663173Y-67248301D01*
X117566500Y-67481690D01*
X117566500Y-67734309D01*
X117566500Y-68623309D01*
X117663173Y-68856698D01*
X117841801Y-69035327D01*
X117865000Y-69044936D01*
X117865000Y-69799994D01*
X117864999Y-69800000D01*
X117943785Y-70196077D01*
X118168144Y-70531856D01*
X118643141Y-71006852D01*
X118643144Y-71006856D01*
X118844428Y-71141349D01*
X118978922Y-71231215D01*
X118978923Y-71231215D01*
X119375000Y-71310000D01*
X120244000Y-71310000D01*
X120244000Y-71544309D01*
X120340673Y-71777698D01*
X120479000Y-71916025D01*
X120479000Y-72357288D01*
X119418144Y-73418144D01*
X119193785Y-73753923D01*
X119114999Y-74150000D01*
X119115000Y-74150005D01*
X119115000Y-75076822D01*
X118901785Y-75395923D01*
X118822999Y-75792000D01*
X118823000Y-75792005D01*
X118823000Y-76483599D01*
X118598302Y-76576673D01*
X118419673Y-76755301D01*
X118332812Y-76965000D01*
X118228712Y-76965000D01*
X117131856Y-75868144D01*
X116796077Y-75643785D01*
X116400000Y-75564999D01*
X116399994Y-75565000D01*
X113286878Y-75565000D01*
X113286878Y-71598740D01*
X113185365Y-71088398D01*
X113185365Y-67056292D01*
X113185365Y-66138668D01*
X113121344Y-65897833D01*
X112699764Y-65177701D01*
X112034692Y-64673718D01*
X111227380Y-64462610D01*
X110727000Y-64462610D01*
X110727000Y-66470480D01*
X113072415Y-66470480D01*
X113185365Y-66138668D01*
X113185365Y-67056292D01*
X113072415Y-66724480D01*
X110727000Y-66724480D01*
X110727000Y-68732350D01*
X111227380Y-68732350D01*
X112034692Y-68521242D01*
X112699764Y-68017259D01*
X113121344Y-67297127D01*
X113185365Y-67056292D01*
X113185365Y-71088398D01*
X113124371Y-70781761D01*
X112661589Y-70089159D01*
X111968987Y-69626377D01*
X111152008Y-69463870D01*
X110473000Y-69463870D01*
X110473000Y-68732350D01*
X110473000Y-66724480D01*
X110473000Y-66470480D01*
X110473000Y-64462610D01*
X109972620Y-64462610D01*
X109165308Y-64673718D01*
X108500236Y-65177701D01*
X108078656Y-65897833D01*
X108014635Y-66138668D01*
X108127585Y-66470480D01*
X110473000Y-66470480D01*
X110473000Y-66724480D01*
X108127585Y-66724480D01*
X108014635Y-67056292D01*
X108078656Y-67297127D01*
X108500236Y-68017259D01*
X109165308Y-68521242D01*
X109972620Y-68732350D01*
X110473000Y-68732350D01*
X110473000Y-69463870D01*
X110047992Y-69463870D01*
X109231013Y-69626377D01*
X108538411Y-70089159D01*
X108075629Y-70781761D01*
X107913122Y-71598740D01*
X108075629Y-72415719D01*
X108538411Y-73108321D01*
X109231013Y-73571103D01*
X110047992Y-73733610D01*
X111152008Y-73733610D01*
X111968987Y-73571103D01*
X112661589Y-73108321D01*
X113124371Y-72415719D01*
X113286878Y-71598740D01*
X113286878Y-75565000D01*
X112978693Y-75565000D01*
X112661589Y-75090419D01*
X111968987Y-74627637D01*
X111152008Y-74465130D01*
X110047992Y-74465130D01*
X109231013Y-74627637D01*
X108538411Y-75090419D01*
X108075629Y-75783021D01*
X107913122Y-76600000D01*
X108075629Y-77416979D01*
X108538411Y-78109581D01*
X109231013Y-78572363D01*
X110047992Y-78734870D01*
X111152008Y-78734870D01*
X111968987Y-78572363D01*
X112661589Y-78109581D01*
X112978693Y-77635000D01*
X115971288Y-77635000D01*
X117068144Y-78731856D01*
X117403923Y-78956215D01*
X117800000Y-79035001D01*
X117800000Y-79035000D01*
X117800005Y-79035000D01*
X118332813Y-79035000D01*
X118419673Y-79244698D01*
X118598301Y-79423327D01*
X118831690Y-79520000D01*
X119084309Y-79520000D01*
X120884309Y-79520000D01*
X121117698Y-79423327D01*
X121296327Y-79244699D01*
X121393000Y-79011310D01*
X121393000Y-78758691D01*
X121393000Y-76988691D01*
X121296327Y-76755302D01*
X121117699Y-76576673D01*
X120893000Y-76483599D01*
X120893000Y-76355025D01*
X120900000Y-76348025D01*
X121040301Y-76488327D01*
X121273690Y-76585000D01*
X121526309Y-76585000D01*
X122026309Y-76585000D01*
X122147019Y-76535000D01*
X122307000Y-76535000D01*
X122307000Y-78000000D01*
X122307000Y-80580760D01*
X120158600Y-82729160D01*
X120158600Y-82515255D01*
X120044526Y-81941766D01*
X119719670Y-81455585D01*
X119233489Y-81130729D01*
X118660000Y-81016655D01*
X118086511Y-81130729D01*
X117600330Y-81455585D01*
X117390000Y-81770365D01*
X117179670Y-81455585D01*
X116693489Y-81130729D01*
X116120000Y-81016655D01*
X115546511Y-81130729D01*
X115060330Y-81455585D01*
X114850000Y-81770365D01*
X114639670Y-81455585D01*
X114153489Y-81130729D01*
X113580000Y-81016655D01*
X113006511Y-81130729D01*
X112520330Y-81455585D01*
X112328726Y-81742339D01*
X112196120Y-81543880D01*
X112128458Y-81498670D01*
X112099670Y-81455585D01*
X111613489Y-81130729D01*
X111040000Y-81016655D01*
X110466511Y-81130729D01*
X109980330Y-81455585D01*
X109965499Y-81477780D01*
X109901927Y-81324302D01*
X109723299Y-81145673D01*
X109489910Y-81049000D01*
X109237291Y-81049000D01*
X108785750Y-81049000D01*
X108627000Y-81207750D01*
X108627000Y-82573000D01*
X108647000Y-82573000D01*
X108647000Y-82827000D01*
X108627000Y-82827000D01*
X108627000Y-84192250D01*
X108785750Y-84351000D01*
X109237291Y-84351000D01*
X109405000Y-84351000D01*
X109405000Y-85939994D01*
X109404999Y-85940000D01*
X109529457Y-86565688D01*
X109883880Y-87096120D01*
X110243880Y-87456120D01*
X110774312Y-87810543D01*
X110774313Y-87810543D01*
X111400000Y-87935001D01*
X111400000Y-87935000D01*
X111400005Y-87935000D01*
X112014000Y-87935000D01*
X112014000Y-87964224D01*
X111784047Y-87964024D01*
X109712199Y-88820094D01*
X108125665Y-90403861D01*
X107510000Y-91886546D01*
X107510000Y-84350962D01*
X107510090Y-84351000D01*
X107762709Y-84351000D01*
X108214250Y-84351000D01*
X108373000Y-84192250D01*
X108373000Y-82827000D01*
X108353000Y-82827000D01*
X108353000Y-82573000D01*
X108373000Y-82573000D01*
X108373000Y-81207750D01*
X108214250Y-81049000D01*
X107762709Y-81049000D01*
X107510090Y-81049000D01*
X107510000Y-81049037D01*
X107510000Y-50310000D01*
X154004933Y-50310000D01*
X153795291Y-50745209D01*
X153792642Y-50760974D01*
X153913783Y-50993000D01*
X155273000Y-50993000D01*
X155273000Y-50973000D01*
X155527000Y-50973000D01*
X155527000Y-50993000D01*
X155547000Y-50993000D01*
X155547000Y-51247000D01*
G36*
X156090000Y-80122841D02*
X155538578Y-79570456D01*
X154671492Y-79210411D01*
X153732627Y-79209591D01*
X153215412Y-79423299D01*
X153487786Y-79015666D01*
X153590358Y-78500000D01*
X153487786Y-77984334D01*
X153195684Y-77547174D01*
X152758524Y-77255072D01*
X152733025Y-77250000D01*
X152758524Y-77244928D01*
X153195684Y-76952826D01*
X153487786Y-76515666D01*
X153590358Y-76000000D01*
X153487786Y-75484334D01*
X153195684Y-75047174D01*
X153125083Y-75000000D01*
X153195684Y-74952826D01*
X153487786Y-74515666D01*
X153590358Y-74000000D01*
X153487786Y-73484334D01*
X153195684Y-73047174D01*
X152758524Y-72755072D01*
X152686694Y-72740784D01*
X152835499Y-72696327D01*
X153245129Y-72363024D01*
X153496029Y-71898333D01*
X153507619Y-71835294D01*
X153384447Y-71627000D01*
X151617000Y-71627000D01*
X151617000Y-71647000D01*
X151363000Y-71647000D01*
X151363000Y-71627000D01*
X151343000Y-71627000D01*
X151343000Y-71373000D01*
X151363000Y-71373000D01*
X151363000Y-70152500D01*
X150650500Y-70152500D01*
X150144501Y-70303673D01*
X149935000Y-70474137D01*
X149935000Y-66900005D01*
X149935000Y-66900000D01*
X149935001Y-66900000D01*
X149810543Y-66274313D01*
X149683981Y-66084899D01*
X150054481Y-66085223D01*
X150526943Y-65890005D01*
X150888735Y-65528845D01*
X151050155Y-65140102D01*
X151209995Y-65526943D01*
X151571155Y-65888735D01*
X152043276Y-66084777D01*
X152554481Y-66085223D01*
X153026943Y-65890005D01*
X153388735Y-65528845D01*
X153543238Y-65156760D01*
X153670389Y-65463729D01*
X153900984Y-65519410D01*
X154620395Y-64800000D01*
X153900984Y-64080590D01*
X153670389Y-64136271D01*
X153554147Y-64470310D01*
X153390005Y-64073057D01*
X153028845Y-63711265D01*
X152556724Y-63515223D01*
X152045519Y-63514777D01*
X151573057Y-63709995D01*
X151211265Y-64071155D01*
X151049844Y-64459897D01*
X150890005Y-64073057D01*
X150528845Y-63711265D01*
X150056724Y-63515223D01*
X149545519Y-63514777D01*
X149073057Y-63709995D01*
X148711265Y-64071155D01*
X148515223Y-64543276D01*
X148515088Y-64697406D01*
X148334771Y-64622532D01*
X145847106Y-62134866D01*
X146244579Y-62135214D01*
X146698657Y-61947592D01*
X147046371Y-61600485D01*
X147234785Y-61146734D01*
X147234800Y-61128911D01*
X147728711Y-60635000D01*
X148947833Y-60635000D01*
X148711265Y-60871155D01*
X148515223Y-61343276D01*
X148514777Y-61854481D01*
X148709995Y-62326943D01*
X149071155Y-62688735D01*
X149543276Y-62884777D01*
X150054481Y-62885223D01*
X150526943Y-62690005D01*
X150888735Y-62328845D01*
X151050155Y-61940102D01*
X151209995Y-62326943D01*
X151571155Y-62688735D01*
X152043276Y-62884777D01*
X152554481Y-62885223D01*
X153026943Y-62690005D01*
X153388735Y-62328845D01*
X153543238Y-61956760D01*
X153670389Y-62263729D01*
X153900984Y-62319410D01*
X154620395Y-61600000D01*
X153900984Y-60880590D01*
X153670389Y-60936271D01*
X153554147Y-61270310D01*
X153390005Y-60873057D01*
X153028845Y-60511265D01*
X152680085Y-60366447D01*
X152731856Y-60331856D01*
X155365111Y-57698600D01*
X156090000Y-57698600D01*
X156090000Y-61649235D01*
X156068083Y-61270572D01*
X155929611Y-60936271D01*
X155699016Y-60880590D01*
X155519410Y-61060195D01*
X155519410Y-60700984D01*
X155463729Y-60470389D01*
X154980922Y-60302378D01*
X154470572Y-60331917D01*
X154136271Y-60470389D01*
X154080590Y-60700984D01*
X154800000Y-61420395D01*
X155519410Y-60700984D01*
X155519410Y-61060195D01*
X154979605Y-61600000D01*
X155699016Y-62319410D01*
X155929611Y-62263729D01*
X156090000Y-61802825D01*
X156090000Y-64849235D01*
X156068083Y-64470572D01*
X155929611Y-64136271D01*
X155699016Y-64080590D01*
X155519410Y-64260195D01*
X155519410Y-63900984D01*
X155519410Y-62499016D01*
X154800000Y-61779605D01*
X154080590Y-62499016D01*
X154136271Y-62729611D01*
X154619078Y-62897622D01*
X155129428Y-62868083D01*
X155463729Y-62729611D01*
X155519410Y-62499016D01*
X155519410Y-63900984D01*
X155463729Y-63670389D01*
X154980922Y-63502378D01*
X154470572Y-63531917D01*
X154136271Y-63670389D01*
X154080590Y-63900984D01*
X154800000Y-64620395D01*
X155519410Y-63900984D01*
X155519410Y-64260195D01*
X154979605Y-64800000D01*
X155699016Y-65519410D01*
X155929611Y-65463729D01*
X156090000Y-65002825D01*
X156090000Y-66982841D01*
X155538578Y-66430456D01*
X154722594Y-66091630D01*
X155129428Y-66068083D01*
X155463729Y-65929611D01*
X155519410Y-65699016D01*
X154800000Y-64979605D01*
X154080590Y-65699016D01*
X154136271Y-65929611D01*
X154540554Y-66070296D01*
X153732627Y-66069591D01*
X152864914Y-66428123D01*
X152200456Y-67091422D01*
X151840411Y-67958508D01*
X151839591Y-68897373D01*
X152198123Y-69765086D01*
X152693387Y-70261215D01*
X152329500Y-70152500D01*
X151617000Y-70152500D01*
X151617000Y-71373000D01*
X153384447Y-71373000D01*
X153507619Y-71164706D01*
X153496029Y-71101667D01*
X153245129Y-70636976D01*
X153124398Y-70538741D01*
X153728508Y-70789589D01*
X154667373Y-70790409D01*
X155535086Y-70431877D01*
X156090000Y-69877930D01*
X156090000Y-80122841D01*
X156090000Y-80122841D01*
G37*
X156090000Y-80122841D02*
X155538578Y-79570456D01*
X154671492Y-79210411D01*
X153732627Y-79209591D01*
X153215412Y-79423299D01*
X153487786Y-79015666D01*
X153590358Y-78500000D01*
X153487786Y-77984334D01*
X153195684Y-77547174D01*
X152758524Y-77255072D01*
X152733025Y-77250000D01*
X152758524Y-77244928D01*
X153195684Y-76952826D01*
X153487786Y-76515666D01*
X153590358Y-76000000D01*
X153487786Y-75484334D01*
X153195684Y-75047174D01*
X153125083Y-75000000D01*
X153195684Y-74952826D01*
X153487786Y-74515666D01*
X153590358Y-74000000D01*
X153487786Y-73484334D01*
X153195684Y-73047174D01*
X152758524Y-72755072D01*
X152686694Y-72740784D01*
X152835499Y-72696327D01*
X153245129Y-72363024D01*
X153496029Y-71898333D01*
X153507619Y-71835294D01*
X153384447Y-71627000D01*
X151617000Y-71627000D01*
X151617000Y-71647000D01*
X151363000Y-71647000D01*
X151363000Y-71627000D01*
X151343000Y-71627000D01*
X151343000Y-71373000D01*
X151363000Y-71373000D01*
X151363000Y-70152500D01*
X150650500Y-70152500D01*
X150144501Y-70303673D01*
X149935000Y-70474137D01*
X149935000Y-66900005D01*
X149935000Y-66900000D01*
X149935001Y-66900000D01*
X149810543Y-66274313D01*
X149683981Y-66084899D01*
X150054481Y-66085223D01*
X150526943Y-65890005D01*
X150888735Y-65528845D01*
X151050155Y-65140102D01*
X151209995Y-65526943D01*
X151571155Y-65888735D01*
X152043276Y-66084777D01*
X152554481Y-66085223D01*
X153026943Y-65890005D01*
X153388735Y-65528845D01*
X153543238Y-65156760D01*
X153670389Y-65463729D01*
X153900984Y-65519410D01*
X154620395Y-64800000D01*
X153900984Y-64080590D01*
X153670389Y-64136271D01*
X153554147Y-64470310D01*
X153390005Y-64073057D01*
X153028845Y-63711265D01*
X152556724Y-63515223D01*
X152045519Y-63514777D01*
X151573057Y-63709995D01*
X151211265Y-64071155D01*
X151049844Y-64459897D01*
X150890005Y-64073057D01*
X150528845Y-63711265D01*
X150056724Y-63515223D01*
X149545519Y-63514777D01*
X149073057Y-63709995D01*
X148711265Y-64071155D01*
X148515223Y-64543276D01*
X148515088Y-64697406D01*
X148334771Y-64622532D01*
X145847106Y-62134866D01*
X146244579Y-62135214D01*
X146698657Y-61947592D01*
X147046371Y-61600485D01*
X147234785Y-61146734D01*
X147234800Y-61128911D01*
X147728711Y-60635000D01*
X148947833Y-60635000D01*
X148711265Y-60871155D01*
X148515223Y-61343276D01*
X148514777Y-61854481D01*
X148709995Y-62326943D01*
X149071155Y-62688735D01*
X149543276Y-62884777D01*
X150054481Y-62885223D01*
X150526943Y-62690005D01*
X150888735Y-62328845D01*
X151050155Y-61940102D01*
X151209995Y-62326943D01*
X151571155Y-62688735D01*
X152043276Y-62884777D01*
X152554481Y-62885223D01*
X153026943Y-62690005D01*
X153388735Y-62328845D01*
X153543238Y-61956760D01*
X153670389Y-62263729D01*
X153900984Y-62319410D01*
X154620395Y-61600000D01*
X153900984Y-60880590D01*
X153670389Y-60936271D01*
X153554147Y-61270310D01*
X153390005Y-60873057D01*
X153028845Y-60511265D01*
X152680085Y-60366447D01*
X152731856Y-60331856D01*
X155365111Y-57698600D01*
X156090000Y-57698600D01*
X156090000Y-61649235D01*
X156068083Y-61270572D01*
X155929611Y-60936271D01*
X155699016Y-60880590D01*
X155519410Y-61060195D01*
X155519410Y-60700984D01*
X155463729Y-60470389D01*
X154980922Y-60302378D01*
X154470572Y-60331917D01*
X154136271Y-60470389D01*
X154080590Y-60700984D01*
X154800000Y-61420395D01*
X155519410Y-60700984D01*
X155519410Y-61060195D01*
X154979605Y-61600000D01*
X155699016Y-62319410D01*
X155929611Y-62263729D01*
X156090000Y-61802825D01*
X156090000Y-64849235D01*
X156068083Y-64470572D01*
X155929611Y-64136271D01*
X155699016Y-64080590D01*
X155519410Y-64260195D01*
X155519410Y-63900984D01*
X155519410Y-62499016D01*
X154800000Y-61779605D01*
X154080590Y-62499016D01*
X154136271Y-62729611D01*
X154619078Y-62897622D01*
X155129428Y-62868083D01*
X155463729Y-62729611D01*
X155519410Y-62499016D01*
X155519410Y-63900984D01*
X155463729Y-63670389D01*
X154980922Y-63502378D01*
X154470572Y-63531917D01*
X154136271Y-63670389D01*
X154080590Y-63900984D01*
X154800000Y-64620395D01*
X155519410Y-63900984D01*
X155519410Y-64260195D01*
X154979605Y-64800000D01*
X155699016Y-65519410D01*
X155929611Y-65463729D01*
X156090000Y-65002825D01*
X156090000Y-66982841D01*
X155538578Y-66430456D01*
X154722594Y-66091630D01*
X155129428Y-66068083D01*
X155463729Y-65929611D01*
X155519410Y-65699016D01*
X154800000Y-64979605D01*
X154080590Y-65699016D01*
X154136271Y-65929611D01*
X154540554Y-66070296D01*
X153732627Y-66069591D01*
X152864914Y-66428123D01*
X152200456Y-67091422D01*
X151840411Y-67958508D01*
X151839591Y-68897373D01*
X152198123Y-69765086D01*
X152693387Y-70261215D01*
X152329500Y-70152500D01*
X151617000Y-70152500D01*
X151617000Y-71373000D01*
X153384447Y-71373000D01*
X153507619Y-71164706D01*
X153496029Y-71101667D01*
X153245129Y-70636976D01*
X153124398Y-70538741D01*
X153728508Y-70789589D01*
X154667373Y-70790409D01*
X155535086Y-70431877D01*
X156090000Y-69877930D01*
X156090000Y-80122841D01*
G36*
X125373000Y-64673000D02*
X120648652Y-64673000D01*
X116031516Y-60527000D01*
X122563288Y-60527000D01*
X124168141Y-62131852D01*
X124168144Y-62131856D01*
X124369428Y-62266349D01*
X124503922Y-62356215D01*
X124503923Y-62356215D01*
X124900000Y-62435001D01*
X124900000Y-62435000D01*
X124900005Y-62435000D01*
X125373000Y-62435000D01*
X125373000Y-64673000D01*
X125373000Y-64673000D01*
G37*
X125373000Y-64673000D02*
X120648652Y-64673000D01*
X116031516Y-60527000D01*
X122563288Y-60527000D01*
X124168141Y-62131852D01*
X124168144Y-62131856D01*
X124369428Y-62266349D01*
X124503922Y-62356215D01*
X124503923Y-62356215D01*
X124900000Y-62435001D01*
X124900000Y-62435000D01*
X124900005Y-62435000D01*
X125373000Y-62435000D01*
X125373000Y-64673000D01*
M02*
