%FSLAX46Y46*%
G04 Gerber Fmt 4.6, Leading zero omitted, Abs format (unit mm)*
G04 Created by KiCad (PCBNEW (2014-09-02 BZR 5112)-product) date mer. 25 mars 2015 20:03:37 CET*
%MOMM*%
G01*
G04 APERTURE LIST*
%ADD10C,0.150000*%
%ADD11C,0.250000*%
%ADD12C,0.300000*%
G04 APERTURE END LIST*
D10*
D11*
X146771428Y-89271429D02*
X146009523Y-89271429D01*
X146390475Y-89652381D02*
X146390475Y-88890476D01*
X145628571Y-88652381D02*
X145009523Y-88652381D01*
X145342857Y-89033333D01*
X145199999Y-89033333D01*
X145104761Y-89080952D01*
X145057142Y-89128571D01*
X145009523Y-89223810D01*
X145009523Y-89461905D01*
X145057142Y-89557143D01*
X145104761Y-89604762D01*
X145199999Y-89652381D01*
X145485714Y-89652381D01*
X145580952Y-89604762D01*
X145628571Y-89557143D01*
X144580952Y-89557143D02*
X144533333Y-89604762D01*
X144580952Y-89652381D01*
X144628571Y-89604762D01*
X144580952Y-89557143D01*
X144580952Y-89652381D01*
X144200000Y-88652381D02*
X143580952Y-88652381D01*
X143914286Y-89033333D01*
X143771428Y-89033333D01*
X143676190Y-89080952D01*
X143628571Y-89128571D01*
X143580952Y-89223810D01*
X143580952Y-89461905D01*
X143628571Y-89557143D01*
X143676190Y-89604762D01*
X143771428Y-89652381D01*
X144057143Y-89652381D01*
X144152381Y-89604762D01*
X144200000Y-89557143D01*
X134057143Y-89271429D02*
X133295238Y-89271429D01*
X133676190Y-89652381D02*
X133676190Y-88890476D01*
X132342857Y-88652381D02*
X132819048Y-88652381D01*
X132866667Y-89128571D01*
X132819048Y-89080952D01*
X132723810Y-89033333D01*
X132485714Y-89033333D01*
X132390476Y-89080952D01*
X132342857Y-89128571D01*
X132295238Y-89223810D01*
X132295238Y-89461905D01*
X132342857Y-89557143D01*
X132390476Y-89604762D01*
X132485714Y-89652381D01*
X132723810Y-89652381D01*
X132819048Y-89604762D01*
X132866667Y-89557143D01*
X121833333Y-89071429D02*
X121071428Y-89071429D01*
X121452380Y-89452381D02*
X121452380Y-88690476D01*
X120071428Y-89452381D02*
X120642857Y-89452381D01*
X120357143Y-89452381D02*
X120357143Y-88452381D01*
X120452381Y-88595238D01*
X120547619Y-88690476D01*
X120642857Y-88738095D01*
X119690476Y-88547619D02*
X119642857Y-88500000D01*
X119547619Y-88452381D01*
X119309523Y-88452381D01*
X119214285Y-88500000D01*
X119166666Y-88547619D01*
X119119047Y-88642857D01*
X119119047Y-88738095D01*
X119166666Y-88880952D01*
X119738095Y-89452381D01*
X119119047Y-89452381D01*
X109395238Y-88552381D02*
X109061905Y-89552381D01*
X108728571Y-88552381D01*
X107966666Y-89552381D02*
X107966666Y-89028571D01*
X108014285Y-88933333D01*
X108109523Y-88885714D01*
X108300000Y-88885714D01*
X108395238Y-88933333D01*
X107966666Y-89504762D02*
X108061904Y-89552381D01*
X108300000Y-89552381D01*
X108395238Y-89504762D01*
X108442857Y-89409524D01*
X108442857Y-89314286D01*
X108395238Y-89219048D01*
X108300000Y-89171429D01*
X108061904Y-89171429D01*
X107966666Y-89123810D01*
X107490476Y-89552381D02*
X107490476Y-88885714D01*
X107490476Y-89076190D02*
X107442857Y-88980952D01*
X107395238Y-88933333D01*
X107300000Y-88885714D01*
X107204761Y-88885714D01*
X134242857Y-76300000D02*
X134338095Y-76252381D01*
X134480952Y-76252381D01*
X134623810Y-76300000D01*
X134719048Y-76395238D01*
X134766667Y-76490476D01*
X134814286Y-76680952D01*
X134814286Y-76823810D01*
X134766667Y-77014286D01*
X134719048Y-77109524D01*
X134623810Y-77204762D01*
X134480952Y-77252381D01*
X134385714Y-77252381D01*
X134242857Y-77204762D01*
X134195238Y-77157143D01*
X134195238Y-76823810D01*
X134385714Y-76823810D01*
X133766667Y-76585714D02*
X133766667Y-77252381D01*
X133766667Y-76680952D02*
X133719048Y-76633333D01*
X133623810Y-76585714D01*
X133480952Y-76585714D01*
X133385714Y-76633333D01*
X133338095Y-76728571D01*
X133338095Y-77252381D01*
X132433333Y-77252381D02*
X132433333Y-76252381D01*
X132433333Y-77204762D02*
X132528571Y-77252381D01*
X132719048Y-77252381D01*
X132814286Y-77204762D01*
X132861905Y-77157143D01*
X132909524Y-77061905D01*
X132909524Y-76776190D01*
X132861905Y-76680952D01*
X132814286Y-76633333D01*
X132719048Y-76585714D01*
X132528571Y-76585714D01*
X132433333Y-76633333D01*
X118628571Y-81071428D02*
X118628571Y-80309523D01*
X118247619Y-80690475D02*
X119009524Y-80690475D01*
X119247619Y-79928571D02*
X119247619Y-79309523D01*
X118866667Y-79642857D01*
X118866667Y-79499999D01*
X118819048Y-79404761D01*
X118771429Y-79357142D01*
X118676190Y-79309523D01*
X118438095Y-79309523D01*
X118342857Y-79357142D01*
X118295238Y-79404761D01*
X118247619Y-79499999D01*
X118247619Y-79785714D01*
X118295238Y-79880952D01*
X118342857Y-79928571D01*
X118342857Y-78880952D02*
X118295238Y-78833333D01*
X118247619Y-78880952D01*
X118295238Y-78928571D01*
X118342857Y-78880952D01*
X118247619Y-78880952D01*
X119247619Y-78500000D02*
X119247619Y-77880952D01*
X118866667Y-78214286D01*
X118866667Y-78071428D01*
X118819048Y-77976190D01*
X118771429Y-77928571D01*
X118676190Y-77880952D01*
X118438095Y-77880952D01*
X118342857Y-77928571D01*
X118295238Y-77976190D01*
X118247619Y-78071428D01*
X118247619Y-78357143D01*
X118295238Y-78452381D01*
X118342857Y-78500000D01*
X116128571Y-81057143D02*
X116128571Y-80295238D01*
X115747619Y-80676190D02*
X116509524Y-80676190D01*
X116747619Y-79342857D02*
X116747619Y-79819048D01*
X116271429Y-79866667D01*
X116319048Y-79819048D01*
X116366667Y-79723810D01*
X116366667Y-79485714D01*
X116319048Y-79390476D01*
X116271429Y-79342857D01*
X116176190Y-79295238D01*
X115938095Y-79295238D01*
X115842857Y-79342857D01*
X115795238Y-79390476D01*
X115747619Y-79485714D01*
X115747619Y-79723810D01*
X115795238Y-79819048D01*
X115842857Y-79866667D01*
X113528571Y-81033333D02*
X113528571Y-80271428D01*
X113147619Y-80652380D02*
X113909524Y-80652380D01*
X113147619Y-79271428D02*
X113147619Y-79842857D01*
X113147619Y-79557143D02*
X114147619Y-79557143D01*
X114004762Y-79652381D01*
X113909524Y-79747619D01*
X113861905Y-79842857D01*
X114052381Y-78890476D02*
X114100000Y-78842857D01*
X114147619Y-78747619D01*
X114147619Y-78509523D01*
X114100000Y-78414285D01*
X114052381Y-78366666D01*
X113957143Y-78319047D01*
X113861905Y-78319047D01*
X113719048Y-78366666D01*
X113147619Y-78938095D01*
X113147619Y-78319047D01*
X111647619Y-80995238D02*
X110647619Y-80661905D01*
X111647619Y-80328571D01*
X110647619Y-79566666D02*
X111171429Y-79566666D01*
X111266667Y-79614285D01*
X111314286Y-79709523D01*
X111314286Y-79900000D01*
X111266667Y-79995238D01*
X110695238Y-79566666D02*
X110647619Y-79661904D01*
X110647619Y-79900000D01*
X110695238Y-79995238D01*
X110790476Y-80042857D01*
X110885714Y-80042857D01*
X110980952Y-79995238D01*
X111028571Y-79900000D01*
X111028571Y-79661904D01*
X111076190Y-79566666D01*
X110647619Y-79090476D02*
X111314286Y-79090476D01*
X111123810Y-79090476D02*
X111219048Y-79042857D01*
X111266667Y-78995238D01*
X111314286Y-78900000D01*
X111314286Y-78804761D01*
X108900000Y-80442857D02*
X108947619Y-80538095D01*
X108947619Y-80680952D01*
X108900000Y-80823810D01*
X108804762Y-80919048D01*
X108709524Y-80966667D01*
X108519048Y-81014286D01*
X108376190Y-81014286D01*
X108185714Y-80966667D01*
X108090476Y-80919048D01*
X107995238Y-80823810D01*
X107947619Y-80680952D01*
X107947619Y-80585714D01*
X107995238Y-80442857D01*
X108042857Y-80395238D01*
X108376190Y-80395238D01*
X108376190Y-80585714D01*
X108614286Y-79966667D02*
X107947619Y-79966667D01*
X108519048Y-79966667D02*
X108566667Y-79919048D01*
X108614286Y-79823810D01*
X108614286Y-79680952D01*
X108566667Y-79585714D01*
X108471429Y-79538095D01*
X107947619Y-79538095D01*
X107947619Y-78633333D02*
X108947619Y-78633333D01*
X107995238Y-78633333D02*
X107947619Y-78728571D01*
X107947619Y-78919048D01*
X107995238Y-79014286D01*
X108042857Y-79061905D01*
X108138095Y-79109524D01*
X108423810Y-79109524D01*
X108519048Y-79061905D01*
X108566667Y-79014286D01*
X108614286Y-78919048D01*
X108614286Y-78728571D01*
X108566667Y-78633333D01*
D12*
X115078571Y-70614287D02*
X116078571Y-70971430D01*
X115078571Y-71328572D01*
X115650000Y-71828572D02*
X115650000Y-72542858D01*
X116078571Y-71685715D02*
X114578571Y-72185715D01*
X116078571Y-72685715D01*
X114578571Y-72971429D02*
X114578571Y-73828572D01*
X116078571Y-73400001D02*
X114578571Y-73400001D01*
X114578571Y-74185715D02*
X116078571Y-75185715D01*
X114578571Y-75185715D02*
X116078571Y-74185715D01*
X117478571Y-70757144D02*
X118478571Y-71114287D01*
X117478571Y-71471429D01*
X117121429Y-71971429D02*
X117050000Y-72042858D01*
X116978571Y-72185715D01*
X116978571Y-72542858D01*
X117050000Y-72685715D01*
X117121429Y-72757144D01*
X117264286Y-72828572D01*
X117407143Y-72828572D01*
X117621429Y-72757144D01*
X118478571Y-71900001D01*
X118478571Y-72828572D01*
X118335714Y-73471429D02*
X118407143Y-73542857D01*
X118478571Y-73471429D01*
X118407143Y-73400000D01*
X118335714Y-73471429D01*
X118478571Y-73471429D01*
X117121429Y-74114286D02*
X117050000Y-74185715D01*
X116978571Y-74328572D01*
X116978571Y-74685715D01*
X117050000Y-74828572D01*
X117121429Y-74900001D01*
X117264286Y-74971429D01*
X117407143Y-74971429D01*
X117621429Y-74900001D01*
X118478571Y-74042858D01*
X118478571Y-74971429D01*
D11*
X150457146Y-60227381D02*
X150332146Y-59227381D01*
X150028574Y-60227381D02*
X149963097Y-59703571D01*
X149998812Y-59608333D01*
X150088097Y-59560714D01*
X150230955Y-59560714D01*
X150332146Y-59608333D01*
X150385717Y-59655952D01*
X149611907Y-59560714D02*
X149230955Y-59560714D01*
X149427384Y-59227381D02*
X149534526Y-60084524D01*
X149498812Y-60179762D01*
X149409527Y-60227381D01*
X149314289Y-60227381D01*
X149040478Y-59560714D02*
X148659526Y-59560714D01*
X148855955Y-59227381D02*
X148963097Y-60084524D01*
X148927383Y-60179762D01*
X148838098Y-60227381D01*
X148742860Y-60227381D01*
X148326192Y-59560714D02*
X148451192Y-60560714D01*
X148332145Y-59608333D02*
X148230954Y-59560714D01*
X148040477Y-59560714D01*
X147951192Y-59608333D01*
X147909525Y-59655952D01*
X147873811Y-59751190D01*
X147909525Y-60036905D01*
X147969049Y-60132143D01*
X148022620Y-60179762D01*
X148123811Y-60227381D01*
X148314288Y-60227381D01*
X148403573Y-60179762D01*
X147492859Y-60132143D02*
X147451192Y-60179762D01*
X147504764Y-60227381D01*
X147546430Y-60179762D01*
X147492859Y-60132143D01*
X147504764Y-60227381D01*
X147427383Y-59608333D02*
X147385716Y-59655952D01*
X147439287Y-59703571D01*
X147480954Y-59655952D01*
X147427383Y-59608333D01*
X147439287Y-59703571D01*
X146183335Y-59179762D02*
X147201193Y-60465476D01*
X145135716Y-59179762D02*
X146153574Y-60465476D01*
X144992859Y-59560714D02*
X144611907Y-59560714D01*
X144933336Y-60227381D02*
X144826193Y-59370238D01*
X144766669Y-59275000D01*
X144665479Y-59227381D01*
X144570241Y-59227381D01*
X143933335Y-60227381D02*
X143867858Y-59703571D01*
X143903573Y-59608333D01*
X143992858Y-59560714D01*
X144183335Y-59560714D01*
X144284526Y-59608333D01*
X143927382Y-60179762D02*
X144028573Y-60227381D01*
X144266669Y-60227381D01*
X144355954Y-60179762D01*
X144391668Y-60084524D01*
X144379764Y-59989286D01*
X144320240Y-59894048D01*
X144219050Y-59846429D01*
X143980954Y-59846429D01*
X143879763Y-59798810D01*
X143457145Y-60227381D02*
X143332145Y-59227381D01*
X143379764Y-59608333D02*
X143278573Y-59560714D01*
X143088096Y-59560714D01*
X142998811Y-59608333D01*
X142957144Y-59655952D01*
X142921430Y-59751190D01*
X142957144Y-60036905D01*
X143016668Y-60132143D01*
X143070239Y-60179762D01*
X143171430Y-60227381D01*
X143361907Y-60227381D01*
X143451192Y-60179762D01*
X142409526Y-60227381D02*
X142498811Y-60179762D01*
X142534525Y-60084524D01*
X142427383Y-59227381D01*
X141600001Y-60227381D02*
X141534524Y-59703571D01*
X141570239Y-59608333D01*
X141659524Y-59560714D01*
X141850001Y-59560714D01*
X141951192Y-59608333D01*
X141594048Y-60179762D02*
X141695239Y-60227381D01*
X141933335Y-60227381D01*
X142022620Y-60179762D01*
X142058334Y-60084524D01*
X142046430Y-59989286D01*
X141986906Y-59894048D01*
X141885716Y-59846429D01*
X141647620Y-59846429D01*
X141546429Y-59798810D01*
X141123811Y-60227381D02*
X140998811Y-59227381D01*
X141046430Y-59608333D02*
X140945239Y-59560714D01*
X140754762Y-59560714D01*
X140665477Y-59608333D01*
X140623810Y-59655952D01*
X140588096Y-59751190D01*
X140623810Y-60036905D01*
X140683334Y-60132143D01*
X140736905Y-60179762D01*
X140838096Y-60227381D01*
X141028573Y-60227381D01*
X141117858Y-60179762D01*
X140171430Y-59846429D02*
X139409525Y-59846429D01*
X138838097Y-60227381D02*
X138927382Y-60179762D01*
X138963096Y-60084524D01*
X138855954Y-59227381D01*
X138028572Y-60227381D02*
X137963095Y-59703571D01*
X137998810Y-59608333D01*
X138088095Y-59560714D01*
X138278572Y-59560714D01*
X138379763Y-59608333D01*
X138022619Y-60179762D02*
X138123810Y-60227381D01*
X138361906Y-60227381D01*
X138451191Y-60179762D01*
X138486905Y-60084524D01*
X138475001Y-59989286D01*
X138415477Y-59894048D01*
X138314287Y-59846429D01*
X138076191Y-59846429D01*
X137975000Y-59798810D01*
X137469048Y-59560714D02*
X137552382Y-60227381D01*
X137480953Y-59655952D02*
X137427382Y-59608333D01*
X137326191Y-59560714D01*
X137183333Y-59560714D01*
X137094048Y-59608333D01*
X137058333Y-59703571D01*
X137123810Y-60227381D01*
X136564286Y-59560714D02*
X136647620Y-60227381D01*
X136576191Y-59655952D02*
X136522620Y-59608333D01*
X136421429Y-59560714D01*
X136278571Y-59560714D01*
X136189286Y-59608333D01*
X136153571Y-59703571D01*
X136219048Y-60227381D01*
X135742858Y-60227381D02*
X135659524Y-59560714D01*
X135617858Y-59227381D02*
X135671429Y-59275000D01*
X135629762Y-59322619D01*
X135576191Y-59275000D01*
X135617858Y-59227381D01*
X135629762Y-59322619D01*
X135123811Y-60227381D02*
X135213096Y-60179762D01*
X135254763Y-60132143D01*
X135290477Y-60036905D01*
X135254763Y-59751190D01*
X135195239Y-59655952D01*
X135141668Y-59608333D01*
X135040477Y-59560714D01*
X134897619Y-59560714D01*
X134808334Y-59608333D01*
X134766667Y-59655952D01*
X134730953Y-59751190D01*
X134766667Y-60036905D01*
X134826191Y-60132143D01*
X134879762Y-60179762D01*
X134980953Y-60227381D01*
X135123811Y-60227381D01*
X134278572Y-59560714D02*
X134361906Y-60227381D01*
X134290477Y-59655952D02*
X134236906Y-59608333D01*
X134135715Y-59560714D01*
X133992857Y-59560714D01*
X133903572Y-59608333D01*
X133867857Y-59703571D01*
X133933334Y-60227381D01*
X133445239Y-60132143D02*
X133403572Y-60179762D01*
X133457144Y-60227381D01*
X133498810Y-60179762D01*
X133445239Y-60132143D01*
X133457144Y-60227381D01*
X132838097Y-60227381D02*
X132927382Y-60179762D01*
X132969049Y-60132143D01*
X133004763Y-60036905D01*
X132969049Y-59751190D01*
X132909525Y-59655952D01*
X132855954Y-59608333D01*
X132754763Y-59560714D01*
X132611905Y-59560714D01*
X132522620Y-59608333D01*
X132480953Y-59655952D01*
X132445239Y-59751190D01*
X132480953Y-60036905D01*
X132540477Y-60132143D01*
X132594048Y-60179762D01*
X132695239Y-60227381D01*
X132838097Y-60227381D01*
X132076192Y-60227381D02*
X131992858Y-59560714D01*
X132016668Y-59751190D02*
X131957144Y-59655952D01*
X131903573Y-59608333D01*
X131802382Y-59560714D01*
X131707143Y-59560714D01*
X130945238Y-59560714D02*
X131046429Y-60370238D01*
X131105953Y-60465476D01*
X131159524Y-60513095D01*
X131260715Y-60560714D01*
X131403572Y-60560714D01*
X131492858Y-60513095D01*
X131022619Y-60179762D02*
X131123810Y-60227381D01*
X131314287Y-60227381D01*
X131403572Y-60179762D01*
X131445239Y-60132143D01*
X131480953Y-60036905D01*
X131445239Y-59751190D01*
X131385715Y-59655952D01*
X131332144Y-59608333D01*
X131230953Y-59560714D01*
X131040476Y-59560714D01*
X130951191Y-59608333D01*
X129707143Y-59179762D02*
X130725001Y-60465476D01*
X129516667Y-59560714D02*
X129409525Y-60227381D01*
X129159524Y-59751190D01*
X129028572Y-60227381D01*
X128754762Y-59560714D01*
X128457144Y-60227381D02*
X128373810Y-59560714D01*
X128332144Y-59227381D02*
X128385715Y-59275000D01*
X128344048Y-59322619D01*
X128290477Y-59275000D01*
X128332144Y-59227381D01*
X128344048Y-59322619D01*
X127980954Y-60227381D02*
X127855954Y-59227381D01*
X127838097Y-59846429D02*
X127600001Y-60227381D01*
X127516667Y-59560714D02*
X127945239Y-59941667D01*
X127171430Y-60227381D02*
X127088096Y-59560714D01*
X127046430Y-59227381D02*
X127100001Y-59275000D01*
X127058334Y-59322619D01*
X127004763Y-59275000D01*
X127046430Y-59227381D01*
X127058334Y-59322619D01*
X125850001Y-59179762D02*
X126867859Y-60465476D01*
X125647621Y-60227381D02*
X125564287Y-59560714D01*
X125522621Y-59227381D02*
X125576192Y-59275000D01*
X125534525Y-59322619D01*
X125480954Y-59275000D01*
X125522621Y-59227381D01*
X125534525Y-59322619D01*
X125088097Y-59560714D02*
X125171431Y-60227381D01*
X125100002Y-59655952D02*
X125046431Y-59608333D01*
X124945240Y-59560714D01*
X124802382Y-59560714D01*
X124713097Y-59608333D01*
X124677382Y-59703571D01*
X124742859Y-60227381D01*
X123838097Y-60227381D02*
X123713097Y-59227381D01*
X123832144Y-60179762D02*
X123933335Y-60227381D01*
X124123812Y-60227381D01*
X124213097Y-60179762D01*
X124254764Y-60132143D01*
X124290478Y-60036905D01*
X124254764Y-59751190D01*
X124195240Y-59655952D01*
X124141669Y-59608333D01*
X124040478Y-59560714D01*
X123850001Y-59560714D01*
X123760716Y-59608333D01*
X122975001Y-60179762D02*
X123076192Y-60227381D01*
X123266669Y-60227381D01*
X123355954Y-60179762D01*
X123391668Y-60084524D01*
X123344049Y-59703571D01*
X123284526Y-59608333D01*
X123183335Y-59560714D01*
X122992858Y-59560714D01*
X122903573Y-59608333D01*
X122867858Y-59703571D01*
X122879763Y-59798810D01*
X123367859Y-59894048D01*
X122600002Y-60227381D02*
X121992858Y-59560714D01*
X122516668Y-59560714D02*
X122076192Y-60227381D01*
X121683335Y-60132143D02*
X121641668Y-60179762D01*
X121695240Y-60227381D01*
X121736906Y-60179762D01*
X121683335Y-60132143D01*
X121695240Y-60227381D01*
X121135716Y-59560714D02*
X121260716Y-60560714D01*
X121141669Y-59608333D02*
X121040478Y-59560714D01*
X120850001Y-59560714D01*
X120760716Y-59608333D01*
X120719049Y-59655952D01*
X120683335Y-59751190D01*
X120719049Y-60036905D01*
X120778573Y-60132143D01*
X120832144Y-60179762D01*
X120933335Y-60227381D01*
X121123812Y-60227381D01*
X121213097Y-60179762D01*
X120314288Y-60227381D02*
X120189288Y-59227381D01*
X119885716Y-60227381D02*
X119820239Y-59703571D01*
X119855954Y-59608333D01*
X119945239Y-59560714D01*
X120088097Y-59560714D01*
X120189288Y-59608333D01*
X120242859Y-59655952D01*
X119326192Y-59560714D02*
X119451192Y-60560714D01*
X119332145Y-59608333D02*
X119230954Y-59560714D01*
X119040477Y-59560714D01*
X118951192Y-59608333D01*
X118909525Y-59655952D01*
X118873811Y-59751190D01*
X118909525Y-60036905D01*
X118969049Y-60132143D01*
X119022620Y-60179762D01*
X119123811Y-60227381D01*
X119314288Y-60227381D01*
X119403573Y-60179762D01*
X118350002Y-60132143D02*
X118308335Y-60179762D01*
X118361907Y-60227381D01*
X118403573Y-60179762D01*
X118350002Y-60132143D01*
X118361907Y-60227381D01*
X118433335Y-59275000D02*
X118332145Y-59227381D01*
X118094049Y-59227381D01*
X118004763Y-59275000D01*
X117969049Y-59370238D01*
X117980953Y-59465476D01*
X118040477Y-59560714D01*
X118094049Y-59608333D01*
X118195240Y-59655952D01*
X118248811Y-59703571D01*
X118308335Y-59798810D01*
X118314288Y-59846429D01*
X117707144Y-59560714D02*
X117326192Y-59560714D01*
X117522621Y-59227381D02*
X117629763Y-60084524D01*
X117594049Y-60179762D01*
X117504764Y-60227381D01*
X117409526Y-60227381D01*
X117076192Y-60227381D02*
X116992858Y-59560714D01*
X116951192Y-59227381D02*
X117004763Y-59275000D01*
X116963096Y-59322619D01*
X116909525Y-59275000D01*
X116951192Y-59227381D01*
X116963096Y-59322619D01*
X116659525Y-59560714D02*
X116278573Y-59560714D01*
X116475002Y-59227381D02*
X116582144Y-60084524D01*
X116546430Y-60179762D01*
X116457145Y-60227381D01*
X116361907Y-60227381D01*
X115885716Y-60227381D02*
X115975001Y-60179762D01*
X116010715Y-60084524D01*
X115903573Y-59227381D01*
X115117857Y-60179762D02*
X115219048Y-60227381D01*
X115409525Y-60227381D01*
X115498810Y-60179762D01*
X115534524Y-60084524D01*
X115486905Y-59703571D01*
X115427382Y-59608333D01*
X115326191Y-59560714D01*
X115135714Y-59560714D01*
X115046429Y-59608333D01*
X115010714Y-59703571D01*
X115022619Y-59798810D01*
X115510715Y-59894048D01*
X114582143Y-59703571D02*
X113820238Y-59703571D01*
X113855953Y-59989286D02*
X114617858Y-59989286D01*
X113427382Y-59227381D02*
X113219049Y-60227381D01*
X112760715Y-59227381D01*
X112564286Y-59941667D02*
X112088095Y-59941667D01*
X112695239Y-60227381D02*
X112236906Y-59227381D01*
X112028572Y-60227381D01*
X111713096Y-59227381D02*
X111141667Y-59227381D01*
X111552382Y-60227381D02*
X111427382Y-59227381D01*
X110903572Y-59227381D02*
X110361905Y-60227381D01*
X110236905Y-59227381D02*
X111028572Y-60227381D01*
X116600000Y-61877381D02*
X116475000Y-60877381D01*
X116594047Y-61829762D02*
X116695238Y-61877381D01*
X116885715Y-61877381D01*
X116975000Y-61829762D01*
X117016667Y-61782143D01*
X117052381Y-61686905D01*
X117016667Y-61401190D01*
X116957143Y-61305952D01*
X116903572Y-61258333D01*
X116802381Y-61210714D01*
X116611904Y-61210714D01*
X116522619Y-61258333D01*
X116123810Y-61877381D02*
X116040476Y-61210714D01*
X115998810Y-60877381D02*
X116052381Y-60925000D01*
X116010714Y-60972619D01*
X115957143Y-60925000D01*
X115998810Y-60877381D01*
X116010714Y-60972619D01*
X115564286Y-61210714D02*
X115647620Y-61877381D01*
X115576191Y-61305952D02*
X115522620Y-61258333D01*
X115421429Y-61210714D01*
X115278571Y-61210714D01*
X115189286Y-61258333D01*
X115153571Y-61353571D01*
X115219048Y-61877381D01*
X114314286Y-61877381D02*
X114248809Y-61353571D01*
X114284524Y-61258333D01*
X114373809Y-61210714D01*
X114564286Y-61210714D01*
X114665477Y-61258333D01*
X114308333Y-61829762D02*
X114409524Y-61877381D01*
X114647620Y-61877381D01*
X114736905Y-61829762D01*
X114772619Y-61734524D01*
X114760715Y-61639286D01*
X114701191Y-61544048D01*
X114600001Y-61496429D01*
X114361905Y-61496429D01*
X114260714Y-61448810D01*
X113879762Y-61829762D02*
X113790477Y-61877381D01*
X113600001Y-61877381D01*
X113498809Y-61829762D01*
X113439285Y-61734524D01*
X113433333Y-61686905D01*
X113469047Y-61591667D01*
X113558334Y-61544048D01*
X113701191Y-61544048D01*
X113790477Y-61496429D01*
X113826191Y-61401190D01*
X113820238Y-61353571D01*
X113760715Y-61258333D01*
X113659524Y-61210714D01*
X113516667Y-61210714D01*
X113427381Y-61258333D01*
X113028572Y-61877381D02*
X112903572Y-60877381D01*
X112885715Y-61496429D02*
X112647619Y-61877381D01*
X112564285Y-61210714D02*
X112992857Y-61591667D01*
X112207143Y-61782143D02*
X112165476Y-61829762D01*
X112219048Y-61877381D01*
X112260714Y-61829762D01*
X112207143Y-61782143D01*
X112219048Y-61877381D01*
X111355952Y-61829762D02*
X111457143Y-61877381D01*
X111647620Y-61877381D01*
X111736905Y-61829762D01*
X111772619Y-61734524D01*
X111725000Y-61353571D01*
X111665477Y-61258333D01*
X111564286Y-61210714D01*
X111373809Y-61210714D01*
X111284524Y-61258333D01*
X111248809Y-61353571D01*
X111260714Y-61448810D01*
X111748810Y-61544048D01*
X110373809Y-61210714D02*
X110457143Y-61877381D01*
X110802381Y-61210714D02*
X110867857Y-61734524D01*
X110832143Y-61829762D01*
X110742858Y-61877381D01*
X110600000Y-61877381D01*
X110498809Y-61829762D01*
X110445238Y-61782143D01*
D10*
X125999620Y-64500480D02*
X131900040Y-70400900D01*
X131600320Y-69100420D02*
X131099940Y-68600040D01*
X127000380Y-67500220D02*
X127300100Y-67799940D01*
X128999360Y-70499960D02*
X128801240Y-70299300D01*
X130000120Y-65501240D02*
X129799460Y-65300580D01*
X130500500Y-65999080D02*
X130899280Y-66400400D01*
X129499740Y-65999080D02*
X129200020Y-65699360D01*
X128498980Y-65999080D02*
X128001140Y-65501240D01*
X126500000Y-64000100D02*
X126299340Y-63799440D01*
X125999620Y-64500480D02*
X125699900Y-64200760D01*
X125999620Y-65501240D02*
X125499240Y-65000860D01*
X124501020Y-65999080D02*
X124399420Y-65900020D01*
X125499240Y-65999080D02*
X125100460Y-65600300D01*
X122999880Y-65501240D02*
X122700160Y-65198980D01*
X122499500Y-65999080D02*
X122199780Y-65699360D01*
X130500500Y-71000340D02*
X130800220Y-71300060D01*
X128999360Y-69499200D02*
X128699640Y-69199480D01*
X131099940Y-73499700D02*
X131300600Y-73700360D01*
X128999360Y-71500720D02*
X128498980Y-71000340D01*
X130500500Y-74000080D02*
X130701160Y-74200740D01*
X128498980Y-72001100D02*
X128001140Y-71500720D01*
X128498980Y-72999320D02*
X128100200Y-72600540D01*
X122999880Y-68500980D02*
X122499500Y-68000600D01*
X122499500Y-68998820D02*
X122199780Y-68699100D01*
X122999880Y-72498940D02*
X122601100Y-72100160D01*
X121000900Y-69499200D02*
X120599580Y-69100420D01*
X122499500Y-72999320D02*
X123500260Y-74000080D01*
X122999880Y-72498940D02*
X124000640Y-73499700D01*
X121000900Y-69499200D02*
X124998860Y-73499700D01*
X121498740Y-68998820D02*
X124998860Y-72498940D01*
X122499500Y-68998820D02*
X125499240Y-72001100D01*
X128498980Y-72999320D02*
X128999360Y-73499700D01*
X128498980Y-72001100D02*
X130500500Y-74000080D01*
X128999360Y-71500720D02*
X131000880Y-73499700D01*
X128999360Y-70499960D02*
X130500500Y-72001100D01*
X128999360Y-69499200D02*
X130500500Y-71000340D01*
X126500000Y-64000100D02*
X127500760Y-65000860D01*
X130000120Y-65501240D02*
X130500500Y-65999080D01*
X129499740Y-65999080D02*
X130500500Y-66999840D01*
X131501260Y-68998820D02*
X132499480Y-69999580D01*
X128498980Y-65999080D02*
X131000880Y-68500980D01*
X125999620Y-65501240D02*
X131000880Y-70499960D01*
X122999880Y-68500980D02*
X124501020Y-69999580D01*
X122999880Y-67500220D02*
X124501020Y-68998820D01*
X125499240Y-65999080D02*
X127000380Y-67500220D01*
X122499500Y-65999080D02*
X124998860Y-68500980D01*
X122999880Y-65501240D02*
X125499240Y-68000600D01*
X124501020Y-65999080D02*
X125999620Y-67500220D01*
X121699400Y-77799920D02*
X121699400Y-78399360D01*
X123200540Y-76700100D02*
X122400440Y-79999560D01*
X122400440Y-79999560D02*
X122199780Y-79999560D01*
X122199780Y-79999560D02*
X121801000Y-78600020D01*
X121801000Y-78600020D02*
X121699400Y-78600020D01*
X121699400Y-78600020D02*
X121199020Y-79999560D01*
X121199020Y-79999560D02*
X121099960Y-79999560D01*
X121099960Y-79999560D02*
X120299860Y-76799160D01*
X120299860Y-76799160D02*
X120500520Y-76799160D01*
X120500520Y-76799160D02*
X121199020Y-79400120D01*
X121199020Y-79400120D02*
X121600340Y-77599260D01*
X121600340Y-77599260D02*
X121801000Y-77599260D01*
X121801000Y-77599260D02*
X122400440Y-79400120D01*
X122400440Y-79400120D02*
X122999880Y-76700100D01*
X122999880Y-76700100D02*
X123200540Y-76700100D01*
X125900560Y-78201240D02*
X124399420Y-78201240D01*
X124399420Y-78201240D02*
X124399420Y-78399360D01*
X124399420Y-78399360D02*
X125798960Y-78399360D01*
X124300360Y-76799160D02*
X124300360Y-79999560D01*
X124300360Y-79999560D02*
X124099700Y-79999560D01*
X124099700Y-79999560D02*
X124099700Y-76799160D01*
X124099700Y-76799160D02*
X124300360Y-76799160D01*
X125798960Y-76700100D02*
X125900560Y-76700100D01*
X125999620Y-76700100D02*
X125999620Y-79999560D01*
X125999620Y-79999560D02*
X125798960Y-79999560D01*
X125798960Y-79999560D02*
X125798960Y-76700100D01*
X126898780Y-76999820D02*
X127000380Y-76900760D01*
X127000380Y-76900760D02*
X127399160Y-76799160D01*
X127399160Y-76799160D02*
X127899540Y-76700100D01*
X127899540Y-76700100D02*
X128600580Y-76900760D01*
X128600580Y-76900760D02*
X128900300Y-77200480D01*
X128900300Y-77200480D02*
X128999360Y-77700860D01*
X128999360Y-77700860D02*
X128900300Y-78099640D01*
X128900300Y-78099640D02*
X128498980Y-78399360D01*
X128498980Y-78399360D02*
X128001140Y-78600020D01*
X128001140Y-78600020D02*
X127599820Y-78699080D01*
X127599820Y-78699080D02*
X127399160Y-78899740D01*
X127399160Y-78899740D02*
X127300100Y-79199460D01*
X127300100Y-79199460D02*
X127399160Y-79499180D01*
X127399160Y-79499180D02*
X127698880Y-79699840D01*
X127698880Y-79699840D02*
X128100200Y-79699840D01*
X128100200Y-79699840D02*
X128600580Y-79699840D01*
X128600580Y-79699840D02*
X128900300Y-79600780D01*
X128900300Y-79600780D02*
X129100960Y-79699840D01*
X129100960Y-79699840D02*
X128801240Y-79900500D01*
X128801240Y-79900500D02*
X128199260Y-79999560D01*
X128199260Y-79999560D02*
X127599820Y-79999560D01*
X127599820Y-79999560D02*
X127201040Y-79699840D01*
X127201040Y-79699840D02*
X127099440Y-79199460D01*
X127099440Y-79199460D02*
X127099440Y-78899740D01*
X127099440Y-78899740D02*
X127300100Y-78600020D01*
X127300100Y-78600020D02*
X127800480Y-78399360D01*
X127800480Y-78399360D02*
X128300860Y-78201240D01*
X128300860Y-78201240D02*
X128699640Y-77898980D01*
X128699640Y-77898980D02*
X128801240Y-77599260D01*
X128801240Y-77599260D02*
X128600580Y-77299540D01*
X128600580Y-77299540D02*
X128199260Y-76999820D01*
X128199260Y-76999820D02*
X127599820Y-76999820D01*
X127599820Y-76999820D02*
X127201040Y-77098880D01*
X127201040Y-77098880D02*
X126898780Y-77200480D01*
X131000880Y-77098880D02*
X131300600Y-77098880D01*
X131300600Y-77098880D02*
X131699380Y-77401140D01*
X131699380Y-77401140D02*
X131800980Y-77898980D01*
X131800980Y-77898980D02*
X131800980Y-78699080D01*
X131800980Y-78699080D02*
X131699380Y-79199460D01*
X131699380Y-79199460D02*
X131501260Y-79499180D01*
X131501260Y-79499180D02*
X131099940Y-79699840D01*
X131099940Y-79699840D02*
X130701160Y-79699840D01*
X130701160Y-79699840D02*
X130299840Y-79400120D01*
X130299840Y-79400120D02*
X130099180Y-78699080D01*
X130099180Y-78699080D02*
X130099180Y-77898980D01*
X130099180Y-77898980D02*
X130299840Y-77500200D01*
X130299840Y-77500200D02*
X130500500Y-77299540D01*
X130500500Y-77299540D02*
X130899280Y-77098880D01*
X131000880Y-76799160D02*
X131399660Y-76900760D01*
X131399660Y-76900760D02*
X131699380Y-76999820D01*
X131699380Y-76999820D02*
X131999100Y-77500200D01*
X131999100Y-77500200D02*
X132100700Y-78099640D01*
X132100700Y-78099640D02*
X131999100Y-79199460D01*
X131999100Y-79199460D02*
X131699380Y-79798900D01*
X131699380Y-79798900D02*
X131099940Y-79999560D01*
X131099940Y-79999560D02*
X130398900Y-79900500D01*
X130398900Y-79900500D02*
X130000120Y-79301060D01*
X130000120Y-79301060D02*
X129901060Y-78600020D01*
X129901060Y-78600020D02*
X129901060Y-77898980D01*
X129901060Y-77898980D02*
X130099180Y-77299540D01*
X130099180Y-77299540D02*
X130500500Y-76900760D01*
X130500500Y-76900760D02*
X131000880Y-76799160D01*
X127599820Y-71701380D02*
X128100200Y-71300060D01*
X128100200Y-71300060D02*
X128498980Y-70799680D01*
X128498980Y-70799680D02*
X128699640Y-70299300D01*
X128699640Y-70299300D02*
X128699640Y-69600800D01*
X128699640Y-69600800D02*
X128598040Y-69001360D01*
X128598040Y-69001360D02*
X128199260Y-68399380D01*
X128199260Y-68399380D02*
X127399160Y-67799940D01*
X127399160Y-67799940D02*
X126599060Y-67700880D01*
X126599060Y-67700880D02*
X125898020Y-67700880D01*
X125898020Y-67700880D02*
X125199520Y-68201260D01*
X125199520Y-68201260D02*
X124699140Y-68899760D01*
X124699140Y-68899760D02*
X124498480Y-69499200D01*
X124498480Y-69499200D02*
X124498480Y-70200240D01*
X124498480Y-70200240D02*
X124798200Y-71000340D01*
X124798200Y-71000340D02*
X125298580Y-71500720D01*
X125298580Y-71500720D02*
X125598300Y-71701380D01*
X125598300Y-71800440D02*
X124849000Y-74050880D01*
X124849000Y-74050880D02*
X123998100Y-73601300D01*
X123998100Y-73601300D02*
X122700160Y-74599520D01*
X122700160Y-74599520D02*
X121699400Y-73499700D01*
X121699400Y-73499700D02*
X122598560Y-72199220D01*
X122598560Y-72199220D02*
X122098180Y-70901280D01*
X122098180Y-70901280D02*
X122098180Y-70700620D01*
X122098180Y-70700620D02*
X120497980Y-70400900D01*
X120497980Y-70400900D02*
X120497980Y-68899760D01*
X120497980Y-68899760D02*
X122098180Y-68701640D01*
X122098180Y-68701640D02*
X122700160Y-67299560D01*
X122700160Y-67299560D02*
X121798460Y-65900020D01*
X121798460Y-65900020D02*
X122898280Y-64899260D01*
X122898280Y-64899260D02*
X124198760Y-65800960D01*
X124198760Y-65800960D02*
X125400180Y-65300580D01*
X125400180Y-65300580D02*
X125798960Y-63700380D01*
X125798960Y-63700380D02*
X127300100Y-63700380D01*
X127300100Y-63700380D02*
X127599820Y-65300580D01*
X127599820Y-65300580D02*
X128900300Y-65800960D01*
X128900300Y-65800960D02*
X130299840Y-64800200D01*
X130299840Y-64800200D02*
X131399660Y-65900020D01*
X131399660Y-65900020D02*
X130398900Y-67200500D01*
X130398900Y-67200500D02*
X131099940Y-68701640D01*
X131099940Y-68701640D02*
X132700140Y-68899760D01*
X132700140Y-68899760D02*
X132799200Y-70299300D01*
X132799200Y-70299300D02*
X131199000Y-70601560D01*
X131199000Y-70601560D02*
X130599560Y-72199220D01*
X130599560Y-72199220D02*
X131498720Y-73499700D01*
X131498720Y-73499700D02*
X130497960Y-74599520D01*
X130497960Y-74599520D02*
X129200020Y-73700360D01*
X129200020Y-73700360D02*
X128498980Y-74000080D01*
X128498980Y-74000080D02*
X127599820Y-71701380D01*
X143400000Y-64656660D02*
X143400000Y-62624660D01*
X143400000Y-82944660D02*
X143400000Y-84468660D01*
X139590000Y-64910660D02*
X147210000Y-64910660D01*
X147210000Y-64910660D02*
X147210000Y-82690660D01*
X147210000Y-82690660D02*
X139590000Y-82690660D01*
X139590000Y-82690660D02*
X139590000Y-64910660D01*
X149799140Y-53398860D02*
X150500180Y-53398860D01*
X150500180Y-53398860D02*
X150500180Y-52598760D01*
X149799140Y-57201240D02*
X149799140Y-52598760D01*
X149799140Y-52598760D02*
X153400860Y-52598760D01*
X153400860Y-52598760D02*
X153400860Y-57201240D01*
X153400860Y-57201240D02*
X149799140Y-57201240D01*
X138101821Y-73433334D02*
X137625630Y-73100000D01*
X138101821Y-72861905D02*
X137101821Y-72861905D01*
X137101821Y-73242858D01*
X137149440Y-73338096D01*
X137197059Y-73385715D01*
X137292297Y-73433334D01*
X137435154Y-73433334D01*
X137530392Y-73385715D01*
X137578011Y-73338096D01*
X137625630Y-73242858D01*
X137625630Y-72861905D01*
X137101821Y-74338096D02*
X137101821Y-73861905D01*
X137578011Y-73814286D01*
X137530392Y-73861905D01*
X137482773Y-73957143D01*
X137482773Y-74195239D01*
X137530392Y-74290477D01*
X137578011Y-74338096D01*
X137673250Y-74385715D01*
X137911345Y-74385715D01*
X138006583Y-74338096D01*
X138054202Y-74290477D01*
X138101821Y-74195239D01*
X138101821Y-73957143D01*
X138054202Y-73861905D01*
X138006583Y-73814286D01*
X147242381Y-54138095D02*
X148051905Y-54138095D01*
X148147143Y-54185714D01*
X148194762Y-54233333D01*
X148242381Y-54328571D01*
X148242381Y-54519048D01*
X148194762Y-54614286D01*
X148147143Y-54661905D01*
X148051905Y-54709524D01*
X147242381Y-54709524D01*
X147337619Y-55138095D02*
X147290000Y-55185714D01*
X147242381Y-55280952D01*
X147242381Y-55519048D01*
X147290000Y-55614286D01*
X147337619Y-55661905D01*
X147432857Y-55709524D01*
X147528095Y-55709524D01*
X147670952Y-55661905D01*
X148242381Y-55090476D01*
X148242381Y-55709524D01*
M02*
