%FSLAX46Y46*%
G04 Gerber Fmt 4.6, Leading zero omitted, Abs format (unit mm)*
G04 Created by KiCad (PCBNEW (2014-09-02 BZR 5112)-product) date jeu. 26 mars 2015 23:29:14 CET*
%MOMM*%
G01*
G04 APERTURE LIST*
%ADD10C,0.150000*%
%ADD11C,0.250000*%
%ADD12C,0.300000*%
%ADD13C,0.200000*%
%ADD14C,0.203200*%
%ADD15C,0.381000*%
%ADD16C,0.254000*%
%ADD17C,0.152400*%
%ADD18C,0.127000*%
%ADD19C,0.100000*%
G04 APERTURE END LIST*
D10*
D11*
X117552381Y-84152381D02*
X118171429Y-84152381D01*
X117838095Y-84533333D01*
X117980953Y-84533333D01*
X118076191Y-84580952D01*
X118123810Y-84628571D01*
X118171429Y-84723810D01*
X118171429Y-84961905D01*
X118123810Y-85057143D01*
X118076191Y-85104762D01*
X117980953Y-85152381D01*
X117695238Y-85152381D01*
X117600000Y-85104762D01*
X117552381Y-85057143D01*
X118600000Y-85057143D02*
X118647619Y-85104762D01*
X118600000Y-85152381D01*
X118552381Y-85104762D01*
X118600000Y-85057143D01*
X118600000Y-85152381D01*
X118980952Y-84152381D02*
X119600000Y-84152381D01*
X119266666Y-84533333D01*
X119409524Y-84533333D01*
X119504762Y-84580952D01*
X119552381Y-84628571D01*
X119600000Y-84723810D01*
X119600000Y-84961905D01*
X119552381Y-85057143D01*
X119504762Y-85104762D01*
X119409524Y-85152381D01*
X119123809Y-85152381D01*
X119028571Y-85104762D01*
X118980952Y-85057143D01*
X116438096Y-84152381D02*
X115961905Y-84152381D01*
X115914286Y-84628571D01*
X115961905Y-84580952D01*
X116057143Y-84533333D01*
X116295239Y-84533333D01*
X116390477Y-84580952D01*
X116438096Y-84628571D01*
X116485715Y-84723810D01*
X116485715Y-84961905D01*
X116438096Y-85057143D01*
X116390477Y-85104762D01*
X116295239Y-85152381D01*
X116057143Y-85152381D01*
X115961905Y-85104762D01*
X115914286Y-85057143D01*
X113409524Y-85152381D02*
X112838095Y-85152381D01*
X113123809Y-85152381D02*
X113123809Y-84152381D01*
X113028571Y-84295238D01*
X112933333Y-84390476D01*
X112838095Y-84438095D01*
X113790476Y-84247619D02*
X113838095Y-84200000D01*
X113933333Y-84152381D01*
X114171429Y-84152381D01*
X114266667Y-84200000D01*
X114314286Y-84247619D01*
X114361905Y-84342857D01*
X114361905Y-84438095D01*
X114314286Y-84580952D01*
X113742857Y-85152381D01*
X114361905Y-85152381D01*
X110666667Y-84252381D02*
X111000000Y-85252381D01*
X111333334Y-84252381D01*
X108861905Y-84200000D02*
X108766667Y-84152381D01*
X108623810Y-84152381D01*
X108480952Y-84200000D01*
X108385714Y-84295238D01*
X108338095Y-84390476D01*
X108290476Y-84580952D01*
X108290476Y-84723810D01*
X108338095Y-84914286D01*
X108385714Y-85009524D01*
X108480952Y-85104762D01*
X108623810Y-85152381D01*
X108719048Y-85152381D01*
X108861905Y-85104762D01*
X108909524Y-85057143D01*
X108909524Y-84723810D01*
X108719048Y-84723810D01*
X141952381Y-71523810D02*
X141904762Y-71619048D01*
X141857143Y-71666667D01*
X141761905Y-71714286D01*
X141476190Y-71714286D01*
X141380952Y-71666667D01*
X141333333Y-71619048D01*
X141285714Y-71523810D01*
X141285714Y-71380952D01*
X141333333Y-71285714D01*
X141380952Y-71238095D01*
X141476190Y-71190476D01*
X141761905Y-71190476D01*
X141857143Y-71238095D01*
X141904762Y-71285714D01*
X141952381Y-71380952D01*
X141952381Y-71523810D01*
X141285714Y-70761905D02*
X141952381Y-70761905D01*
X141380952Y-70761905D02*
X141333333Y-70714286D01*
X141285714Y-70619048D01*
X141285714Y-70476190D01*
X141333333Y-70380952D01*
X141428571Y-70333333D01*
X141952381Y-70333333D01*
X139285714Y-73928572D02*
X140285714Y-73928572D01*
X139333333Y-73928572D02*
X139285714Y-73833334D01*
X139285714Y-73642857D01*
X139333333Y-73547619D01*
X139380952Y-73500000D01*
X139476190Y-73452381D01*
X139761905Y-73452381D01*
X139857143Y-73500000D01*
X139904762Y-73547619D01*
X139952381Y-73642857D01*
X139952381Y-73833334D01*
X139904762Y-73928572D01*
X139952381Y-72880953D02*
X139904762Y-72976191D01*
X139857143Y-73023810D01*
X139761905Y-73071429D01*
X139476190Y-73071429D01*
X139380952Y-73023810D01*
X139333333Y-72976191D01*
X139285714Y-72880953D01*
X139285714Y-72738095D01*
X139333333Y-72642857D01*
X139380952Y-72595238D01*
X139476190Y-72547619D01*
X139761905Y-72547619D01*
X139857143Y-72595238D01*
X139904762Y-72642857D01*
X139952381Y-72738095D01*
X139952381Y-72880953D01*
X139285714Y-72214286D02*
X139952381Y-72023810D01*
X139476190Y-71833333D01*
X139952381Y-71642857D01*
X139285714Y-71452381D01*
X139904762Y-70690476D02*
X139952381Y-70785714D01*
X139952381Y-70976191D01*
X139904762Y-71071429D01*
X139809524Y-71119048D01*
X139428571Y-71119048D01*
X139333333Y-71071429D01*
X139285714Y-70976191D01*
X139285714Y-70785714D01*
X139333333Y-70690476D01*
X139428571Y-70642857D01*
X139523810Y-70642857D01*
X139619048Y-71119048D01*
X139952381Y-70214286D02*
X139285714Y-70214286D01*
X139476190Y-70214286D02*
X139380952Y-70166667D01*
X139333333Y-70119048D01*
X139285714Y-70023810D01*
X139285714Y-69928571D01*
D12*
X153361905Y-58204762D02*
X153742857Y-58204762D01*
X153933333Y-58300000D01*
X154123810Y-58490476D01*
X154219048Y-58871429D01*
X154219048Y-59538095D01*
X154123810Y-59919048D01*
X153933333Y-60109524D01*
X153742857Y-60204762D01*
X153361905Y-60204762D01*
X153171429Y-60109524D01*
X152980952Y-59919048D01*
X152885714Y-59538095D01*
X152885714Y-58871429D01*
X152980952Y-58490476D01*
X153171429Y-58300000D01*
X153361905Y-58204762D01*
X155076190Y-60204762D02*
X155076190Y-58204762D01*
X156219048Y-60204762D01*
X156219048Y-58204762D01*
D13*
X115900000Y-61200000D02*
X115400000Y-61700000D01*
X115400000Y-60700000D02*
X115900000Y-61200000D01*
X115900000Y-61200000D02*
X115400000Y-60700000D01*
X111800000Y-61200000D02*
X115900000Y-61200000D01*
X111603330Y-61200000D02*
G75*
G03X111603330Y-61200000I-1503330J0D01*
G74*
G01*
D12*
X110100000Y-61914286D02*
X110195239Y-62009524D01*
X110100000Y-62104762D01*
X110004762Y-62009524D01*
X110100000Y-61914286D01*
X110100000Y-62104762D01*
X110100000Y-61342857D02*
X110004762Y-60200000D01*
X110100000Y-60104762D01*
X110195239Y-60200000D01*
X110100000Y-61342857D01*
X110100000Y-60104762D01*
X129400000Y-82423809D02*
X129304762Y-82614286D01*
X129304762Y-82900000D01*
X129400000Y-83185714D01*
X129590476Y-83376190D01*
X129780952Y-83471429D01*
X130161905Y-83566667D01*
X130447619Y-83566667D01*
X130828571Y-83471429D01*
X131019048Y-83376190D01*
X131209524Y-83185714D01*
X131304762Y-82900000D01*
X131304762Y-82709524D01*
X131209524Y-82423809D01*
X131114286Y-82328571D01*
X130447619Y-82328571D01*
X130447619Y-82709524D01*
X131304762Y-81471429D02*
X129304762Y-81471429D01*
X131304762Y-80328571D01*
X129304762Y-80328571D01*
X131304762Y-79376191D02*
X129304762Y-79376191D01*
X129304762Y-78900000D01*
X129400000Y-78614286D01*
X129590476Y-78423810D01*
X129780952Y-78328571D01*
X130161905Y-78233333D01*
X130447619Y-78233333D01*
X130828571Y-78328571D01*
X131019048Y-78423810D01*
X131209524Y-78614286D01*
X131304762Y-78900000D01*
X131304762Y-79376191D01*
X131604762Y-89680953D02*
X131604762Y-90633334D01*
X132557143Y-90728572D01*
X132461905Y-90633334D01*
X132366667Y-90442857D01*
X132366667Y-89966667D01*
X132461905Y-89776191D01*
X132557143Y-89680953D01*
X132747619Y-89585714D01*
X133223810Y-89585714D01*
X133414286Y-89680953D01*
X133509524Y-89776191D01*
X133604762Y-89966667D01*
X133604762Y-90442857D01*
X133509524Y-90633334D01*
X133414286Y-90728572D01*
X131604762Y-89014286D02*
X133604762Y-88347619D01*
X131604762Y-87680952D01*
X143604762Y-92376191D02*
X143604762Y-91138095D01*
X144366667Y-91804762D01*
X144366667Y-91519048D01*
X144461905Y-91328572D01*
X144557143Y-91233334D01*
X144747619Y-91138095D01*
X145223810Y-91138095D01*
X145414286Y-91233334D01*
X145509524Y-91328572D01*
X145604762Y-91519048D01*
X145604762Y-92090476D01*
X145509524Y-92280953D01*
X145414286Y-92376191D01*
X143604762Y-90566667D02*
X145604762Y-89900000D01*
X143604762Y-89233333D01*
X143604762Y-88757143D02*
X143604762Y-87519047D01*
X144366667Y-88185714D01*
X144366667Y-87900000D01*
X144461905Y-87709524D01*
X144557143Y-87614286D01*
X144747619Y-87519047D01*
X145223810Y-87519047D01*
X145414286Y-87614286D01*
X145509524Y-87709524D01*
X145604762Y-87900000D01*
X145604762Y-88471428D01*
X145509524Y-88661905D01*
X145414286Y-88757143D01*
X120404762Y-91938095D02*
X120404762Y-93080953D01*
X120404762Y-92509524D02*
X118404762Y-92509524D01*
X118690476Y-92700000D01*
X118880952Y-92890476D01*
X118976190Y-93080953D01*
X118595238Y-91176191D02*
X118500000Y-91080953D01*
X118404762Y-90890476D01*
X118404762Y-90414286D01*
X118500000Y-90223810D01*
X118595238Y-90128572D01*
X118785714Y-90033333D01*
X118976190Y-90033333D01*
X119261905Y-90128572D01*
X120404762Y-91271429D01*
X120404762Y-90033333D01*
X118404762Y-89461905D02*
X120404762Y-88795238D01*
X118404762Y-88128571D01*
X107004762Y-90923810D02*
X109004762Y-90257143D01*
X107004762Y-89590476D01*
X108433333Y-89019048D02*
X108433333Y-88066667D01*
X109004762Y-89209524D02*
X107004762Y-88542857D01*
X109004762Y-87876190D01*
X109004762Y-86066666D02*
X108052381Y-86733333D01*
X109004762Y-87209524D02*
X107004762Y-87209524D01*
X107004762Y-86447619D01*
X107100000Y-86257143D01*
X107195238Y-86161904D01*
X107385714Y-86066666D01*
X107671429Y-86066666D01*
X107861905Y-86161904D01*
X107957143Y-86257143D01*
X108052381Y-86447619D01*
X108052381Y-87209524D01*
D14*
X127077000Y-65322000D02*
X127077000Y-68878000D01*
X127077000Y-68878000D02*
X120523000Y-68878000D01*
X120523000Y-68878000D02*
X120523000Y-65322000D01*
X120523000Y-65322000D02*
X127077000Y-65322000D01*
D15*
X130499260Y-59600600D02*
X130499260Y-61000140D01*
X130499260Y-61000140D02*
X127100740Y-61000140D01*
X127100740Y-61000140D02*
X127100740Y-59600600D01*
X128800000Y-49999400D02*
X150400160Y-49999400D01*
X150400160Y-49999400D02*
X150400160Y-59600600D01*
X150400160Y-59600600D02*
X107199840Y-59600600D01*
X107199840Y-59600600D02*
X107199840Y-49999400D01*
X107199840Y-49999400D02*
X128800000Y-49999400D01*
D10*
X110600000Y-62599520D02*
X117300520Y-62599520D01*
X117300520Y-62599520D02*
X117300520Y-64199720D01*
X106800160Y-79099360D02*
X106800160Y-80597960D01*
X106800160Y-80597960D02*
X117300520Y-80597960D01*
X117300520Y-80597960D02*
X117300520Y-79099360D01*
X106800160Y-65599260D02*
X104801180Y-65599260D01*
X104801180Y-65599260D02*
X104801180Y-62599520D01*
X104801180Y-62599520D02*
X110600000Y-62599520D01*
X110600000Y-62599520D02*
X110600000Y-64098120D01*
X101798900Y-74598480D02*
X91798920Y-74598480D01*
X91798920Y-74598480D02*
X91798920Y-68599000D01*
X91798920Y-68599000D02*
X101798900Y-68599000D01*
X106800160Y-75098860D02*
X101798900Y-75098860D01*
X101798900Y-75098860D02*
X101798900Y-68098620D01*
X101798900Y-68098620D02*
X106800160Y-68098620D01*
X106800160Y-79099360D02*
X117300520Y-79099360D01*
X117300520Y-79099360D02*
X117300520Y-64098120D01*
X117300520Y-64098120D02*
X106800160Y-64098120D01*
X106800160Y-64098120D02*
X106800160Y-79099360D01*
X130200380Y-71150240D02*
X130898880Y-71150240D01*
X129199620Y-71150240D02*
X128501120Y-71150240D01*
X130200380Y-69849760D02*
X130898880Y-69849760D01*
X128501120Y-69849760D02*
X129199620Y-69849760D01*
X130898880Y-69865000D02*
X130898880Y-71135000D01*
X128501120Y-71135000D02*
X128501120Y-69865000D01*
X119789000Y-68751000D02*
G75*
G03X119789000Y-68751000I-127000J0D01*
G74*
G01*
X119662000Y-67608000D02*
X119662000Y-68624000D01*
X119662000Y-68624000D02*
X118138000Y-68624000D01*
X118138000Y-68624000D02*
X118138000Y-67608000D01*
X118138000Y-66592000D02*
X118138000Y-65576000D01*
X118138000Y-65576000D02*
X119662000Y-65576000D01*
X119662000Y-65576000D02*
X119662000Y-66592000D01*
X127076000Y-64462000D02*
G75*
G03X127076000Y-64462000I-127000J0D01*
G74*
G01*
X128092000Y-64462000D02*
X127076000Y-64462000D01*
X127076000Y-64462000D02*
X127076000Y-62938000D01*
X127076000Y-62938000D02*
X128092000Y-62938000D01*
X129108000Y-62938000D02*
X130124000Y-62938000D01*
X130124000Y-62938000D02*
X130124000Y-64462000D01*
X130124000Y-64462000D02*
X129108000Y-64462000D01*
X139949580Y-65749580D02*
X139050420Y-65749580D01*
X139050420Y-65749580D02*
X139050420Y-66148360D01*
X139949580Y-66148360D02*
X139050420Y-66148360D01*
X139949580Y-65749580D02*
X139949580Y-66148360D01*
X139949580Y-64451640D02*
X139050420Y-64451640D01*
X139050420Y-64451640D02*
X139050420Y-64850420D01*
X139949580Y-64850420D02*
X139050420Y-64850420D01*
X139949580Y-64451640D02*
X139949580Y-64850420D01*
X139949580Y-65300000D02*
X139799720Y-65300000D01*
X139799720Y-65300000D02*
X139799720Y-65599720D01*
X139949580Y-65599720D02*
X139799720Y-65599720D01*
X139949580Y-65300000D02*
X139949580Y-65599720D01*
X139200280Y-65300000D02*
X139050420Y-65300000D01*
X139050420Y-65300000D02*
X139050420Y-65599720D01*
X139200280Y-65599720D02*
X139050420Y-65599720D01*
X139200280Y-65300000D02*
X139200280Y-65599720D01*
X139649860Y-65300000D02*
X139350140Y-65300000D01*
X139350140Y-65300000D02*
X139350140Y-65599720D01*
X139649860Y-65599720D02*
X139350140Y-65599720D01*
X139649860Y-65300000D02*
X139649860Y-65599720D01*
X139898780Y-65749580D02*
X139898780Y-64850420D01*
X139101220Y-65749580D02*
X139101220Y-64850420D01*
X141949580Y-65749580D02*
X141050420Y-65749580D01*
X141050420Y-65749580D02*
X141050420Y-66148360D01*
X141949580Y-66148360D02*
X141050420Y-66148360D01*
X141949580Y-65749580D02*
X141949580Y-66148360D01*
X141949580Y-64451640D02*
X141050420Y-64451640D01*
X141050420Y-64451640D02*
X141050420Y-64850420D01*
X141949580Y-64850420D02*
X141050420Y-64850420D01*
X141949580Y-64451640D02*
X141949580Y-64850420D01*
X141949580Y-65300000D02*
X141799720Y-65300000D01*
X141799720Y-65300000D02*
X141799720Y-65599720D01*
X141949580Y-65599720D02*
X141799720Y-65599720D01*
X141949580Y-65300000D02*
X141949580Y-65599720D01*
X141200280Y-65300000D02*
X141050420Y-65300000D01*
X141050420Y-65300000D02*
X141050420Y-65599720D01*
X141200280Y-65599720D02*
X141050420Y-65599720D01*
X141200280Y-65300000D02*
X141200280Y-65599720D01*
X141649860Y-65300000D02*
X141350140Y-65300000D01*
X141350140Y-65300000D02*
X141350140Y-65599720D01*
X141649860Y-65599720D02*
X141350140Y-65599720D01*
X141649860Y-65300000D02*
X141649860Y-65599720D01*
X141898780Y-65749580D02*
X141898780Y-64850420D01*
X141101220Y-65749580D02*
X141101220Y-64850420D01*
X147943000Y-82460000D02*
X145657000Y-82460000D01*
X145657000Y-82460000D02*
X145657000Y-84111000D01*
X147943000Y-85889000D02*
X147943000Y-87540000D01*
X147943000Y-87540000D02*
X145657000Y-87540000D01*
X145657000Y-87540000D02*
X145657000Y-85889000D01*
X147943000Y-84111000D02*
X147943000Y-82460000D01*
X148860000Y-85357000D02*
X148860000Y-87643000D01*
X148860000Y-87643000D02*
X150511000Y-87643000D01*
X152289000Y-85357000D02*
X153940000Y-85357000D01*
X153940000Y-85357000D02*
X153940000Y-87643000D01*
X153940000Y-87643000D02*
X152289000Y-87643000D01*
X150511000Y-85357000D02*
X148860000Y-85357000D01*
X138825000Y-69100000D02*
X138825000Y-68100000D01*
X140175000Y-68100000D02*
X140175000Y-69100000D01*
X140825000Y-69100000D02*
X140825000Y-68100000D01*
X142175000Y-68100000D02*
X142175000Y-69100000D01*
X120400000Y-74825000D02*
X121400000Y-74825000D01*
X121400000Y-76175000D02*
X120400000Y-76175000D01*
X128843000Y-82060000D02*
X126557000Y-82060000D01*
X126557000Y-82060000D02*
X126557000Y-83711000D01*
X128843000Y-85489000D02*
X128843000Y-87140000D01*
X128843000Y-87140000D02*
X126557000Y-87140000D01*
X126557000Y-87140000D02*
X126557000Y-85489000D01*
X128843000Y-83711000D02*
X128843000Y-82060000D01*
X117840000Y-87443000D02*
X117840000Y-85157000D01*
X117840000Y-85157000D02*
X116189000Y-85157000D01*
X114411000Y-87443000D02*
X112760000Y-87443000D01*
X112760000Y-87443000D02*
X112760000Y-85157000D01*
X112760000Y-85157000D02*
X114411000Y-85157000D01*
X116189000Y-87443000D02*
X117840000Y-87443000D01*
X136168780Y-74189860D02*
X136529460Y-75660520D01*
X136529460Y-75660520D02*
X136808860Y-74598800D01*
X136808860Y-74598800D02*
X137118740Y-75670680D01*
X137118740Y-75670680D02*
X137459100Y-74220340D01*
X134748920Y-74880740D02*
X135538860Y-74870580D01*
X135538860Y-74870580D02*
X135549020Y-74880740D01*
X135549020Y-74880740D02*
X135549020Y-74870580D01*
X135589660Y-74159380D02*
X135589660Y-75701160D01*
X134700660Y-74149220D02*
X134700660Y-75718940D01*
X134700660Y-75718940D02*
X134710820Y-75708780D01*
X134149480Y-74250820D02*
X133798960Y-74169540D01*
X133798960Y-74169540D02*
X133478920Y-74159380D01*
X133478920Y-74159380D02*
X133240160Y-74360040D01*
X133240160Y-74360040D02*
X133209680Y-74629280D01*
X133209680Y-74629280D02*
X133450980Y-74870580D01*
X133450980Y-74870580D02*
X133839600Y-75000120D01*
X133839600Y-75000120D02*
X134019940Y-75160140D01*
X134019940Y-75160140D02*
X134060580Y-75459860D01*
X134060580Y-75459860D02*
X133829440Y-75680840D01*
X133829440Y-75680840D02*
X133509400Y-75708780D01*
X133509400Y-75708780D02*
X133158880Y-75599560D01*
X132120020Y-74149220D02*
X131871100Y-74169540D01*
X131871100Y-74169540D02*
X131629800Y-74410840D01*
X131629800Y-74410840D02*
X131540900Y-74901060D01*
X131540900Y-74901060D02*
X131568840Y-75249040D01*
X131568840Y-75249040D02*
X131769500Y-75569080D01*
X131769500Y-75569080D02*
X132020960Y-75691000D01*
X132020960Y-75691000D02*
X132330840Y-75619880D01*
X132330840Y-75619880D02*
X132549280Y-75439540D01*
X132549280Y-75439540D02*
X132620400Y-74979800D01*
X132620400Y-74979800D02*
X132569600Y-74570860D01*
X132569600Y-74570860D02*
X132460380Y-74288920D01*
X132460380Y-74288920D02*
X132099700Y-74159380D01*
X132719460Y-72429640D02*
X132460380Y-72990980D01*
X132460380Y-72990980D02*
X132998860Y-73509140D01*
X132998860Y-73509140D02*
X133519560Y-73239900D01*
X133519560Y-73239900D02*
X133798960Y-73399920D01*
X135239140Y-73379600D02*
X135569340Y-73189100D01*
X135569340Y-73189100D02*
X136008760Y-73519300D01*
X136008760Y-73519300D02*
X136481200Y-73029080D01*
X136481200Y-73029080D02*
X136199260Y-72549020D01*
X136199260Y-72549020D02*
X136389760Y-72079120D01*
X136389760Y-72079120D02*
X136999360Y-71891160D01*
X136999360Y-71891160D02*
X136999360Y-71210440D01*
X136999360Y-71210440D02*
X136440560Y-71070740D01*
X136440560Y-71070740D02*
X136239900Y-70499240D01*
X136239900Y-70499240D02*
X136509140Y-70029340D01*
X136509140Y-70029340D02*
X136039240Y-69518800D01*
X136039240Y-69518800D02*
X135521080Y-69780420D01*
X135521080Y-69780420D02*
X135051180Y-69579760D01*
X135051180Y-69579760D02*
X134881000Y-69038740D01*
X134881000Y-69038740D02*
X134190120Y-69020960D01*
X134190120Y-69020960D02*
X133979300Y-69569600D01*
X133979300Y-69569600D02*
X133560200Y-69739780D01*
X133560200Y-69739780D02*
X133009020Y-69470540D01*
X133009020Y-69470540D02*
X132490860Y-69998860D01*
X132490860Y-69998860D02*
X132739780Y-70539880D01*
X132739780Y-70539880D02*
X132569600Y-71019940D01*
X132569600Y-71019940D02*
X132020960Y-71119000D01*
X132020960Y-71119000D02*
X132010800Y-71820040D01*
X132010800Y-71820040D02*
X132569600Y-72020700D01*
X132569600Y-72020700D02*
X132709300Y-72419480D01*
X134850520Y-72399160D02*
X135150240Y-72249300D01*
X135150240Y-72249300D02*
X135350900Y-72051180D01*
X135350900Y-72051180D02*
X135500760Y-71649860D01*
X135500760Y-71649860D02*
X135500760Y-71251080D01*
X135500760Y-71251080D02*
X135350900Y-70900560D01*
X135350900Y-70900560D02*
X134898780Y-70550040D01*
X134898780Y-70550040D02*
X134449200Y-70499240D01*
X134449200Y-70499240D02*
X134050420Y-70600840D01*
X134050420Y-70600840D02*
X133649100Y-70948820D01*
X133649100Y-70948820D02*
X133499240Y-71400940D01*
X133499240Y-71400940D02*
X133550040Y-71898780D01*
X133550040Y-71898780D02*
X133798960Y-72201040D01*
X133798960Y-72201040D02*
X134149480Y-72399160D01*
X134149480Y-72399160D02*
X133798960Y-73399920D01*
X134850520Y-72399160D02*
X135249300Y-73399920D01*
X147800000Y-61500000D02*
X156800000Y-61500000D01*
X156800000Y-61500000D02*
X156800000Y-64900000D01*
X156800000Y-64900000D02*
X147800000Y-64900000D01*
X147800000Y-64900000D02*
X147800000Y-61500000D01*
D16*
X164390000Y-82400000D02*
X164390000Y-67600000D01*
D17*
X162920000Y-71190000D02*
X157070000Y-69920000D01*
D16*
X164390000Y-67600000D02*
X150090000Y-67600000D01*
X150090000Y-67600000D02*
X150090000Y-82400000D01*
X150090000Y-82400000D02*
X164390000Y-82400000D01*
D17*
X157070000Y-80080000D02*
X162920000Y-78810000D01*
X162920000Y-78810000D02*
X162920000Y-77540000D01*
X162920000Y-77540000D02*
X157070000Y-76270000D01*
X157070000Y-73730000D02*
X162920000Y-72460000D01*
X162920000Y-72460000D02*
X162920000Y-71190000D01*
D18*
G36*
X121619000Y-85438000D02*
X122508000Y-86200000D01*
X121619000Y-86962000D01*
X121619000Y-85438000D01*
X121619000Y-85438000D01*
G37*
X121619000Y-85438000D02*
X122508000Y-86200000D01*
X121619000Y-86962000D01*
X121619000Y-85438000D01*
X119855000Y-84850000D02*
X124145000Y-84850000D01*
X124145000Y-84850000D02*
X124145000Y-87550000D01*
X124145000Y-87550000D02*
X119855000Y-87550000D01*
X119855000Y-87550000D02*
X119855000Y-84850000D01*
G36*
X121519000Y-77238000D02*
X122408000Y-78000000D01*
X121519000Y-78762000D01*
X121519000Y-77238000D01*
X121519000Y-77238000D01*
G37*
X121519000Y-77238000D02*
X122408000Y-78000000D01*
X121519000Y-78762000D01*
X121519000Y-77238000D01*
X119755000Y-76650000D02*
X124045000Y-76650000D01*
X124045000Y-76650000D02*
X124045000Y-79350000D01*
X124045000Y-79350000D02*
X119755000Y-79350000D01*
X119755000Y-79350000D02*
X119755000Y-76650000D01*
D10*
X108500000Y-84250000D02*
X106950000Y-84250000D01*
X106950000Y-84250000D02*
X106950000Y-81150000D01*
X106950000Y-81150000D02*
X108500000Y-81150000D01*
X109770000Y-81430000D02*
X119930000Y-81430000D01*
X119930000Y-81430000D02*
X119930000Y-83970000D01*
X119930000Y-83970000D02*
X109770000Y-83970000D01*
X109770000Y-81430000D02*
X109770000Y-83970000D01*
X156670000Y-54930000D02*
X156670000Y-49850000D01*
X156670000Y-49850000D02*
X154130000Y-49850000D01*
X154130000Y-49850000D02*
X154130000Y-54930000D01*
X153850000Y-57750000D02*
X153850000Y-56200000D01*
X154130000Y-54930000D02*
X156670000Y-54930000D01*
X156950000Y-56200000D02*
X156950000Y-57750000D01*
X156950000Y-57750000D02*
X153850000Y-57750000D01*
X152225000Y-55400000D02*
X152225000Y-54400000D01*
X153575000Y-54400000D02*
X153575000Y-55400000D01*
D19*
X123641310Y-61868238D02*
X123641310Y-62374190D01*
X123671071Y-62433714D01*
X123700833Y-62463476D01*
X123760357Y-62493238D01*
X123879405Y-62493238D01*
X123938929Y-62463476D01*
X123968690Y-62433714D01*
X123998452Y-62374190D01*
X123998452Y-61868238D01*
X124623452Y-62493238D02*
X124266310Y-62493238D01*
X124444881Y-62493238D02*
X124444881Y-61868238D01*
X124385357Y-61957524D01*
X124325833Y-62017048D01*
X124266310Y-62046810D01*
D10*
X114104762Y-69352381D02*
X113771428Y-68876190D01*
X113533333Y-69352381D02*
X113533333Y-68352381D01*
X113914286Y-68352381D01*
X114009524Y-68400000D01*
X114057143Y-68447619D01*
X114104762Y-68542857D01*
X114104762Y-68685714D01*
X114057143Y-68780952D01*
X114009524Y-68828571D01*
X113914286Y-68876190D01*
X113533333Y-68876190D01*
X114390476Y-68352381D02*
X114723809Y-69352381D01*
X115057143Y-68352381D01*
X115914286Y-69352381D02*
X115342857Y-69352381D01*
X115628571Y-69352381D02*
X115628571Y-68352381D01*
X115533333Y-68495238D01*
X115438095Y-68590476D01*
X115342857Y-68638095D01*
X129533334Y-72457143D02*
X129485715Y-72504762D01*
X129342858Y-72552381D01*
X129247620Y-72552381D01*
X129104762Y-72504762D01*
X129009524Y-72409524D01*
X128961905Y-72314286D01*
X128914286Y-72123810D01*
X128914286Y-71980952D01*
X128961905Y-71790476D01*
X129009524Y-71695238D01*
X129104762Y-71600000D01*
X129247620Y-71552381D01*
X129342858Y-71552381D01*
X129485715Y-71600000D01*
X129533334Y-71647619D01*
X130485715Y-72552381D02*
X129914286Y-72552381D01*
X130200000Y-72552381D02*
X130200000Y-71552381D01*
X130104762Y-71695238D01*
X130009524Y-71790476D01*
X129914286Y-71838095D01*
X117857143Y-67266666D02*
X117904762Y-67314285D01*
X117952381Y-67457142D01*
X117952381Y-67552380D01*
X117904762Y-67695238D01*
X117809524Y-67790476D01*
X117714286Y-67838095D01*
X117523810Y-67885714D01*
X117380952Y-67885714D01*
X117190476Y-67838095D01*
X117095238Y-67790476D01*
X117000000Y-67695238D01*
X116952381Y-67552380D01*
X116952381Y-67457142D01*
X117000000Y-67314285D01*
X117047619Y-67266666D01*
X117047619Y-66885714D02*
X117000000Y-66838095D01*
X116952381Y-66742857D01*
X116952381Y-66504761D01*
X117000000Y-66409523D01*
X117047619Y-66361904D01*
X117142857Y-66314285D01*
X117238095Y-66314285D01*
X117380952Y-66361904D01*
X117952381Y-66933333D01*
X117952381Y-66314285D01*
X128433334Y-62557143D02*
X128385715Y-62604762D01*
X128242858Y-62652381D01*
X128147620Y-62652381D01*
X128004762Y-62604762D01*
X127909524Y-62509524D01*
X127861905Y-62414286D01*
X127814286Y-62223810D01*
X127814286Y-62080952D01*
X127861905Y-61890476D01*
X127909524Y-61795238D01*
X128004762Y-61700000D01*
X128147620Y-61652381D01*
X128242858Y-61652381D01*
X128385715Y-61700000D01*
X128433334Y-61747619D01*
X128766667Y-61652381D02*
X129385715Y-61652381D01*
X129052381Y-62033333D01*
X129195239Y-62033333D01*
X129290477Y-62080952D01*
X129338096Y-62128571D01*
X129385715Y-62223810D01*
X129385715Y-62461905D01*
X129338096Y-62557143D01*
X129290477Y-62604762D01*
X129195239Y-62652381D01*
X128909524Y-62652381D01*
X128814286Y-62604762D01*
X128766667Y-62557143D01*
X138052381Y-66038095D02*
X137052381Y-66038095D01*
X137052381Y-65800000D01*
X137100000Y-65657142D01*
X137195238Y-65561904D01*
X137290476Y-65514285D01*
X137480952Y-65466666D01*
X137623810Y-65466666D01*
X137814286Y-65514285D01*
X137909524Y-65561904D01*
X138004762Y-65657142D01*
X138052381Y-65800000D01*
X138052381Y-66038095D01*
X138052381Y-64514285D02*
X138052381Y-65085714D01*
X138052381Y-64800000D02*
X137052381Y-64800000D01*
X137195238Y-64895238D01*
X137290476Y-64990476D01*
X137338095Y-65085714D01*
X143852381Y-66538095D02*
X142852381Y-66538095D01*
X142852381Y-66300000D01*
X142900000Y-66157142D01*
X142995238Y-66061904D01*
X143090476Y-66014285D01*
X143280952Y-65966666D01*
X143423810Y-65966666D01*
X143614286Y-66014285D01*
X143709524Y-66061904D01*
X143804762Y-66157142D01*
X143852381Y-66300000D01*
X143852381Y-66538095D01*
X142947619Y-65585714D02*
X142900000Y-65538095D01*
X142852381Y-65442857D01*
X142852381Y-65204761D01*
X142900000Y-65109523D01*
X142947619Y-65061904D01*
X143042857Y-65014285D01*
X143138095Y-65014285D01*
X143280952Y-65061904D01*
X143852381Y-65633333D01*
X143852381Y-65014285D01*
X146728571Y-85333333D02*
X146728571Y-85666667D01*
X147252381Y-85666667D02*
X146252381Y-85666667D01*
X146252381Y-85190476D01*
X146347619Y-84857143D02*
X146300000Y-84809524D01*
X146252381Y-84714286D01*
X146252381Y-84476190D01*
X146300000Y-84380952D01*
X146347619Y-84333333D01*
X146442857Y-84285714D01*
X146538095Y-84285714D01*
X146680952Y-84333333D01*
X147252381Y-84904762D01*
X147252381Y-84285714D01*
X151066667Y-86428571D02*
X150733333Y-86428571D01*
X150733333Y-86952381D02*
X150733333Y-85952381D01*
X151209524Y-85952381D01*
X151495238Y-85952381D02*
X152114286Y-85952381D01*
X151780952Y-86333333D01*
X151923810Y-86333333D01*
X152019048Y-86380952D01*
X152066667Y-86428571D01*
X152114286Y-86523810D01*
X152114286Y-86761905D01*
X152066667Y-86857143D01*
X152019048Y-86904762D01*
X151923810Y-86952381D01*
X151638095Y-86952381D01*
X151542857Y-86904762D01*
X151495238Y-86857143D01*
X138052381Y-68766666D02*
X137576190Y-69100000D01*
X138052381Y-69338095D02*
X137052381Y-69338095D01*
X137052381Y-68957142D01*
X137100000Y-68861904D01*
X137147619Y-68814285D01*
X137242857Y-68766666D01*
X137385714Y-68766666D01*
X137480952Y-68814285D01*
X137528571Y-68861904D01*
X137576190Y-68957142D01*
X137576190Y-69338095D01*
X138052381Y-67814285D02*
X138052381Y-68385714D01*
X138052381Y-68100000D02*
X137052381Y-68100000D01*
X137195238Y-68195238D01*
X137290476Y-68290476D01*
X137338095Y-68385714D01*
X143852381Y-67966666D02*
X143376190Y-68300000D01*
X143852381Y-68538095D02*
X142852381Y-68538095D01*
X142852381Y-68157142D01*
X142900000Y-68061904D01*
X142947619Y-68014285D01*
X143042857Y-67966666D01*
X143185714Y-67966666D01*
X143280952Y-68014285D01*
X143328571Y-68061904D01*
X143376190Y-68157142D01*
X143376190Y-68538095D01*
X142947619Y-67585714D02*
X142900000Y-67538095D01*
X142852381Y-67442857D01*
X142852381Y-67204761D01*
X142900000Y-67109523D01*
X142947619Y-67061904D01*
X143042857Y-67014285D01*
X143138095Y-67014285D01*
X143280952Y-67061904D01*
X143852381Y-67633333D01*
X143852381Y-67014285D01*
X120733334Y-74652381D02*
X120400000Y-74176190D01*
X120161905Y-74652381D02*
X120161905Y-73652381D01*
X120542858Y-73652381D01*
X120638096Y-73700000D01*
X120685715Y-73747619D01*
X120733334Y-73842857D01*
X120733334Y-73985714D01*
X120685715Y-74080952D01*
X120638096Y-74128571D01*
X120542858Y-74176190D01*
X120161905Y-74176190D01*
X121066667Y-73652381D02*
X121685715Y-73652381D01*
X121352381Y-74033333D01*
X121495239Y-74033333D01*
X121590477Y-74080952D01*
X121638096Y-74128571D01*
X121685715Y-74223810D01*
X121685715Y-74461905D01*
X121638096Y-74557143D01*
X121590477Y-74604762D01*
X121495239Y-74652381D01*
X121209524Y-74652381D01*
X121114286Y-74604762D01*
X121066667Y-74557143D01*
X127628571Y-84933333D02*
X127628571Y-85266667D01*
X128152381Y-85266667D02*
X127152381Y-85266667D01*
X127152381Y-84790476D01*
X128152381Y-83885714D02*
X128152381Y-84457143D01*
X128152381Y-84171429D02*
X127152381Y-84171429D01*
X127295238Y-84266667D01*
X127390476Y-84361905D01*
X127438095Y-84457143D01*
X114966667Y-86228571D02*
X114633333Y-86228571D01*
X114633333Y-86752381D02*
X114633333Y-85752381D01*
X115109524Y-85752381D01*
X115919048Y-86085714D02*
X115919048Y-86752381D01*
X115680952Y-85704762D02*
X115442857Y-86419048D01*
X116061905Y-86419048D01*
D19*
X153445334Y-77943619D02*
X153784001Y-78959619D01*
X154122667Y-77943619D01*
X155041905Y-78862857D02*
X154993524Y-78911238D01*
X154848381Y-78959619D01*
X154751619Y-78959619D01*
X154606477Y-78911238D01*
X154509715Y-78814476D01*
X154461334Y-78717714D01*
X154412953Y-78524190D01*
X154412953Y-78379048D01*
X154461334Y-78185524D01*
X154509715Y-78088762D01*
X154606477Y-77992000D01*
X154751619Y-77943619D01*
X154848381Y-77943619D01*
X154993524Y-77992000D01*
X155041905Y-78040381D01*
X156057905Y-78862857D02*
X156009524Y-78911238D01*
X155864381Y-78959619D01*
X155767619Y-78959619D01*
X155622477Y-78911238D01*
X155525715Y-78814476D01*
X155477334Y-78717714D01*
X155428953Y-78524190D01*
X155428953Y-78379048D01*
X155477334Y-78185524D01*
X155525715Y-78088762D01*
X155622477Y-77992000D01*
X155767619Y-77943619D01*
X155864381Y-77943619D01*
X156009524Y-77992000D01*
X156057905Y-78040381D01*
X153904953Y-76459619D02*
X153904953Y-75443619D01*
X154146858Y-75443619D01*
X154292000Y-75492000D01*
X154388762Y-75588762D01*
X154437143Y-75685524D01*
X154485524Y-75879048D01*
X154485524Y-76024190D01*
X154437143Y-76217714D01*
X154388762Y-76314476D01*
X154292000Y-76411238D01*
X154146858Y-76459619D01*
X153904953Y-76459619D01*
X154920953Y-76072571D02*
X155695048Y-76072571D01*
X153904953Y-74559619D02*
X153904953Y-73543619D01*
X154146858Y-73543619D01*
X154292000Y-73592000D01*
X154388762Y-73688762D01*
X154437143Y-73785524D01*
X154485524Y-73979048D01*
X154485524Y-74124190D01*
X154437143Y-74317714D01*
X154388762Y-74414476D01*
X154292000Y-74511238D01*
X154146858Y-74559619D01*
X153904953Y-74559619D01*
X154920953Y-74172571D02*
X155695048Y-74172571D01*
X155308000Y-74559619D02*
X155308000Y-73785524D01*
X154025905Y-71092000D02*
X153929143Y-71043619D01*
X153784000Y-71043619D01*
X153638858Y-71092000D01*
X153542096Y-71188762D01*
X153493715Y-71285524D01*
X153445334Y-71479048D01*
X153445334Y-71624190D01*
X153493715Y-71817714D01*
X153542096Y-71914476D01*
X153638858Y-72011238D01*
X153784000Y-72059619D01*
X153880762Y-72059619D01*
X154025905Y-72011238D01*
X154074286Y-71962857D01*
X154074286Y-71624190D01*
X153880762Y-71624190D01*
X154509715Y-72059619D02*
X154509715Y-71043619D01*
X155090286Y-72059619D01*
X155090286Y-71043619D01*
X155574096Y-72059619D02*
X155574096Y-71043619D01*
X155816001Y-71043619D01*
X155961143Y-71092000D01*
X156057905Y-71188762D01*
X156106286Y-71285524D01*
X156154667Y-71479048D01*
X156154667Y-71624190D01*
X156106286Y-71817714D01*
X156057905Y-71914476D01*
X155961143Y-72011238D01*
X155816001Y-72059619D01*
X155574096Y-72059619D01*
X121856191Y-84387238D02*
X121856191Y-83762238D01*
X122005000Y-83762238D01*
X122094286Y-83792000D01*
X122153810Y-83851524D01*
X122183571Y-83911048D01*
X122213333Y-84030095D01*
X122213333Y-84119381D01*
X122183571Y-84238429D01*
X122153810Y-84297952D01*
X122094286Y-84357476D01*
X122005000Y-84387238D01*
X121856191Y-84387238D01*
X122421667Y-83762238D02*
X122808571Y-83762238D01*
X122600238Y-84000333D01*
X122689524Y-84000333D01*
X122749048Y-84030095D01*
X122778810Y-84059857D01*
X122808571Y-84119381D01*
X122808571Y-84268190D01*
X122778810Y-84327714D01*
X122749048Y-84357476D01*
X122689524Y-84387238D01*
X122510952Y-84387238D01*
X122451429Y-84357476D01*
X122421667Y-84327714D01*
X121756191Y-76187238D02*
X121756191Y-75562238D01*
X121905000Y-75562238D01*
X121994286Y-75592000D01*
X122053810Y-75651524D01*
X122083571Y-75711048D01*
X122113333Y-75830095D01*
X122113333Y-75919381D01*
X122083571Y-76038429D01*
X122053810Y-76097952D01*
X121994286Y-76157476D01*
X121905000Y-76187238D01*
X121756191Y-76187238D01*
X122649048Y-75770571D02*
X122649048Y-76187238D01*
X122500238Y-75532476D02*
X122351429Y-75978905D01*
X122738333Y-75978905D01*
M02*
