<?xml version="1.0" encoding="UTF-8" standalone="no"?>
<svg
   xmlns:dc="http://purl.org/dc/elements/1.1/"
   xmlns:cc="http://creativecommons.org/ns#"
   xmlns:rdf="http://www.w3.org/1999/02/22-rdf-syntax-ns#"
   xmlns:svg="http://www.w3.org/2000/svg"
   xmlns="http://www.w3.org/2000/svg"
   xmlns:sodipodi="http://sodipodi.sourceforge.net/DTD/sodipodi-0.dtd"
   xmlns:inkscape="http://www.inkscape.org/namespaces/inkscape"
   version="1.1"
   width="29.7002cm"
   height="21.0007cm"
   viewBox="0 0 116930 82680 "
   id="svg2"
   inkscape:version="0.48.5 r10040"
   sodipodi:docname="vatx_pcb_v2.0_description.svg"
   inkscape:export-filename="/home/jjl/sources/github/VATX/pictures/vatx_pcb_v2.0_description.png"
   inkscape:export-xdpi="175"
   inkscape:export-ydpi="175">
  <metadata
     id="metadata1302">
    <rdf:RDF>
      <cc:Work
         rdf:about="">
        <dc:format>image/svg+xml</dc:format>
        <dc:type
           rdf:resource="http://purl.org/dc/dcmitype/StillImage" />
        <dc:title>SVG Picture created as vatx-brd.svg date 2015/03/11 19:05:32 </dc:title>
      </cc:Work>
    </rdf:RDF>
  </metadata>
  <defs
     id="defs1300">
    <marker
       inkscape:stockid="Arrow1Mend"
       orient="auto"
       refY="0.0"
       refX="0.0"
       id="Arrow1Mend"
       style="overflow:visible;">
      <path
         id="path5064"
         d="M 0.0,0.0 L 5.0,-5.0 L -12.5,0.0 L 5.0,5.0 L 0.0,0.0 z "
         style="fill-rule:evenodd;stroke:#000000;stroke-width:1.0pt;"
         transform="scale(0.4) rotate(180) translate(10,0)" />
    </marker>
  </defs>
  <sodipodi:namedview
     pagecolor="#ffffff"
     bordercolor="#666666"
     borderopacity="1"
     objecttolerance="10"
     gridtolerance="10"
     guidetolerance="10"
     inkscape:pageopacity="0"
     inkscape:pageshadow="2"
     inkscape:window-width="1280"
     inkscape:window-height="1004"
     id="namedview1298"
     showgrid="false"
     inkscape:zoom="10.784595"
     inkscape:cx="474.39189"
     inkscape:cy="456.44266"
     inkscape:window-x="1917"
     inkscape:window-y="-3"
     inkscape:window-maximized="1"
     inkscape:current-layer="svg2" />
  <title
     id="title4">SVG Picture created as vatx-brd.svg date 2015/03/11 19:05:32 </title>
  <desc
     id="desc6">Picture generated by PCBNEW </desc>
  <g
     style="fill:#000000; fill-opacity:1;stroke:#000000; stroke-opacity:1; stroke-linecap:round; stroke-linejoin:round; "
     transform="translate(0 0) scale(1 1)"
     id="g8" />
  <g
     style="fill:#840000; fill-opacity:0.0;  stroke:#840000; stroke-width:314.961; stroke-opacity:1;  stroke-linecap:round; stroke-linejoin:round;"
     id="g10" />
  <g
     style="fill:#840000; fill-opacity:1.0;  stroke:#840000; stroke-width:314.961; stroke-opacity:1;  stroke-linecap:round; stroke-linejoin:round;"
     id="g12">
    <polyline
       style="fill-rule:evenodd;"
       points="47747,27959 47747,27374 47932,27374 47932,27959 47747,27959 "
       id="polyline14" />
    <polyline
       style="fill-rule:evenodd;"
       points="48647,27959 48647,27374 48832,27374 48832,27959 48647,27959 "
       id="polyline16" />
    <polyline
       style="fill-rule:evenodd;"
       points="49547,27959 49547,27374 49732,27374 49732,27959 49547,27959 "
       id="polyline18" />
    <polyline
       style="fill-rule:evenodd;"
       points="48197,25434 48197,24899 49282,24899 49282,25434 48197,25434 "
       id="polyline20" />
    <polyline
       style="fill-rule:evenodd;"
       points="43528,20230 43528,20752 43006,20752 43006,20230 43528,20230 "
       id="polyline22" />
    <polyline
       style="fill-rule:evenodd;"
       points="43528,22396 43528,22918 43006,22918 43006,22396 43528,22396 "
       id="polyline24" />
    <polyline
       style="fill-rule:evenodd;"
       points="45182,20230 45182,20752 44660,20752 44660,20230 45182,20230 "
       id="polyline26" />
    <polyline
       style="fill-rule:evenodd;"
       points="45182,22396 45182,22918 44660,22918 44660,22396 45182,22396 "
       id="polyline28" />
    <polyline
       style="fill-rule:evenodd;"
       points="46835,20230 46835,20752 46313,20752 46313,20230 46835,20230 "
       id="polyline30" />
    <polyline
       style="fill-rule:evenodd;"
       points="46835,22396 46835,22918 46313,22918 46313,22396 46835,22396 "
       id="polyline32" />
    <polyline
       style="fill-rule:evenodd;"
       points="48489,20230 48489,20752 47967,20752 47967,20230 48489,20230 "
       id="polyline34" />
    <polyline
       style="fill-rule:evenodd;"
       points="48489,22396 48489,22918 47967,22918 47967,22396 48489,22396 "
       id="polyline36" />
    <polyline
       style="fill-rule:evenodd;"
       points="50142,20230 50142,20752 49620,20752 49620,20230 50142,20230 "
       id="polyline38" />
    <polyline
       style="fill-rule:evenodd;"
       points="50142,22396 50142,22918 49620,22918 49620,22396 50142,22396 "
       id="polyline40" />
    <polyline
       style="fill-rule:evenodd;"
       points="51796,20230 51796,20752 51274,20752 51274,20230 51796,20230 "
       id="polyline42" />
    <polyline
       style="fill-rule:evenodd;"
       points="51796,22396 51796,22918 51274,22918 51274,22396 51796,22396 "
       id="polyline44" />
    <polyline
       style="fill-rule:evenodd;"
       points="53449,20230 53449,20752 52927,20752 52927,20230 53449,20230 "
       id="polyline46" />
    <polyline
       style="fill-rule:evenodd;"
       points="53449,22396 53449,22918 52927,22918 52927,22396 53449,22396 "
       id="polyline48" />
    <polyline
       style="fill-rule:evenodd;"
       points="55103,20230 55103,20752 54581,20752 54581,20230 55103,20230 "
       id="polyline50" />
    <polyline
       style="fill-rule:evenodd;"
       points="55103,22396 55103,22918 54581,22918 54581,22396 55103,22396 "
       id="polyline52" />
    <polyline
       style="fill-rule:evenodd;"
       points="56756,20230 56756,20752 56234,20752 56234,20230 56756,20230 "
       id="polyline54" />
    <polyline
       style="fill-rule:evenodd;"
       points="56756,22396 56756,22918 56234,22918 56234,22396 56756,22396 "
       id="polyline56" />
    <polyline
       style="fill-rule:evenodd;"
       points="58410,20230 58410,20752 57888,20752 57888,20230 58410,20230 "
       id="polyline58" />
    <polyline
       style="fill-rule:evenodd;"
       points="58410,22396 58410,22918 57888,22918 57888,22396 58410,22396 "
       id="polyline60" />
    <circle
       cx="49448.8"
       cy="36850.4"
       r="1811.02"
       id="circle62" />
    <circle
       cx="59252"
       cy="36850.4"
       r="1811.02"
       id="circle64" />
    <circle
       cx="44448.8"
       cy="36850.4"
       r="1811.02"
       id="circle66" />
    <circle
       cx="54015.7"
       cy="32322.8"
       r="1811.02"
       id="circle68" />
  </g>
  <g
     style="fill:#840000; fill-opacity:1.0;  stroke:#840000; stroke-width:1181; stroke-opacity:1;  stroke-linecap:round; stroke-linejoin:round;"
     id="g70" />
  <g
     style="fill:#840000; fill-opacity:0.0;  stroke:#840000; stroke-width:1181; stroke-opacity:1;  stroke-linecap:round; stroke-linejoin:round;"
     id="g72">
    <path
       d="M43740 28188 L43346 28188 "
       id="path74" />
    <path
       d="M43740 26219 L43346 26219 "
       id="path76" />
    <path
       d="M43740 30157 L43346 30157 "
       id="path78" />
  </g>
  <g
     style="fill:#840000; fill-opacity:0.0;  stroke:#840000; stroke-width:314.961; stroke-opacity:1;  stroke-linecap:round; stroke-linejoin:round;"
     id="g80" />
  <g
     style="fill:#840000; fill-opacity:1.0;  stroke:#840000; stroke-width:314.961; stroke-opacity:1;  stroke-linecap:round; stroke-linejoin:round;"
     id="g82">
    <polyline
       style="fill-rule:evenodd;"
       points="50762,27823 50762,27688 50762,27688 50762,27823 50762,27823 "
       id="polyline84" />
    <polyline
       style="fill-rule:evenodd;"
       points="51362,27823 51362,27688 51362,27688 51362,27823 51362,27823 "
       id="polyline86" />
    <polyline
       style="fill-rule:evenodd;"
       points="46928,26809 46693,26809 46693,26774 46928,26774 46928,26809 "
       id="polyline88" />
    <polyline
       style="fill-rule:evenodd;"
       points="46928,26059 46693,26059 46693,26024 46928,26024 46928,26059 "
       id="polyline90" />
    <polyline
       style="fill-rule:evenodd;"
       points="50237,25196 50237,24961 50272,24961 50272,25196 50237,25196 "
       id="polyline92" />
    <polyline
       style="fill-rule:evenodd;"
       points="50987,25196 50987,24961 51022,24961 51022,25196 50987,25196 "
       id="polyline94" />
    <polyline
       style="fill-rule:evenodd;"
       points="54921,25413 54921,25413 54921,25413 54921,25413 54921,25413 "
       id="polyline96" />
    <polyline
       style="fill-rule:evenodd;"
       points="54921,26003 54921,26003 54921,26003 54921,26003 54921,26003 "
       id="polyline98" />
    <polyline
       style="fill-rule:evenodd;"
       points="55708,25413 55708,25413 55708,25413 55708,25413 55708,25413 "
       id="polyline100" />
    <polyline
       style="fill-rule:evenodd;"
       points="55708,26003 55708,26003 55708,26003 55708,26003 55708,26003 "
       id="polyline102" />
    <polyline
       style="fill-rule:evenodd;"
       points="58143,29443 58628,29443 58628,29728 58143,29728 58143,29443 "
       id="polyline104" />
    <polyline
       style="fill-rule:evenodd;"
       points="58143,30743 58628,30743 58628,31028 58143,31028 58143,30743 "
       id="polyline106" />
    <polyline
       style="fill-rule:evenodd;"
       points="58813,34297 58813,33812 59098,33812 59098,34297 58813,34297 "
       id="polyline108" />
    <polyline
       style="fill-rule:evenodd;"
       points="60113,34297 60113,33812 60398,33812 60398,34297 60113,34297 "
       id="polyline110" />
    <polyline
       style="fill-rule:evenodd;"
       points="54901,26712 54940,26712 54940,26712 54901,26712 54901,26712 "
       id="polyline112" />
    <polyline
       style="fill-rule:evenodd;"
       points="54901,27303 54940,27303 54940,27303 54901,27303 54901,27303 "
       id="polyline114" />
    <polyline
       style="fill-rule:evenodd;"
       points="55688,26712 55728,26712 55728,26712 55688,26712 55688,26712 "
       id="polyline116" />
    <polyline
       style="fill-rule:evenodd;"
       points="55688,27303 55728,27303 55728,27303 55688,27303 55688,27303 "
       id="polyline118" />
    <polyline
       style="fill-rule:evenodd;"
       points="48562,28996 48562,29035 48562,29035 48562,28996 48562,28996 "
       id="polyline120" />
    <polyline
       style="fill-rule:evenodd;"
       points="47972,28996 47972,29035 47972,29035 47972,28996 47972,28996 "
       id="polyline122" />
    <circle
       cx="54370.1"
       cy="36850.4"
       r="1811.02"
       id="circle124" />
    <polyline
       style="fill-rule:evenodd;"
       points="47788,32435 48274,32435 48274,32720 47788,32720 47788,32435 "
       id="polyline126" />
    <polyline
       style="fill-rule:evenodd;"
       points="47788,33735 48274,33735 48274,34020 47788,34020 47788,33735 "
       id="polyline128" />
    <polyline
       style="fill-rule:evenodd;"
       points="42985,32435 43470,32435 43470,32720 42985,32720 42985,32435 "
       id="polyline130" />
    <polyline
       style="fill-rule:evenodd;"
       points="42985,33735 43470,33735 43470,34020 42985,34020 42985,33735 "
       id="polyline132" />
    <circle
       cx="59960.6"
       cy="25511.8"
       r="98.4252"
       id="circle134" />
    <circle
       cx="60944.9"
       cy="25511.8"
       r="98.4252"
       id="circle136" />
    <circle
       cx="58976.4"
       cy="25511.8"
       r="98.4252"
       id="circle138" />
    <circle
       cx="58976.4"
       cy="24252"
       r="98.4252"
       id="circle140" />
    <circle
       cx="60944.9"
       cy="24252"
       r="98.4252"
       id="circle142" />
    <circle
       cx="59960.6"
       cy="24252"
       r="98.4252"
       id="circle144" />
  </g>
  <g
     style="fill:#840000; fill-opacity:1.0;  stroke:#840000; stroke-width:561.024; stroke-opacity:1;  stroke-linecap:round; stroke-linejoin:round;"
     id="g146" />
  <g
     style="fill:#840000; fill-opacity:0.0;  stroke:#840000; stroke-width:561.024; stroke-opacity:1;  stroke-linecap:round; stroke-linejoin:round;"
     id="g148">
    <path
       d="M59922 30905 L59361 30905 "
       id="path150" />
    <path
       d="M59922 29921 L59361 29921 "
       id="path152" />
    <path
       d="M59922 29133 L59361 29133 "
       id="path154" />
    <path
       d="M59922 28149 L59361 28149 "
       id="path156" />
  </g>
  <g
     style="fill:#840000; fill-opacity:0.0;  stroke:#840000; stroke-width:314.961; stroke-opacity:1;  stroke-linecap:round; stroke-linejoin:round;"
     id="g158" />
  <g
     style="fill:#840000; fill-opacity:1.0;  stroke:#840000; stroke-width:314.961; stroke-opacity:1;  stroke-linecap:round; stroke-linejoin:round;"
     id="g160">
    <circle
       cx="60708.7"
       cy="32114.2"
       r="521.654"
       id="circle162" />
    <circle
       cx="60708.7"
       cy="26940.9"
       r="521.654"
       id="circle164" />
    <circle
       cx="56456.7"
       cy="24055.4"
       r="236.02"
       id="circle166" />
    <circle
       cx="56456.7"
       cy="33897.4"
       r="295.52"
       id="circle168" />
    <polyline
       style="fill-rule:evenodd;"
       points="45022,32986 44629,32986 44629,32604 45022,32604 45022,32986 "
       id="polyline170" />
    <polyline
       style="fill-rule:evenodd;"
       points="46630,32986 46237,32986 46237,32604 46630,32604 46630,32986 "
       id="polyline172" />
    <polyline
       style="fill-rule:evenodd;"
       points="47385,30899 46991,30899 46991,30517 47385,30517 47385,30899 "
       id="polyline174" />
    <polyline
       style="fill-rule:evenodd;"
       points="48992,30899 48599,30899 48599,30517 48992,30517 48992,30899 "
       id="polyline176" />
  </g>
  <g
     style="fill:#C2C2C2; fill-opacity:1.0;  stroke:#C2C2C2; stroke-width:314.961; stroke-opacity:1;  stroke-linecap:round; stroke-linejoin:round;"
     id="g178">
    <circle
       cx="55039.4"
       cy="23858.3"
       r="78.7402"
       id="circle180" />
    <circle
       cx="55669.3"
       cy="24527.6"
       r="78.7402"
       id="circle182" />
    <circle
       cx="47637.8"
       cy="25157.5"
       r="78.7402"
       id="circle184" />
    <circle
       cx="47795.3"
       cy="24685"
       r="78.7402"
       id="circle186" />
    <circle
       cx="47204.7"
       cy="24685"
       r="78.7402"
       id="circle188" />
    <circle
       cx="46614.2"
       cy="24291.3"
       r="78.7402"
       id="circle190" />
    <circle
       cx="47480.3"
       cy="24252"
       r="78.7402"
       id="circle192" />
    <circle
       cx="48189"
       cy="24212.6"
       r="78.7402"
       id="circle194" />
    <circle
       cx="47795.3"
       cy="23858.3"
       r="78.7402"
       id="circle196" />
    <circle
       cx="47047.2"
       cy="23858.3"
       r="78.7402"
       id="circle198" />
    <circle
       cx="46259.8"
       cy="23897.6"
       r="78.7402"
       id="circle200" />
    <circle
       cx="58149.6"
       cy="26141.7"
       r="334.646"
       id="circle202" />
    <circle
       cx="51614.2"
       cy="24803.1"
       r="78.7402"
       id="circle204" />
    <circle
       cx="58976.4"
       cy="32834.6"
       r="334.646"
       id="circle206" />
    <circle
       cx="52677.2"
       cy="24173.2"
       r="78.7402"
       id="circle208" />
  </g>
  <g
     style="fill:#840000; fill-opacity:1.0;  stroke:#840000; stroke-width:314.961; stroke-opacity:1;  stroke-linecap:round; stroke-linejoin:round;"
     id="g210" />
  <g
     style="fill:#840000; fill-opacity:0.0;  stroke:#840000; stroke-width:314.961; stroke-opacity:1;  stroke-linecap:round; stroke-linejoin:round;"
     id="g212">
    <path
       d="M55039 23858 L54921 23976 "
       id="path214" />
    <path
       d="M54921 23976 L54921 25413 "
       id="path216" />
    <path
       d="M54921 26003 L54921 26712 "
       id="path218" />
    <path
       d="M55669 24527 L55708 24566 "
       id="path220" />
    <path
       d="M55708 24566 L55708 25413 "
       id="path222" />
    <path
       d="M55708 26003 L55708 26712 "
       id="path224" />
  </g>
  <g
     style="fill:#840000; fill-opacity:0.0;  stroke:#840000; stroke-width:787.402; stroke-opacity:1;  stroke-linecap:round; stroke-linejoin:round;"
     id="g226">
    <path
       d="M54015 21574 L57637 21574 "
       id="path228" />
    <path
       d="M50472 27667 L50472 27204 "
       id="path230" />
    <path
       d="M54015 24015 L54015 23543 "
       id="path232" />
    <path
       d="M52992 25039 L54015 24015 "
       id="path234" />
    <path
       d="M52637 25039 L52992 25039 "
       id="path236" />
    <path
       d="M50472 27204 L52637 25039 "
       id="path238" />
  </g>
  <g
     style="fill:#840000; fill-opacity:0.0;  stroke:#840000; stroke-width:314.961; stroke-opacity:1;  stroke-linecap:round; stroke-linejoin:round;"
     id="g240">
    <path
       d="M54015 21574 L54015 23543 "
       id="path242" />
  </g>
  <g
     style="fill:#840000; fill-opacity:0.0;  stroke:#840000; stroke-width:787.402; stroke-opacity:1;  stroke-linecap:round; stroke-linejoin:round;"
     id="g244">
    <path
       d="M58149 21062 L58149 20491 "
       id="path246" />
    <path
       d="M57637 21574 L58149 21062 "
       id="path248" />
    <path
       d="M46574 32795 L47814 32795 "
       id="path250" />
    <path
       d="M47814 32795 L48031 32578 "
       id="path252" />
    <path
       d="M48031 32578 L49429 32578 "
       id="path254" />
    <path
       d="M50118 28145 L49640 27667 "
       id="path256" />
    <path
       d="M50118 31889 L50118 28145 "
       id="path258" />
    <path
       d="M49429 32578 L50118 31889 "
       id="path260" />
    <path
       d="M49640 27667 L50472 27667 "
       id="path262" />
    <path
       d="M50472 27667 L50526 27667 "
       id="path264" />
    <path
       d="M50526 27667 L50614 27755 "
       id="path266" />
    <path
       d="M50614 27755 L50614 27607 "
       id="path268" />
  </g>
  <g
     style="fill:#840000; fill-opacity:0.0;  stroke:#840000; stroke-width:314.961; stroke-opacity:1;  stroke-linecap:round; stroke-linejoin:round;"
     id="g270">
    <path
       d="M58149 20491 L58149 20787 "
       id="path272" />
    <path
       d="M50674 27667 L50614 27607 "
       id="path274" />
    <path
       d="M50614 27607 L50762 27755 "
       id="path276" />
    <path
       d="M46791 32578 L46574 32795 "
       id="path278" />
    <path
       d="M50254 25078 L50254 25650 "
       id="path280" />
    <path
       d="M48740 26968 L48740 27667 "
       id="path282" />
    <path
       d="M49212 26496 L48740 26968 "
       id="path284" />
    <path
       d="M49409 26496 L49212 26496 "
       id="path286" />
    <path
       d="M50254 25650 L49409 26496 "
       id="path288" />
    <path
       d="M48937 30708 L48858 30708 "
       id="path290" />
    <path
       d="M48858 30708 L47755 31811 "
       id="path292" />
    <path
       d="M45669 31811 L44684 32795 "
       id="path294" />
    <path
       d="M47755 31811 L45669 31811 "
       id="path296" />
    <path
       d="M48562 29015 L48582 29015 "
       id="path298" />
    <path
       d="M48582 29015 L48937 29370 "
       id="path300" />
    <path
       d="M48937 29370 L48937 30708 "
       id="path302" />
    <path
       d="M48740 27667 L48740 28838 "
       id="path304" />
    <path
       d="M48740 28838 L48562 29015 "
       id="path306" />
  </g>
  <g
     style="fill:#840000; fill-opacity:0.0;  stroke:#840000; stroke-width:787.402; stroke-opacity:1;  stroke-linecap:round; stroke-linejoin:round;"
     id="g308">
    <path
       d="M43228 32578 L44467 32578 "
       id="path310" />
    <path
       d="M44467 32578 L44684 32795 "
       id="path312" />
  </g>
  <g
     style="fill:#840000; fill-opacity:0.0;  stroke:#840000; stroke-width:314.961; stroke-opacity:1;  stroke-linecap:round; stroke-linejoin:round;"
     id="g314">
    <path
       d="M44467 32578 L44684 32795 "
       id="path316" />
    <path
       d="M50166 25167 L50254 25078 "
       id="path318" />
    <path
       d="M48740 25167 L50166 25167 "
       id="path320" />
    <path
       d="M48740 25167 L48710 25167 "
       id="path322" />
    <path
       d="M47647 25167 L47637 25157 "
       id="path324" />
    <path
       d="M47795 24685 L47204 24685 "
       id="path326" />
    <path
       d="M46614 24291 L46653 24251 "
       id="path328" />
    <path
       d="M46653 24251 L47480 24251 "
       id="path330" />
    <path
       d="M48188 24212 L47834 23858 "
       id="path332" />
    <path
       d="M47834 23858 L47795 23858 "
       id="path334" />
    <path
       d="M47047 23858 L47007 23897 "
       id="path336" />
    <path
       d="M47007 23897 L46259 23897 "
       id="path338" />
    <path
       d="M48740 25167 L47647 25167 "
       id="path340" />
    <path
       d="M47972 29015 L47952 29015 "
       id="path342" />
    <path
       d="M46811 26792 L46811 27480 "
       id="path344" />
    <path
       d="M46998 27667 L47840 27667 "
       id="path346" />
    <path
       d="M46811 27480 L46998 27667 "
       id="path348" />
    <path
       d="M47840 27667 L47840 28883 "
       id="path350" />
    <path
       d="M47840 28883 L47972 29015 "
       id="path352" />
    <path
       d="M45826 30157 L46377 30708 "
       id="path354" />
    <path
       d="M46377 30708 L47188 30708 "
       id="path356" />
    <path
       d="M43543 30157 L45826 30157 "
       id="path358" />
    <path
       d="M47188 29800 L47972 29015 "
       id="path360" />
    <path
       d="M47188 30708 L47188 29800 "
       id="path362" />
  </g>
  <g
     style="fill:#840000; fill-opacity:0.0;  stroke:#840000; stroke-width:787.402; stroke-opacity:1;  stroke-linecap:round; stroke-linejoin:round;"
     id="g364">
    <path
       d="M56495 22657 L56495 24016 "
       id="path366" />
    <path
       d="M56495 24016 L56456 24055 "
       id="path368" />
    <path
       d="M58346 26338 L58385 26338 "
       id="path370" />
    <path
       d="M58149 26141 L58346 26338 "
       id="path372" />
    <path
       d="M56495 23700 L56495 24448 "
       id="path374" />
    <path
       d="M56495 24448 L58385 26338 "
       id="path376" />
    <path
       d="M56495 22657 L56495 23700 "
       id="path378" />
    <path
       d="M58385 26338 L58385 29586 "
       id="path380" />
    <path
       d="M58149 22657 L56495 22657 "
       id="path382" />
  </g>
  <g
     style="fill:#840000; fill-opacity:0.0;  stroke:#840000; stroke-width:314.961; stroke-opacity:1;  stroke-linecap:round; stroke-linejoin:round;"
     id="g384">
    <path
       d="M51004 25078 L51338 25078 "
       id="path386" />
    <path
       d="M51338 25078 L51614 24803 "
       id="path388" />
    <path
       d="M53188 20491 L53188 22657 "
       id="path390" />
    <path
       d="M51362 27755 L51362 29670 "
       id="path392" />
    <path
       d="M51362 29670 L54015 32322 "
       id="path394" />
    <path
       d="M49881 20491 L49881 22657 "
       id="path396" />
    <path
       d="M49881 22657 L51535 22657 "
       id="path398" />
    <path
       d="M51535 22657 L53188 22657 "
       id="path400" />
  </g>
  <g
     style="fill:#840000; fill-opacity:0.0;  stroke:#840000; stroke-width:787.402; stroke-opacity:1;  stroke-linecap:round; stroke-linejoin:round;"
     id="g402">
    <path
       d="M58956 32854 L58956 34055 "
       id="path404" />
    <path
       d="M58976 32834 L58956 32854 "
       id="path406" />
    <path
       d="M44921 20491 L43267 20491 "
       id="path408" />
    <path
       d="M43267 20491 L43267 22657 "
       id="path410" />
  </g>
  <g
     style="fill:#840000; fill-opacity:0.0;  stroke:#840000; stroke-width:314.961; stroke-opacity:1;  stroke-linecap:round; stroke-linejoin:round;"
     id="g412">
    <path
       d="M48228 22657 L48228 23228 "
       id="path414" />
    <path
       d="M49173 24173 L52677 24173 "
       id="path416" />
    <path
       d="M48228 23228 L49173 24173 "
       id="path418" />
  </g>
  <g
     style="fill:#840000; fill-opacity:0.0;  stroke:#840000; stroke-width:787.402; stroke-opacity:1;  stroke-linecap:round; stroke-linejoin:round;"
     id="g420">
    <path
       d="M58385 30886 L58385 31535 "
       id="path422" />
    <path
       d="M57795 34370 L55314 36850 "
       id="path424" />
    <path
       d="M57795 32125 L57795 34370 "
       id="path426" />
    <path
       d="M58385 31535 L57795 32125 "
       id="path428" />
    <path
       d="M55314 36850 L54370 36850 "
       id="path430" />
    <path
       d="M58385 30886 L59622 30886 "
       id="path432" />
    <path
       d="M59622 30886 L59641 30905 "
       id="path434" />
    <path
       d="M60256 34055 L60256 35846 "
       id="path436" />
    <path
       d="M60256 35846 L59251 36850 "
       id="path438" />
    <path
       d="M59862 36239 L59251 36850 "
       id="path440" />
    <path
       d="M43228 33878 L43228 35629 "
       id="path442" />
    <path
       d="M43228 35629 L44448 36850 "
       id="path444" />
  </g>
  <g
     style="fill:#840000; fill-opacity:0.0;  stroke:#840000; stroke-width:314.961; stroke-opacity:1;  stroke-linecap:round; stroke-linejoin:round;"
     id="g446">
    <path
       d="M43228 35629 L44448 36850 "
       id="path448" />
  </g>
  <g
     style="fill:#840000; fill-opacity:0.0;  stroke:#840000; stroke-width:787.402; stroke-opacity:1;  stroke-linecap:round; stroke-linejoin:round;"
     id="g450">
    <path
       d="M48031 33878 L48031 35433 "
       id="path452" />
    <path
       d="M48031 35433 L49448 36850 "
       id="path454" />
  </g>
  <g
     style="fill:#840000; fill-opacity:1.0;  stroke:#840000; stroke-width:100; stroke-opacity:1;  stroke-linecap:round; stroke-linejoin:round;"
     id="g456">
    <polyline
       style="fill-rule:evenodd;"
       points="52187,24580 52182,24584 52182,24584 51429,25336 51429,25304 51429,25191 51367,25128 51054,25128 51054,25541 51117,25603 51163,25603 50017,26749 49877,26958 49875,26967 49840,26967 49695,26967 49340,26967 49301,26983 49381,26903 49409,26903 49409,26903 49409,26903 49565,26872 49695,26785 49697,26784 50543,25938 50543,25938 50543,25938 50631,25806 50662,25650 50662,25650 50662,25650 50662,25539 50688,25565 50780,25603 50892,25603 50954,25541 50954,25128 50947,25128 50947,25028 50954,25028 50954,25020 51054,25020 51054,25028 51367,25028 51429,24966 51429,24853 51429,24754 51391,24662 51321,24591 51294,24580 52187,24580 "
       id="polyline458" />
    <polyline
       style="fill-rule:evenodd;"
       points="58934,30242 58385,30242 58139,30291 58072,30336 57936,30336 57844,30374 57773,30444 57735,30536 57735,30635 57735,31235 57742,31251 57742,31268 57340,31670 57200,31879 57151,32125 57151,32125 57151,33727 57064,33517 56953,33471 56882,33542 56882,33400 56836,33289 56574,33190 56295,33198 56076,33289 56030,33400 55985,33355 55985,33356 56226,32802 56241,31919 56135,31651 56135,27451 56135,27414 56073,27352 55758,27352 55758,27589 55821,27651 55836,27651 55935,27651 56027,27613 56097,27543 56135,27451 56135,31651 55917,31098 55874,31034 55658,30848 55658,27589 55658,27352 55343,27352 55314,27381 55285,27352 54971,27352 54971,27589 55033,27651 55048,27651 55148,27651 55240,27613 55310,27543 55314,27532 55319,27543 55389,27613 55481,27651 55581,27651 55596,27651 55658,27589 55658,30848 55605,30803 55535,30874 55535,30732 55304,30463 54871,30275 54871,27589 54871,27352 54556,27352 54494,27414 54494,27451 54532,27543 54602,27613 54694,27651 54793,27651 54808,27651 54871,27589 54871,30275 54495,30112 53612,30097 52791,30420 52726,30463 52496,30732 54015,32252 55535,30732 55535,30874 54086,32322 55605,33842 55783,33689 55749,33779 55758,34058 55848,34277 55960,34323 56385,33897 56380,33891 56451,33821 56456,33826 56882,33400 56882,33542 56527,33897 56532,33902 56462,33973 56456,33968 56385,34038 56030,34394 56076,34505 56338,34604 56617,34595 56688,34566 55956,35298 55628,34970 55535,34932 55535,33913 54015,32393 53945,32464 53945,32322 52425,30803 52156,31034 51805,31843 51789,32725 52113,33547 52156,33611 52425,33842 53945,32322 53945,32464 52496,33913 52726,34181 53536,34533 54418,34548 55239,34224 55304,34181 55535,33913 55535,34932 54813,34632 53930,34631 53115,34968 52490,35592 52151,36407 52151,37289 52488,38105 53111,38730 53695,38972 51737,38972 51737,28030 51737,27931 51737,27868 51737,27643 51737,27580 51737,27481 51699,27389 51629,27318 51537,27280 51475,27280 51412,27343 51412,27705 51675,27705 51737,27643 51737,27868 51675,27805 51412,27805 51412,28168 51475,28230 51537,28230 51629,28192 51699,28122 51737,28030 51737,38972 50122,38972 50703,38732 51328,38108 51666,37293 51667,36411 51330,35595 50707,34970 49892,34632 49695,34632 49009,34631 48675,34769 48675,34243 48681,34228 48681,34128 48681,33528 48643,33436 48573,33366 48481,33328 48381,33328 48344,33328 48277,33283 48233,33274 48269,33250 48298,33222 49429,33222 49429,33222 49429,33222 49675,33173 49675,33173 49695,33159 49884,33033 50573,32344 50573,32344 50573,32344 50712,32136 50761,31889 50761,31889 50761,31889 50761,28370 50861,28350 50861,28350 51070,28211 51087,28184 51096,28192 51188,28230 51250,28230 51312,28168 51312,27805 51305,27805 51305,27705 51312,27705 51312,27343 51278,27308 52904,25683 52992,25683 52992,25683 52992,25683 53238,25634 53238,25634 53447,25494 54470,24470 54470,24470 54470,24470 54513,24406 54513,25413 54514,25416 54514,25620 54550,25708 54514,25796 54514,25896 54514,26001 54513,26003 54513,26516 54494,26564 54494,26663 54494,26860 54532,26952 54587,27007 54532,27063 54494,27154 54494,27191 54556,27253 54871,27253 54871,27245 54971,27245 54971,27253 55285,27253 55314,27224 55343,27253 55658,27253 55658,27245 55758,27245 55758,27253 56073,27253 56135,27191 56135,27154 56097,27063 56042,27007 56097,26952 56135,26860 56135,26761 56135,26564 56116,26516 56116,26003 56115,26001 56115,25796 56079,25708 56115,25620 56115,25520 56115,25416 56116,25413 56116,24979 57407,26270 57407,26288 57520,26561 57728,26770 57742,26776 57742,29221 57735,29236 57735,29335 57735,29935 57773,30027 57844,30098 57936,30136 58035,30136 58072,30136 58139,30180 58385,30229 58632,30180 58699,30136 58835,30136 58857,30127 58934,30242 "
       id="polyline460" />
    <polyline
       style="fill-rule:evenodd;"
       points="61452,31544 61235,31326 60894,31185 60524,31184 60321,31269 60428,31108 60468,30905 60428,30702 60313,30530 60141,30415 60131,30413 60141,30411 60313,30296 60428,30124 60468,29921 60428,29718 60313,29546 60285,29527 60313,29508 60428,29336 60468,29133 60428,28930 60313,28758 60141,28643 60112,28638 60171,28620 60332,28489 60431,28306 60436,28281 60387,28199 59691,28199 59691,28207 59591,28207 59591,28199 59583,28199 59583,28099 59591,28099 59591,27619 59311,27619 59112,27678 59029,27745 59029,26338 59029,26338 59029,26338 58980,26092 58930,26017 59076,26017 59262,25940 59405,25798 59468,25645 59531,25798 59673,25940 59859,26017 60060,26017 60246,25940 60389,25798 60450,25652 60500,25773 60590,25795 60874,25511 60590,25228 60500,25250 60454,25382 60389,25225 60247,25083 60061,25005 59860,25005 59674,25082 59531,25224 59468,25377 59405,25225 59263,25083 59077,25005 58876,25005 58690,25082 58547,25224 58470,25410 58470,25471 58399,25441 57139,24181 57139,24016 57139,24016 57139,24016 57139,24016 57139,23700 57139,23301 57621,23301 57681,23326 57780,23326 58617,23326 58709,23288 58780,23217 58818,23126 58818,23026 58818,22189 58780,22097 58709,22027 58617,21989 58518,21989 58133,21989 58604,21518 58604,21518 58604,21518 58744,21309 58793,21062 58793,21062 58793,21062 58793,21019 58818,20960 58818,20860 58818,20023 58780,19931 58709,19861 58617,19823 58518,19823 57681,19823 57589,19861 57519,19931 57481,20023 57481,20123 57481,20821 57371,20931 57164,20931 57164,20860 57164,20023 57126,19931 57055,19861 56963,19823 56864,19823 56027,19823 55935,19861 55865,19931 55827,20023 55827,20123 55827,20931 55511,20931 55511,20860 55511,20023 55473,19931 55402,19861 55310,19823 55211,19823 54374,19823 54282,19861 54212,19931 54174,20023 54174,20123 54174,20931 54015,20931 53855,20962 53857,20960 53857,20860 53857,20604 53857,20379 53857,20123 53857,20023 53819,19931 53748,19861 53656,19823 53301,19823 53238,19885 53238,20441 53794,20441 53857,20379 53857,20604 53794,20541 53238,20541 53238,21097 53301,21160 53533,21160 53421,21328 53372,21574 53421,21821 53533,21989 53301,21989 53238,22051 53238,22607 53246,22607 53246,22707 53238,22707 53238,23263 53301,23326 53415,23326 53372,23543 53372,23749 53138,23982 53138,23263 53138,22707 53138,22607 53138,22051 53138,21097 53138,20541 53138,20441 53138,19885 53076,19823 52720,19823 52628,19861 52558,19931 52520,20023 52520,20123 52520,20379 52582,20441 53138,20441 53138,20541 52582,20541 52520,20604 52520,20860 52520,20960 52558,21051 52628,21122 52720,21160 53076,21160 53138,21097 53138,22051 53076,21989 52720,21989 52628,22027 52558,22097 52520,22189 52520,22289 52520,22545 52582,22607 53138,22607 53138,22707 52582,22707 52520,22770 52520,23026 52520,23126 52558,23217 52628,23288 52720,23326 53076,23326 53138,23263 53138,23982 53128,23992 53089,23898 52952,23761 52774,23687 52580,23686 52402,23760 52397,23765 52204,23765 52204,23126 52204,23026 52204,22770 52204,22545 52204,22289 52204,22189 52204,20960 52204,20860 52204,20023 52166,19931 52095,19861 52003,19823 51904,19823 51067,19823 50975,19861 50905,19931 50867,20023 50867,20123 50867,20960 50905,21051 50975,21122 51067,21160 51166,21160 52003,21160 52095,21122 52166,21051 52204,20960 52204,22189 52166,22097 52095,22027 52003,21989 51648,21989 51585,22051 51585,22607 52141,22607 52204,22545 52204,22770 52141,22707 51585,22707 51585,23263 51648,23326 52003,23326 52095,23288 52166,23217 52204,23126 52204,23765 51485,23765 51485,23263 51485,22707 51485,22607 51485,22051 51423,21989 51067,21989 50975,22027 50905,22097 50867,22189 50867,22289 50867,22545 50929,22607 51485,22607 51485,22707 50929,22707 50867,22770 50867,23026 50867,23126 50905,23217 50975,23288 51067,23326 51423,23326 51485,23263 51485,23765 50550,23765 50550,23126 50550,23026 50550,22770 50550,22545 50550,22289 50550,22189 50550,20960 50550,20860 50550,20604 50550,20379 50550,20123 50550,20023 50512,19931 50441,19861 50349,19823 49994,19823 49931,19885 49931,20441 50487,20441 50550,20379 50550,20604 50487,20541 49931,20541 49931,21097 49994,21160 50349,21160 50441,21122 50512,21051 50550,20960 50550,22189 50512,22097 50441,22027 50349,21989 49994,21989 49931,22051 49931,22607 50487,22607 50550,22545 50550,22770 50487,22707 49931,22707 49931,23263 49994,23326 50349,23326 50441,23288 50512,23217 50550,23126 50550,23765 49831,23765 49831,23263 49831,22707 49831,22607 49831,22051 49831,21097 49831,20541 49831,20441 49831,19885 49769,19823 49413,19823 49321,19861 49251,19931 49213,20023 49213,20123 49213,20379 49275,20441 49831,20441 49831,20541 49275,20541 49213,20604 49213,20860 49213,20960 49251,21051 49321,21122 49413,21160 49769,21160 49831,21097 49831,22051 49769,21989 49413,21989 49321,22027 49251,22097 49213,22189 49213,22289 49213,22545 49275,22607 49831,22607 49831,22707 49275,22707 49213,22770 49213,23026 49213,23126 49251,23217 49321,23288 49413,23326 49769,23326 49831,23263 49831,23765 49695,23765 49695,23493 49069,23493 48826,23250 48859,23217 48897,23126 48897,23026 48897,22189 48897,20960 48897,20860 48897,20023 48859,19931 48788,19861 48696,19823 48597,19823 47760,19823 47668,19861 47598,19931 47560,20023 47560,20123 47560,20960 47598,21051 47668,21122 47760,21160 47859,21160 48696,21160 48788,21122 48859,21051 48897,20960 48897,22189 48859,22097 48788,22027 48696,21989 48597,21989 47760,21989 47668,22027 47598,22097 47560,22189 47560,22289 47560,23126 47598,23217 47668,23288 47760,23326 47840,23326 47849,23372 47698,23371 47520,23445 47472,23493 47369,23493 47323,23446 47243,23413 47243,23126 47243,23026 47243,22770 47243,22545 47243,22289 47243,22189 47243,20960 47243,20860 47243,20604 47243,20379 47243,20123 47243,20023 47205,19931 47134,19861 47042,19823 46687,19823 46624,19885 46624,20441 47180,20441 47243,20379 47243,20604 47180,20541 46624,20541 46624,21097 46687,21160 47042,21160 47134,21122 47205,21051 47243,20960 47243,22189 47205,22097 47134,22027 47042,21989 46687,21989 46624,22051 46624,22607 47180,22607 47243,22545 47243,22770 47180,22707 46624,22707 46624,23263 46687,23326 47042,23326 47134,23288 47205,23217 47243,23126 47243,23413 47144,23372 46950,23371 46772,23445 46727,23490 46540,23490 46535,23485 46524,23481 46524,23263 46524,22707 46524,22607 46524,22051 46524,21097 46524,20541 46524,20441 46524,19885 46462,19823 46106,19823 46014,19861 45944,19931 45906,20023 45906,20123 45906,20379 45968,20441 46524,20441 46524,20541 45968,20541 45906,20604 45906,20860 45906,20960 45944,21051 46014,21122 46106,21160 46462,21160 46524,21097 46524,22051 46462,21989 46106,21989 46014,22027 45944,22097 45906,22189 45906,22289 45906,22545 45968,22607 46524,22607 46524,22707 45968,22707 45906,22770 45906,23026 45906,23126 45944,23217 46014,23288 46106,23326 46462,23326 46524,23263 46524,23481 46356,23411 46163,23411 45984,23485 45976,23493 45590,23493 45590,23126 45590,23026 45590,22189 45590,20960 45590,20860 45590,20023 45552,19931 45481,19861 45389,19823 45290,19823 44453,19823 44393,19848 43795,19848 43735,19823 43636,19823 42799,19823 42707,19861 42637,19931 42599,20023 42599,20123 42599,20960 42623,21019 42623,22129 42599,22189 42599,22289 42599,23126 42637,23217 42707,23288 42799,23326 42898,23326 43735,23326 43827,23288 43898,23217 43936,23126 43936,23026 43936,22189 43911,22129 43911,21135 44393,21135 44453,21160 44552,21160 45389,21160 45481,21122 45552,21051 45590,20960 45590,22189 45552,22097 45481,22027 45389,21989 45290,21989 44453,21989 44361,22027 44291,22097 44253,22189 44253,22289 44253,23126 44291,23217 44361,23288 44453,23326 44552,23326 45389,23326 45481,23288 45552,23217 45590,23126 45590,23493 44829,23493 47461,25837 47978,25837 47990,25842 48089,25842 49486,25842 49240,26088 49212,26088 49056,26119 49003,26154 48924,26207 48924,26207 48452,26680 48363,26812 48332,26968 48332,26968 48332,27021 48290,27063 48231,27005 48139,26967 48040,26967 47540,26967 47448,27005 47378,27075 47340,27167 47340,27259 47218,27259 47218,27183 47227,27179 47297,27108 47336,27017 47336,26917 47336,26567 47297,26475 47239,26417 47297,26358 47336,26267 47336,26154 47336,25929 47336,25817 47297,25725 47227,25655 47135,25617 47036,25617 46923,25617 46861,25679 46861,25992 47273,25992 47336,25929 47336,26154 47273,26092 46861,26092 46861,26100 46761,26100 46761,26092 46761,25992 46761,25679 46698,25617 46585,25617 46486,25617 46394,25655 46324,25725 46286,25817 46286,25929 46348,25992 46761,25992 46761,26092 46348,26092 46286,26154 46286,26267 46324,26358 46382,26417 46324,26475 46286,26567 46286,26667 46286,27017 46324,27108 46394,27179 46403,27183 46403,27480 46403,27480 46434,27636 46522,27768 46709,27955 46709,27955 46789,28008 46842,28043 46842,28043 46998,28074 47340,28074 47340,28167 47378,28258 47432,28313 47432,28883 47432,28883 47448,28963 46900,29511 46811,29644 46780,29800 46780,29800 46780,30111 46692,30148 46621,30218 46587,30301 46546,30301 46114,29869 45982,29781 45826,29749 45826,29750 44601,29750 44601,28188 44561,27987 44561,26400 44561,26038 44535,25944 44369,25660 44108,25462 43790,25378 43593,25378 43593,26169 44516,26169 44561,26038 44561,26400 44516,26269 43593,26269 43593,27059 43790,27059 44108,26976 44369,26778 44535,26494 44561,26400 44561,27987 44537,27866 44354,27594 44082,27411 43760,27347 43493,27347 43493,27059 43493,26269 43493,26169 43493,25378 43296,25378 42978,25462 42716,25660 42550,25944 42525,26038 42569,26169 43493,26169 43493,26269 42569,26269 42525,26400 42550,26494 42716,26778 42978,26976 43296,27059 43493,27059 43493,27347 43325,27347 43004,27411 42731,27594 42549,27866 42485,28188 42549,28510 42731,28782 43004,28965 43325,29028 43760,29028 44082,28965 44354,28782 44537,28510 44601,28188 44601,29750 44479,29750 44354,29563 44082,29380 43760,29316 43325,29316 43004,29380 42731,29563 42549,29835 42485,30157 42549,30479 42731,30751 43004,30934 43325,30997 43760,30997 44082,30934 44354,30751 44479,30564 45657,30564 46089,30996 46222,31085 46377,31116 46377,31116 46377,31116 46587,31116 46621,31198 46692,31269 46784,31307 46883,31307 47592,31307 47684,31269 47754,31198 47792,31106 47792,31007 47792,30310 47754,30218 47684,30148 47595,30111 47595,29968 48122,29442 48212,29404 48267,29349 48322,29404 48414,29442 48433,29442 48529,29538 48529,30110 48392,30110 48300,30148 48229,30218 48191,30310 48191,30409 48191,30798 47587,31403 45669,31403 45669,31403 45513,31434 45381,31522 45381,31522 44837,32066 44714,31983 44467,31934 44467,31934 43228,31934 42982,31983 42915,32028 42778,32028 42686,32066 42616,32136 42578,32228 42578,32328 42578,32928 42616,33019 42686,33090 42778,33128 42878,33128 42915,33128 42982,33173 43228,33222 44201,33222 44229,33250 44251,33264 44259,33285 44330,33355 44421,33393 44457,33393 44684,33438 44912,33393 45230,33393 45321,33355 45392,33285 45430,33193 45430,33093 45430,32626 45837,32218 45977,32218 45937,32234 45867,32305 45829,32397 45829,32496 45829,33193 45867,33285 45937,33355 46029,33393 46129,33393 46347,33393 46574,33438 47418,33438 47381,33528 47381,33628 47381,34228 47387,34243 47387,35433 47387,35433 47436,35679 47496,35768 47230,36407 47229,37289 47566,38105 48190,38730 48774,38972 45122,38972 45703,38732 46328,38108 46666,37293 46667,36411 46330,35595 45707,34970 44892,34632 44009,34631 43872,34688 43872,34243 43878,34228 43878,34128 43878,33528 43840,33436 43769,33366 43678,33328 43578,33328 43541,33328 43474,33283 43228,33234 42982,33283 42915,33328 42778,33328 42686,33366 42616,33436 42578,33528 42578,33628 42578,34228 42584,34243 42584,35576 42569,35592 42326,36175 42326,19807 61452,19807 61452,24271 61444,24122 61389,23990 61298,23968 61228,24039 61228,23898 61206,23807 61016,23741 60815,23752 60683,23807 60661,23898 60944,24181 61228,23898 61228,24039 61015,24251 61298,24535 61389,24513 61452,24331 61452,25531 61444,25382 61389,25250 61298,25228 61228,25299 61228,25157 61228,24605 60944,24322 60874,24393 60874,24251 60590,23968 60500,23990 60454,24122 60389,23965 60247,23823 60061,23746 59860,23745 59674,23822 59531,23965 59468,24118 59405,23965 59263,23823 59077,23746 58876,23745 58690,23822 58547,23965 58470,24150 58470,24352 58547,24538 58689,24680 58875,24757 59076,24757 59262,24681 59405,24538 59468,24385 59531,24538 59673,24680 59859,24757 60060,24757 60246,24681 60389,24538 60450,24392 60500,24513 60590,24535 60874,24251 60874,24393 60661,24605 60683,24696 60873,24762 61074,24751 61206,24696 61228,24605 61228,25157 61206,25067 61016,25000 60815,25012 60683,25067 60661,25157 60944,25441 61228,25157 61228,25299 61015,25511 61298,25795 61389,25773 61452,25591 61452,26371 61235,26153 60914,26020 61074,26011 61206,25956 61228,25865 60944,25582 60661,25865 60683,25956 60842,26011 60524,26011 60183,26152 59921,26413 59779,26755 59779,27124 59920,27466 60115,27661 59972,27619 59691,27619 59691,28099 60387,28099 60436,28017 60431,27992 60332,27809 60285,27771 60523,27869 60892,27870 61234,27729 61452,27510 61452,31544 "
       id="polyline462" />
    <polyline
       style="fill-rule:evenodd;"
       points="49359,25461 47499,25461 45681,23829 48253,23829 48885,24461 48885,24461 48964,24514 49017,24549 49017,24549 49173,24580 49173,24580 49173,24580 49359,24580 49359,25461 "
       id="polyline464" />
  </g>
  <g
     style="fill:#FFFFFF; fill-opacity:1.0;  stroke:#FFFFFF; stroke-width:314.961; stroke-opacity:1;  stroke-linecap:round; stroke-linejoin:round;"
     id="g466">
    <circle
       cx="55039.4"
       cy="23858.3"
       r="0"
       id="circle468" />
    <circle
       cx="55669.3"
       cy="24527.6"
       r="0"
       id="circle470" />
    <circle
       cx="47637.8"
       cy="25157.5"
       r="0"
       id="circle472" />
    <circle
       cx="47795.3"
       cy="24685"
       r="0"
       id="circle474" />
    <circle
       cx="47204.7"
       cy="24685"
       r="0"
       id="circle476" />
    <circle
       cx="46614.2"
       cy="24291.3"
       r="0"
       id="circle478" />
    <circle
       cx="47480.3"
       cy="24252"
       r="0"
       id="circle480" />
    <circle
       cx="48189"
       cy="24212.6"
       r="0"
       id="circle482" />
    <circle
       cx="47795.3"
       cy="23858.3"
       r="0"
       id="circle484" />
    <circle
       cx="47047.2"
       cy="23858.3"
       r="0"
       id="circle486" />
    <circle
       cx="46259.8"
       cy="23897.6"
       r="0"
       id="circle488" />
    <circle
       cx="58149.6"
       cy="26141.7"
       r="236.22"
       id="circle490" />
    <circle
       cx="51614.2"
       cy="24803.1"
       r="0"
       id="circle492" />
    <circle
       cx="58976.4"
       cy="32834.6"
       r="236.22"
       id="circle494" />
    <circle
       cx="52677.2"
       cy="24173.2"
       r="0"
       id="circle496" />
    <circle
       cx="43267.7"
       cy="20491.8"
       r="177.02"
       id="circle498" />
    <circle
       cx="43267.7"
       cy="22657.8"
       r="177.02"
       id="circle500" />
    <circle
       cx="44921.7"
       cy="20491.8"
       r="177.02"
       id="circle502" />
    <circle
       cx="44921.7"
       cy="22657.8"
       r="177.02"
       id="circle504" />
    <circle
       cx="46574.7"
       cy="20491.8"
       r="177.02"
       id="circle506" />
    <circle
       cx="46574.7"
       cy="22657.8"
       r="177.02"
       id="circle508" />
    <circle
       cx="48228.7"
       cy="20491.8"
       r="177.02"
       id="circle510" />
    <circle
       cx="48228.7"
       cy="22657.8"
       r="177.02"
       id="circle512" />
    <circle
       cx="49881.7"
       cy="20491.8"
       r="177.02"
       id="circle514" />
    <circle
       cx="49881.7"
       cy="22657.8"
       r="177.02"
       id="circle516" />
    <circle
       cx="51535.7"
       cy="20491.8"
       r="177.02"
       id="circle518" />
    <circle
       cx="51535.7"
       cy="22657.8"
       r="177.02"
       id="circle520" />
    <circle
       cx="53188.7"
       cy="20491.8"
       r="177.02"
       id="circle522" />
    <circle
       cx="53188.7"
       cy="22657.8"
       r="177.02"
       id="circle524" />
    <circle
       cx="54842.7"
       cy="20491.8"
       r="177.02"
       id="circle526" />
    <circle
       cx="54842.7"
       cy="22657.8"
       r="177.02"
       id="circle528" />
    <circle
       cx="56495.7"
       cy="20491.8"
       r="177.02"
       id="circle530" />
    <circle
       cx="56495.7"
       cy="22657.8"
       r="177.02"
       id="circle532" />
    <circle
       cx="58149.7"
       cy="20491.8"
       r="177.02"
       id="circle534" />
    <circle
       cx="58149.7"
       cy="22657.8"
       r="177.02"
       id="circle536" />
    <circle
       cx="49448.8"
       cy="36850.4"
       r="1023.62"
       id="circle538" />
    <circle
       cx="59252"
       cy="36850.4"
       r="1023.62"
       id="circle540" />
    <circle
       cx="44448.8"
       cy="36850.4"
       r="1023.62"
       id="circle542" />
    <circle
       cx="54015.7"
       cy="32322.8"
       r="1023.62"
       id="circle544" />
    <circle
       cx="43543.3"
       cy="28188.5"
       r="118.02"
       id="circle546" />
    <circle
       cx="43543.3"
       cy="26219.5"
       r="118.02"
       id="circle548" />
    <circle
       cx="43543.3"
       cy="30157.5"
       r="118.02"
       id="circle550" />
    <circle
       cx="54370.1"
       cy="36850.4"
       r="1023.62"
       id="circle552" />
    <circle
       cx="59960.6"
       cy="25511.8"
       r="19.685"
       id="circle554" />
    <circle
       cx="60944.9"
       cy="25511.8"
       r="19.685"
       id="circle556" />
    <circle
       cx="58976.4"
       cy="25511.8"
       r="19.685"
       id="circle558" />
    <circle
       cx="58976.4"
       cy="24252"
       r="19.685"
       id="circle560" />
    <circle
       cx="60944.9"
       cy="24252"
       r="19.685"
       id="circle562" />
    <circle
       cx="59960.6"
       cy="24252"
       r="19.685"
       id="circle564" />
    <circle
       cx="59641.7"
       cy="30905.5"
       r="29.5276"
       id="circle566" />
    <circle
       cx="59641.7"
       cy="29921.3"
       r="29.5276"
       id="circle568" />
    <circle
       cx="59641.7"
       cy="29133.9"
       r="29.5276"
       id="circle570" />
    <circle
       cx="59641.7"
       cy="28149.6"
       r="29.5276"
       id="circle572" />
    <circle
       cx="60708.7"
       cy="32114.2"
       r="295.276"
       id="circle574" />
    <circle
       cx="60708.7"
       cy="26940.9"
       r="295.276"
       id="circle576" />
    <circle
       cx="56456.7"
       cy="24055.4"
       r="39.5197"
       id="circle578" />
    <circle
       cx="56456.7"
       cy="33897.4"
       r="78.5197"
       id="circle580" />
  </g>
  <g
     style="fill:#008484; fill-opacity:0.0;  stroke:#008484; stroke-width:118.11; stroke-opacity:1;  stroke-linecap:round; stroke-linejoin:round;"
     id="g582">
    <path
       d="M59912 21687 L60306 21546 L59912 21406 "
       id="path584" />
    <path
       d="M60137 21209 L60137 20928 "
       id="path586" />
    <path
       d="M60306 21265 L59715 21068 L60306 20871 "
       id="path588" />
    <path
       d="M59715 20759 L59715 20421 "
       id="path590" />
    <path
       d="M60306 20590 L59715 20590 "
       id="path592" />
    <path
       d="M59715 20281 L60306 19887 "
       id="path594" />
    <path
       d="M59715 19887 L60306 20281 "
       id="path596" />
    <path
       d="M60857 21631 L61251 21490 L60857 21349 "
       id="path598" />
    <path
       d="M60717 21152 L60688 21124 L60660 21068 L60660 20928 L60688 20871 L60717 20843 L60773 20815 L60829 20815 L60913 20843 L61251 21181 L61251 20815 "
       id="path600" />
    <path
       d="M61195 20562 L61223 20534 L61251 20562 L61223 20590 L61195 20562 L61251 20562 "
       id="path602" />
    <path
       d="M60660 20168 L60660 20112 L60688 20056 L60717 20028 L60773 19999 L60885 19971 L61026 19971 L61138 19999 L61195 20028 L61223 20056 L61251 20112 L61251 20168 L61223 20224 L61195 20253 L61138 20281 L61026 20309 L60885 20309 L60773 20281 L60717 20253 L60688 20224 L60660 20168 "
       id="path604" />
  </g>
  <g
     style="fill:#008484; fill-opacity:0.0;  stroke:#008484; stroke-width:98.4252; stroke-opacity:1;  stroke-linecap:round; stroke-linejoin:round;"
     id="g606">
    <path
       d="M55886 28158 L55868 28196 L55849 28215 L55811 28233 L55699 28233 L55661 28215 L55643 28196 L55624 28158 L55624 28102 L55643 28065 L55661 28046 L55699 28027 L55811 28027 L55849 28046 L55868 28065 L55886 28102 L55886 28158 "
       id="path608" />
    <path
       d="M55624 27859 L55886 27859 "
       id="path610" />
    <path
       d="M55661 27859 L55643 27840 L55624 27802 L55624 27746 L55643 27709 L55680 27690 L55886 27690 "
       id="path612" />
    <path
       d="M54836 29105 L55230 29105 "
       id="path614" />
    <path
       d="M54855 29105 L54836 29068 L54836 28993 L54855 28955 L54874 28937 L54911 28918 L55024 28918 L55061 28937 L55080 28955 L55099 28993 L55099 29068 L55080 29105 "
       id="path616" />
    <path
       d="M55099 28693 L55080 28730 L55061 28749 L55024 28768 L54911 28768 L54874 28749 L54855 28730 L54836 28693 L54836 28637 L54855 28599 L54874 28580 L54911 28562 L55024 28562 L55061 28580 L55080 28599 L55099 28637 L55099 28693 "
       id="path618" />
    <path
       d="M54836 28430 L55099 28355 L54911 28280 L55099 28205 L54836 28130 "
       id="path620" />
    <path
       d="M55080 27830 L55099 27868 L55099 27943 L55080 27980 L55043 27999 L54893 27999 L54855 27980 L54836 27943 L54836 27868 L54855 27830 L54893 27812 L54930 27812 L54968 27999 "
       id="path622" />
    <path
       d="M55099 27643 L54836 27643 "
       id="path624" />
    <path
       d="M54911 27643 L54874 27624 L54855 27605 L54836 27568 L54836 27530 "
       id="path626" />
  </g>
  <g
     style="fill:#008484; fill-opacity:0.0;  stroke:#008484; stroke-width:118.11; stroke-opacity:1;  stroke-linecap:round; stroke-linejoin:round;"
     id="g628">
    <path
       d="M60339 22836 L60489 22836 L60564 22874 L60639 22949 L60676 23098 L60676 23361 L60639 23511 L60564 23586 L60489 23623 L60339 23623 L60264 23586 L60189 23511 L60151 23361 L60151 23098 L60189 22949 L60264 22874 L60339 22836 "
       id="path630" />
    <path
       d="M61014 23623 L61014 22836 L61464 23623 L61464 22836 "
       id="path632" />
  </g>
  <g
     style="fill:#008484; fill-opacity:0.0;  stroke:#008484; stroke-width:78.7402; stroke-opacity:1;  stroke-linecap:round; stroke-linejoin:round;"
     id="g634">
    <path
       d="M45629 24094 L45433 24291 "
       id="path636" />
    <path
       d="M45433 23897 L45629 24094 "
       id="path638" />
    <path
       d="M45629 24094 L45433 23897 "
       id="path640" />
    <path
       d="M44015 24094 L45629 24094 "
       id="path642" />
    <circle
       cx="43346.5"
       cy="24094.5"
       r="591.862"
       id="circle644" />
  </g>
  <g
     style="fill:#008484; fill-opacity:0.0;  stroke:#008484; stroke-width:118.11; stroke-opacity:1;  stroke-linecap:round; stroke-linejoin:round;"
     id="g646">
    <path
       d="M43346 24375 L43383 24413 L43346 24450 L43308 24413 L43346 24375 L43346 24450 "
       id="path648" />
    <path
       d="M43346 24150 L43308 23700 L43346 23663 L43383 23700 L43346 24150 L43346 23663 "
       id="path650" />
    <path
       d="M50944 32450 L50907 32525 L50907 32637 L50944 32750 L51019 32825 L51094 32862 L51244 32900 L51357 32900 L51507 32862 L51582 32825 L51657 32750 L51694 32637 L51694 32562 L51657 32450 L51619 32412 L51357 32412 L51357 32562 "
       id="path652" />
    <path
       d="M51694 32075 L50907 32075 L51694 31625 L50907 31625 "
       id="path654" />
    <path
       d="M51694 31250 L50907 31250 L50907 31062 L50944 30950 L51019 30875 L51094 30838 L51244 30800 L51357 30800 L51507 30838 L51582 30875 L51657 30950 L51694 31062 L51694 31250 "
       id="path656" />
    <path
       d="M56424 34647 L56049 34647 L56012 35022 L56049 34985 L56124 34947 L56312 34947 L56387 34985 L56424 35022 L56462 35097 L56462 35284 L56424 35359 L56387 35397 L56312 35434 L56124 35434 L56049 35397 L56012 35359 "
       id="path658" />
    <path
       d="M56687 34647 L56949 35434 L57212 34647 "
       id="path660" />
    <path
       d="M60789 35414 L60789 34926 L61089 35189 L61089 35076 L61126 35001 L61164 34964 L61239 34926 L61426 34926 L61501 34964 L61539 35001 L61576 35076 L61576 35301 L61539 35376 L61501 35414 "
       id="path662" />
    <path
       d="M61501 34589 L61539 34551 L61576 34589 L61539 34626 L61501 34589 L61576 34589 "
       id="path664" />
    <path
       d="M60789 34289 L60789 33802 L61089 34064 L61089 33952 L61126 33877 L61164 33839 L61239 33802 L61426 33802 L61501 33839 L61539 33877 L61576 33952 L61576 34176 L61539 34251 L61501 34289 "
       id="path666" />
    <path
       d="M60789 33577 L61576 33314 L60789 33052 "
       id="path668" />
    <path
       d="M49473 34450 L49023 34450 "
       id="path670" />
    <path
       d="M49248 34450 L49248 33663 L49173 33775 L49098 33850 L49023 33888 "
       id="path672" />
    <path
       d="M49773 33738 L49810 33700 L49885 33663 L50073 33663 L50148 33700 L50185 33738 L50223 33813 L50223 33888 L50185 34000 L49735 34450 L50223 34450 "
       id="path674" />
    <path
       d="M50448 33663 L50710 34450 L50973 33663 "
       id="path676" />
    <path
       d="M44242 33663 L44505 34450 L44767 33663 "
       id="path678" />
    <path
       d="M44992 34225 L45367 34225 "
       id="path680" />
    <path
       d="M44917 34450 L45179 33663 L45442 34450 "
       id="path682" />
    <path
       d="M46154 34450 L45892 34075 "
       id="path684" />
    <path
       d="M45704 34450 L45704 33663 L46004 33663 L46079 33700 L46117 33738 L46154 33813 L46154 33925 L46117 34000 L46079 34038 L46004 34075 L45704 34075 "
       id="path686" />
  </g>
  <g
     style="fill:#008484; fill-opacity:0.0;  stroke:#008484; stroke-width:80; stroke-opacity:1;  stroke-linecap:round; stroke-linejoin:round;"
     id="g688">
    <path
       d="M50030 25717 L50030 27117 "
       id="path690" />
    <path
       d="M50030 27117 L47450 27117 "
       id="path692" />
    <path
       d="M47450 27117 L47450 25717 "
       id="path694" />
    <path
       d="M47450 25717 L50030 25717 "
       id="path696" />
  </g>
  <g
     style="fill:#008484; fill-opacity:0.0;  stroke:#008484; stroke-width:150; stroke-opacity:1;  stroke-linecap:round; stroke-linejoin:round;"
     id="g698">
    <path
       d="M51377 23464 L51377 24015 "
       id="path700" />
    <path
       d="M51377 24015 L50039 24015 "
       id="path702" />
    <path
       d="M50039 24015 L50039 23464 "
       id="path704" />
    <path
       d="M50708 19684 L59212 19684 "
       id="path706" />
    <path
       d="M59212 19684 L59212 23464 "
       id="path708" />
    <path
       d="M59212 23464 L42204 23464 "
       id="path710" />
    <path
       d="M42204 23464 L42204 19684 "
       id="path712" />
    <path
       d="M42204 19684 L50708 19684 "
       id="path714" />
  </g>
  <g
     style="fill:#008484; fill-opacity:0.0;  stroke:#008484; stroke-width:59.0551; stroke-opacity:1;  stroke-linecap:round; stroke-linejoin:round;"
     id="g716">
    <path
       d="M43543 24645 L46181 24645 "
       id="path718" />
    <path
       d="M46181 24645 L46181 25275 "
       id="path720" />
    <path
       d="M42047 31141 L42047 31731 "
       id="path722" />
    <path
       d="M42047 31731 L46181 31731 "
       id="path724" />
    <path
       d="M46181 31731 L46181 31141 "
       id="path726" />
    <path
       d="M42047 25826 L41260 25826 "
       id="path728" />
    <path
       d="M41260 25826 L41260 24645 "
       id="path730" />
    <path
       d="M41260 24645 L43543 24645 "
       id="path732" />
    <path
       d="M43543 24645 L43543 25235 "
       id="path734" />
    <path
       d="M40078 29369 L36141 29369 "
       id="path736" />
    <path
       d="M36141 29369 L36141 27007 "
       id="path738" />
    <path
       d="M36141 27007 L40078 27007 "
       id="path740" />
    <path
       d="M42047 29566 L40078 29566 "
       id="path742" />
    <path
       d="M40078 29566 L40078 26810 "
       id="path744" />
    <path
       d="M40078 26810 L42047 26810 "
       id="path746" />
    <path
       d="M42047 31141 L46181 31141 "
       id="path748" />
    <path
       d="M46181 31141 L46181 25235 "
       id="path750" />
    <path
       d="M46181 25235 L42047 25235 "
       id="path752" />
    <path
       d="M42047 25235 L42047 31141 "
       id="path754" />
    <path
       d="M51259 28011 L51534 28011 "
       id="path756" />
    <path
       d="M50865 28011 L50590 28011 "
       id="path758" />
    <path
       d="M51259 27499 L51534 27499 "
       id="path760" />
    <path
       d="M50590 27499 L50865 27499 "
       id="path762" />
    <path
       d="M51534 27505 L51534 28005 "
       id="path764" />
    <path
       d="M50590 28005 L50590 27505 "
       id="path766" />
    <circle
       cx="47111"
       cy="27067.3"
       r="50"
       id="circle768" />
    <path
       d="M47111 26617 L47111 27017 "
       id="path770" />
    <path
       d="M47111 27017 L46511 27017 "
       id="path772" />
    <path
       d="M46511 27017 L46511 26617 "
       id="path774" />
    <path
       d="M46511 26217 L46511 25817 "
       id="path776" />
    <path
       d="M46511 25817 L47111 25817 "
       id="path778" />
    <path
       d="M47111 25817 L47111 26217 "
       id="path780" />
    <circle
       cx="49979.9"
       cy="25378.7"
       r="50"
       id="circle782" />
    <path
       d="M50429 25378 L50029 25378 "
       id="path784" />
    <path
       d="M50029 25378 L50029 24778 "
       id="path786" />
    <path
       d="M50029 24778 L50429 24778 "
       id="path788" />
    <path
       d="M50829 24778 L51229 24778 "
       id="path790" />
    <path
       d="M51229 24778 L51229 25378 "
       id="path792" />
    <path
       d="M51229 25378 L50829 25378 "
       id="path794" />
    <path
       d="M55098 25885 L54744 25885 "
       id="path796" />
    <path
       d="M54744 25885 L54744 26042 "
       id="path798" />
    <path
       d="M55098 26042 L54744 26042 "
       id="path800" />
    <path
       d="M55098 25885 L55098 26042 "
       id="path802" />
    <path
       d="M55098 25374 L54744 25374 "
       id="path804" />
    <path
       d="M54744 25374 L54744 25531 "
       id="path806" />
    <path
       d="M55098 25531 L54744 25531 "
       id="path808" />
    <path
       d="M55098 25374 L55098 25531 "
       id="path810" />
    <path
       d="M55098 25708 L55039 25708 "
       id="path812" />
    <path
       d="M55039 25708 L55039 25826 "
       id="path814" />
    <path
       d="M55098 25826 L55039 25826 "
       id="path816" />
    <path
       d="M55098 25708 L55098 25826 "
       id="path818" />
    <path
       d="M54803 25708 L54744 25708 "
       id="path820" />
    <path
       d="M54744 25708 L54744 25826 "
       id="path822" />
    <path
       d="M54803 25826 L54744 25826 "
       id="path824" />
    <path
       d="M54803 25708 L54803 25826 "
       id="path826" />
    <path
       d="M54980 25708 L54862 25708 "
       id="path828" />
    <path
       d="M54862 25708 L54862 25826 "
       id="path830" />
    <path
       d="M54980 25826 L54862 25826 "
       id="path832" />
    <path
       d="M54980 25708 L54980 25826 "
       id="path834" />
    <path
       d="M55078 25885 L55078 25531 "
       id="path836" />
    <path
       d="M54764 25885 L54764 25531 "
       id="path838" />
    <path
       d="M55885 25885 L55531 25885 "
       id="path840" />
    <path
       d="M55531 25885 L55531 26042 "
       id="path842" />
    <path
       d="M55885 26042 L55531 26042 "
       id="path844" />
    <path
       d="M55885 25885 L55885 26042 "
       id="path846" />
    <path
       d="M55885 25374 L55531 25374 "
       id="path848" />
    <path
       d="M55531 25374 L55531 25531 "
       id="path850" />
    <path
       d="M55885 25531 L55531 25531 "
       id="path852" />
    <path
       d="M55885 25374 L55885 25531 "
       id="path854" />
    <path
       d="M55885 25708 L55826 25708 "
       id="path856" />
    <path
       d="M55826 25708 L55826 25826 "
       id="path858" />
    <path
       d="M55885 25826 L55826 25826 "
       id="path860" />
    <path
       d="M55885 25708 L55885 25826 "
       id="path862" />
    <path
       d="M55590 25708 L55531 25708 "
       id="path864" />
    <path
       d="M55531 25708 L55531 25826 "
       id="path866" />
    <path
       d="M55590 25826 L55531 25826 "
       id="path868" />
    <path
       d="M55590 25708 L55590 25826 "
       id="path870" />
    <path
       d="M55767 25708 L55649 25708 "
       id="path872" />
    <path
       d="M55649 25708 L55649 25826 "
       id="path874" />
    <path
       d="M55767 25826 L55649 25826 "
       id="path876" />
    <path
       d="M55767 25708 L55767 25826 "
       id="path878" />
    <path
       d="M55865 25885 L55865 25531 "
       id="path880" />
    <path
       d="M55551 25885 L55551 25531 "
       id="path882" />
    <path
       d="M58835 29236 L57935 29236 "
       id="path884" />
    <path
       d="M57935 29236 L57935 29886 "
       id="path886" />
    <path
       d="M58835 30586 L58835 31236 "
       id="path888" />
    <path
       d="M58835 31236 L57935 31236 "
       id="path890" />
    <path
       d="M57935 31236 L57935 30586 "
       id="path892" />
    <path
       d="M58835 29886 L58835 29236 "
       id="path894" />
    <path
       d="M58606 33605 L58606 34505 "
       id="path896" />
    <path
       d="M58606 34505 L59256 34505 "
       id="path898" />
    <path
       d="M59956 33605 L60606 33605 "
       id="path900" />
    <path
       d="M60606 33605 L60606 34505 "
       id="path902" />
    <path
       d="M60606 34505 L59956 34505 "
       id="path904" />
    <path
       d="M59256 33605 L58606 33605 "
       id="path906" />
    <path
       d="M54655 27204 L54655 26811 "
       id="path908" />
    <path
       d="M55187 26811 L55187 27204 "
       id="path910" />
    <path
       d="M55442 27204 L55442 26811 "
       id="path912" />
    <path
       d="M55974 26811 L55974 27204 "
       id="path914" />
    <path
       d="M48070 28750 L48464 28750 "
       id="path916" />
    <path
       d="M48464 29281 L48070 29281 "
       id="path918" />
    <path
       d="M48481 32228 L47581 32228 "
       id="path920" />
    <path
       d="M47581 32228 L47581 32878 "
       id="path922" />
    <path
       d="M48481 33578 L48481 34228 "
       id="path924" />
    <path
       d="M48481 34228 L47581 34228 "
       id="path926" />
    <path
       d="M47581 34228 L47581 33578 "
       id="path928" />
    <path
       d="M48481 32878 L48481 32228 "
       id="path930" />
    <path
       d="M43678 32228 L42778 32228 "
       id="path932" />
    <path
       d="M42778 32228 L42778 32878 "
       id="path934" />
    <path
       d="M43678 33578 L43678 34228 "
       id="path936" />
    <path
       d="M43678 34228 L42778 34228 "
       id="path938" />
    <path
       d="M42778 34228 L42778 33578 "
       id="path940" />
    <path
       d="M43678 32878 L43678 32228 "
       id="path942" />
    <path
       d="M53609 29208 L53751 29787 "
       id="path944" />
    <path
       d="M53751 29787 L53861 29369 "
       id="path946" />
    <path
       d="M53861 29369 L53983 29791 "
       id="path948" />
    <path
       d="M53983 29791 L54117 29220 "
       id="path950" />
    <path
       d="M53050 29480 L53361 29476 "
       id="path952" />
    <path
       d="M53361 29476 L53365 29480 "
       id="path954" />
    <path
       d="M53365 29480 L53365 29476 "
       id="path956" />
    <path
       d="M53381 29196 L53381 29803 "
       id="path958" />
    <path
       d="M53031 29192 L53031 29810 "
       id="path960" />
    <path
       d="M53031 29810 L53035 29806 "
       id="path962" />
    <path
       d="M52814 29232 L52676 29200 "
       id="path964" />
    <path
       d="M52676 29200 L52550 29196 "
       id="path966" />
    <path
       d="M52550 29196 L52456 29275 "
       id="path968" />
    <path
       d="M52456 29275 L52444 29381 "
       id="path970" />
    <path
       d="M52444 29381 L52539 29476 "
       id="path972" />
    <path
       d="M52539 29476 L52692 29527 "
       id="path974" />
    <path
       d="M52692 29527 L52763 29590 "
       id="path976" />
    <path
       d="M52763 29590 L52779 29708 "
       id="path978" />
    <path
       d="M52779 29708 L52688 29795 "
       id="path980" />
    <path
       d="M52688 29795 L52562 29806 "
       id="path982" />
    <path
       d="M52562 29806 L52424 29763 "
       id="path984" />
    <path
       d="M52015 29192 L51917 29200 "
       id="path986" />
    <path
       d="M51917 29200 L51822 29295 "
       id="path988" />
    <path
       d="M51822 29295 L51787 29488 "
       id="path990" />
    <path
       d="M51787 29488 L51798 29625 "
       id="path992" />
    <path
       d="M51798 29625 L51877 29751 "
       id="path994" />
    <path
       d="M51877 29751 L51976 29799 "
       id="path996" />
    <path
       d="M51976 29799 L52098 29771 "
       id="path998" />
    <path
       d="M52098 29771 L52184 29700 "
       id="path1000" />
    <path
       d="M52184 29700 L52212 29519 "
       id="path1002" />
    <path
       d="M52212 29519 L52192 29358 "
       id="path1004" />
    <path
       d="M52192 29358 L52149 29247 "
       id="path1006" />
    <path
       d="M52149 29247 L52007 29196 "
       id="path1008" />
    <path
       d="M52251 28515 L52149 28736 "
       id="path1010" />
    <path
       d="M52149 28736 L52361 28940 "
       id="path1012" />
    <path
       d="M52361 28940 L52566 28834 "
       id="path1014" />
    <path
       d="M52566 28834 L52676 28897 "
       id="path1016" />
    <path
       d="M53243 28889 L53373 28814 "
       id="path1018" />
    <path
       d="M53373 28814 L53546 28944 "
       id="path1020" />
    <path
       d="M53546 28944 L53732 28751 "
       id="path1022" />
    <path
       d="M53732 28751 L53621 28562 "
       id="path1024" />
    <path
       d="M53621 28562 L53696 28377 "
       id="path1026" />
    <path
       d="M53696 28377 L53936 28303 "
       id="path1028" />
    <path
       d="M53936 28303 L53936 28035 "
       id="path1030" />
    <path
       d="M53936 28035 L53716 27980 "
       id="path1032" />
    <path
       d="M53716 27980 L53637 27755 "
       id="path1034" />
    <path
       d="M53637 27755 L53743 27570 "
       id="path1036" />
    <path
       d="M53743 27570 L53558 27369 "
       id="path1038" />
    <path
       d="M53558 27369 L53354 27472 "
       id="path1040" />
    <path
       d="M53354 27472 L53169 27393 "
       id="path1042" />
    <path
       d="M53169 27393 L53102 27180 "
       id="path1044" />
    <path
       d="M53102 27180 L52830 27173 "
       id="path1046" />
    <path
       d="M52830 27173 L52747 27389 "
       id="path1048" />
    <path
       d="M52747 27389 L52582 27456 "
       id="path1050" />
    <path
       d="M52582 27456 L52365 27350 "
       id="path1052" />
    <path
       d="M52365 27350 L52161 27558 "
       id="path1054" />
    <path
       d="M52161 27558 L52259 27771 "
       id="path1056" />
    <path
       d="M52259 27771 L52192 27960 "
       id="path1058" />
    <path
       d="M52192 27960 L51976 27999 "
       id="path1060" />
    <path
       d="M51976 27999 L51972 28275 "
       id="path1062" />
    <path
       d="M51972 28275 L52192 28354 "
       id="path1064" />
    <path
       d="M52192 28354 L52247 28511 "
       id="path1066" />
    <path
       d="M53090 28503 L53208 28444 "
       id="path1068" />
    <path
       d="M53208 28444 L53287 28366 "
       id="path1070" />
    <path
       d="M53287 28366 L53346 28208 "
       id="path1072" />
    <path
       d="M53346 28208 L53346 28051 "
       id="path1074" />
    <path
       d="M53346 28051 L53287 27913 "
       id="path1076" />
    <path
       d="M53287 27913 L53109 27775 "
       id="path1078" />
    <path
       d="M53109 27775 L52932 27755 "
       id="path1080" />
    <path
       d="M52932 27755 L52775 27795 "
       id="path1082" />
    <path
       d="M52775 27795 L52617 27932 "
       id="path1084" />
    <path
       d="M52617 27932 L52558 28110 "
       id="path1086" />
    <path
       d="M52558 28110 L52578 28306 "
       id="path1088" />
    <path
       d="M52578 28306 L52676 28425 "
       id="path1090" />
    <path
       d="M52676 28425 L52814 28503 "
       id="path1092" />
    <path
       d="M52814 28503 L52676 28897 "
       id="path1094" />
    <path
       d="M53090 28503 L53247 28897 "
       id="path1096" />
    <path
       d="M58188 24212 L61732 24212 "
       id="path1098" />
    <path
       d="M61732 24212 L61732 25551 "
       id="path1100" />
    <path
       d="M61732 25551 L58188 25551 "
       id="path1102" />
    <path
       d="M58188 25551 L58188 24212 "
       id="path1104" />
  </g>
  <g
     style="fill:#008484; fill-opacity:0.0;  stroke:#008484; stroke-width:100; stroke-opacity:1;  stroke-linecap:round; stroke-linejoin:round;"
     id="g1106">
    <path
       d="M64720 32440 L64720 26614 "
       id="path1108" />
  </g>
  <g
     style="fill:#008484; fill-opacity:0.0;  stroke:#008484; stroke-width:60; stroke-opacity:1;  stroke-linecap:round; stroke-linejoin:round;"
     id="g1110">
    <path
       d="M64141 28027 L61838 27527 "
       id="path1112" />
  </g>
  <g
     style="fill:#008484; fill-opacity:0.0;  stroke:#008484; stroke-width:100; stroke-opacity:1;  stroke-linecap:round; stroke-linejoin:round;"
     id="g1114">
    <path
       d="M64720 26614 L59090 26614 "
       id="path1116" />
    <path
       d="M59090 26614 L59090 32440 "
       id="path1118" />
    <path
       d="M59090 32440 L64720 32440 "
       id="path1120" />
  </g>
  <g
     style="fill:#008484; fill-opacity:0.0;  stroke:#008484; stroke-width:60; stroke-opacity:1;  stroke-linecap:round; stroke-linejoin:round;"
     id="g1122">
    <path
       d="M61838 31527 L64141 31027 "
       id="path1124" />
    <path
       d="M64141 31027 L64141 30527 "
       id="path1126" />
    <path
       d="M64141 30527 L61838 30027 "
       id="path1128" />
    <path
       d="M61838 29027 L64141 28527 "
       id="path1130" />
    <path
       d="M64141 28527 L64141 28027 "
       id="path1132" />
  </g>
  <g
     style="fill:#008484; fill-opacity:1.0;  stroke:#008484; stroke-width:50; stroke-opacity:1;  stroke-linecap:round; stroke-linejoin:round;"
     id="g1134">
    <polyline
       style="fill-rule:evenodd;"
       points="45479,32495 45829,32795 45479,33095 45479,32495 "
       id="polyline1136" />
  </g>
  <g
     style="fill:#008484; fill-opacity:0.0;  stroke:#008484; stroke-width:50; stroke-opacity:1;  stroke-linecap:round; stroke-linejoin:round;"
     id="g1138">
    <path
       d="M44785 32263 L46474 32263 "
       id="path1140" />
    <path
       d="M46474 32263 L46474 33326 "
       id="path1142" />
    <path
       d="M46474 33326 L44785 33326 "
       id="path1144" />
    <path
       d="M44785 33326 L44785 32263 "
       id="path1146" />
  </g>
  <g
     style="fill:#008484; fill-opacity:1.0;  stroke:#008484; stroke-width:50; stroke-opacity:1;  stroke-linecap:round; stroke-linejoin:round;"
     id="g1148">
    <polyline
       style="fill-rule:evenodd;"
       points="47842,30408 48192,30708 47842,31008 47842,30408 "
       id="polyline1150" />
  </g>
  <g
     style="fill:#008484; fill-opacity:0.0;  stroke:#008484; stroke-width:50; stroke-opacity:1;  stroke-linecap:round; stroke-linejoin:round;"
     id="g1152">
    <path
       d="M47147 30177 L48836 30177 "
       id="path1154" />
    <path
       d="M48836 30177 L48836 31240 "
       id="path1156" />
    <path
       d="M48836 31240 L47147 31240 "
       id="path1158" />
    <path
       d="M47147 31240 L47147 30177 "
       id="path1160" />
  </g>
  <g
     style="fill:#008484; fill-opacity:0.0;  stroke:#008484; stroke-width:39.3701; stroke-opacity:1;  stroke-linecap:round; stroke-linejoin:round;"
     id="g1162">
    <path
       d="M48677 24357 L48677 24556 L48689 24580 L48701 24591 L48724 24603 L48771 24603 L48794 24591 L48806 24580 L48818 24556 L48818 24357 "
       id="path1164" />
    <path
       d="M49064 24603 L48923 24603 "
       id="path1166" />
    <path
       d="M48994 24603 L48994 24357 L48970 24392 L48947 24416 L48923 24427 "
       id="path1168" />
  </g>
  <g
     style="fill:#008484; fill-opacity:0.0;  stroke:#008484; stroke-width:59.0551; stroke-opacity:1;  stroke-linecap:round; stroke-linejoin:round;"
     id="g1170">
    <path
       d="M44923 27304 L44791 27116 "
       id="path1172" />
    <path
       d="M44698 27304 L44698 26910 L44848 26910 L44885 26929 L44904 26947 L44923 26985 L44923 27041 L44904 27079 L44885 27097 L44848 27116 L44698 27116 "
       id="path1174" />
    <path
       d="M45035 26910 L45166 27304 L45298 26910 "
       id="path1176" />
    <path
       d="M45635 27304 L45410 27304 "
       id="path1178" />
    <path
       d="M45523 27304 L45523 26910 L45485 26966 L45448 27004 L45410 27022 "
       id="path1180" />
    <path
       d="M50997 28526 L50978 28545 L50922 28563 L50884 28563 L50828 28545 L50791 28507 L50772 28470 L50753 28395 L50753 28338 L50772 28263 L50791 28226 L50828 28188 L50884 28170 L50922 28170 L50978 28188 L50997 28207 "
       id="path1182" />
    <path
       d="M51372 28563 L51147 28563 "
       id="path1184" />
    <path
       d="M51259 28563 L51259 28170 L51222 28226 L51184 28263 L51147 28282 "
       id="path1186" />
    <path
       d="M46400 26482 L46419 26501 L46437 26557 L46437 26595 L46419 26651 L46381 26689 L46344 26707 L46269 26726 L46212 26726 L46137 26707 L46100 26689 L46062 26651 L46044 26595 L46044 26557 L46062 26501 L46081 26482 "
       id="path1188" />
    <path
       d="M46081 26332 L46062 26314 L46044 26276 L46044 26182 L46062 26145 L46081 26126 L46119 26107 L46156 26107 L46212 26126 L46437 26351 L46437 26107 "
       id="path1190" />
    <path
       d="M50564 24628 L50545 24647 L50489 24666 L50451 24666 L50395 24647 L50358 24610 L50339 24572 L50320 24497 L50320 24441 L50339 24366 L50358 24328 L50395 24291 L50451 24272 L50489 24272 L50545 24291 L50564 24310 "
       id="path1192" />
    <path
       d="M50695 24272 L50939 24272 L50808 24422 L50864 24422 L50901 24441 L50920 24460 L50939 24497 L50939 24591 L50920 24628 L50901 24647 L50864 24666 L50751 24666 L50714 24647 L50695 24628 "
       id="path1194" />
    <path
       d="M54351 25999 L53957 25999 L53957 25905 L53976 25849 L54013 25811 L54051 25793 L54126 25774 L54182 25774 L54257 25793 L54295 25811 L54332 25849 L54351 25905 L54351 25999 "
       id="path1196" />
    <path
       d="M54351 25399 L54351 25624 "
       id="path1198" />
    <path
       d="M54351 25511 L53957 25511 L54013 25549 L54051 25586 L54070 25624 "
       id="path1200" />
    <path
       d="M56634 26196 L56241 26196 L56241 26102 L56259 26046 L56297 26008 L56334 25989 L56409 25971 L56466 25971 L56541 25989 L56578 26008 L56616 26046 L56634 26102 L56634 26196 "
       id="path1202" />
    <path
       d="M56278 25821 L56259 25802 L56241 25764 L56241 25671 L56259 25633 L56278 25614 L56316 25596 L56353 25596 L56409 25614 L56634 25839 L56634 25596 "
       id="path1204" />
    <path
       d="M58357 30367 L58357 30498 "
       id="path1206" />
    <path
       d="M58563 30498 L58170 30498 L58170 30311 "
       id="path1208" />
    <path
       d="M58207 30179 L58188 30161 L58170 30123 L58170 30029 L58188 29992 L58207 29973 L58245 29955 L58282 29955 L58338 29973 L58563 30198 L58563 29955 "
       id="path1210" />
    <path
       d="M59475 34026 L59343 34026 "
       id="path1212" />
    <path
       d="M59343 34233 L59343 33839 L59531 33839 "
       id="path1214" />
    <path
       d="M59643 33839 L59887 33839 L59756 33989 L59812 33989 L59850 34008 L59868 34026 L59887 34064 L59887 34158 L59868 34195 L59850 34214 L59812 34233 L59700 34233 L59662 34214 L59643 34195 "
       id="path1216" />
    <path
       d="M54351 27073 L54163 27204 "
       id="path1218" />
    <path
       d="M54351 27298 L53957 27298 L53957 27148 L53976 27110 L53995 27092 L54032 27073 L54088 27073 L54126 27092 L54145 27110 L54163 27148 L54163 27298 "
       id="path1220" />
    <path
       d="M54351 26698 L54351 26923 "
       id="path1222" />
    <path
       d="M54351 26811 L53957 26811 L54013 26848 L54051 26886 L54070 26923 "
       id="path1224" />
    <path
       d="M56634 26758 L56447 26889 "
       id="path1226" />
    <path
       d="M56634 26983 L56241 26983 L56241 26833 L56259 26796 L56278 26777 L56316 26758 L56372 26758 L56409 26777 L56428 26796 L56447 26833 L56447 26983 "
       id="path1228" />
    <path
       d="M56278 26608 L56259 26589 L56241 26552 L56241 26458 L56259 26421 L56278 26402 L56316 26383 L56353 26383 L56409 26402 L56634 26627 L56634 26383 "
       id="path1230" />
    <path
       d="M48202 28682 L48070 28494 "
       id="path1232" />
    <path
       d="M47977 28682 L47977 28288 L48127 28288 L48164 28307 L48183 28325 L48202 28363 L48202 28419 L48183 28457 L48164 28475 L48127 28494 L47977 28494 "
       id="path1234" />
    <path
       d="M48333 28288 L48577 28288 L48445 28438 L48502 28438 L48539 28457 L48558 28475 L48577 28513 L48577 28607 L48558 28644 L48539 28663 L48502 28682 L48389 28682 L48352 28663 L48333 28644 "
       id="path1236" />
    <path
       d="M48003 33359 L48003 33490 "
       id="path1238" />
    <path
       d="M48209 33490 L47815 33490 L47815 33303 "
       id="path1240" />
    <path
       d="M48209 32947 L48209 33172 "
       id="path1242" />
    <path
       d="M48209 33059 L47815 33059 L47872 33097 L47909 33134 L47928 33172 "
       id="path1244" />
    <path
       d="M43200 33359 L43200 33490 "
       id="path1246" />
    <path
       d="M43406 33490 L43012 33490 L43012 33303 "
       id="path1248" />
    <path
       d="M43143 32984 L43406 32984 "
       id="path1250" />
    <path
       d="M42994 33078 L43275 33172 L43275 32928 "
       id="path1252" />
  </g>
  <g
     style="fill:#008484; fill-opacity:0.0;  stroke:#008484; stroke-width:39.3701; stroke-opacity:1;  stroke-linecap:round; stroke-linejoin:round;"
     id="g1254">
    <path
       d="M60411 30686 L60544 31086 L60678 30686 "
       id="path1256" />
    <path
       d="M61040 31048 L61021 31067 L60963 31086 L60925 31086 L60868 31067 L60830 31029 L60811 30991 L60792 30915 L60792 30857 L60811 30781 L60830 30743 L60868 30705 L60925 30686 L60963 30686 L61021 30705 L61040 30724 "
       id="path1258" />
    <path
       d="M61440 31048 L61421 31067 L61363 31086 L61325 31086 L61268 31067 L61230 31029 L61211 30991 L61192 30915 L61192 30857 L61211 30781 L61230 30743 L61268 30705 L61325 30686 L61363 30686 L61421 30705 L61440 30724 "
       id="path1260" />
    <path
       d="M60592 30102 L60592 29702 L60687 29702 L60744 29721 L60782 29759 L60802 29797 L60821 29873 L60821 29930 L60802 30006 L60782 30045 L60744 30083 L60687 30102 L60592 30102 "
       id="path1262" />
    <path
       d="M60992 29949 L61297 29949 "
       id="path1264" />
    <path
       d="M60592 29354 L60592 28954 L60687 28954 L60744 28973 L60782 29011 L60802 29049 L60821 29125 L60821 29182 L60802 29258 L60782 29297 L60744 29335 L60687 29354 L60592 29354 "
       id="path1266" />
    <path
       d="M60992 29201 L61297 29201 "
       id="path1268" />
    <path
       d="M61144 29354 L61144 29049 "
       id="path1270" />
    <path
       d="M60640 27988 L60602 27969 L60544 27969 L60487 27988 L60449 28027 L60430 28065 L60411 28141 L60411 28198 L60430 28274 L60449 28312 L60487 28350 L60544 28369 L60582 28369 L60640 28350 L60659 28331 L60659 28198 L60582 28198 "
       id="path1272" />
    <path
       d="M60830 28369 L60830 27969 L61059 28369 L61059 27969 "
       id="path1274" />
    <path
       d="M61249 28369 L61249 27969 L61344 27969 L61402 27988 L61440 28027 L61459 28065 L61478 28141 L61478 28198 L61459 28274 L61440 28312 L61402 28350 L61344 28369 L61249 28369 "
       id="path1276" />
    <path
       d="M45573 32081 L45573 31835 L45631 31835 L45667 31847 L45690 31870 L45702 31894 L45713 31940 L45713 31976 L45702 32023 L45690 32046 L45667 32069 L45631 32081 L45573 32081 "
       id="path1278" />
    <path
       d="M45795 31835 L45948 31835 L45866 31929 L45901 31929 L45924 31940 L45936 31952 L45948 31976 L45948 32034 L45936 32058 L45924 32069 L45901 32081 L45831 32081 L45807 32069 L45795 32058 "
       id="path1280" />
    <path
       d="M47935 29994 L47935 29748 L47994 29748 L48029 29760 L48052 29784 L48064 29807 L48076 29854 L48076 29889 L48064 29936 L48052 29959 L48029 29983 L47994 29994 L47935 29994 "
       id="path1282" />
    <path
       d="M48287 29830 L48287 29994 "
       id="path1284" />
    <path
       d="M48228 29737 L48169 29912 L48322 29912 "
       id="path1286" />
  </g>
  <g
     style="fill:#C2C200; fill-opacity:0.0;  stroke:#C2C200; stroke-width:59.0551; stroke-opacity:1;  stroke-linecap:round; stroke-linejoin:round;"
     id="g1288">
    <path
       d="M61732 39251 L61732 19527 "
       id="path1290" />
    <path
       d="M42047 39251 L61732 39251 "
       id="path1292" />
    <path
       d="M42047 19527 L42047 39251 "
       id="path1294" />
    <path
       d="M61732 19527 L42047 19527 "
       id="path1296" />
  </g>
  <path
     style="fill:none;stroke:#000000;stroke-width:2.00000001999999988;stroke-linecap:butt;stroke-linejoin:miter;stroke-opacity:1;stroke-miterlimit:4;stroke-dasharray:none;marker-end:url(#Arrow1Mend)"
     d="m 588.61709,221.41803 -43.6548,1.44553"
     id="path4281"
     inkscape:connector-curvature="0"
     transform="matrix(111.11122,0,0,111.11122,-0.01696817,0)" />
  <text
     xml:space="preserve"
     style="font-size:1273.52636719px;font-style:normal;font-variant:normal;font-weight:normal;font-stretch:normal;line-height:125%;letter-spacing:0px;word-spacing:0px;fill:#000000;fill-opacity:1;stroke:none;font-family:DejaVu Sans;-inkscape-font-specification:DejaVu Sans"
     x="65552.445"
     y="24940.035"
     id="text5495"
     sodipodi:linespacing="125%"><tspan
       sodipodi:role="line"
       id="tspan5497"
       x="65552.445"
       y="24940.035">on/off</tspan></text>
  <path
     inkscape:connector-curvature="0"
     id="path5499"
     d="m 67600.471,29277.051 -4850.538,160.615"
     style="fill:none;stroke:#000000;stroke-width:222.22244263;stroke-linecap:butt;stroke-linejoin:miter;stroke-miterlimit:4;stroke-opacity:1;stroke-dasharray:none;marker-end:url(#Arrow1Mend)" />
  <text
     sodipodi:linespacing="125%"
     id="text5501"
     y="28907.486"
     x="67548.805"
     style="font-size:1273.52636719px;font-style:normal;font-variant:normal;font-weight:normal;font-stretch:normal;line-height:125%;letter-spacing:0px;word-spacing:0px;fill:#000000;fill-opacity:1;stroke:none;font-family:DejaVu Sans;-inkscape-font-specification:DejaVu Sans"
     xml:space="preserve"><tspan
       y="28907.486"
       x="67548.805"
       id="tspan5503"
       sodipodi:role="line">connecteur</tspan><tspan
       y="30499.395"
       x="67548.805"
       sodipodi:role="line"
       id="tspan5505">USB A</tspan></text>
  <g
     id="g5519"
     transform="translate(-555.94874,101.08159)">
    <path
       sodipodi:nodetypes="cc"
       inkscape:connector-curvature="0"
       id="path5507"
       d="m 59893.294,42063.872 -74.433,-4842.924"
       style="fill:none;stroke:#000000;stroke-width:222.22244263;stroke-linecap:butt;stroke-linejoin:miter;stroke-miterlimit:4;stroke-opacity:1;stroke-dasharray:none;marker-end:url(#Arrow1Mend)" />
    <text
       xml:space="preserve"
       style="font-size:1273.52636719px;font-style:normal;font-variant:normal;font-weight:normal;font-stretch:normal;line-height:125%;letter-spacing:0px;word-spacing:0px;fill:#000000;fill-opacity:1;stroke:none;font-family:DejaVu Sans;-inkscape-font-specification:DejaVu Sans"
       x="57794.434"
       y="43261.07"
       id="text5509"
       sodipodi:linespacing="125%"><tspan
         sodipodi:role="line"
         id="tspan5511"
         x="57794.434"
         y="43261.07">+3.3V</tspan></text>
  </g>
  <path
     sodipodi:nodetypes="cc"
     inkscape:connector-curvature="0"
     id="path5526"
     d="m 54433.219,42164.954 -74.433,-4842.924"
     style="fill:none;stroke:#000000;stroke-width:222.22244263;stroke-linecap:butt;stroke-linejoin:miter;stroke-miterlimit:4;stroke-opacity:1;stroke-dasharray:none;marker-end:url(#Arrow1Mend)" />
  <text
     xml:space="preserve"
     style="font-size:1273.52636719px;font-style:normal;font-variant:normal;font-weight:normal;font-stretch:normal;line-height:125%;letter-spacing:0px;word-spacing:0px;fill:#000000;fill-opacity:1;stroke:none;font-family:DejaVu Sans;-inkscape-font-specification:DejaVu Sans"
     x="52942.516"
     y="43362.152"
     id="text5528"
     sodipodi:linespacing="125%"><tspan
       sodipodi:role="line"
       id="tspan5530"
       x="52942.516"
       y="43362.152">+5V</tspan></text>
  <path
     style="fill:none;stroke:#000000;stroke-width:222.22244263;stroke-linecap:butt;stroke-linejoin:miter;stroke-miterlimit:4;stroke-opacity:1;stroke-dasharray:none;marker-end:url(#Arrow1Mend)"
     d="m 49582.415,42164.954 -74.433,-4842.924"
     id="path5534"
     inkscape:connector-curvature="0"
     sodipodi:nodetypes="cc" />
  <text
     sodipodi:linespacing="125%"
     id="text5536"
     y="43362.152"
     x="47686.273"
     style="font-size:1273.52636719px;font-style:normal;font-variant:normal;font-weight:normal;font-stretch:normal;line-height:125%;letter-spacing:0px;word-spacing:0px;fill:#000000;fill-opacity:1;stroke:none;font-family:DejaVu Sans;-inkscape-font-specification:DejaVu Sans"
     xml:space="preserve"><tspan
       y="43362.152"
       x="47686.273"
       id="tspan5538"
       sodipodi:role="line">+12V</tspan></text>
  <path
     sodipodi:nodetypes="cc"
     inkscape:connector-curvature="0"
     id="path5542"
     d="m 44591.315,42164.954 -74.433,-4842.924"
     style="fill:none;stroke:#000000;stroke-width:222.22244263;stroke-linecap:butt;stroke-linejoin:miter;stroke-miterlimit:4;stroke-opacity:1;stroke-dasharray:none;marker-end:url(#Arrow1Mend)" />
  <text
     xml:space="preserve"
     style="font-size:1273.52636719px;font-style:normal;font-variant:normal;font-weight:normal;font-stretch:normal;line-height:125%;letter-spacing:0px;word-spacing:0px;fill:#000000;fill-opacity:1;stroke:none;font-family:DejaVu Sans;-inkscape-font-specification:DejaVu Sans"
     x="42682.738"
     y="43362.152"
     id="text5544"
     sodipodi:linespacing="125%"><tspan
       sodipodi:role="line"
       id="tspan5546"
       x="42682.738"
       y="43362.152">+VAR</tspan></text>
  <path
     style="fill:none;stroke:#000000;stroke-width:222.22244263;stroke-linecap:butt;stroke-linejoin:miter;stroke-miterlimit:4;stroke-opacity:1;stroke-dasharray:none;marker-end:url(#Arrow1Mend)"
     d="M 63454.751,35544.11 54207.164,32697.547"
     id="path5557"
     inkscape:connector-curvature="0"
     sodipodi:nodetypes="cc" />
  <text
     sodipodi:linespacing="125%"
     id="text5559"
     y="35907.387"
     x="63657.164"
     style="font-size:1273.52636719px;font-style:normal;font-variant:normal;font-weight:normal;font-stretch:normal;line-height:125%;letter-spacing:0px;word-spacing:0px;fill:#000000;fill-opacity:1;stroke:none;font-family:DejaVu Sans;-inkscape-font-specification:DejaVu Sans"
     xml:space="preserve"><tspan
       y="35907.387"
       x="63657.164"
       id="tspan5561"
       sodipodi:role="line">commun</tspan></text>
  <path
     inkscape:connector-curvature="0"
     id="path5563"
     d="m 37097.657,31606.624 1510.779,-3055.782"
     style="fill:none;stroke:#000000;stroke-width:222.22244263;stroke-linecap:butt;stroke-linejoin:miter;stroke-miterlimit:4;stroke-opacity:1;stroke-dasharray:none;marker-end:url(#Arrow1Mend)"
     sodipodi:nodetypes="cc" />
  <text
     xml:space="preserve"
     style="font-size:1273.52636719px;font-style:normal;font-variant:normal;font-weight:normal;font-stretch:normal;line-height:125%;letter-spacing:0px;word-spacing:0px;fill:#000000;fill-opacity:1;stroke:none;font-family:DejaVu Sans;-inkscape-font-specification:DejaVu Sans"
     x="39574.094"
     y="32767.162"
     id="text5565"
     sodipodi:linespacing="125%"><tspan
       id="tspan5569"
       sodipodi:role="line"
       x="39574.094"
       y="32767.162"
       style="text-align:end;text-anchor:end">potentiomtre</tspan><tspan
       sodipodi:role="line"
       x="39574.094"
       y="34359.07"
       id="tspan5573"
       style="text-align:end;text-anchor:end">de rglage</tspan></text>
  <path
     sodipodi:nodetypes="cc"
     style="fill:none;stroke:#000000;stroke-width:222.22244263;stroke-linecap:butt;stroke-linejoin:miter;stroke-miterlimit:4;stroke-opacity:1;stroke-dasharray:none;marker-end:url(#Arrow1Mend)"
     d="m 39277.66,22493.501 8157.998,-840.042"
     id="path5575"
     inkscape:connector-curvature="0" />
  <text
     xml:space="preserve"
     style="font-size:1273.52636719px;font-style:normal;font-variant:normal;font-weight:normal;font-stretch:normal;text-align:end;line-height:125%;letter-spacing:0px;word-spacing:0px;text-anchor:end;fill:#000000;fill-opacity:1;stroke:none;font-family:DejaVu Sans;-inkscape-font-specification:DejaVu Sans"
     x="39069.758"
     y="22081.578"
     id="text5577"
     sodipodi:linespacing="125%"><tspan
       sodipodi:role="line"
       id="tspan5579"
       x="39069.758"
       y="22081.578">connecteur</tspan><tspan
       id="tspan5581"
       sodipodi:role="line"
       x="39069.758"
       y="23673.486">ATX d'alim</tspan></text>
</svg>
